# Blender 5.2.0 LTS
# www.blender.org
mtllib balloonshortyammo.mtl
o RenderMesh_129215333037537
v 0.359957 0.096318 0.003681
v 0.407957 0.075395 0.024605
v 0.407957 0.100000 0.034797
v 0.359957 0.100000 0.005207
v 0.359957 0.103682 0.003681
v 0.407957 0.065203 0.000000
v 0.359957 0.094793 0.000000
v 0.359957 0.096318 -0.003682
v 0.409192 0.069998 0.000000
v 0.407957 0.075395 -0.024606
v 0.407957 0.100000 -0.034798
v 0.359957 0.100000 -0.005207
v 0.359957 0.103682 -0.003682
v 0.409192 0.100000 -0.030002
v 0.407957 0.124605 -0.024606
v 0.409192 0.078786 -0.021215
v 0.409192 0.121214 -0.021215
v 0.407957 0.134797 -0.000000
v 0.359957 0.105207 -0.000000
v 0.409192 0.130002 -0.000000
v 0.407957 0.124605 0.024605
v 0.405198 0.100000 -0.023536
v 0.405198 0.116642 -0.016642
v 0.405198 0.083358 -0.016642
v 0.376562 0.100000 0.000000
v 0.405198 0.123536 -0.000000
v 0.409192 0.121214 0.021214
v 0.405198 0.116642 0.016642
v 0.409192 0.100000 0.030001
v 0.405198 0.100000 0.023535
v 0.405198 0.083358 0.016642
v 0.409192 0.078786 0.021214
v 0.405198 0.076464 0.000000
v -0.007957 0.100000 -0.034798
v 0.040043 0.100000 -0.005207
v 0.040043 0.096318 -0.003682
v 0.040043 0.103682 -0.003682
v -0.007957 0.075395 -0.024606
v -0.007957 0.124605 -0.024606
v -0.007957 0.065203 0.000000
v 0.040043 0.094793 0.000000
v 0.040043 0.096318 0.003681
v -0.009192 0.100000 -0.030002
v -0.009192 0.069998 0.000000
v -0.007957 0.134797 -0.000000
v 0.040043 0.105207 -0.000000
v 0.040043 0.103682 0.003681
v -0.009192 0.130002 -0.000000
v -0.007957 0.124605 0.024605
v -0.009192 0.121214 -0.021215
v -0.009192 0.121214 0.021214
v -0.007957 0.100000 0.034797
v 0.040043 0.100000 0.005206
v -0.009192 0.100000 0.030001
v -0.007957 0.075395 0.024605
v -0.005198 0.123536 -0.000000
v -0.005198 0.116642 0.016642
v -0.005198 0.116642 -0.016643
v 0.023438 0.100000 0.000000
v -0.005198 0.100000 0.023535
v -0.005198 0.100000 -0.023536
v -0.005198 0.083358 -0.016643
v -0.009192 0.078786 -0.021215
v -0.005198 0.076464 0.000000
v -0.005198 0.083358 0.016642
v -0.009192 0.078786 0.021214
v 0.035470 0.100000 0.028931
v 0.051858 0.062200 0.037800
v 0.051858 0.100000 0.053457
v 0.097901 0.100000 0.069845
v 0.051858 0.137800 0.037800
v 0.035470 0.079543 0.020457
v 0.035470 0.120457 0.020457
v 0.029715 0.100000 0.000000
v 0.035470 0.128931 -0.000000
v 0.051858 0.153457 -0.000000
v 0.035470 0.120457 -0.020457
v 0.051858 0.137800 -0.037800
v 0.097901 0.169845 -0.000000
v 0.097901 0.149388 0.049388
v 0.035470 0.100000 -0.028931
v 0.035470 0.079543 -0.020457
v 0.051858 0.100000 -0.053457
v 0.035470 0.071069 0.000000
v 0.051858 0.062200 -0.037800
v 0.051858 0.046543 0.000000
v 0.097901 0.030155 0.000000
v 0.097901 0.050612 0.049388
v 0.097901 0.100000 -0.069845
v 0.097901 0.050612 -0.049388
v 0.147339 0.100000 0.075600
v 0.147339 0.024400 0.000000
v 0.147339 0.046543 0.053457
v 0.147339 0.046543 -0.053457
v 0.147339 0.100000 -0.075600
v 0.097901 0.149388 -0.049388
v 0.249168 0.024400 0.000000
v 0.147339 0.175600 -0.000000
v 0.147339 0.153457 -0.053457
v 0.249169 0.100000 -0.075600
v 0.147339 0.153457 0.053457
v 0.249169 0.153457 -0.053458
v 0.249169 0.175600 -0.000000
v 0.249169 0.153457 0.053457
v 0.249169 0.100000 0.075600
v 0.298606 0.149388 0.049388
v 0.298606 0.149388 -0.049388
v 0.298606 0.169845 -0.000000
v 0.249169 0.046543 0.053457
v 0.298606 0.050612 0.049388
v 0.298606 0.100000 0.069845
v 0.344650 0.137800 0.037800
v 0.344650 0.062200 0.037800
v 0.344650 0.100000 0.053457
v 0.298606 0.030155 0.000000
v 0.344650 0.153457 -0.000000
v 0.344650 0.137800 -0.037800
v 0.361038 0.128931 -0.000000
v 0.361038 0.120457 0.020457
v 0.298606 0.100000 -0.069846
v 0.361038 0.120457 -0.020458
v 0.361038 0.100000 0.028931
v 0.366792 0.100000 0.000000
v 0.361038 0.079543 0.020457
v 0.361038 0.071069 0.000000
v 0.344650 0.046543 0.000000
v 0.344650 0.062200 -0.037800
v 0.361038 0.079543 -0.020458
v 0.361038 0.100000 -0.028931
v 0.344650 0.100000 -0.053458
v 0.298606 0.050612 -0.049388
v 0.249169 0.046543 -0.053458
vn -0.5251 -0.6016 0.6019
vn 0.3195 -0.6700 0.6701
vn 0.3199 0.0002 0.9474
vn -0.5250 0.0001 0.8511
vn -0.5247 0.6020 0.6019
vn 0.3200 -0.9474 0.0002
vn -0.5252 -0.8510 0.0001
vn -0.5248 -0.6019 -0.6019
vn 0.9987 0.0519 0.0002
vn 0.3195 -0.6701 -0.6701
vn 0.3195 -0.0000 -0.9476
vn -0.5252 0.0001 -0.8510
vn -0.5251 0.6019 -0.6016
vn 0.9987 0.0002 0.0519
vn 0.3199 0.6701 -0.6698
vn 0.9986 0.0372 0.0372
vn 0.9986 -0.0370 0.0370
vn 0.3199 0.9474 0.0002
vn -0.5252 0.8510 0.0002
vn 0.9986 -0.0523 -0.0000
vn 0.3198 0.6700 0.6700
vn 0.7736 -0.0000 0.6337
vn 0.7736 -0.4481 0.4481
vn 0.7736 0.4481 0.4481
vn 1.0000 -0.0000 -0.0000
vn 0.7736 -0.6337 -0.0000
vn 0.9986 -0.0370 -0.0370
vn 0.7733 -0.4483 -0.4483
vn 0.9986 -0.0000 -0.0524
vn 0.7736 -0.0000 -0.6337
vn 0.7736 0.4477 -0.4485
vn 0.9986 0.0370 -0.0370
vn 0.7736 0.6337 -0.0000
vn -0.3195 -0.0000 -0.9476
vn 0.5252 0.0001 -0.8510
vn 0.5248 -0.6019 -0.6019
vn 0.5248 0.6019 -0.6019
vn -0.3199 -0.6699 -0.6699
vn -0.3195 0.6701 -0.6701
vn -0.3198 -0.9475 0.0001
vn 0.5252 -0.8510 0.0002
vn 0.5250 -0.6017 0.6019
vn -0.9987 0.0002 0.0518
vn -0.9987 0.0518 0.0002
vn -0.3195 0.9476 -0.0000
vn 0.5252 0.8510 0.0002
vn 0.5248 0.6019 0.6019
vn -0.9986 -0.0527 0.0003
vn -0.3198 0.6700 0.6700
vn -0.9986 -0.0370 0.0370
vn -0.9986 -0.0370 -0.0370
vn -0.3195 -0.0000 0.9476
vn 0.5250 0.0001 0.8511
vn -0.9986 -0.0000 -0.0524
vn -0.3197 -0.6699 0.6701
vn -0.7736 -0.6337 -0.0000
vn -0.7733 -0.4483 -0.4483
vn -0.7736 -0.4481 0.4481
vn -1.0000 -0.0000 -0.0000
vn -0.7736 -0.0000 -0.6337
vn -0.7736 -0.0000 0.6337
vn -0.7736 0.4481 0.4481
vn -0.9986 0.0370 0.0370
vn -0.7736 0.6337 -0.0000
vn -0.7736 0.4477 -0.4485
vn -0.9986 0.0370 -0.0370
vn -0.9063 -0.0000 0.4226
vn -0.5797 -0.5762 0.5762
vn -0.5797 -0.0000 0.8149
vn -0.2213 0.0002 0.9752
vn -0.5797 0.5762 0.5762
vn -0.9063 -0.2988 0.2988
vn -0.9063 0.2988 0.2988
vn -0.9063 0.4226 -0.0000
vn -0.5797 0.8149 -0.0000
vn -0.9062 0.2993 -0.2988
vn -0.5797 0.5762 -0.5762
vn -0.2213 0.9752 0.0002
vn -0.2211 0.6896 0.6896
vn -0.9062 0.0001 -0.4229
vn -0.9063 -0.2988 -0.2988
vn -0.5797 -0.0000 -0.8149
vn -0.9062 -0.4229 0.0001
vn -0.5797 -0.5762 -0.5762
vn -0.5797 -0.8149 -0.0000
vn -0.2211 -0.9753 -0.0000
vn -0.2214 -0.6893 0.6899
vn -0.2211 -0.0000 -0.9753
vn -0.2211 -0.6896 -0.6896
vn -0.0571 -0.0000 0.9984
vn -0.0571 -0.9984 -0.0000
vn -0.0571 -0.7062 0.7057
vn -0.0571 -0.7060 -0.7060
vn -0.0571 -0.0000 -0.9984
vn -0.2211 0.6896 -0.6896
vn 0.0571 -0.9984 -0.0000
vn -0.0571 0.9984 -0.0000
vn -0.0572 0.7056 -0.7063
vn 0.0571 -0.0000 -0.9984
vn -0.0571 0.7060 0.7060
vn 0.0571 0.7057 -0.7062
vn 0.0571 0.9984 -0.0000
vn 0.0571 0.7060 0.7060
vn 0.0571 -0.0000 0.9984
vn 0.2211 0.6896 0.6896
vn 0.2211 0.6896 -0.6896
vn 0.2211 0.9753 -0.0000
vn 0.0571 -0.7060 0.7060
vn 0.2211 -0.6896 0.6896
vn 0.2211 -0.0000 0.9753
vn 0.5797 0.5762 0.5762
vn 0.5797 -0.5762 0.5762
vn 0.5797 -0.0000 0.8149
vn 0.2211 -0.9753 -0.0000
vn 0.5797 0.8149 -0.0000
vn 0.5796 0.5762 -0.5762
vn 0.9063 0.4226 -0.0000
vn 0.9062 0.2990 0.2990
vn 0.2211 -0.0000 -0.9753
vn 0.9063 0.2988 -0.2988
vn 0.9063 -0.0000 0.4226
vn 0.9062 -0.2988 0.2991
vn 0.9062 -0.4228 0.0001
vn 0.5797 -0.8149 -0.0000
vn 0.5796 -0.5762 -0.5762
vn 0.9063 -0.2988 -0.2988
vn 0.9063 -0.0000 -0.4226
vn 0.5797 -0.0000 -0.8149
vn 0.2211 -0.6896 -0.6896
vn 0.0571 -0.7059 -0.7060
vt 0.000000 0.000000
s 1
f 1/1/1 2/1/2 3/1/3
f 1/1/1 3/1/3 4/1/4
f 3/1/3 5/1/5 4/1/4
f 1/1/1 6/1/6 2/1/2
f 6/1/6 1/1/1 7/1/7
f 8/1/8 6/1/6 7/1/7
f 9/1/9 2/1/2 6/1/6
f 8/1/8 10/1/10 6/1/6
f 10/1/10 9/1/9 6/1/6
f 8/1/8 11/1/11 10/1/10
f 11/1/11 8/1/8 12/1/12
f 13/1/13 11/1/11 12/1/12
f 10/1/10 11/1/11 14/1/14
f 13/1/13 15/1/15 11/1/11
f 15/1/15 14/1/14 11/1/11
f 14/1/14 16/1/16 10/1/10
f 9/1/9 10/1/10 16/1/16
f 14/1/14 15/1/15 17/1/17
f 13/1/13 18/1/18 15/1/15
f 18/1/18 13/1/13 19/1/19
f 18/1/18 19/1/19 5/1/5
f 15/1/15 18/1/18 20/1/20
f 15/1/15 20/1/20 17/1/17
f 18/1/18 5/1/5 21/1/21
f 21/1/21 20/1/20 18/1/18
f 5/1/5 3/1/3 21/1/21
f 17/1/17 22/1/22 14/1/14
f 16/1/16 14/1/14 22/1/22
f 20/1/20 23/1/23 17/1/17
f 22/1/22 17/1/17 23/1/23
f 22/1/22 24/1/24 16/1/16
f 9/1/9 16/1/16 24/1/24
f 22/1/22 23/1/23 25/1/25
f 24/1/24 22/1/22 25/1/25
f 23/1/23 20/1/20 26/1/26
f 23/1/23 26/1/26 25/1/25
f 27/1/27 26/1/26 20/1/20
f 20/1/20 21/1/21 27/1/27
f 26/1/26 27/1/27 28/1/28
f 26/1/26 28/1/28 25/1/25
f 21/1/21 29/1/29 27/1/27
f 29/1/29 28/1/28 27/1/27
f 29/1/29 21/1/21 3/1/3
f 28/1/28 30/1/30 25/1/25
f 28/1/28 29/1/29 30/1/30
f 2/1/2 29/1/29 3/1/3
f 30/1/30 31/1/31 25/1/25
f 31/1/31 30/1/30 29/1/29
f 29/1/29 2/1/2 32/1/32
f 29/1/29 32/1/32 31/1/31
f 2/1/2 9/1/9 32/1/32
f 31/1/31 33/1/33 25/1/25
f 32/1/32 33/1/33 31/1/31
f 33/1/33 32/1/32 9/1/9
f 33/1/33 24/1/24 25/1/25
f 9/1/9 24/1/24 33/1/33
f 34/1/34 35/1/35 36/1/36
f 34/1/34 37/1/37 35/1/35
f 34/1/34 36/1/36 38/1/38
f 37/1/37 34/1/34 39/1/39
f 36/1/36 40/1/40 38/1/38
f 40/1/40 36/1/36 41/1/41
f 40/1/40 41/1/41 42/1/42
f 38/1/38 43/1/43 34/1/34
f 39/1/39 34/1/34 43/1/43
f 38/1/38 40/1/40 44/1/44
f 37/1/37 39/1/39 45/1/45
f 37/1/37 45/1/45 46/1/46
f 45/1/45 47/1/47 46/1/46
f 39/1/39 48/1/48 45/1/45
f 47/1/47 45/1/45 49/1/49
f 48/1/48 49/1/49 45/1/45
f 48/1/48 39/1/39 50/1/50
f 43/1/43 50/1/50 39/1/39
f 49/1/49 48/1/48 51/1/51
f 52/1/52 47/1/47 49/1/49
f 52/1/52 53/1/53 47/1/47
f 52/1/52 42/1/42 53/1/53
f 49/1/49 54/1/54 52/1/52
f 54/1/54 49/1/49 51/1/51
f 42/1/42 52/1/52 55/1/55
f 54/1/54 55/1/55 52/1/52
f 40/1/40 42/1/42 55/1/55
f 55/1/55 44/1/44 40/1/40
f 56/1/56 51/1/51 48/1/48
f 50/1/50 56/1/56 48/1/48
f 51/1/51 56/1/56 57/1/57
f 54/1/54 51/1/51 57/1/57
f 56/1/56 50/1/50 58/1/58
f 43/1/43 58/1/58 50/1/50
f 57/1/57 56/1/56 59/1/59
f 56/1/56 58/1/58 59/1/59
f 57/1/57 60/1/60 54/1/54
f 60/1/60 57/1/57 59/1/59
f 58/1/58 43/1/43 61/1/61
f 58/1/58 61/1/61 59/1/59
f 43/1/43 62/1/62 61/1/61
f 61/1/61 62/1/62 59/1/59
f 62/1/62 43/1/43 63/1/63
f 43/1/43 38/1/38 63/1/63
f 38/1/38 44/1/44 63/1/63
f 63/1/63 64/1/64 62/1/62
f 62/1/62 64/1/64 59/1/59
f 63/1/63 44/1/44 64/1/64
f 65/1/65 60/1/60 59/1/59
f 64/1/64 65/1/65 59/1/59
f 65/1/65 54/1/54 60/1/60
f 66/1/66 64/1/64 44/1/44
f 64/1/64 66/1/66 65/1/65
f 54/1/54 65/1/65 66/1/66
f 44/1/44 55/1/55 66/1/66
f 55/1/55 54/1/54 66/1/66
f 67/1/67 68/1/68 69/1/69
f 68/1/68 70/1/70 69/1/69
f 71/1/71 67/1/67 69/1/69
f 70/1/70 71/1/71 69/1/69
f 68/1/68 67/1/67 72/1/72
f 67/1/67 71/1/71 73/1/73
f 67/1/67 74/1/59 72/1/72
f 73/1/73 74/1/59 67/1/67
f 71/1/71 75/1/74 73/1/73
f 75/1/74 74/1/59 73/1/73
f 75/1/74 71/1/71 76/1/75
f 77/1/76 74/1/59 75/1/74
f 78/1/77 75/1/74 76/1/75
f 75/1/74 78/1/77 77/1/76
f 71/1/71 79/1/78 76/1/75
f 79/1/78 78/1/77 76/1/75
f 79/1/78 71/1/71 80/1/79
f 71/1/71 70/1/70 80/1/79
f 81/1/80 74/1/59 77/1/76
f 78/1/77 81/1/80 77/1/76
f 82/1/81 74/1/59 81/1/80
f 81/1/80 78/1/77 83/1/82
f 84/1/83 74/1/59 82/1/81
f 72/1/72 74/1/59 84/1/83
f 81/1/80 85/1/84 82/1/81
f 83/1/82 85/1/84 81/1/80
f 85/1/84 84/1/83 82/1/81
f 68/1/68 72/1/72 84/1/83
f 86/1/85 68/1/68 84/1/83
f 84/1/83 85/1/84 86/1/85
f 87/1/86 68/1/68 86/1/85
f 85/1/84 87/1/86 86/1/85
f 68/1/68 87/1/86 88/1/87
f 68/1/68 88/1/87 70/1/70
f 89/1/88 85/1/84 83/1/82
f 78/1/77 89/1/88 83/1/82
f 85/1/84 90/1/89 87/1/86
f 85/1/84 89/1/88 90/1/89
f 88/1/87 91/1/90 70/1/70
f 91/1/90 80/1/79 70/1/70
f 92/1/91 88/1/87 87/1/86
f 90/1/89 92/1/91 87/1/86
f 88/1/87 92/1/91 93/1/92
f 88/1/87 93/1/92 91/1/90
f 90/1/89 94/1/93 92/1/91
f 95/1/94 90/1/89 89/1/88
f 90/1/89 95/1/94 94/1/93
f 78/1/77 96/1/95 89/1/88
f 96/1/95 95/1/94 89/1/88
f 78/1/77 79/1/78 96/1/95
f 97/1/96 93/1/92 92/1/91
f 94/1/93 97/1/96 92/1/91
f 98/1/97 96/1/95 79/1/78
f 79/1/78 80/1/79 98/1/97
f 96/1/95 99/1/98 95/1/94
f 96/1/95 98/1/97 99/1/98
f 100/1/99 94/1/93 95/1/94
f 98/1/97 80/1/79 101/1/100
f 80/1/79 91/1/90 101/1/100
f 102/1/101 95/1/94 99/1/98
f 95/1/94 102/1/101 100/1/99
f 98/1/97 103/1/102 99/1/98
f 102/1/101 99/1/98 103/1/102
f 101/1/100 104/1/103 98/1/97
f 103/1/102 98/1/97 104/1/103
f 105/1/104 101/1/100 91/1/90
f 101/1/100 105/1/104 104/1/103
f 106/1/105 103/1/102 104/1/103
f 105/1/104 106/1/105 104/1/103
f 102/1/101 103/1/102 107/1/106
f 107/1/106 100/1/99 102/1/101
f 103/1/102 106/1/105 108/1/107
f 107/1/106 103/1/102 108/1/107
f 91/1/90 109/1/108 105/1/104
f 109/1/108 91/1/90 93/1/92
f 93/1/92 97/1/96 109/1/108
f 110/1/109 105/1/104 109/1/108
f 97/1/96 110/1/109 109/1/108
f 105/1/104 111/1/110 106/1/105
f 105/1/104 110/1/109 111/1/110
f 111/1/110 112/1/111 106/1/105
f 112/1/111 108/1/107 106/1/105
f 113/1/112 111/1/110 110/1/109
f 111/1/110 114/1/113 112/1/111
f 111/1/110 113/1/112 114/1/113
f 97/1/96 115/1/114 110/1/109
f 115/1/114 113/1/112 110/1/109
f 108/1/107 112/1/111 116/1/115
f 117/1/116 108/1/107 116/1/115
f 107/1/106 108/1/107 117/1/116
f 116/1/115 112/1/111 118/1/117
f 118/1/117 117/1/116 116/1/115
f 118/1/117 112/1/111 119/1/118
f 117/1/116 120/1/119 107/1/106
f 100/1/99 107/1/106 120/1/119
f 117/1/116 118/1/117 121/1/120
f 112/1/111 122/1/121 119/1/118
f 122/1/121 112/1/111 114/1/113
f 114/1/113 113/1/112 122/1/121
f 123/1/25 118/1/117 119/1/118
f 123/1/25 121/1/120 118/1/117
f 123/1/25 119/1/118 122/1/121
f 122/1/121 113/1/112 124/1/122
f 123/1/25 122/1/121 124/1/122
f 113/1/112 125/1/123 124/1/122
f 123/1/25 124/1/122 125/1/123
f 125/1/123 113/1/112 126/1/124
f 115/1/114 126/1/124 113/1/112
f 125/1/123 126/1/124 127/1/125
f 115/1/114 127/1/125 126/1/124
f 123/1/25 125/1/123 128/1/126
f 125/1/123 127/1/125 128/1/126
f 123/1/25 128/1/126 129/1/127
f 123/1/25 129/1/127 121/1/120
f 128/1/126 130/1/128 129/1/127
f 130/1/128 121/1/120 129/1/127
f 127/1/125 130/1/128 128/1/126
f 121/1/120 130/1/128 117/1/116
f 120/1/119 117/1/116 130/1/128
f 120/1/119 130/1/128 127/1/125
f 127/1/125 115/1/114 131/1/129
f 120/1/119 127/1/125 131/1/129
f 97/1/96 131/1/129 115/1/114
f 100/1/99 120/1/119 131/1/129
f 131/1/129 97/1/96 132/1/130
f 100/1/99 131/1/129 132/1/130
f 97/1/96 94/1/93 132/1/130
f 94/1/93 100/1/99 132/1/130
