# Blender 5.2.0 LTS
# www.blender.org
mtllib balloonshortybarrel3.mtl
o balloonshortybarrel
v 0.205728 0.151442 0.018349
v 0.205728 0.135817 0.006066
v 0.205728 0.170783 0.008819
v 0.205728 0.135817 -0.012606
v 0.205728 0.170783 -0.015359
v 0.205728 0.151442 -0.024889
v -1.007018 0.043457 -0.072519
v -0.999020 0.085937 -0.067871
v -0.999020 0.052613 -0.081675
v -0.941679 0.085937 -0.114999
v -1.007018 0.085937 -0.054923
v -0.999020 0.038809 -0.114999
v -0.941679 0.085937 -0.114999
v -1.003578 0.085937 -0.045321
v -1.003578 0.036667 -0.065729
v -1.007018 0.128417 -0.072519
v -1.003578 0.135207 -0.065729
v -1.007018 0.025861 -0.114999
v -1.003578 0.016258 -0.114999
v -1.007018 0.146013 -0.114999
v -0.999020 0.119262 -0.081675
v -0.941679 0.085937 -0.114999
v -1.007018 0.043457 -0.157479
v -1.003578 0.036667 -0.164270
v -1.007018 0.085937 -0.175075
v -1.003578 0.085937 -0.184678
v -0.999020 0.052613 -0.148324
v -0.941679 0.085937 -0.114999
v -0.999020 0.085937 -0.162127
v -0.941679 0.085937 -0.114999
v -0.999020 0.133065 -0.114999
v -0.941679 0.085937 -0.114999
v -0.999020 0.119262 -0.148324
v -0.941679 0.085937 -0.114999
v -0.999020 0.085937 -0.162127
v -0.941679 0.085937 -0.114999
v -1.007018 0.085937 -0.175075
v -1.007018 0.128417 -0.157479
v -1.003578 0.155616 -0.114999
v -1.003578 0.135207 -0.164270
v -1.003578 0.085937 -0.184678
v -1.007018 0.043457 0.157481
v -0.999019 0.085937 0.162129
v -0.999019 0.052613 0.148325
v -0.941679 0.085937 0.115001
v -1.007018 0.085937 0.175077
v -0.999020 0.038809 0.115001
v -0.941679 0.085937 0.115001
v -1.003576 0.085937 0.184679
v -1.003576 0.036667 0.164271
v -1.007018 0.128417 0.157481
v -1.003576 0.135207 0.164271
v -1.007018 0.025861 0.115001
v -1.003578 0.016258 0.115001
v -1.007018 0.146013 0.115001
v -0.999019 0.119262 0.148325
v -0.941679 0.085937 0.115001
v -1.007018 0.043457 0.072521
v -1.003578 0.036667 0.065730
v -1.007018 0.085937 0.054925
v -1.003578 0.085937 0.045322
v -0.999020 0.052613 0.081676
v -0.941679 0.085937 0.115001
v -0.999020 0.085937 0.067873
v -0.941679 0.085937 0.115001
v -0.999020 0.133065 0.115001
v -0.941679 0.085937 0.115001
v -0.999020 0.119262 0.081676
v -0.941679 0.085937 0.115001
v -0.999020 0.085937 0.067873
v -0.941679 0.085937 0.115001
v -1.007018 0.085937 0.054925
v -1.007018 0.128417 0.072521
v -1.003576 0.155616 0.115001
v -1.003578 0.135207 0.065730
v -1.003578 0.085937 0.045322
v -0.930046 0.085937 0.160027
v -0.904541 0.027107 0.173830
v -0.904541 0.085937 0.198199
v -0.866369 0.085937 0.223704
v -0.930046 0.054099 0.146839
v -0.939002 0.085937 0.115001
v -0.866369 0.009072 0.191865
v -0.821343 0.085937 0.232660
v -0.821343 0.002739 0.198198
v -0.904541 0.085937 0.198199
v -0.904541 0.144767 0.173830
v -0.930046 0.085937 0.160027
v -0.866369 0.085937 0.223704
v -0.930046 0.117776 0.146839
v -0.939002 0.085937 0.115001
v -0.866369 0.162802 0.191865
v -0.821343 0.085937 0.232660
v -0.821343 0.169135 0.198198
v -0.904541 0.085937 -0.198197
v -0.930046 0.054099 -0.146838
v -0.930046 0.085937 -0.160026
v -0.939002 0.085937 -0.114999
v -0.904541 0.027107 -0.173829
v -0.866369 0.085937 -0.223703
v -0.866369 0.009072 -0.191864
v -0.821343 0.085937 -0.232659
v -0.821343 0.002739 -0.198197
v -0.904541 0.144767 -0.173829
v -0.904541 0.085937 -0.198197
v -0.930046 0.117776 -0.146838
v -0.930046 0.085937 -0.160026
v -0.939002 0.085937 -0.114999
v -0.866369 0.085937 -0.223703
v -0.866369 0.162802 -0.191864
v -0.821343 0.085937 -0.232659
v -0.821343 0.169135 -0.198197
v 0.205728 0.170783 -0.015359
v 0.176459 0.159787 -0.041882
v 0.176459 0.178687 -0.032613
v 0.205728 0.151442 -0.024889
v 0.176459 0.127914 -0.016827
v 0.205728 0.135817 -0.012606
v 0.176459 0.127914 0.010287
v 0.205728 0.151442 0.018349
v 0.176459 0.159787 0.035342
v 0.205728 0.135817 0.006066
v 0.205728 0.170783 0.008819
v 0.176459 0.178687 0.026073
v -0.817382 0.170440 0.008088
v -0.817382 0.136161 0.005883
v -0.817382 0.151094 0.017621
v -0.817382 0.136161 -0.012423
v -0.817382 0.170440 -0.014628
v -0.817382 0.151094 -0.024161
v -0.939002 0.085937 0.115001
v -0.930046 0.117776 0.146839
v -0.930046 0.130964 0.115001
v -0.904541 0.144767 0.173830
v -0.904541 0.169135 0.115001
v -0.866369 0.194640 0.115001
v -0.866369 0.162802 0.191865
v -0.821343 0.203596 0.115001
v -0.821343 0.169135 0.198198
v -0.821343 0.002739 -0.198197
v -0.821343 -0.031722 -0.114999
v -0.866369 0.009072 -0.191864
v -0.866369 -0.022766 -0.114999
v -0.904541 0.027107 -0.173829
v -0.904541 0.002739 -0.114999
v -0.930046 0.040911 -0.114999
v -0.930046 0.054099 -0.146838
v -0.939002 0.085937 -0.114999
v -0.939002 0.085937 -0.114999
v -0.930046 0.130964 -0.114999
v -0.930046 0.117776 -0.146838
v -0.904541 0.169135 -0.114999
v -0.904541 0.144767 -0.173829
v -0.866369 0.194640 -0.114999
v -0.866369 0.162802 -0.191864
v -0.821343 0.203596 -0.114999
v -0.821343 0.169135 -0.198197
v -0.939002 0.085937 0.115001
v -0.930046 0.040911 0.115001
v -0.930046 0.054099 0.146839
v -0.904541 0.027107 0.173830
v -0.904541 0.002739 0.115001
v -0.866369 -0.022766 0.115001
v -0.866369 0.009072 0.191865
v -0.821343 -0.031722 0.115001
v -0.821343 0.002739 0.198198
v -0.327258 -0.205587 -0.064713
v -0.096798 -0.205587 -0.064713
v -0.096798 -0.205587 0.059378
v -0.327258 -0.172109 -0.098191
v -0.096798 -0.172109 -0.098191
v -0.327258 -0.205587 0.059378
v -0.096798 -0.172109 0.092855
v -0.327258 -0.172109 0.092855
v 0.205728 0.170783 -0.015359
v 0.176459 0.178687 -0.032613
v 0.205728 0.170783 0.008819
v 0.176459 0.178687 0.026073
v 0.034906 0.138818 -0.167880
v 0.034906 0.138818 -0.062119
v 0.034906 0.033057 -0.062119
v 0.034906 0.160722 -0.115000
v 0.194453 0.160722 -0.115000
v 0.034906 0.160722 -0.115000
v 0.194453 0.138818 -0.062119
v 0.034906 0.085937 -0.040215
v 0.201206 0.154367 -0.046570
v 0.201206 0.182712 -0.115000
v 0.175959 0.205587 -0.115000
v 0.194453 0.085937 -0.040215
v 0.201206 0.085937 -0.018226
v 0.175959 0.170543 -0.030394
v -0.821343 0.169135 -0.031802
v -0.821343 0.203596 -0.114999
v 0.175959 0.085937 0.004650
v -0.821343 0.085937 0.002660
v -0.821343 0.002739 -0.031802
v 0.175959 0.001332 -0.030394
v 0.201206 0.017508 -0.046570
v 0.175959 -0.033713 -0.115000
v -0.821343 -0.031722 -0.114999
v -0.821343 0.002739 -0.198197
v 0.201206 -0.010837 -0.115000
v 0.175959 0.001332 -0.199605
v 0.194453 0.033057 -0.062119
v 0.194453 0.011153 -0.115000
v 0.201206 0.017508 -0.183429
v 0.034906 0.011153 -0.115000
v 0.034906 0.033057 -0.167880
v 0.194453 0.033057 -0.167880
v 0.034906 0.085937 -0.189784
v 0.194453 0.085937 -0.189784
v 0.201206 0.085937 -0.211774
v 0.194453 0.138818 -0.167880
v 0.194453 0.160722 -0.115000
v 0.201206 0.154367 -0.183429
v 0.201206 0.182712 -0.115000
v 0.175959 0.205587 -0.115000
v 0.175959 0.085937 -0.234650
v 0.175959 0.170543 -0.199605
v -0.821343 0.085937 -0.232659
v -0.821343 0.169135 -0.198197
v -0.821343 0.203596 -0.114999
v 0.034906 0.138818 0.062120
v 0.034906 0.138818 0.167881
v 0.034906 0.033057 0.167881
v 0.034906 0.160722 0.115000
v 0.194453 0.160722 0.115000
v 0.034906 0.160722 0.115000
v 0.194453 0.138818 0.167881
v 0.034906 0.085937 0.189785
v 0.201206 0.154367 0.183430
v 0.201206 0.182712 0.115000
v 0.175959 0.205587 0.115000
v 0.194453 0.085937 0.189785
v 0.201206 0.085937 0.211774
v 0.175959 0.170543 0.199606
v -0.821343 0.169135 0.198198
v -0.821343 0.203596 0.115001
v 0.175959 0.085937 0.234650
v -0.821343 0.085937 0.232660
v -0.821343 0.002739 0.198198
v 0.175959 0.001332 0.199606
v 0.201206 0.017508 0.183430
v 0.175959 -0.033713 0.115000
v -0.821343 -0.031722 0.115001
v -0.821343 0.002739 0.031803
v 0.201206 -0.010837 0.115000
v 0.175959 0.001332 0.030395
v 0.194453 0.033057 0.167881
v 0.194453 0.011153 0.115000
v 0.201206 0.017508 0.046571
v 0.034906 0.011153 0.115000
v 0.034906 0.033057 0.062120
v 0.194453 0.033057 0.062120
v 0.034906 0.085937 0.040216
v 0.194453 0.085937 0.040216
v 0.201206 0.085937 0.018226
v 0.194453 0.138818 0.062120
v 0.194453 0.160722 0.115000
v 0.201206 0.154367 0.046571
v 0.201206 0.182712 0.115000
v 0.175959 0.205587 0.115000
v 0.175959 0.085937 -0.004650
v 0.175959 0.170543 0.030395
v -0.821343 0.085937 -0.002659
v -0.821343 0.169135 0.031803
v -0.821343 0.203596 0.115001
v -0.939002 0.085937 -0.114999
v -0.930046 0.117776 -0.083161
v -0.930046 0.130964 -0.114999
v -0.904541 0.144767 -0.056170
v -0.904541 0.169135 -0.114999
v -0.866369 0.194640 -0.114999
v -0.866369 0.162802 -0.038135
v -0.821343 0.203596 -0.114999
v -0.821343 0.169135 -0.031802
v -0.939002 0.085937 -0.114999
v -0.930046 0.040911 -0.114999
v -0.930046 0.054099 -0.083161
v -0.904541 0.027107 -0.056170
v -0.904541 0.002739 -0.114999
v -0.866369 -0.022766 -0.114999
v -0.866369 0.009072 -0.038135
v -0.821343 -0.031722 -0.114999
v -0.821343 0.002739 -0.031802
v -0.939002 0.085937 0.115001
v -0.930046 0.130964 0.115001
v -0.930046 0.117776 0.083162
v -0.904541 0.169135 0.115001
v -0.904541 0.144767 0.056171
v -0.866369 0.194640 0.115001
v -0.866369 0.162802 0.038136
v -0.821343 0.203596 0.115001
v -0.821343 0.169135 0.031803
v -0.821343 0.002739 0.031803
v -0.821343 -0.031722 0.115001
v -0.866369 0.009072 0.038136
v -0.866369 -0.022766 0.115001
v -0.904541 0.027107 0.056171
v -0.904541 0.002739 0.115001
v -0.930046 0.040911 0.115001
v -0.930046 0.054099 0.083162
v -0.939002 0.085937 0.115001
v -0.817382 0.170440 -0.014628
v -0.788456 0.178687 -0.032613
v -0.788456 0.159787 -0.041882
v -0.817382 0.151094 -0.024161
v -0.788456 0.159787 0.035342
v -0.817382 0.170440 0.008088
v -0.817382 0.151094 0.017621
v -0.788456 0.178687 0.026073
v -0.904541 0.085937 -0.031801
v -0.904541 0.144767 -0.056170
v -0.930046 0.085937 -0.069973
v -0.866369 0.085937 -0.006296
v -0.930046 0.117776 -0.083161
v -0.939002 0.085937 -0.114999
v -0.866369 0.162802 -0.038135
v -0.821343 0.085937 0.002660
v -0.821343 0.169135 -0.031802
v -0.930046 0.085937 -0.069973
v -0.904541 0.027107 -0.056170
v -0.904541 0.085937 -0.031801
v -0.866369 0.085937 -0.006296
v -0.930046 0.054099 -0.083161
v -0.939002 0.085937 -0.114999
v -0.866369 0.009072 -0.038135
v -0.821343 0.085937 0.002660
v -0.821343 0.002739 -0.031802
v -0.904541 0.144767 0.056171
v -0.904541 0.085937 0.031803
v -0.930046 0.117776 0.083162
v -0.930046 0.085937 0.069974
v -0.939002 0.085937 0.115001
v -0.866369 0.085937 0.006297
v -0.866369 0.162802 0.038136
v -0.821343 0.085937 -0.002659
v -0.821343 0.169135 0.031803
v -0.904541 0.085937 0.031803
v -0.930046 0.054099 0.083162
v -0.930046 0.085937 0.069974
v -0.939002 0.085937 0.115001
v -0.904541 0.027107 0.056171
v -0.866369 0.085937 0.006297
v -0.866369 0.009072 0.038136
v -0.821343 0.085937 -0.002659
v -0.821343 0.002739 0.031803
v -0.788456 0.178687 -0.032613
v -0.817382 0.170440 0.008088
v -0.788456 0.178687 0.026073
v -0.817382 0.170440 -0.014628
v 0.205728 0.135817 -0.012606
v 0.176459 0.127914 0.010287
v 0.176459 0.127914 -0.016827
v 0.205728 0.135817 0.006066
v -0.096798 -0.049585 -0.098191
v -0.327258 -0.172109 -0.098191
v -0.327258 -0.049585 -0.098191
v -0.096798 -0.172109 -0.098191
v -0.096798 -0.049585 0.092855
v -0.327258 -0.049585 0.092855
v -0.096798 -0.172109 0.092855
v -0.327258 -0.172109 0.092855
v 0.176459 0.178687 -0.032613
v -0.788456 0.178687 -0.032613
v -0.788456 0.178687 0.026073
v 0.176459 0.178687 0.026073
v -0.788456 0.178687 -0.032613
v 0.176459 0.178687 -0.032613
v 0.176459 0.159787 -0.041882
v -0.788456 0.159787 -0.041882
v -0.788456 0.159787 0.035342
v 0.176459 0.159787 0.035342
v 0.176459 0.178687 0.026073
v -0.788456 0.178687 0.026073
v -0.817382 0.151094 -0.024161
v -0.788456 0.127914 -0.016827
v -0.817382 0.136161 -0.012423
v -0.788456 0.159787 -0.041882
v -0.817382 0.136161 0.005883
v -0.788456 0.127914 0.010287
v -0.817382 0.151094 0.017621
v -0.788456 0.159787 0.035342
v -0.817382 0.136161 -0.012423
v -0.788456 0.127914 -0.016827
v -0.817382 0.136161 0.005883
v -0.788456 0.127914 0.010287
v 0.176459 0.159787 -0.041882
v -0.788456 0.127914 -0.016827
v -0.788456 0.159787 -0.041882
v 0.176459 0.127914 -0.016827
v 0.176459 0.159787 0.035342
v -0.788456 0.159787 0.035342
v 0.176459 0.127914 0.010287
v -0.788456 0.127914 0.010287
v -0.327258 -0.016107 -0.064713
v -0.096798 -0.016107 -0.064713
v -0.096798 -0.049585 -0.098191
v -0.327258 -0.049585 -0.098191
v -0.327258 -0.049585 0.092855
v -0.096798 -0.049585 0.092855
v -0.096798 -0.016107 0.059378
v -0.327258 -0.016107 0.059378
v -0.788456 0.127914 -0.016827
v 0.176459 0.127914 -0.016827
v 0.176459 0.127914 0.010287
v -0.788456 0.127914 0.010287
v -0.096798 -0.016107 -0.064713
v -0.327258 -0.016107 -0.064713
v -0.327258 -0.016107 0.059378
v -0.096798 -0.016107 0.059378
v -1.003578 0.085937 -0.045321
v -0.908429 0.085937 -0.104573
v -0.908429 0.093310 -0.107627
v -1.003578 0.135207 -0.065729
v -0.908429 0.093310 -0.107627
v -1.003578 0.155616 -0.114999
v -0.908429 0.096364 -0.114999
v -0.908429 0.093310 -0.122372
v -0.908429 0.096364 -0.114999
v -1.003578 0.135207 -0.164270
v -0.908429 0.093310 -0.122372
v -1.003578 0.085937 -0.184678
v -0.908429 0.085937 -0.125426
v -1.003576 0.085937 0.184679
v -0.908429 0.085937 0.125427
v -0.908429 0.093310 0.122373
v -1.003576 0.135207 0.164271
v -0.908429 0.093310 0.122373
v -1.003576 0.155616 0.115001
v -0.908429 0.096364 0.115001
v -0.908429 0.093310 0.107628
v -0.908429 0.096364 0.115001
v -1.003578 0.135207 0.065730
v -0.908429 0.093310 0.107628
v -1.003578 0.085937 0.045322
v -0.908429 0.085937 0.104574
v -0.908429 0.078565 -0.122372
v -1.003578 0.085937 -0.184678
v -0.908429 0.085937 -0.125426
v -1.003578 0.036667 -0.164270
v -0.908429 0.078565 -0.122372
v -1.003578 0.016258 -0.114999
v -0.908429 0.075511 -0.114999
v -0.908429 0.075511 -0.114999
v -0.908429 0.078565 -0.107627
v -1.003578 0.036667 -0.065729
v -0.908429 0.078565 -0.107627
v -0.908429 0.085937 -0.104573
v -0.908429 0.078565 0.107628
v -1.003578 0.085937 0.045322
v -0.908429 0.085937 0.104574
v -1.003578 0.036667 0.065730
v -0.908429 0.078565 0.107628
v -1.003578 0.016258 0.115001
v -0.908429 0.075511 0.115001
v -0.908429 0.075511 0.115001
v -0.908429 0.078565 0.122373
v -1.003576 0.036667 0.164271
v -0.908429 0.078565 0.122373
v -0.908429 0.085937 0.125427
vn 0.5084 -0.3892 0.7682
vn 0.4275 -0.8135 0.3943
vn 0.4930 0.8515 0.1784
vn 0.4275 -0.8135 -0.3942
vn 0.4930 0.8516 -0.1784
vn 0.5084 -0.3892 -0.7681
vn -0.9999 0.0141 0.0034
vn -0.7624 0.0005 -0.6471
vn -0.7645 0.4597 -0.4519
vn -1.0000 0.0004 -0.0005
vn -0.9998 0.0005 -0.0190
vn -0.7678 0.6407 -0.0005
vn -0.0025 0.0005 1.0000
vn -0.0025 -0.7306 0.6828
vn -0.9999 -0.0141 0.0034
vn -0.0025 0.7306 0.6828
vn -1.0000 -0.0053 -0.0005
vn -0.0015 -1.0000 -0.0005
vn -1.0000 0.0053 -0.0005
vn -0.7645 -0.4597 -0.4519
vn -1.0000 0.0005 -0.0004
vn -0.9999 0.0142 -0.0034
vn -0.0025 -0.7306 -0.6828
vn -0.9998 0.0005 0.0190
vn -0.0025 0.0005 -1.0000
vn -0.7645 0.4597 0.4519
vn -1.0000 0.0005 -0.0005
vn -0.7624 0.0006 0.6471
vn -0.7678 -0.6407 -0.0005
vn -0.7645 -0.4597 0.4519
vn -0.7624 0.0004 0.6471
vn -0.9999 -0.0142 -0.0034
vn -0.0015 1.0000 -0.0005
vn -0.0025 0.7306 -0.6828
vn -0.0025 0.0006 -1.0000
vn -1.0000 -0.0054 -0.0005
vn -1.0000 0.0052 -0.0004
vn -0.7624 0.0005 0.6471
vn -0.8994 0.0005 0.4372
vn -0.6452 -0.5358 0.5446
vn -0.6482 0.0005 0.7615
vn -0.2672 0.0004 0.9636
vn -0.8973 -0.3082 0.3160
vn -0.2643 -0.6755 0.6883
vn -0.0425 0.0005 0.9991
vn -0.0406 -0.7196 0.6932
vn -0.6452 0.5358 0.5446
vn -0.2672 0.0005 0.9637
vn -0.8973 0.3082 0.3161
vn -0.2643 0.6755 0.6883
vn -0.0406 0.7196 0.6932
vn -0.6482 0.0004 -0.7615
vn -0.8973 -0.3082 -0.3161
vn -0.8994 0.0005 -0.4372
vn -0.6452 -0.5358 -0.5446
vn -0.2672 0.0004 -0.9636
vn -0.2643 -0.6756 -0.6883
vn -0.0425 0.0005 -0.9991
vn -0.0406 -0.7196 -0.6932
vn -0.6452 0.5358 -0.5446
vn -0.6482 0.0005 -0.7615
vn -0.8973 0.3082 -0.3160
vn -0.2672 0.0005 -0.9636
vn -0.2643 0.6755 -0.6883
vn -0.0406 0.7196 -0.6932
vn 0.4930 0.8516 -0.1783
vn 0.0464 -0.1001 -0.9939
vn 0.0424 0.8583 -0.5114
vn 0.5083 -0.3892 -0.7682
vn 0.0406 -0.9067 -0.4198
vn 0.4275 -0.8135 -0.3943
vn 0.0405 -0.9067 0.4198
vn 0.0464 -0.1001 0.9939
vn 0.4929 0.8516 0.1783
vn 0.0424 0.8583 0.5114
vn -0.5123 0.8405 0.1763
vn -0.4468 -0.8051 0.3900
vn -0.5283 -0.3845 0.7570
vn -0.4468 -0.8051 -0.3902
vn -0.5123 0.8405 -0.1763
vn -0.5283 -0.3846 -0.7570
vn -0.8973 0.3083 0.3160
vn -0.8951 0.4458 -0.0005
vn -0.6413 0.7673 -0.0004
vn -0.2603 0.9655 -0.0004
vn -0.2643 0.6756 0.6883
vn -0.0386 0.9993 -0.0005
vn -0.0386 -0.9993 -0.0005
vn -0.2603 -0.9655 -0.0005
vn -0.6413 -0.7673 -0.0006
vn -0.8951 -0.4458 -0.0005
vn -0.8973 -0.3082 -0.3160
vn -0.6413 0.7673 -0.0005
vn -0.2603 0.9655 -0.0005
vn -0.2643 0.6756 -0.6883
vn -0.0405 0.7196 -0.6932
vn -0.6413 -0.7673 -0.0004
vn -0.2603 -0.9655 -0.0004
vn -0.2642 -0.6756 0.6883
vn -0.0405 -0.7196 0.6932
vn 0.0005 -0.9287 -0.3708
vn 0.0005 -0.9287 0.3708
vn 0.0005 -0.3931 -0.9195
vn 0.0005 -0.3931 0.9195
vn 0.4929 0.8516 -0.1783
vn 0.0425 0.8582 -0.5115
vn 0.0425 0.8582 0.5115
vn 0.0503 -0.7178 0.6944
vn 0.0503 -0.7179 -0.6944
vn 0.0503 0.7178 -0.6944
vn 0.0474 -0.9989 -0.0005
vn 0.0805 -0.9968 -0.0005
vn 0.0825 -0.7158 -0.6934
vn 0.0542 0.0005 -0.9985
vn 0.8676 0.3407 0.3622
vn 0.8604 0.5096 -0.0005
vn 0.0435 0.9991 -0.0005
vn 0.0835 -0.0000 -0.9965
vn 0.8739 0.0005 0.4860
vn 0.0465 0.7189 0.6935
vn 0.0494 0.0005 0.9988
vn 0.0465 -0.7189 0.6935
vn 0.8676 -0.3407 0.3622
vn 0.0435 -0.9991 -0.0005
vn 0.8604 -0.5096 -0.0005
vn 0.0465 -0.7190 -0.6935
vn 0.0825 0.7159 -0.6933
vn 0.0805 0.9968 -0.0005
vn 0.8676 -0.3407 -0.3622
vn 0.0473 0.9989 -0.0004
vn 0.0503 0.7178 0.6944
vn 0.0825 0.7158 0.6934
vn 0.0542 0.0004 0.9985
vn 0.0835 -0.0000 0.9965
vn 0.8740 0.0005 -0.4860
vn 0.0825 -0.7159 0.6933
vn 0.8676 0.3407 -0.3622
vn 0.0494 0.0005 -0.9988
vn 0.0465 0.7190 -0.6935
vn -0.5123 0.8405 -0.1762
vn -0.0425 0.8587 -0.5107
vn -0.0474 -0.1001 -0.9938
vn -0.5282 -0.3846 -0.7570
vn -0.0474 -0.1001 0.9938
vn -0.5282 -0.3846 0.7570
vn -0.0425 0.8587 0.5107
vn -0.2643 -0.6755 -0.6883
vn 0.0406 -0.9067 0.4199
vn 0.0406 -0.9067 -0.4199
vn 0.0005 0.3931 -0.9195
vn 0.0005 0.3931 0.9195
vn 0.0424 0.8583 -0.5115
vn 0.0425 0.8583 0.5114
vn 0.0425 0.8583 -0.5114
vn -0.0405 -0.9067 -0.4198
vn -0.4467 -0.8051 -0.3901
vn -0.4468 -0.8051 0.3901
vn -0.0406 -0.9067 0.4199
vn -0.4468 -0.8051 -0.3901
vn -0.0406 -0.9067 -0.4198
vn -0.4467 -0.8051 0.3901
vn -0.0406 -0.9067 -0.4199
vn 0.0005 0.9287 -0.3708
vn 0.0004 0.3931 -0.9195
vn 0.0005 0.9287 0.3708
vn 0.0406 -0.9067 0.4198
vn -0.0406 -0.9067 0.4198
vn 0.0005 0.9287 -0.3707
vn 0.0005 0.9287 0.3707
vn 0.5290 0.0005 0.8486
vn 0.5284 0.5880 0.6125
vn 0.5284 0.5880 0.6124
vn 0.5291 0.8486 -0.0004
vn 0.5284 0.5880 -0.6124
vn 0.5290 0.8486 -0.0005
vn 0.5284 0.5880 -0.6125
vn 0.5291 0.0005 -0.8486
vn 0.5291 0.0005 0.8486
vn 0.5283 0.5880 0.6124
vn 0.5291 0.8486 -0.0005
vn 0.5284 -0.5880 -0.6125
vn 0.5291 0.0004 -0.8486
vn 0.5283 -0.5880 -0.6124
vn 0.5291 -0.8486 -0.0005
vn 0.5290 -0.8486 -0.0004
vn 0.5284 -0.5880 0.6124
vn 0.5283 -0.5880 0.6125
vn 0.5291 0.0004 0.8486
vn 0.5291 -0.8486 -0.0004
vn 0.5284 -0.5880 0.6125
vt 0.486717 0.250000
vt 0.375000 0.250000
vt 0.625000 0.166037
vt 0.375000 0.000000
vt 0.625000 0.083963
vt 0.486717 0.000000
vt 0.625000 0.500000
vt 0.500000 0.500000
vt 0.750000 0.500000
vt 0.375000 0.500000
vt 0.250000 0.500000
vt 0.875000 0.500000
vt 1.000000 0.500000
vt 0.125000 0.500000
vt 0.000000 0.500000
vt 0.250000 0.125000
vt 0.250000 0.250000
vt 0.250000 0.375000
vt 0.375000 0.125000
vt 0.312500 0.000000
vt 0.375000 0.375000
vt 0.125000 0.250000
vt 0.125000 0.125000
vt 0.187500 0.000000
vt 0.125000 0.375000
vt 0.750000 0.250000
vt 0.625000 0.125000
vt 0.750000 0.125000
vt 0.687500 0.000000
vt 0.625000 0.250000
vt 0.750000 0.375000
vt 0.625000 0.375000
vt 0.875000 0.250000
vt 0.875000 0.125000
vt 0.812500 0.000000
vt 0.875000 0.375000
vt 0.625000 1.000000
vt 0.531942 1.000000
vt 0.486717 1.000000
vt 0.375000 1.000000
vt 0.531942 0.250000
vt 0.625000 0.585671
vt 0.483909 0.500000
vt 0.375000 0.750000
vt 0.625000 0.664329
vt 0.483909 0.750000
vt 0.062500 0.000000
vt 0.000000 0.125000
vt 0.000000 0.250000
vt 0.000000 0.375000
vt 0.500000 0.375000
vt 0.500000 0.250000
vt 0.500000 0.125000
vt 0.562500 0.000000
vt 0.937500 0.000000
vt 1.000000 0.125000
vt 1.000000 0.250000
vt 1.000000 0.375000
vt 0.437500 0.000000
vt 0.375000 0.706191
vt 0.156710 0.706191
vt 0.156710 0.543809
vt 0.156710 0.750000
vt 0.375000 0.543809
vt 0.156710 0.500000
vt 0.875000 0.666037
vt 0.875000 0.693600
vt 0.875000 0.583963
vt 0.875000 0.556400
vt 0.625000 0.693599
vt 0.531941 0.750000
vt 0.531941 0.500000
vt 0.625000 0.556401
vt 0.125000 0.750000
vt 0.580829 0.968290
vt 0.419171 0.750000
vt 0.580829 0.750000
vt 0.419171 0.968290
vt 0.580829 0.281710
vt 0.580829 0.500000
vt 0.419171 0.281710
vt 0.419171 0.500000
vt 0.625000 0.750000
vt 0.625000 0.706191
vt 0.625000 0.854021
vt 0.625000 0.395979
vt 0.625000 0.543809
vt 0.500000 1.000000
vt 0.250000 1.000000
vt 0.125000 1.000000
vt 0.000000 1.000000
vt 0.875000 1.000000
vt 1.000000 1.000000
vt 0.750000 1.000000
s 1
f 1/1/1 2/2/2 3/3/3
f 4/4/4 3/3/3 2/2/2
f 3/3/3 4/4/4 5/5/5
f 5/5/5 4/4/4 6/6/6
f 7/7/7 8/8/8 9/7/9
f 9/7/9 8/8/8 10/7/10
f 8/8/8 7/7/7 11/8/11
f 12/9/12 9/7/9 13/9/10
f 12/9/12 7/7/7 9/7/9
f 7/7/7 14/8/13 11/8/11
f 14/8/13 7/7/7 15/7/14
f 16/10/15 11/8/11 14/8/13
f 16/10/15 8/8/8 11/8/11
f 14/8/13 17/10/16 16/10/15
f 18/9/17 15/7/14 7/7/7
f 7/7/7 12/9/12 18/9/17
f 15/7/14 18/9/17 19/9/18
f 17/10/16 20/11/19 16/10/15
f 8/8/8 16/10/15 21/10/20
f 8/8/8 21/10/20 22/8/21
f 20/11/19 21/10/20 16/10/15
f 23/12/22 19/9/18 18/9/17
f 23/12/22 18/9/17 12/9/12
f 19/9/18 23/12/22 24/12/23
f 25/13/24 24/12/23 23/12/22
f 24/12/23 25/13/24 26/13/25
f 23/12/22 12/9/12 27/12/26
f 27/12/26 25/13/24 23/12/22
f 27/12/26 12/9/12 28/12/27
f 25/13/24 27/12/26 29/13/28
f 29/13/28 27/12/26 30/13/27
f 21/10/20 31/11/29 32/10/27
f 21/10/20 20/11/19 31/11/29
f 20/11/19 33/14/30 31/11/29
f 31/11/29 33/14/30 34/11/27
f 33/14/30 35/15/31 36/14/27
f 33/14/30 37/15/24 35/15/31
f 20/11/19 38/14/32 33/14/30
f 37/15/24 33/14/30 38/14/32
f 39/11/33 38/14/32 20/11/19
f 20/11/19 17/10/16 39/11/33
f 39/11/33 40/14/34 38/14/32
f 37/15/24 38/14/32 40/14/34
f 40/14/34 41/15/35 37/15/24
f 42/7/7 43/8/8 44/7/9
f 44/7/9 43/8/8 45/7/10
f 43/8/8 42/7/7 46/8/11
f 47/9/12 44/7/9 48/9/10
f 47/9/12 42/7/7 44/7/9
f 42/7/7 49/8/13 46/8/11
f 49/8/13 42/7/7 50/7/14
f 51/10/15 46/8/11 49/8/13
f 51/10/15 43/8/8 46/8/11
f 49/8/13 52/10/16 51/10/15
f 53/9/36 50/7/14 42/7/7
f 42/7/7 47/9/12 53/9/36
f 50/7/14 53/9/36 54/9/18
f 52/10/16 55/11/37 51/10/15
f 43/8/8 51/10/15 56/10/20
f 43/8/8 56/10/20 57/8/27
f 55/11/37 56/10/20 51/10/15
f 58/12/22 54/9/18 53/9/36
f 58/12/22 53/9/36 47/9/12
f 54/9/18 58/12/22 59/12/23
f 60/13/24 59/12/23 58/12/22
f 59/12/23 60/13/24 61/13/25
f 58/12/22 47/9/12 62/12/26
f 62/12/26 60/13/24 58/12/22
f 62/12/26 47/9/12 63/12/27
f 60/13/24 62/12/26 64/13/38
f 64/13/38 62/12/26 65/13/27
f 56/10/20 66/11/29 67/10/27
f 56/10/20 55/11/37 66/11/29
f 55/11/37 68/14/30 66/11/29
f 66/11/29 68/14/30 69/11/27
f 68/14/30 70/15/31 71/14/27
f 68/14/30 72/15/24 70/15/31
f 55/11/37 73/14/32 68/14/30
f 72/15/24 68/14/30 73/14/32
f 74/11/33 73/14/32 55/11/37
f 55/11/37 52/10/16 74/11/33
f 74/11/33 75/14/34 73/14/32
f 72/15/24 73/14/32 75/14/34
f 75/14/34 76/15/35 72/15/24
f 77/16/39 78/2/40 79/17/41
f 78/2/40 80/18/42 79/17/41
f 78/2/40 77/16/39 81/19/43
f 82/20/21 81/19/43 77/16/39
f 83/21/44 80/18/42 78/2/40
f 83/21/44 84/11/45 80/18/42
f 85/10/46 84/11/45 83/21/44
f 86/17/41 87/22/47 88/16/39
f 89/18/48 87/22/47 86/17/41
f 88/16/39 87/22/47 90/23/49
f 91/24/21 88/16/39 90/23/49
f 87/22/47 89/18/48 92/25/50
f 93/11/45 92/25/50 89/18/48
f 92/25/50 93/11/45 94/14/51
f 95/26/52 96/27/53 97/28/54
f 98/29/27 97/28/54 96/27/53
f 96/27/53 95/26/52 99/30/55
f 100/31/56 99/30/55 95/26/52
f 99/30/55 100/31/56 101/32/57
f 102/9/58 101/32/57 100/31/56
f 101/32/57 102/9/58 103/7/59
f 104/33/60 105/26/61 106/34/62
f 106/34/62 105/26/61 107/28/54
f 108/35/27 106/34/62 107/28/54
f 104/33/60 109/31/63 105/26/61
f 110/36/64 109/31/63 104/33/60
f 110/36/64 111/9/58 109/31/63
f 112/12/65 111/9/58 110/36/64
f 113/37/66 114/38/67 115/37/68
f 114/38/67 113/37/66 116/39/69
f 116/39/69 117/40/70 114/38/67
f 117/40/70 116/39/69 118/40/71
f 119/2/72 120/1/1 121/41/73
f 120/1/1 119/2/72 122/2/2
f 121/41/73 120/1/1 123/30/74
f 121/41/73 123/30/74 124/30/75
f 125/42/76 126/10/77 127/43/78
f 126/10/77 125/42/76 128/44/79
f 129/45/80 128/44/79 125/42/76
f 128/44/79 129/45/80 130/46/81
f 131/47/27 132/23/82 133/48/83
f 134/22/47 133/48/83 132/23/82
f 133/48/83 134/22/47 135/49/84
f 136/50/85 135/49/84 134/22/47
f 136/50/85 134/22/47 137/25/86
f 138/15/87 136/50/85 137/25/86
f 138/15/87 137/25/86 139/14/51
f 140/7/59 141/8/88 142/32/57
f 142/32/57 141/8/88 143/51/89
f 142/32/57 143/51/89 144/30/55
f 144/30/55 143/51/89 145/52/90
f 146/53/91 144/30/55 145/52/90
f 144/30/55 146/53/91 147/27/92
f 148/54/10 147/27/92 146/53/91
f 149/55/27 150/56/83 151/34/62
f 152/57/93 151/34/62 150/56/83
f 151/34/62 152/57/93 153/33/60
f 154/58/94 153/33/60 152/57/93
f 153/33/60 154/58/94 155/36/95
f 156/13/87 155/36/95 154/58/94
f 155/36/95 156/13/87 157/12/96
f 158/59/10 159/53/91 160/19/43
f 159/53/91 161/2/40 160/19/43
f 162/52/97 161/2/40 159/53/91
f 163/51/98 161/2/40 162/52/97
f 161/2/40 163/51/98 164/21/99
f 165/8/88 164/21/99 163/51/98
f 164/21/99 165/8/88 166/10/100
f 167/60/101 168/61/101 169/62/102
f 170/44/103 168/61/101 167/60/101
f 170/44/103 171/63/103 168/61/101
f 167/60/101 169/62/102 172/64/102
f 172/64/102 169/62/102 173/65/104
f 172/64/102 173/65/104 174/10/104
f 175/66/105 176/67/106 177/68/74
f 176/67/106 178/69/107 177/68/74
f 179/12/108 180/14/109 181/10/110
f 182/15/111 183/15/112 180/14/109
f 180/14/109 179/12/108 184/13/111
f 185/14/113 180/14/109 183/15/112
f 180/14/109 186/11/114 181/10/110
f 180/14/109 185/14/113 186/11/114
f 183/15/112 187/14/115 185/14/113
f 187/14/115 183/15/112 188/15/116
f 187/14/115 188/15/116 189/15/117
f 190/11/118 186/11/114 185/14/113
f 186/11/114 190/11/118 181/10/110
f 191/11/119 185/14/113 187/14/115
f 185/14/113 191/11/119 190/11/118
f 189/15/117 192/14/120 187/14/115
f 189/15/117 193/14/51 192/14/120
f 193/14/51 189/15/117 194/15/87
f 195/11/121 187/14/115 192/14/120
f 192/14/120 193/14/51 195/11/121
f 187/14/115 195/11/121 191/11/119
f 196/11/45 195/11/121 193/14/51
f 197/10/46 195/11/121 196/11/45
f 195/11/121 197/10/46 198/10/122
f 195/11/121 199/10/123 191/11/119
f 199/10/123 195/11/121 198/10/122
f 199/10/123 190/11/118 191/11/119
f 198/10/122 197/10/46 200/8/124
f 200/8/124 199/10/123 198/10/122
f 201/8/88 200/8/124 197/10/46
f 202/7/59 200/8/124 201/8/88
f 199/10/123 200/8/124 203/8/125
f 200/8/124 202/7/59 204/7/126
f 190/11/118 199/10/123 205/10/127
f 205/10/127 181/10/110 190/11/118
f 206/8/128 199/10/123 203/8/125
f 199/10/123 206/8/128 205/10/127
f 200/8/124 207/7/129 203/8/125
f 207/7/129 200/8/124 204/7/126
f 207/7/129 206/8/128 203/8/125
f 205/10/127 208/8/130 181/10/110
f 208/8/130 205/10/127 206/8/128
f 209/7/131 181/10/110 208/8/130
f 206/8/128 209/7/131 208/8/130
f 181/10/110 209/7/131 179/12/108
f 209/7/131 206/8/128 210/7/132
f 206/8/128 207/7/129 210/7/132
f 179/12/108 209/7/131 211/9/133
f 209/7/131 210/7/132 211/9/133
f 212/9/134 211/9/133 210/7/132
f 211/9/133 212/9/134 179/12/108
f 212/9/134 210/7/132 207/7/129
f 207/7/129 213/9/135 212/9/134
f 214/12/136 179/12/108 212/9/134
f 179/12/108 214/12/136 184/13/111
f 215/13/112 184/13/111 214/12/136
f 212/9/134 216/12/137 214/12/136
f 216/12/137 215/13/112 214/12/136
f 216/12/137 212/9/134 213/9/135
f 216/12/137 217/13/116 215/13/112
f 216/12/137 218/13/117 217/13/116
f 207/7/129 219/9/138 213/9/135
f 219/9/138 216/12/137 213/9/135
f 219/9/138 207/7/129 204/7/126
f 218/13/117 216/12/137 220/12/139
f 216/12/137 219/9/138 220/12/139
f 204/7/126 202/7/59 219/9/138
f 221/9/58 219/9/138 202/7/59
f 222/12/65 219/9/138 221/9/58
f 219/9/138 222/12/65 220/12/139
f 222/12/65 218/13/117 220/12/139
f 218/13/117 222/12/65 223/13/87
f 224/12/108 225/14/109 226/10/110
f 227/15/111 228/15/112 225/14/109
f 225/14/109 224/12/108 229/13/111
f 230/14/113 225/14/109 228/15/112
f 225/14/109 231/11/114 226/10/110
f 225/14/109 230/14/113 231/11/114
f 228/15/112 232/14/115 230/14/113
f 232/14/115 228/15/112 233/15/116
f 232/14/115 233/15/116 234/15/117
f 235/11/118 231/11/114 230/14/113
f 231/11/114 235/11/118 226/10/110
f 236/11/119 230/14/113 232/14/115
f 230/14/113 236/11/119 235/11/118
f 234/15/117 237/14/120 232/14/115
f 234/15/117 238/14/51 237/14/120
f 238/14/51 234/15/117 239/15/87
f 240/11/121 232/14/115 237/14/120
f 237/14/120 238/14/51 240/11/121
f 232/14/115 240/11/121 236/11/119
f 241/11/45 240/11/121 238/14/51
f 242/10/46 240/11/121 241/11/45
f 240/11/121 242/10/46 243/10/122
f 240/11/121 244/10/123 236/11/119
f 244/10/123 240/11/121 243/10/122
f 244/10/123 235/11/118 236/11/119
f 243/10/122 242/10/46 245/8/124
f 245/8/124 244/10/123 243/10/122
f 246/8/88 245/8/124 242/10/46
f 247/7/59 245/8/124 246/8/88
f 244/10/123 245/8/124 248/8/125
f 245/8/124 247/7/59 249/7/126
f 235/11/118 244/10/123 250/10/127
f 250/10/127 226/10/110 235/11/118
f 251/8/128 244/10/123 248/8/125
f 244/10/123 251/8/128 250/10/127
f 245/8/124 252/7/129 248/8/125
f 252/7/129 245/8/124 249/7/126
f 252/7/129 251/8/128 248/8/125
f 250/10/127 253/8/130 226/10/110
f 253/8/130 250/10/127 251/8/128
f 254/7/131 226/10/110 253/8/130
f 251/8/128 254/7/131 253/8/130
f 226/10/110 254/7/131 224/12/108
f 254/7/131 251/8/128 255/7/132
f 251/8/128 252/7/129 255/7/132
f 224/12/108 254/7/131 256/9/133
f 254/7/131 255/7/132 256/9/133
f 257/9/134 256/9/133 255/7/132
f 256/9/133 257/9/134 224/12/108
f 257/9/134 255/7/132 252/7/129
f 252/7/129 258/9/135 257/9/134
f 259/12/136 224/12/108 257/9/134
f 224/12/108 259/12/136 229/13/111
f 260/13/112 229/13/111 259/12/136
f 257/9/134 261/12/137 259/12/136
f 261/12/137 260/13/112 259/12/136
f 261/12/137 257/9/134 258/9/135
f 261/12/137 262/13/116 260/13/112
f 261/12/137 263/13/117 262/13/116
f 252/7/129 264/9/138 258/9/135
f 264/9/138 261/12/137 258/9/135
f 264/9/138 252/7/129 249/7/126
f 263/13/117 261/12/137 265/12/139
f 261/12/137 264/9/138 265/12/139
f 249/7/126 247/7/59 264/9/138
f 266/9/58 264/9/138 247/7/59
f 267/12/65 264/9/138 266/9/58
f 264/9/138 267/12/65 265/12/139
f 267/12/65 263/13/117 265/12/139
f 263/13/117 267/12/65 268/13/87
f 269/47/27 270/23/82 271/48/83
f 272/22/47 271/48/83 270/23/82
f 271/48/83 272/22/47 273/49/84
f 274/50/85 273/49/84 272/22/47
f 274/50/85 272/22/47 275/25/86
f 276/15/87 274/50/85 275/25/86
f 276/15/87 275/25/86 277/14/51
f 278/59/10 279/53/91 280/19/43
f 279/53/91 281/2/40 280/19/43
f 282/52/97 281/2/40 279/53/91
f 283/51/98 281/2/40 282/52/97
f 281/2/40 283/51/98 284/21/99
f 285/8/88 284/21/99 283/51/98
f 284/21/99 285/8/88 286/10/100
f 287/55/27 288/56/83 289/34/62
f 290/57/93 289/34/62 288/56/83
f 289/34/62 290/57/93 291/33/60
f 292/58/94 291/33/60 290/57/93
f 291/33/60 292/58/94 293/36/95
f 294/13/87 293/36/95 292/58/94
f 293/36/95 294/13/87 295/12/96
f 296/7/59 297/8/88 298/32/57
f 298/32/57 297/8/88 299/51/89
f 298/32/57 299/51/89 300/30/55
f 300/30/55 299/51/89 301/52/90
f 302/53/91 300/30/55 301/52/90
f 300/30/55 302/53/91 303/27/92
f 304/54/10 303/27/92 302/53/91
f 305/45/140 306/70/141 307/71/142
f 305/45/140 307/71/142 308/46/143
f 309/72/144 310/42/76 311/43/145
f 310/42/76 309/72/144 312/73/146
f 313/17/41 314/22/47 315/16/39
f 316/18/48 314/22/47 313/17/41
f 315/16/39 314/22/47 317/23/49
f 318/24/21 315/16/39 317/23/49
f 314/22/47 316/18/48 319/25/50
f 320/11/45 319/25/50 316/18/48
f 319/25/50 320/11/45 321/14/51
f 322/16/39 323/2/40 324/17/41
f 323/2/40 325/18/42 324/17/41
f 323/2/40 322/16/39 326/19/43
f 327/20/21 326/19/43 322/16/39
f 328/21/44 325/18/42 323/2/40
f 328/21/44 329/11/45 325/18/42
f 330/10/46 329/11/45 328/21/44
f 331/33/60 332/26/61 333/34/62
f 333/34/62 332/26/61 334/28/54
f 335/35/27 333/34/62 334/28/54
f 331/33/60 336/31/63 332/26/61
f 337/36/64 336/31/63 331/33/60
f 337/36/64 338/9/58 336/31/63
f 339/12/65 338/9/58 337/36/64
f 340/26/52 341/27/53 342/28/54
f 343/29/27 342/28/54 341/27/53
f 341/27/53 340/26/52 344/30/55
f 345/31/56 344/30/55 340/26/52
f 344/30/55 345/31/56 346/32/147
f 347/9/58 346/32/147 345/31/56
f 346/32/147 347/9/58 348/7/59
f 349/70/141 350/42/76 351/73/146
f 350/42/76 349/70/141 352/45/80
f 353/74/71 354/14/148 355/74/149
f 354/14/148 353/74/71 356/14/2
f 357/75/150 358/76/103 359/77/150
f 358/76/103 357/75/150 360/78/103
f 361/79/151 362/80/151 363/81/104
f 364/82/104 363/81/104 362/80/151
f 365/67/152 366/70/141 367/73/146
f 365/67/152 367/73/146 368/69/153
f 369/83/141 370/37/154 371/38/67
f 369/83/141 371/38/67 372/71/142
f 373/72/144 374/41/73 375/30/153
f 373/72/144 375/30/153 376/7/146
f 377/46/143 378/44/155 379/44/156
f 378/44/155 377/46/143 380/71/142
f 381/10/157 382/10/158 383/43/145
f 382/10/158 384/72/144 383/43/145
f 385/44/159 386/44/160 387/10/161
f 386/44/160 388/10/158 387/10/161
f 389/38/67 390/44/162 391/71/142
f 390/44/162 389/38/67 392/40/149
f 393/41/73 394/72/144 395/2/148
f 396/10/158 395/2/148 394/72/144
f 397/84/163 398/85/163 399/75/150
f 397/84/163 399/75/150 400/77/164
f 401/80/151 402/79/151 403/86/165
f 401/80/151 403/86/165 404/87/165
f 405/44/160 406/74/70 407/14/166
f 405/44/160 407/14/166 408/10/167
f 409/85/168 410/84/168 411/87/169
f 409/85/168 411/87/169 412/86/169
f 413/8/13 414/88/170 415/40/171
f 413/8/13 415/40/171 416/10/16
f 417/40/172 418/11/33 416/10/16
f 418/11/33 417/40/172 419/89/173
f 420/90/174 418/11/33 421/89/175
f 420/90/174 422/14/34 418/11/33
f 423/90/176 424/15/25 422/14/34
f 424/15/25 423/90/176 425/91/177
f 426/8/13 427/88/178 428/40/171
f 426/8/13 428/40/171 429/10/16
f 430/40/179 431/11/33 429/10/16
f 431/11/33 430/40/179 432/89/173
f 433/90/174 431/11/33 434/89/180
f 433/90/174 435/14/34 431/11/33
f 436/90/176 437/15/25 435/14/34
f 437/15/25 436/90/176 438/91/177
f 439/92/181 440/13/25 441/93/182
f 440/13/25 439/92/181 442/12/23
f 443/92/183 444/9/18 442/12/23
f 444/9/18 443/92/183 445/94/184
f 444/9/18 446/94/185 447/37/186
f 444/9/18 447/37/186 448/7/14
f 449/37/187 413/8/13 448/7/14
f 413/8/13 449/37/187 450/88/188
f 451/92/181 452/13/25 453/93/182
f 452/13/25 451/92/181 454/12/23
f 455/92/183 456/9/18 454/12/23
f 456/9/18 455/92/183 457/94/184
f 456/9/18 458/94/189 459/37/186
f 456/9/18 459/37/186 460/7/14
f 461/37/190 426/8/13 460/7/14
f 426/8/13 461/37/190 462/88/188
o balloonshortyholdpart
v -0.776806 0.004471 -0.041038
v -0.263543 -0.010851 -0.095559
v -0.776806 -0.010851 -0.095559
v -0.263543 -0.047214 -0.123113
v -0.263543 0.004471 -0.041038
v -0.234922 -0.040280 -0.094492
v -0.234922 -0.205694 -0.094492
v -0.234922 -0.020436 -0.023877
v -0.234922 0.011757 -0.000000
v -0.263543 -0.205694 -0.123113
v -0.522163 -0.205694 -0.123113
v -0.776806 -0.047214 -0.123113
v -0.805428 -0.040280 -0.094492
v -0.776806 -0.151175 -0.123113
v -0.805428 -0.145695 -0.094492
v -0.777440 -0.180308 -0.094492
v -0.263543 -0.234317 -0.094492
v -0.525192 -0.234317 -0.094492
v -0.525192 -0.234317 0.094492
v -0.263543 -0.234317 0.094492
v -0.777440 -0.180308 0.094492
v -0.522163 -0.205694 0.123113
v -0.805428 -0.145695 0.094492
v -0.776806 -0.151175 0.123113
v -0.263543 -0.205694 0.123113
v -0.776806 -0.047214 0.123113
v -0.263543 -0.047214 0.123113
v -0.234922 -0.205694 0.094492
v -0.805428 -0.020436 -0.023877
v -0.234922 -0.020436 0.023877
v -0.234922 -0.040280 0.094492
v -0.263543 0.004471 0.041038
v -0.263543 -0.010851 0.095559
v -0.776806 -0.010851 0.095559
v -0.263543 0.055889 0.017050
v -0.805428 -0.040280 0.094492
v -0.776806 0.004471 0.041038
v -0.805428 -0.020436 0.023877
v -0.805428 0.011757 -0.000000
v -0.776806 0.055889 0.017050
v -0.776806 0.055889 -0.017050
v -0.263543 0.055889 -0.017050
vn -0.4625 0.6857 -0.5620
vn 0.3372 0.7917 -0.5094
vn -0.3375 0.7916 -0.5094
vn 0.3375 0.2762 -0.8999
vn 0.4625 0.6857 -0.5620
vn 0.8671 0.3008 -0.3970
vn 0.8756 -0.3416 -0.3416
vn 0.9335 0.2854 -0.2170
vn 0.9441 0.3298 -0.0004
vn 0.3416 -0.3416 -0.8756
vn -0.0424 -0.4006 -0.9153
vn -0.3375 0.2762 -0.8999
vn -0.8671 0.3011 -0.3968
vn -0.3857 -0.3122 -0.8682
vn -0.8951 -0.2911 -0.3377
vn -0.4719 -0.8143 -0.3380
vn 0.3416 -0.8756 -0.3416
vn -0.0974 -0.9219 -0.3749
vn -0.0970 -0.9220 0.3749
vn 0.3416 -0.8756 0.3416
vn -0.4719 -0.8143 0.3380
vn -0.0424 -0.4006 0.9153
vn -0.8950 -0.2909 0.3382
vn -0.3860 -0.3121 0.8681
vn 0.3416 -0.3416 0.8756
vn -0.3370 0.2763 0.9000
vn 0.3375 0.2762 0.8999
vn 0.8756 -0.3416 0.3416
vn -0.9335 0.2854 -0.2170
vn 0.9335 0.2853 0.2172
vn 0.8670 0.3011 0.3970
vn 0.4625 0.6857 0.5621
vn 0.3375 0.7916 0.5094
vn -0.3368 0.7917 0.5097
vn 0.4209 0.7748 0.4717
vn -0.8671 0.3008 0.3970
vn -0.4624 0.6857 0.5622
vn -0.9335 0.2854 0.2172
vn -0.9441 0.3298 -0.0004
vn -0.4208 0.7749 0.4717
vn -0.4209 0.7749 -0.4715
vn 0.4209 0.7749 -0.4715
vt 0.000000 0.000000
s 1
f 463/95/191 464/95/192 465/95/193
f 465/95/193 464/95/192 466/95/194
f 464/95/192 463/95/191 467/95/195
f 468/95/196 466/95/194 464/95/192
f 467/95/195 468/95/196 464/95/192
f 469/95/197 466/95/194 468/95/196
f 468/95/196 467/95/195 470/95/198
f 470/95/198 469/95/197 468/95/196
f 471/95/199 470/95/198 467/95/195
f 466/95/194 469/95/197 472/95/200
f 473/95/201 466/95/194 472/95/200
f 465/95/193 466/95/194 474/95/202
f 474/95/202 466/95/194 473/95/201
f 475/95/203 465/95/193 474/95/202
f 475/95/203 463/95/191 465/95/193
f 474/95/202 473/95/201 476/95/204
f 474/95/202 477/95/205 475/95/203
f 477/95/205 474/95/202 476/95/204
f 473/95/201 478/95/206 476/95/204
f 477/95/205 476/95/204 478/95/206
f 473/95/201 472/95/200 479/95/207
f 469/95/197 479/95/207 472/95/200
f 473/95/201 479/95/207 480/95/208
f 478/95/206 473/95/201 480/95/208
f 479/95/207 481/95/209 480/95/208
f 478/95/206 480/95/208 481/95/209
f 481/95/209 479/95/207 482/95/210
f 469/95/197 482/95/210 479/95/207
f 478/95/206 481/95/209 483/95/211
f 482/95/210 484/95/212 481/95/209
f 483/95/211 481/95/209 484/95/212
f 478/95/206 483/95/211 485/95/213
f 485/95/213 477/95/205 478/95/206
f 484/95/212 486/95/214 483/95/211
f 485/95/213 483/95/211 486/95/214
f 484/95/212 482/95/210 487/95/215
f 484/95/212 488/95/216 486/95/214
f 488/95/216 485/95/213 486/95/214
f 484/95/212 487/95/215 489/95/217
f 488/95/216 484/95/212 489/95/217
f 490/95/218 487/95/215 482/95/210
f 490/95/218 489/95/217 487/95/215
f 482/95/210 469/95/197 490/95/218
f 491/95/219 477/95/205 485/95/213
f 477/95/205 491/95/219 475/95/203
f 475/95/203 491/95/219 463/95/191
f 492/95/220 490/95/218 469/95/197
f 492/95/220 469/95/197 470/95/198
f 492/95/220 470/95/198 471/95/199
f 490/95/218 492/95/220 493/95/221
f 489/95/217 490/95/218 493/95/221
f 471/95/199 494/95/222 492/95/220
f 494/95/222 493/95/221 492/95/220
f 495/95/223 489/95/217 493/95/221
f 494/95/222 495/95/223 493/95/221
f 495/95/223 488/95/216 489/95/217
f 494/95/222 496/95/224 495/95/223
f 488/95/216 495/95/223 496/95/224
f 494/95/222 471/95/199 497/95/225
f 498/95/226 488/95/216 496/95/224
f 485/95/213 488/95/216 498/95/226
f 496/95/224 494/95/222 499/95/227
f 499/95/227 494/95/222 497/95/225
f 499/95/227 498/95/226 496/95/224
f 500/95/228 485/95/213 498/95/226
f 498/95/226 499/95/227 500/95/228
f 491/95/219 485/95/213 500/95/228
f 500/95/228 501/95/229 491/95/219
f 500/95/228 499/95/227 501/95/229
f 501/95/229 463/95/191 491/95/219
f 499/95/227 497/95/225 502/95/230
f 499/95/227 502/95/230 501/95/229
f 463/95/191 501/95/229 503/95/231
f 503/95/231 501/95/229 502/95/230
f 503/95/231 467/95/195 463/95/191
f 504/95/232 502/95/230 497/95/225
f 504/95/232 503/95/231 502/95/230
f 503/95/231 504/95/232 467/95/195
f 497/95/225 471/95/199 504/95/232
f 467/95/195 504/95/232 471/95/199
