# Blender 5.2.0 LTS
# www.blender.org
mtllib balloonshortybackpart.mtl
o RenderMesh_89800000366184
v 0.060291 0.082966 0.033903
v -0.075662 0.186765 0.010030
v -0.075662 0.082966 0.033903
v -0.109494 0.160992 -0.018759
v -0.075662 0.229760 -0.112891
v -0.109494 0.085922 -0.001493
v -0.109494 0.193561 -0.111873
v -0.109494 0.005061 -0.034987
v 0.060291 0.186765 0.010030
v -0.109494 0.160870 -0.190796
v 0.060291 0.229760 -0.112891
v -0.075662 0.186765 -0.216691
v -0.109494 0.082966 -0.223065
v 0.094124 0.160992 -0.018759
v 0.094124 0.085922 -0.001493
v 0.094124 0.193561 -0.111873
v 0.094124 0.005061 -0.034987
v 0.094124 0.160870 -0.190796
v 0.060291 0.186765 -0.216691
v 0.094124 0.082966 -0.223065
v -0.075662 0.082966 -0.259686
v 0.060291 0.082966 -0.259686
v -0.075662 -0.020833 -0.216691
v -0.109494 0.005061 -0.190796
v -0.109494 -0.027208 -0.112891
v -0.075662 -0.063829 -0.112891
v 0.060291 -0.020833 -0.216691
v -0.075662 -0.020833 -0.009092
v 0.060291 -0.063829 -0.112891
v 0.094124 0.005061 -0.190796
v 0.094124 -0.027208 -0.112891
v 0.060291 -0.020833 -0.009092
v -0.309989 -0.043135 -0.136012
v -0.078162 -0.006634 -0.095584
v -0.041661 -0.043135 -0.136012
v -0.325020 -0.006634 -0.095584
v -0.325020 -0.006634 0.095584
v -0.078162 -0.006634 0.095584
v -0.309989 -0.043135 0.136012
v -0.376601 -0.057784 -0.095584
v -0.376601 -0.057784 0.095584
v -0.345687 -0.078534 -0.136012
v -0.267307 -0.193258 -0.136012
v -0.397965 -0.109364 -0.095584
v -0.345687 -0.078534 0.136012
v -0.361465 -0.116625 -0.136012
v -0.361465 -0.193258 -0.136012
v -0.361465 -0.229760 -0.095584
v -0.397965 -0.193258 -0.095584
v -0.267307 -0.193258 0.136012
v -0.397965 -0.193258 0.095584
v -0.397965 -0.109364 0.095584
v -0.361465 -0.116625 0.136012
v -0.361465 -0.193258 0.136012
v -0.361465 -0.229760 0.095584
v -0.265222 -0.229760 0.095584
v -0.078162 -0.153373 0.136012
v -0.041661 -0.043135 0.136012
v 0.101178 -0.163834 0.136012
v 0.095897 -0.200439 0.095584
v 0.161299 0.108252 0.136012
v 0.135520 0.116250 0.136012
v 0.197965 0.093988 0.095584
v -0.041661 0.116250 0.136012
v 0.132338 0.152751 0.095584
v -0.078162 0.152751 0.095584
v 0.171033 0.140579 0.095584
v 0.132338 0.152751 -0.095584
v 0.171033 0.140579 -0.095584
v -0.078162 0.152751 -0.095584
v -0.041661 0.116250 -0.136012
v 0.135520 0.116250 -0.136012
v 0.161299 0.108252 -0.136012
v 0.197965 0.093988 -0.095584
v 0.101178 -0.163834 -0.136012
v 0.140224 -0.166923 0.095584
v 0.140224 -0.166923 -0.095584
v 0.095897 -0.200439 -0.095584
v -0.078162 -0.153373 -0.136012
v -0.078162 -0.190299 -0.095584
v -0.078162 -0.190299 0.095584
v -0.265222 -0.229760 -0.095584
v 0.060291 0.186765 -0.010030
v 0.060291 0.082966 -0.033903
v -0.075662 0.186765 -0.010030
v -0.075662 0.229760 0.112891
v -0.075662 0.082966 -0.033903
v 0.060291 0.229760 0.112891
v -0.109494 0.160992 0.018759
v -0.109494 0.193561 0.111873
v -0.109494 0.085922 0.001493
v -0.109494 0.005061 0.034987
v -0.109494 0.160870 0.190796
v -0.075662 0.186765 0.216691
v -0.109494 0.082966 0.223065
v -0.075662 -0.020833 0.009092
v 0.060291 -0.020833 0.009092
v -0.075662 -0.063829 0.112891
v 0.060291 -0.063829 0.112891
v -0.109494 -0.027208 0.112891
v -0.109494 0.005061 0.190796
v -0.075662 -0.020833 0.216691
v -0.075662 0.082966 0.259686
v 0.060291 -0.020833 0.216691
v 0.060291 0.082966 0.259686
v 0.060291 0.186765 0.216691
v 0.094124 0.082966 0.223065
v 0.094124 0.005061 0.190796
v 0.094124 -0.027208 0.112891
v 0.094124 0.005061 0.034987
v 0.094124 0.160870 0.190796
v 0.094124 0.193561 0.111873
v 0.094124 0.085922 0.001493
v 0.094124 0.160992 0.018759
vn 0.3686 -0.0774 0.9263
vn -0.3716 0.6192 0.6917
vn -0.3684 -0.0771 0.9265
vn -0.8969 0.2948 0.3297
vn -0.3683 0.9293 -0.0263
vn -0.9026 -0.0356 0.4290
vn -0.9001 0.4356 -0.0122
vn -0.8991 -0.3092 0.3097
vn 0.3716 0.6192 0.6917
vn -0.8991 0.3095 -0.3095
vn 0.3686 0.9292 -0.0261
vn -0.3692 0.6569 -0.6574
vn -0.8991 -0.0000 -0.4377
vn 0.8969 0.2947 0.3297
vn 0.9025 -0.0356 0.4292
vn 0.9001 0.4356 -0.0122
vn 0.8992 -0.3091 0.3096
vn 0.8991 0.3095 -0.3095
vn 0.3688 0.6572 -0.6573
vn 0.8991 -0.0000 -0.4377
vn -0.3689 -0.0000 -0.9295
vn 0.3688 -0.0000 -0.9295
vn -0.3689 -0.6572 -0.6573
vn -0.8991 -0.3092 -0.3097
vn -0.8989 -0.4382 0.0005
vn -0.3691 -0.9294 0.0003
vn 0.3688 -0.6572 -0.6572
vn -0.3691 -0.6570 0.6574
vn 0.3687 -0.9296 0.0005
vn 0.8992 -0.3090 -0.3096
vn 0.8989 -0.4381 0.0006
vn 0.3688 -0.6572 0.6573
vn -0.1765 0.4287 -0.8860
vn -0.5945 0.5943 -0.5417
vn -0.1189 0.1187 -0.9858
vn -0.3569 0.8667 -0.3485
vn -0.3569 0.8667 0.3485
vn -0.5942 0.5942 0.5421
vn -0.1765 0.4287 0.8860
vn -0.7781 0.5223 -0.3490
vn -0.7783 0.5220 0.3490
vn -0.3673 0.2465 -0.8968
vn 0.0453 -0.4255 -0.9038
vn -0.9191 0.1828 -0.3491
vn -0.3673 0.2465 0.8968
vn -0.4336 0.0862 -0.8970
vn -0.3592 -0.3592 -0.8614
vn -0.3442 -0.8823 -0.3212
vn -0.8823 -0.3444 -0.3208
vn 0.0453 -0.4255 0.9038
vn -0.8823 -0.3444 0.3208
vn -0.9191 0.1828 0.3491
vn -0.4336 0.0859 0.8970
vn -0.3592 -0.3592 0.8614
vn -0.3441 -0.8822 0.3214
vn 0.0964 -0.9312 0.3514
vn 0.0265 -0.3737 0.9272
vn -0.1189 0.1187 0.9858
vn 0.2993 -0.4076 0.8627
vn 0.2558 -0.9115 0.3220
vn 0.4370 0.2766 0.8559
vn 0.0748 0.4385 0.8956
vn 0.9375 0.1194 0.3270
vn -0.3202 0.3202 0.8916
vn 0.1365 0.9293 0.3432
vn -0.6552 0.6558 0.3750
vn 0.5806 0.7542 0.3067
vn 0.1365 0.9293 -0.3432
vn 0.5806 0.7542 -0.3067
vn -0.6552 0.6558 -0.3750
vn -0.3202 0.3202 -0.8916
vn 0.0749 0.4385 -0.8956
vn 0.4370 0.2766 -0.8559
vn 0.9374 0.1193 -0.3271
vn 0.2993 -0.4076 -0.8627
vn 0.8068 -0.4901 0.3299
vn 0.8067 -0.4902 -0.3299
vn 0.2558 -0.9115 -0.3220
vn 0.0265 -0.3737 -0.9272
vn 0.0713 -0.9256 -0.3716
vn 0.0710 -0.9257 0.3714
vn 0.0961 -0.9313 -0.3512
vn 0.3716 0.6192 -0.6917
vn 0.3686 -0.0774 -0.9263
vn -0.3716 0.6192 -0.6917
vn -0.3683 0.9293 0.0263
vn -0.3684 -0.0771 -0.9265
vn 0.3686 0.9292 0.0261
vn -0.8969 0.2948 -0.3297
vn -0.9001 0.4356 0.0122
vn -0.9024 -0.0359 -0.4294
vn -0.8991 -0.3095 -0.3095
vn -0.8991 0.3093 0.3098
vn -0.3691 0.6570 0.6573
vn -0.8991 -0.0000 0.4377
vn -0.3692 -0.6569 -0.6574
vn 0.3688 -0.6572 -0.6573
vn -0.3689 -0.6572 0.6573
vn -0.3689 -0.0000 0.9295
vn 0.3688 -0.6572 0.6572
vn 0.3688 -0.0000 0.9295
vn 0.3688 0.6572 0.6573
vn 0.8991 -0.0000 0.4377
vn 0.8992 -0.3090 0.3096
vn 0.8990 -0.4380 0.0005
vn 0.8992 -0.3091 -0.3096
vn 0.8991 0.3095 0.3095
vn 0.9001 0.4356 0.0122
vn 0.9024 -0.0359 -0.4294
vn 0.8969 0.2947 -0.3297
vt 0.000000 0.000000
s 1
f 1/1/1 2/1/2 3/1/3
f 4/1/4 3/1/3 2/1/2
f 5/1/5 4/1/4 2/1/2
f 3/1/3 4/1/4 6/1/6
f 7/1/7 6/1/6 4/1/4
f 4/1/4 5/1/5 7/1/7
f 8/1/8 3/1/3 6/1/6
f 7/1/7 8/1/8 6/1/6
f 2/1/2 1/1/1 9/1/9
f 5/1/5 2/1/2 9/1/9
f 10/1/10 7/1/7 5/1/5
f 10/1/10 8/1/8 7/1/7
f 11/1/11 5/1/5 9/1/9
f 10/1/10 5/1/5 12/1/12
f 12/1/12 5/1/5 11/1/11
f 12/1/12 13/1/13 10/1/10
f 13/1/13 8/1/8 10/1/10
f 1/1/1 14/1/14 9/1/9
f 11/1/11 9/1/9 14/1/14
f 14/1/14 1/1/1 15/1/15
f 11/1/11 14/1/14 16/1/16
f 15/1/15 16/1/16 14/1/14
f 17/1/17 15/1/15 1/1/1
f 17/1/17 16/1/16 15/1/15
f 18/1/18 11/1/11 16/1/16
f 17/1/17 18/1/18 16/1/16
f 11/1/11 18/1/18 19/1/19
f 19/1/19 12/1/12 11/1/11
f 20/1/20 19/1/19 18/1/18
f 18/1/18 17/1/17 20/1/20
f 19/1/19 21/1/21 12/1/12
f 12/1/12 21/1/21 13/1/13
f 21/1/21 19/1/19 22/1/22
f 19/1/19 20/1/20 22/1/22
f 23/1/23 13/1/13 21/1/21
f 22/1/22 23/1/23 21/1/21
f 13/1/13 23/1/23 24/1/24
f 25/1/25 13/1/13 24/1/24
f 8/1/8 13/1/13 25/1/25
f 24/1/24 26/1/26 25/1/25
f 26/1/26 8/1/8 25/1/25
f 26/1/26 24/1/24 23/1/23
f 23/1/23 22/1/22 27/1/27
f 27/1/27 26/1/26 23/1/23
f 27/1/27 22/1/22 20/1/20
f 26/1/26 28/1/28 8/1/8
f 3/1/3 8/1/8 28/1/28
f 26/1/26 27/1/27 29/1/29
f 29/1/29 28/1/28 26/1/26
f 20/1/20 30/1/30 27/1/27
f 29/1/29 27/1/27 30/1/30
f 20/1/20 31/1/31 30/1/30
f 29/1/29 30/1/30 31/1/31
f 31/1/31 20/1/20 17/1/17
f 17/1/17 29/1/29 31/1/31
f 32/1/32 3/1/3 28/1/28
f 28/1/28 29/1/29 32/1/32
f 29/1/29 17/1/17 32/1/32
f 3/1/3 32/1/32 1/1/1
f 1/1/1 32/1/32 17/1/17
f 33/1/33 34/1/34 35/1/35
f 34/1/34 33/1/33 36/1/36
f 34/1/34 36/1/36 37/1/37
f 34/1/34 37/1/37 38/1/38
f 38/1/38 37/1/37 39/1/39
f 40/1/40 37/1/37 36/1/36
f 33/1/33 40/1/40 36/1/36
f 41/1/41 39/1/39 37/1/37
f 37/1/37 40/1/40 41/1/41
f 40/1/40 33/1/33 42/1/42
f 43/1/43 42/1/42 33/1/33
f 44/1/44 41/1/41 40/1/40
f 42/1/42 44/1/44 40/1/40
f 39/1/39 41/1/41 45/1/45
f 42/1/42 43/1/43 46/1/46
f 46/1/46 44/1/44 42/1/42
f 46/1/46 43/1/43 47/1/47
f 43/1/43 48/1/48 47/1/47
f 46/1/46 47/1/47 49/1/49
f 49/1/49 47/1/47 48/1/48
f 46/1/46 49/1/49 44/1/44
f 45/1/45 50/1/50 39/1/39
f 51/1/51 49/1/49 48/1/48
f 49/1/49 51/1/51 44/1/44
f 41/1/41 44/1/44 52/1/52
f 52/1/52 45/1/45 41/1/41
f 44/1/44 51/1/51 52/1/52
f 45/1/45 52/1/52 53/1/53
f 50/1/50 45/1/45 53/1/53
f 51/1/51 53/1/53 52/1/52
f 50/1/50 53/1/53 54/1/54
f 53/1/53 51/1/51 54/1/54
f 55/1/55 50/1/50 54/1/54
f 55/1/55 54/1/54 51/1/51
f 48/1/48 55/1/55 51/1/51
f 50/1/50 55/1/55 56/1/56
f 48/1/48 56/1/56 55/1/55
f 39/1/39 57/1/57 58/1/58
f 39/1/39 50/1/50 57/1/57
f 57/1/57 59/1/59 58/1/58
f 57/1/57 60/1/60 59/1/59
f 59/1/59 61/1/61 58/1/58
f 58/1/58 61/1/61 62/1/62
f 59/1/59 63/1/63 61/1/61
f 58/1/58 62/1/62 64/1/64
f 61/1/61 65/1/65 62/1/62
f 65/1/65 64/1/64 62/1/62
f 64/1/64 38/1/38 58/1/58
f 39/1/39 58/1/58 38/1/38
f 65/1/65 66/1/66 64/1/64
f 38/1/38 64/1/64 66/1/66
f 65/1/65 61/1/61 67/1/67
f 67/1/67 61/1/61 63/1/63
f 68/1/68 66/1/66 65/1/65
f 67/1/67 68/1/68 65/1/65
f 34/1/34 38/1/38 66/1/66
f 69/1/69 67/1/67 63/1/63
f 68/1/68 67/1/67 69/1/69
f 70/1/70 34/1/34 66/1/66
f 68/1/68 70/1/70 66/1/66
f 68/1/68 71/1/71 70/1/70
f 34/1/34 70/1/70 71/1/71
f 71/1/71 68/1/68 72/1/72
f 72/1/72 35/1/35 71/1/71
f 71/1/71 35/1/35 34/1/34
f 72/1/72 68/1/68 73/1/73
f 73/1/73 68/1/68 69/1/69
f 35/1/35 72/1/72 73/1/73
f 73/1/73 69/1/69 74/1/74
f 63/1/63 74/1/74 69/1/69
f 75/1/75 35/1/35 73/1/73
f 75/1/75 73/1/73 74/1/74
f 76/1/76 74/1/74 63/1/63
f 63/1/63 59/1/59 76/1/76
f 75/1/75 74/1/74 77/1/77
f 74/1/74 76/1/76 77/1/77
f 60/1/60 76/1/76 59/1/59
f 60/1/60 77/1/77 76/1/76
f 77/1/77 60/1/60 78/1/78
f 78/1/78 75/1/75 77/1/77
f 35/1/35 75/1/75 79/1/79
f 79/1/79 75/1/75 78/1/78
f 80/1/80 78/1/78 60/1/60
f 79/1/79 78/1/78 80/1/80
f 80/1/80 60/1/60 81/1/81
f 60/1/60 57/1/57 81/1/81
f 82/1/82 79/1/79 80/1/80
f 82/1/82 80/1/80 81/1/81
f 33/1/33 35/1/35 79/1/79
f 56/1/56 81/1/81 57/1/57
f 82/1/82 81/1/81 56/1/56
f 56/1/56 57/1/57 50/1/50
f 79/1/79 82/1/82 43/1/43
f 43/1/43 33/1/33 79/1/79
f 82/1/82 56/1/56 48/1/48
f 48/1/48 43/1/43 82/1/82
f 83/1/83 84/1/84 85/1/85
f 83/1/83 85/1/85 86/1/86
f 85/1/85 84/1/84 87/1/87
f 83/1/83 86/1/86 88/1/88
f 89/1/89 86/1/86 85/1/85
f 85/1/85 87/1/87 89/1/89
f 86/1/86 89/1/89 90/1/90
f 91/1/91 90/1/90 89/1/89
f 89/1/89 87/1/87 91/1/91
f 92/1/92 90/1/90 91/1/91
f 87/1/87 92/1/92 91/1/91
f 93/1/93 86/1/86 90/1/90
f 90/1/90 92/1/92 93/1/93
f 86/1/86 93/1/93 94/1/94
f 88/1/88 86/1/86 94/1/94
f 95/1/95 94/1/94 93/1/93
f 92/1/92 95/1/95 93/1/93
f 92/1/92 87/1/87 96/1/96
f 87/1/87 97/1/97 96/1/96
f 84/1/84 97/1/97 87/1/87
f 96/1/96 98/1/26 92/1/92
f 97/1/97 99/1/29 96/1/96
f 96/1/96 99/1/29 98/1/26
f 95/1/95 92/1/92 100/1/25
f 92/1/92 98/1/26 100/1/25
f 95/1/95 100/1/25 101/1/8
f 98/1/26 101/1/8 100/1/25
f 102/1/98 95/1/95 101/1/8
f 101/1/8 98/1/26 102/1/98
f 95/1/95 102/1/98 103/1/99
f 103/1/99 94/1/94 95/1/95
f 98/1/26 104/1/100 102/1/98
f 104/1/100 98/1/26 99/1/29
f 102/1/98 105/1/101 103/1/99
f 104/1/100 105/1/101 102/1/98
f 103/1/99 106/1/102 94/1/94
f 105/1/101 106/1/102 103/1/99
f 88/1/88 94/1/94 106/1/102
f 105/1/101 104/1/100 107/1/103
f 107/1/103 106/1/102 105/1/101
f 104/1/100 99/1/29 108/1/104
f 107/1/103 104/1/100 108/1/104
f 108/1/104 99/1/29 109/1/105
f 109/1/105 107/1/103 108/1/104
f 99/1/29 110/1/106 109/1/105
f 107/1/103 109/1/105 110/1/106
f 110/1/106 99/1/29 97/1/97
f 106/1/102 107/1/103 111/1/107
f 111/1/107 88/1/88 106/1/102
f 107/1/103 110/1/106 111/1/107
f 97/1/97 84/1/84 110/1/106
f 88/1/88 111/1/107 112/1/108
f 111/1/107 110/1/106 112/1/108
f 84/1/84 113/1/109 110/1/106
f 112/1/108 110/1/106 113/1/109
f 84/1/84 114/1/110 113/1/109
f 112/1/108 113/1/109 114/1/110
f 114/1/110 88/1/88 112/1/108
f 114/1/110 84/1/84 83/1/83
f 88/1/88 114/1/110 83/1/83
