# Blender 5.1.1
# www.blender.org
mtllib bwnclawmagfinal123.mtl
o RenderMesh_89041732282055
v -0.135960 -0.345569 -0.123483
v -0.135952 -0.345569 0.123469
v -0.168538 -0.341134 -0.123482
v -0.168530 -0.341134 0.123470
v -0.096645 0.187077 -0.123485
v -0.096637 0.187077 0.123467
v -0.064068 0.182644 -0.123486
v -0.064060 0.182644 0.123466
v -0.016211 -0.361867 -0.123487
v -0.016203 -0.361866 0.123465
v -0.048788 -0.357433 -0.123486
v -0.048780 -0.357433 0.123466
v 0.023105 0.170779 -0.123488
v 0.023113 0.170779 0.123464
v 0.055681 0.166344 -0.123489
v 0.055689 0.166345 0.123463
v -0.255709 -0.329270 -0.123479
v -0.255701 -0.329270 0.123473
v -0.288287 -0.324835 -0.123478
v -0.288279 -0.324835 0.123474
v -0.216394 0.203376 -0.123481
v -0.216386 0.203376 0.123471
v -0.183817 0.198942 -0.123482
v -0.183809 0.198942 0.123470
v 0.055681 0.166344 -0.123489
v 0.055689 0.166345 0.123463
v 0.074389 0.064438 -0.123490
v 0.074397 0.064438 0.123462
v 0.081121 -0.049570 -0.123490
v 0.081129 -0.049570 0.123462
v 0.066008 -0.160606 -0.123489
v 0.066016 -0.160605 0.123463
v 0.029051 -0.268666 -0.123488
v 0.029059 -0.268666 0.123464
v -0.016211 -0.361867 -0.123487
v -0.016203 -0.361866 0.123465
v -0.197687 0.101469 -0.123481
v -0.197679 0.101469 0.123471
v -0.216394 0.203376 -0.123481
v -0.216386 0.203376 0.123471
v -0.190947 -0.012539 0.123470
v -0.190955 -0.012539 -0.123482
v -0.206059 -0.123574 0.123471
v -0.206067 -0.123574 -0.123481
v -0.243017 -0.231634 0.123472
v -0.243025 -0.231635 -0.123480
v -0.288279 -0.324835 0.123474
v -0.288287 -0.324835 -0.123478
v -0.077930 0.085171 0.123467
v -0.064060 0.182644 0.123466
v -0.096637 0.187077 0.123467
v -0.045352 0.080737 0.123466
v -0.071198 -0.028837 0.123467
v -0.038621 -0.033271 0.123466
v -0.086310 -0.139873 0.123467
v -0.053734 -0.144306 0.123466
v -0.090690 -0.252367 0.123468
v -0.123268 -0.247934 0.123469
v -0.135952 -0.345569 0.123469
v -0.168530 -0.341134 0.123470
v -0.064068 0.182644 -0.123486
v -0.077938 0.085170 -0.123485
v -0.096645 0.187077 -0.123485
v -0.045360 0.080736 -0.123486
v -0.071206 -0.028837 -0.123485
v -0.038629 -0.033272 -0.123486
v -0.086318 -0.139873 -0.123485
v -0.053742 -0.144306 -0.123486
v -0.090698 -0.252367 -0.123484
v -0.123276 -0.247934 -0.123483
v -0.135960 -0.345569 -0.123483
v -0.168538 -0.341134 -0.123482
v 0.041820 0.068872 0.123463
v 0.055689 0.166345 0.123463
v 0.023113 0.170779 0.123464
v 0.074397 0.064438 0.123462
v 0.048551 -0.045136 0.123463
v 0.081129 -0.049570 0.123462
v 0.033439 -0.156171 0.123464
v 0.066016 -0.160605 0.123463
v 0.029059 -0.268666 0.123464
v -0.003518 -0.264233 0.123465
v -0.016203 -0.361866 0.123465
v -0.048780 -0.357433 0.123466
v 0.055681 0.166344 -0.123489
v 0.041812 0.068872 -0.123489
v 0.023105 0.170779 -0.123488
v 0.074389 0.064438 -0.123490
v 0.048543 -0.045136 -0.123489
v 0.081121 -0.049570 -0.123490
v 0.033431 -0.156171 -0.123488
v 0.066008 -0.160606 -0.123489
v 0.029051 -0.268666 -0.123488
v -0.003526 -0.264233 -0.123487
v -0.016211 -0.361867 -0.123487
v -0.048788 -0.357433 -0.123486
v -0.197679 0.101469 0.123471
v -0.183809 0.198942 0.123470
v -0.216386 0.203376 0.123471
v -0.165101 0.097035 0.123470
v -0.190947 -0.012539 0.123470
v -0.158370 -0.016973 0.123469
v -0.206059 -0.123574 0.123471
v -0.173483 -0.128008 0.123470
v -0.210439 -0.236070 0.123471
v -0.243017 -0.231634 0.123472
v -0.255701 -0.329270 0.123473
v -0.288279 -0.324835 0.123474
v -0.183817 0.198942 -0.123482
v -0.197687 0.101469 -0.123481
v -0.216394 0.203376 -0.123481
v -0.165109 0.097035 -0.123482
v -0.190955 -0.012539 -0.123482
v -0.158378 -0.016973 -0.123483
v -0.206067 -0.123574 -0.123481
v -0.173491 -0.128008 -0.123482
v -0.210447 -0.236070 -0.123481
v -0.243025 -0.231635 -0.123480
v -0.255709 -0.329270 -0.123479
v -0.288287 -0.324835 -0.123478
v -0.064060 0.182644 0.123466
v -0.045360 0.080736 -0.123486
v -0.064068 0.182644 -0.123486
v -0.045352 0.080737 0.123466
v -0.038629 -0.033272 -0.123486
v -0.038621 -0.033271 0.123466
v -0.053742 -0.144306 -0.123486
v -0.053734 -0.144306 0.123466
v -0.090698 -0.252367 -0.123484
v -0.090690 -0.252367 0.123468
v -0.135960 -0.345569 -0.123483
v -0.135952 -0.345569 0.123469
v -0.077938 0.085170 -0.123485
v -0.077930 0.085171 0.123467
v -0.096645 0.187077 -0.123485
v -0.096637 0.187077 0.123467
v -0.071198 -0.028837 0.123467
v -0.071206 -0.028837 -0.123485
v -0.086310 -0.139873 0.123467
v -0.086318 -0.139873 -0.123485
v -0.123268 -0.247934 0.123469
v -0.123276 -0.247934 -0.123483
v -0.168530 -0.341134 0.123470
v -0.168538 -0.341134 -0.123482
v -0.183817 0.198942 -0.123482
v -0.183809 0.198942 0.123470
v -0.165109 0.097035 -0.123482
v -0.165101 0.097035 0.123470
v -0.158378 -0.016973 -0.123483
v -0.158370 -0.016973 0.123469
v -0.173491 -0.128008 -0.123482
v -0.173483 -0.128008 0.123470
v -0.210447 -0.236070 -0.123481
v -0.210439 -0.236070 0.123471
v -0.255709 -0.329270 -0.123479
v -0.255701 -0.329270 0.123473
v 0.041812 0.068872 -0.123489
v 0.041820 0.068872 0.123463
v 0.023105 0.170779 -0.123488
v 0.023113 0.170779 0.123464
v 0.048551 -0.045136 0.123463
v 0.048543 -0.045136 -0.123489
v 0.033439 -0.156171 0.123464
v 0.033431 -0.156171 -0.123488
v -0.003518 -0.264233 0.123465
v -0.003526 -0.264233 -0.123487
v -0.048780 -0.357433 0.123466
v -0.048788 -0.357433 -0.123486
v 0.100437 0.190114 -0.118087
v -0.265752 0.239956 -0.118076
v -0.265745 0.239956 0.118066
v 0.100444 0.190114 0.118055
v -0.404243 -0.449358 -0.141685
v 0.035184 -0.509167 -0.141698
v 0.035193 -0.509167 0.141672
v -0.404234 -0.449358 0.141685
v -0.404243 -0.449358 -0.141685
v -0.395152 -0.382834 0.141685
v -0.395161 -0.382834 -0.141685
v -0.404234 -0.449358 0.141685
v 0.100437 0.190114 -0.118087
v 0.100444 0.190114 0.118055
v 0.120879 0.070093 -0.118087
v 0.120886 0.070093 0.118055
v 0.128393 -0.048168 -0.118087
v 0.128400 -0.048168 0.118055
v 0.112725 -0.163275 -0.118087
v 0.112732 -0.163275 0.118055
v 0.073879 -0.275227 -0.118086
v 0.073886 -0.275227 0.118056
v 0.022104 -0.385419 -0.118084
v 0.022111 -0.385418 0.118058
v 0.044275 -0.442644 0.141671
v 0.044266 -0.442644 -0.141699
v 0.035193 -0.509167 0.141672
v 0.035184 -0.509167 -0.141698
v 0.044266 -0.442644 -0.141699
v 0.044275 -0.442644 0.141671
v -0.265752 0.239956 -0.118076
v -0.245310 0.119934 -0.118076
v -0.245303 0.119934 0.118066
v -0.265745 0.239956 0.118066
v -0.237790 0.001672 0.118066
v -0.237797 0.001672 -0.118076
v -0.253457 -0.113434 0.118066
v -0.253464 -0.113434 -0.118076
v -0.292303 -0.225386 0.118068
v -0.292310 -0.225386 -0.118074
v -0.344078 -0.335579 0.118069
v -0.344085 -0.335579 -0.118073
v -0.395161 -0.382834 -0.141685
v -0.395152 -0.382834 0.141685
v 0.035184 -0.509167 -0.141698
v -0.395161 -0.382834 -0.141685
v 0.044266 -0.442644 -0.141699
v -0.404243 -0.449358 -0.141685
v 0.035193 -0.509167 0.141672
v -0.395152 -0.382834 0.141685
v -0.404234 -0.449358 0.141685
v 0.044275 -0.442644 0.141671
v 0.100444 0.190114 0.118055
v -0.245303 0.119934 0.118066
v 0.120886 0.070093 0.118055
v -0.265745 0.239956 0.118066
v -0.237790 0.001672 0.118066
v 0.128400 -0.048168 0.118055
v 0.112732 -0.163275 0.118055
v -0.253457 -0.113434 0.118066
v 0.073886 -0.275227 0.118056
v -0.292303 -0.225386 0.118068
v 0.022111 -0.385418 0.118058
v -0.344078 -0.335579 0.118069
v 0.044275 -0.442644 0.141671
v -0.395152 -0.382834 0.141685
v 0.100437 0.190114 -0.118087
v -0.245310 0.119934 -0.118076
v -0.265752 0.239956 -0.118076
v 0.120879 0.070093 -0.118087
v -0.237797 0.001672 -0.118076
v 0.128393 -0.048168 -0.118087
v 0.112725 -0.163275 -0.118087
v -0.253464 -0.113434 -0.118076
v 0.073879 -0.275227 -0.118086
v -0.292310 -0.225386 -0.118074
v 0.022104 -0.385419 -0.118084
v -0.344085 -0.335579 -0.118073
v 0.044266 -0.442644 -0.141699
v -0.395161 -0.382834 -0.141685
vn -0.1349 -0.9909 -0.0000
vn 0.1348 0.9909 -0.0000
vn -0.1348 -0.9909 -0.0000
vn 0.1349 0.9909 -0.0000
vn 0.9836 0.1806 -0.0000
vn 0.9928 0.1200 -0.0000
vn 0.9993 -0.0381 -0.0000
vn 0.9726 -0.2324 -0.0000
vn 0.9242 -0.3819 -0.0000
vn 0.9242 -0.3820 -0.0000
vn 0.8995 -0.4368 -0.0000
vn 0.8995 -0.4369 -0.0000
vn -0.9928 -0.1200 -0.0000
vn -0.9836 -0.1806 -0.0000
vn -0.9993 0.0381 -0.0000
vn -0.9726 0.2323 -0.0000
vn -0.9243 0.3816 -0.0000
vn -0.9242 0.3819 -0.0000
vn -0.8995 0.4368 -0.0000
vn -0.8995 0.4369 -0.0000
vn -0.0000 -0.0000 1.0000
vn -0.0000 -0.0000 -1.0000
vn -0.9241 0.3821 -0.0000
vn -0.9244 0.3815 -0.0000
vn -0.9726 0.2324 -0.0000
vn -0.9241 0.3822 -0.0000
vn -0.9908 0.1353 -0.0000
vn 0.9858 0.1679 -0.0000
vn 0.9933 0.1158 -0.0000
vn 0.9994 -0.0359 -0.0000
vn 0.9993 -0.0363 -0.0000
vn 0.9721 -0.2348 -0.0000
vn 0.9721 -0.2346 -0.0000
vn 0.9262 -0.3771 -0.0000
vn 1.0000 -0.0045 -0.0000
vn 0.9325 0.3612 -0.0000
vn 0.9908 -0.1353 -0.0000
vn -0.9858 -0.1679 -0.0000
vn -0.9933 -0.1158 -0.0000
vn -0.9994 0.0359 -0.0000
vn -0.9721 0.2347 -0.0000
vn -0.9721 0.2348 -0.0000
vn -0.9262 0.3771 -0.0000
vn -0.7802 0.6255 -0.0000
vn -0.6791 0.7340 -0.0000
vn 0.0347 0.2550 0.9663
vn 0.0248 0.1819 0.9830
vn 0.0543 0.3988 0.9154
vn 0.0347 0.2550 -0.9663
vn 0.0248 0.1819 -0.9830
vn 0.0542 0.3988 -0.9154
vt 0.000000 0.000000
s 1
f 1/1/1 2/1/1 3/1/1
f 3/1/1 2/1/1 4/1/1
f 5/1/2 6/1/2 7/1/2
f 7/1/2 6/1/2 8/1/2
f 9/1/1 10/1/3 11/1/1
f 11/1/1 10/1/3 12/1/3
f 13/1/4 14/1/4 15/1/4
f 15/1/4 14/1/4 16/1/4
f 17/1/1 18/1/1 19/1/1
f 19/1/1 18/1/1 20/1/1
f 21/1/4 22/1/4 23/1/4
f 23/1/4 22/1/4 24/1/4
f 25/1/5 26/1/5 27/1/6
f 27/1/6 26/1/5 28/1/6
f 27/1/6 28/1/6 29/1/7
f 29/1/7 28/1/6 30/1/7
f 30/1/7 31/1/8 29/1/7
f 31/1/8 30/1/7 32/1/8
f 31/1/8 32/1/8 33/1/9
f 33/1/9 32/1/8 34/1/10
f 33/1/9 34/1/10 35/1/11
f 35/1/11 34/1/10 36/1/12
f 37/1/13 38/1/13 39/1/14
f 39/1/14 38/1/13 40/1/14
f 37/1/13 41/1/15 38/1/13
f 42/1/15 41/1/15 37/1/13
f 42/1/15 43/1/16 41/1/15
f 44/1/16 43/1/16 42/1/15
f 44/1/16 45/1/17 43/1/16
f 46/1/18 45/1/17 44/1/16
f 46/1/18 47/1/19 45/1/17
f 48/1/20 47/1/19 46/1/18
f 49/1/21 50/1/21 51/1/21
f 50/1/21 49/1/21 52/1/21
f 53/1/21 52/1/21 49/1/21
f 52/1/21 53/1/21 54/1/21
f 55/1/21 54/1/21 53/1/21
f 54/1/21 55/1/21 56/1/21
f 57/1/21 56/1/21 55/1/21
f 55/1/21 58/1/21 57/1/21
f 59/1/21 57/1/21 58/1/21
f 58/1/21 60/1/21 59/1/21
f 61/1/22 62/1/22 63/1/22
f 62/1/22 61/1/22 64/1/22
f 64/1/22 65/1/22 62/1/22
f 65/1/22 64/1/22 66/1/22
f 66/1/22 67/1/22 65/1/22
f 67/1/22 66/1/22 68/1/22
f 69/1/22 67/1/22 68/1/22
f 67/1/22 69/1/22 70/1/22
f 71/1/22 70/1/22 69/1/22
f 70/1/22 71/1/22 72/1/22
f 73/1/21 74/1/21 75/1/21
f 74/1/21 73/1/21 76/1/21
f 77/1/21 76/1/21 73/1/21
f 76/1/21 77/1/21 78/1/21
f 79/1/21 78/1/21 77/1/21
f 78/1/21 79/1/21 80/1/21
f 81/1/21 80/1/21 79/1/21
f 79/1/21 82/1/21 81/1/21
f 83/1/21 81/1/21 82/1/21
f 82/1/21 84/1/21 83/1/21
f 85/1/22 86/1/22 87/1/22
f 86/1/22 85/1/22 88/1/22
f 88/1/22 89/1/22 86/1/22
f 89/1/22 88/1/22 90/1/22
f 90/1/22 91/1/22 89/1/22
f 91/1/22 90/1/22 92/1/22
f 93/1/22 91/1/22 92/1/22
f 91/1/22 93/1/22 94/1/22
f 95/1/22 94/1/22 93/1/22
f 94/1/22 95/1/22 96/1/22
f 97/1/21 98/1/21 99/1/21
f 98/1/21 97/1/21 100/1/21
f 101/1/21 100/1/21 97/1/21
f 100/1/21 101/1/21 102/1/21
f 103/1/21 102/1/21 101/1/21
f 102/1/21 103/1/21 104/1/21
f 105/1/21 104/1/21 103/1/21
f 103/1/21 106/1/21 105/1/21
f 107/1/21 105/1/21 106/1/21
f 106/1/21 108/1/21 107/1/21
f 109/1/22 110/1/22 111/1/22
f 110/1/22 109/1/22 112/1/22
f 112/1/22 113/1/22 110/1/22
f 113/1/22 112/1/22 114/1/22
f 114/1/22 115/1/22 113/1/22
f 115/1/22 114/1/22 116/1/22
f 117/1/22 115/1/22 116/1/22
f 115/1/22 117/1/22 118/1/22
f 119/1/22 118/1/22 117/1/22
f 118/1/22 119/1/22 120/1/22
f 121/1/5 122/1/6 123/1/5
f 122/1/6 121/1/5 124/1/6
f 122/1/6 124/1/6 125/1/7
f 125/1/7 124/1/6 126/1/7
f 125/1/7 126/1/7 127/1/8
f 127/1/8 126/1/7 128/1/8
f 127/1/8 128/1/8 129/1/10
f 129/1/10 128/1/8 130/1/9
f 129/1/10 130/1/9 131/1/11
f 131/1/11 130/1/9 132/1/11
f 133/1/13 134/1/13 135/1/14
f 135/1/14 134/1/13 136/1/14
f 133/1/13 137/1/15 134/1/13
f 138/1/15 137/1/15 133/1/13
f 138/1/15 139/1/16 137/1/15
f 140/1/16 139/1/16 138/1/15
f 140/1/16 141/1/23 139/1/16
f 142/1/24 141/1/23 140/1/16
f 142/1/24 143/1/20 141/1/23
f 144/1/20 143/1/20 142/1/24
f 145/1/5 146/1/5 147/1/6
f 147/1/6 146/1/5 148/1/6
f 147/1/6 148/1/6 149/1/7
f 149/1/7 148/1/6 150/1/7
f 149/1/7 150/1/7 151/1/8
f 151/1/8 150/1/7 152/1/8
f 151/1/8 152/1/8 153/1/10
f 153/1/10 152/1/8 154/1/10
f 153/1/10 154/1/10 155/1/12
f 155/1/12 154/1/10 156/1/12
f 157/1/13 158/1/13 159/1/14
f 159/1/14 158/1/13 160/1/14
f 157/1/13 161/1/15 158/1/13
f 162/1/15 161/1/15 157/1/13
f 162/1/15 163/1/16 161/1/15
f 164/1/25 163/1/16 162/1/15
f 164/1/25 165/1/23 163/1/16
f 166/1/26 165/1/23 164/1/25
f 166/1/26 167/1/20 165/1/23
f 168/1/20 167/1/20 166/1/26
f 169/1/4 170/1/4 171/1/4
f 169/1/4 171/1/4 172/1/4
f 173/1/1 174/1/1 175/1/1
f 173/1/1 175/1/1 176/1/1
f 177/1/27 178/1/27 179/1/27
f 178/1/27 177/1/27 180/1/27
f 181/1/28 182/1/28 183/1/29
f 183/1/29 182/1/28 184/1/29
f 184/1/29 185/1/30 183/1/29
f 185/1/30 184/1/29 186/1/31
f 185/1/30 186/1/31 187/1/32
f 187/1/32 186/1/31 188/1/33
f 188/1/33 189/1/34 187/1/32
f 189/1/34 188/1/33 190/1/34
f 190/1/34 191/1/35 189/1/34
f 191/1/35 190/1/34 192/1/35
f 193/1/36 191/1/35 192/1/35
f 193/1/36 194/1/36 191/1/35
f 195/1/37 196/1/37 197/1/37
f 197/1/37 198/1/37 195/1/37
f 199/1/38 200/1/39 201/1/39
f 199/1/38 201/1/39 202/1/38
f 200/1/39 203/1/40 201/1/39
f 200/1/39 204/1/40 203/1/40
f 204/1/40 205/1/41 203/1/40
f 204/1/40 206/1/42 205/1/41
f 206/1/42 207/1/43 205/1/41
f 206/1/42 208/1/43 207/1/43
f 208/1/43 209/1/44 207/1/43
f 208/1/43 210/1/44 209/1/44
f 211/1/45 209/1/44 210/1/44
f 211/1/45 212/1/45 209/1/44
f 213/1/22 214/1/22 215/1/22
f 214/1/22 213/1/22 216/1/22
f 217/1/21 218/1/21 219/1/21
f 218/1/21 217/1/21 220/1/21
f 221/1/21 222/1/21 223/1/21
f 222/1/21 221/1/21 224/1/21
f 225/1/21 223/1/21 222/1/21
f 223/1/21 225/1/21 226/1/21
f 226/1/21 225/1/21 227/1/21
f 228/1/21 227/1/21 225/1/21
f 227/1/21 228/1/21 229/1/21
f 230/1/21 229/1/21 228/1/21
f 229/1/21 230/1/21 231/1/46
f 232/1/47 231/1/46 230/1/21
f 232/1/47 233/1/48 231/1/46
f 233/1/48 232/1/47 234/1/48
f 235/1/22 236/1/22 237/1/22
f 236/1/22 235/1/22 238/1/22
f 238/1/22 239/1/22 236/1/22
f 239/1/22 238/1/22 240/1/22
f 241/1/22 239/1/22 240/1/22
f 239/1/22 241/1/22 242/1/22
f 243/1/22 242/1/22 241/1/22
f 242/1/22 243/1/22 244/1/22
f 245/1/49 244/1/22 243/1/22
f 244/1/22 245/1/49 246/1/50
f 247/1/51 246/1/50 245/1/49
f 246/1/50 247/1/51 248/1/51
