# Blender 5.1.1
# www.blender.org
mtllib bwnclawboltfinal123.mtl
o RenderMesh_112741123615460
v -0.373568 -0.103964 0.077098
v -0.385447 -0.116296 0.077098
v -0.376953 -0.112590 0.077098
v -0.397779 -0.104418 0.077098
v -0.394073 -0.112911 0.077098
v -0.385900 -0.092085 0.077098
v -0.377273 -0.095470 0.077098
v -0.394393 -0.095791 0.077098
v -0.399980 -0.119043 0.051543
v -0.394073 -0.112911 0.077098
v -0.406292 -0.104577 0.051543
v -0.385288 -0.124808 0.051543
v -0.397779 -0.104418 0.077098
v -0.385447 -0.116296 0.077098
v -0.394393 -0.095791 0.077098
v -0.376953 -0.112590 0.077098
v -0.400526 -0.089885 0.051543
v -0.370821 -0.118498 0.051543
v -0.386060 -0.083573 0.051543
v -0.365055 -0.103805 0.051543
v -0.385900 -0.092085 0.077098
v -0.373568 -0.103964 0.077098
v -0.377273 -0.095470 0.077098
v -0.371367 -0.089339 0.051543
v -0.365648 -0.083401 -0.005436
v -0.386441 -0.063217 -0.005436
v -0.357243 -0.074676 -0.005436
v -0.386214 -0.075330 -0.005436
v -0.356813 -0.103651 -0.005436
v -0.406463 -0.084165 -0.005436
v -0.344700 -0.103424 -0.005436
v -0.415189 -0.075760 -0.005436
v -0.356158 -0.132621 -0.005436
v -0.414535 -0.104731 -0.005436
v -0.364884 -0.124216 -0.005436
v -0.426648 -0.104958 -0.005436
v -0.384907 -0.145165 -0.005436
v -0.414104 -0.133705 -0.005436
v -0.385133 -0.133051 -0.005436
v -0.405699 -0.124980 -0.005436
v -0.356992 -0.103654 0.051543
v -0.365772 -0.083530 0.051543
v -0.371367 -0.089339 0.051543
v -0.386211 -0.075509 0.051543
v -0.365055 -0.103805 0.051543
v -0.386060 -0.083573 0.051543
v -0.365013 -0.124092 0.051543
v -0.406334 -0.084289 0.051543
v -0.370821 -0.118498 0.051543
v -0.400526 -0.089885 0.051543
v -0.385137 -0.132872 0.051543
v -0.414355 -0.104728 0.051543
v -0.385288 -0.124808 0.051543
v -0.406292 -0.104577 0.051543
v -0.399980 -0.119043 0.051543
v -0.405575 -0.124851 0.051543
v -0.365772 -0.083530 0.051543
v -0.386441 -0.063217 0.040978
v -0.386211 -0.075509 0.051543
v -0.406334 -0.084289 0.051543
v -0.357243 -0.074676 0.040978
v -0.415189 -0.075760 0.040978
v -0.344700 -0.103424 0.040978
v -0.414355 -0.104728 0.051543
v -0.356992 -0.103654 0.051543
v -0.426648 -0.104958 0.040978
v -0.356158 -0.132621 0.040978
v -0.414104 -0.133705 0.040978
v -0.365013 -0.124092 0.051543
v -0.405575 -0.124851 0.051543
v -0.385137 -0.132872 0.051543
v -0.384907 -0.145165 0.040978
v -0.414104 -0.133705 -0.005436
v -0.384907 -0.145165 -0.005436
v -0.414104 -0.133705 0.040978
v -0.384907 -0.145165 0.040978
v -0.426648 -0.104958 0.040978
v -0.356158 -0.132621 -0.005436
v -0.426648 -0.104958 -0.005436
v -0.356158 -0.132621 0.040978
v -0.415189 -0.075760 0.040978
v -0.344700 -0.103424 -0.005436
v -0.415189 -0.075760 -0.005436
v -0.344700 -0.103424 0.040978
v -0.386441 -0.063217 0.040978
v -0.357243 -0.074676 -0.005436
v -0.386441 -0.063217 -0.005436
v -0.357243 -0.074676 0.040978
v -0.385133 -0.133051 -0.041950
v -0.385133 -0.133051 -0.005436
v -0.405699 -0.124980 -0.041950
v -0.405699 -0.124980 -0.005436
v -0.364884 -0.124216 -0.005436
v -0.414535 -0.104731 -0.041950
v -0.364884 -0.124216 -0.041950
v -0.414535 -0.104731 -0.005436
v -0.356813 -0.103651 -0.005436
v -0.406463 -0.084165 -0.041950
v -0.356813 -0.103651 -0.041950
v -0.406463 -0.084165 -0.005436
v -0.365648 -0.083401 -0.005436
v -0.386214 -0.075330 -0.041950
v -0.365648 -0.083401 -0.041950
v -0.386214 -0.075330 -0.005436
vn -0.0000 -0.0000 1.0000
vn -0.6582 -0.6833 0.3161
vn -0.9486 -0.0178 0.3161
vn 0.0177 -0.9486 0.3161
vn 0.0178 -0.9486 0.3161
vn -0.6833 0.6582 0.3161
vn 0.6833 -0.6582 0.3161
vn 0.6832 -0.6582 0.3161
vn -0.0178 0.9486 0.3161
vn 0.9486 0.0178 0.3161
vn 0.9486 0.0177 0.3161
vn 0.6582 0.6833 0.3161
vn 0.6582 0.6833 0.3160
vn -0.0000 -0.0000 -1.0000
vn 0.4522 0.4694 0.7584
vn -0.0122 0.6516 0.7584
vn -0.4694 0.4521 0.7584
vn 0.6516 0.0122 0.7584
vn -0.6516 -0.0122 0.7584
vn -0.6516 -0.0122 0.7585
vn 0.4694 -0.4521 0.7584
vn -0.4522 -0.4694 0.7584
vn 0.4694 -0.4522 0.7584
vn 0.0122 -0.6516 0.7585
vn 0.0122 -0.6516 0.7584
vn -0.6938 -0.7202 -0.0000
vn 0.0187 -0.9998 -0.0000
vn -0.9998 -0.0187 -0.0000
vn 0.7202 -0.6937 -0.0000
vn -0.7202 0.6938 -0.0000
vn 0.9998 0.0187 -0.0000
vn -0.0187 0.9998 -0.0000
vn 0.6938 0.7202 -0.0000
vn -0.6937 -0.7202 -0.0000
vn 0.7202 -0.6938 -0.0000
vt 0.000000 0.000000
s 1
f 1/1/1 2/1/1 3/1/1
f 1/1/1 4/1/1 2/1/1
f 2/1/1 4/1/1 5/1/1
f 4/1/1 1/1/1 6/1/1
f 6/1/1 1/1/1 7/1/1
f 4/1/1 6/1/1 8/1/1
f 9/1/2 10/1/2 11/1/3
f 12/1/4 10/1/2 9/1/2
f 11/1/3 10/1/2 13/1/3
f 10/1/2 12/1/4 14/1/5
f 15/1/6 11/1/3 13/1/3
f 12/1/4 16/1/7 14/1/5
f 11/1/3 15/1/6 17/1/6
f 16/1/7 12/1/4 18/1/8
f 15/1/6 19/1/9 17/1/6
f 20/1/10 16/1/7 18/1/8
f 19/1/9 15/1/6 21/1/9
f 16/1/7 20/1/10 22/1/11
f 23/1/12 19/1/9 21/1/9
f 20/1/10 23/1/12 22/1/11
f 19/1/9 23/1/12 24/1/13
f 24/1/13 23/1/12 20/1/10
f 25/1/14 26/1/14 27/1/14
f 26/1/14 25/1/14 28/1/14
f 27/1/14 29/1/14 25/1/14
f 30/1/14 26/1/14 28/1/14
f 27/1/14 31/1/14 29/1/14
f 26/1/14 30/1/14 32/1/14
f 33/1/14 29/1/14 31/1/14
f 34/1/14 32/1/14 30/1/14
f 29/1/14 33/1/14 35/1/14
f 32/1/14 34/1/14 36/1/14
f 37/1/14 35/1/14 33/1/14
f 34/1/14 38/1/14 36/1/14
f 35/1/14 37/1/14 39/1/14
f 38/1/14 34/1/14 40/1/14
f 40/1/14 39/1/14 37/1/14
f 37/1/14 38/1/14 40/1/14
f 41/1/1 42/1/1 43/1/1
f 44/1/1 43/1/1 42/1/1
f 41/1/1 43/1/1 45/1/1
f 43/1/1 44/1/1 46/1/1
f 47/1/1 41/1/1 45/1/1
f 48/1/1 46/1/1 44/1/1
f 47/1/1 45/1/1 49/1/1
f 46/1/1 48/1/1 50/1/1
f 49/1/1 51/1/1 47/1/1
f 52/1/1 50/1/1 48/1/1
f 51/1/1 49/1/1 53/1/1
f 50/1/1 52/1/1 54/1/1
f 55/1/1 51/1/1 53/1/1
f 56/1/1 54/1/1 52/1/1
f 51/1/1 55/1/1 56/1/1
f 54/1/1 56/1/1 55/1/1
f 57/1/15 58/1/16 59/1/16
f 60/1/17 59/1/16 58/1/16
f 58/1/16 57/1/15 61/1/15
f 58/1/16 62/1/17 60/1/17
f 63/1/18 61/1/15 57/1/15
f 62/1/17 64/1/19 60/1/17
f 63/1/18 57/1/15 65/1/18
f 64/1/19 62/1/17 66/1/20
f 67/1/21 63/1/18 65/1/18
f 68/1/22 64/1/19 66/1/20
f 67/1/21 65/1/18 69/1/23
f 64/1/19 68/1/22 70/1/22
f 71/1/24 67/1/21 69/1/23
f 72/1/25 70/1/22 68/1/22
f 67/1/21 71/1/24 72/1/25
f 70/1/22 72/1/25 71/1/24
f 73/1/26 74/1/27 75/1/26
f 74/1/27 76/1/27 75/1/26
f 73/1/26 75/1/26 77/1/28
f 74/1/27 78/1/29 76/1/27
f 79/1/28 73/1/26 77/1/28
f 78/1/29 80/1/29 76/1/27
f 79/1/28 77/1/28 81/1/30
f 78/1/29 82/1/31 80/1/29
f 83/1/30 79/1/28 81/1/30
f 82/1/31 84/1/31 80/1/29
f 83/1/30 81/1/30 85/1/32
f 82/1/31 86/1/33 84/1/31
f 87/1/32 83/1/30 85/1/32
f 86/1/33 88/1/33 84/1/31
f 87/1/32 85/1/32 88/1/33
f 86/1/33 87/1/32 88/1/33
f 89/1/27 90/1/27 91/1/34
f 91/1/34 90/1/27 92/1/34
f 89/1/27 93/1/35 90/1/27
f 91/1/34 92/1/34 94/1/28
f 95/1/35 93/1/35 89/1/27
f 94/1/28 92/1/34 96/1/28
f 95/1/35 97/1/31 93/1/35
f 94/1/28 96/1/28 98/1/30
f 99/1/31 97/1/31 95/1/35
f 98/1/30 96/1/28 100/1/30
f 99/1/31 101/1/33 97/1/31
f 98/1/30 100/1/30 102/1/32
f 103/1/33 101/1/33 99/1/31
f 102/1/32 100/1/30 104/1/32
f 103/1/33 104/1/32 101/1/33
f 102/1/32 104/1/32 103/1/33
