# Blender 5.2.0 LTS
# www.blender.org
mtllib Karambit3.mtl
o another_boduy
v 0.124785 1.100217 0.026326
v 0.084035 1.169282 0.026326
v 0.124785 1.100217 0.065585
v 0.124785 1.100217 0.104843
v 0.152666 1.042118 0.104843
v 0.084035 1.169282 0.065585
v 0.035856 1.239386 0.026326
v 0.084035 1.169282 0.104843
v 0.035856 1.239386 0.065585
v -0.022789 1.309230 0.026326
v 0.035856 1.239386 0.104843
v -0.022789 1.309230 0.065585
v -0.088316 1.374660 0.026326
v -0.022789 1.309230 0.104843
v -0.088316 1.374660 0.065585
v -0.145031 1.423732 0.026326
v -0.088316 1.374660 0.104843
v -0.145031 1.423732 0.065585
v -0.205879 1.468909 0.026326
v -0.145031 1.423732 0.104843
v -0.205879 1.468909 0.065585
v -0.278838 1.514088 0.026326
v -0.205879 1.468909 0.104843
v -0.278838 1.514088 0.065585
v -0.362262 1.556930 0.026326
v -0.278838 1.514088 0.104843
v -0.362262 1.556930 0.065585
v -0.429165 1.584711 0.026326
v -0.362262 1.556930 0.104843
v -0.429165 1.584711 0.065585
v -0.545628 1.622359 0.026326
v -0.429165 1.584711 0.104843
v -0.545628 1.622359 0.065585
v -0.545628 1.622359 0.065585
v -0.663534 1.644688 0.052533
v -0.663499 1.644547 0.065585
v -0.721904 1.655542 0.065585
v -0.545628 1.622359 0.104843
v -0.663534 1.644688 0.078637
v -0.663499 1.644547 0.065585
v -0.721904 1.655542 0.065585
v -0.107146 -0.510929 0.113281
v -0.069468 -0.413609 0.065585
v -0.079493 -0.413609 0.113281
v -0.107146 -0.316288 0.113281
v -0.098464 -0.515657 0.065585
v -0.177678 -0.590359 0.065585
v -0.182689 -0.582172 0.113281
v -0.107146 -0.510929 0.017889
v -0.079493 -0.413609 0.017889
v -0.182689 -0.582172 0.017889
v -0.107146 -0.316288 0.017889
v -0.285889 -0.617703 0.065585
v -0.285889 -0.608249 0.113281
v -0.285889 -0.608249 0.017889
v -0.389086 -0.582172 0.113281
v -0.389086 -0.582172 0.017889
v -0.394098 -0.590359 0.065585
v -0.464631 -0.510929 0.113281
v -0.464631 -0.510929 0.017889
v -0.473315 -0.515657 0.065585
v -0.502308 -0.413609 0.065585
v -0.492283 -0.413609 0.113281
v -0.492283 -0.413609 0.017889
v -0.464631 -0.316288 0.113281
v -0.464631 -0.316288 0.017889
v -0.473315 -0.311562 0.065585
v -0.389086 -0.245046 0.113281
v -0.389086 -0.245046 0.017889
v -0.394098 -0.236858 0.065585
v -0.285889 -0.209515 0.065585
v -0.285889 -0.218969 0.113281
v -0.285889 -0.218969 0.017889
v -0.182689 -0.245046 0.113281
v -0.182689 -0.245046 0.017889
v -0.177678 -0.236858 0.065585
v -0.098464 -0.311562 0.065585
v -0.207707 -0.285907 0.065585
v -0.204157 -0.280107 0.017889
v -0.150475 -0.339880 0.065585
v -0.144323 -0.336531 0.017889
v -0.285889 -0.259454 0.017889
v -0.122423 -0.413609 0.017889
v -0.285889 -0.266151 0.065585
v -0.285889 -0.259454 0.113281
v -0.364069 -0.285907 0.065585
v -0.204157 -0.280107 0.113281
v -0.367621 -0.280107 0.113281
v -0.144323 -0.336531 0.113281
v -0.367621 -0.280107 0.017889
v -0.122423 -0.413609 0.113281
v -0.421303 -0.339880 0.065585
v -0.427454 -0.336531 0.113281
v -0.427454 -0.336531 0.017889
v -0.449351 -0.413609 0.113281
v -0.449351 -0.413609 0.017889
v -0.442249 -0.413609 0.065585
v -0.421303 -0.487338 0.065585
v -0.427454 -0.490686 0.113281
v -0.427454 -0.490686 0.017889
v -0.367621 -0.547111 0.113281
v -0.367621 -0.547111 0.017889
v -0.364069 -0.541310 0.065585
v -0.285889 -0.567764 0.113281
v -0.285889 -0.567764 0.017889
v -0.285889 -0.561066 0.065585
v -0.207707 -0.541310 0.065585
v -0.204157 -0.547111 0.113281
v -0.204157 -0.547111 0.017889
v -0.150475 -0.487338 0.065585
v -0.144323 -0.490686 0.113281
v -0.144323 -0.490686 0.017889
v -0.129526 -0.413609 0.065585
v 0.235607 0.698175 0.026326
v 0.221445 0.818862 0.065585
v 0.235607 0.698175 0.065585
v 0.221445 0.818862 0.026326
v 0.210026 0.873079 0.026326
v 0.221445 0.818862 0.104843
v 0.235607 0.698175 0.104843
v 0.210026 0.873079 0.065585
v 0.191968 0.939568 0.026326
v 0.210026 0.873079 0.104843
v 0.191968 0.939568 0.065585
v 0.175239 0.987149 0.026326
v 0.191968 0.939568 0.104843
v 0.175239 0.987149 0.065585
v 0.152666 1.042118 0.026326
v 0.175239 0.987149 0.104843
v 0.152666 1.042118 0.065585
v -0.389086 -0.245046 0.113281
v -0.285889 -0.259454 0.113281
v -0.285889 -0.218969 0.113281
v -0.204157 -0.280107 0.113281
v -0.367621 -0.280107 0.113281
v -0.182689 -0.245046 0.113281
v -0.464631 -0.316288 0.113281
v -0.144323 -0.336531 0.113281
v -0.427454 -0.336531 0.113281
v -0.107146 -0.316288 0.113281
v -0.492283 -0.413609 0.113281
v -0.079493 -0.413609 0.113281
v -0.449351 -0.413609 0.113281
v -0.122423 -0.413609 0.113281
v -0.427454 -0.490686 0.113281
v -0.107146 -0.510929 0.113281
v -0.464631 -0.510929 0.113281
v -0.144323 -0.490686 0.113281
v -0.367621 -0.547111 0.113281
v -0.182689 -0.582172 0.113281
v -0.389086 -0.582172 0.113281
v -0.204157 -0.547111 0.113281
v -0.285889 -0.567764 0.113281
v -0.285889 -0.608249 0.113281
v -0.182689 -0.582172 0.017889
v -0.144323 -0.490686 0.017889
v -0.107146 -0.510929 0.017889
v -0.122423 -0.413609 0.017889
v -0.204157 -0.547111 0.017889
v -0.079493 -0.413609 0.017889
v -0.285889 -0.608249 0.017889
v -0.144323 -0.336531 0.017889
v -0.285889 -0.567764 0.017889
v -0.107146 -0.316288 0.017889
v -0.389086 -0.582172 0.017889
v -0.182689 -0.245046 0.017889
v -0.367621 -0.547111 0.017889
v -0.204157 -0.280107 0.017889
v -0.464631 -0.510929 0.017889
v -0.285889 -0.218969 0.017889
v -0.427454 -0.490686 0.017889
v -0.285889 -0.259454 0.017889
v -0.492283 -0.413609 0.017889
v -0.389086 -0.245046 0.017889
v -0.449351 -0.413609 0.017889
v -0.367621 -0.280107 0.017889
v -0.427454 -0.336531 0.017889
v -0.464631 -0.316288 0.017889
v -0.184122 0.949219 0.104843
v 0.124785 1.100217 0.104843
v -0.199813 1.022438 0.104843
v 0.084035 1.169282 0.104843
v 0.152666 1.042118 0.104843
v -0.216885 1.078781 0.104843
v 0.175239 0.987149 0.104843
v 0.035856 1.239386 0.104843
v -0.174760 0.892357 0.104843
v -0.241112 1.143952 0.104843
v 0.191968 0.939568 0.104843
v -0.022789 1.309230 0.104843
v -0.274428 1.219248 0.104843
v -0.088316 1.374660 0.104843
v -0.299206 1.265724 0.104843
v -0.145031 1.423732 0.104843
v -0.329217 1.315835 0.104843
v -0.205879 1.468909 0.104843
v -0.362530 1.362830 0.104843
v -0.278838 1.514088 0.104843
v -0.398322 1.409047 0.104843
v -0.362262 1.556930 0.104843
v -0.436040 1.454224 0.104843
v -0.482572 1.500701 0.104843
v -0.429165 1.584711 0.104843
v -0.553603 1.563274 0.104843
v -0.545628 1.622359 0.104843
v -0.605640 1.602740 0.104843
v -0.663534 1.644688 0.078637
v -0.663534 1.644688 0.052533
v -0.545628 1.622359 0.026326
v -0.605640 1.602740 0.026326
v -0.553603 1.563274 0.026326
v -0.429165 1.584711 0.026326
v -0.482572 1.500701 0.026326
v -0.362262 1.556930 0.026326
v -0.436040 1.454224 0.026326
v -0.398322 1.409047 0.026326
v -0.278838 1.514088 0.026326
v -0.362530 1.362830 0.026326
v -0.205879 1.468909 0.026326
v -0.329217 1.315835 0.026326
v -0.145031 1.423732 0.026326
v -0.299206 1.265724 0.026326
v -0.088316 1.374660 0.026326
v -0.274428 1.219248 0.026326
v -0.022789 1.309230 0.026326
v -0.241112 1.143952 0.026326
v 0.035856 1.239386 0.026326
v -0.216885 1.078781 0.026326
v 0.084035 1.169282 0.026326
v -0.199813 1.022438 0.026326
v 0.124785 1.100217 0.026326
v -0.184122 0.949219 0.026326
v 0.152666 1.042118 0.026326
v 0.175239 0.987149 0.026326
v -0.174760 0.892357 0.026326
v 0.191968 0.939568 0.026326
v -0.168428 0.819917 0.026326
v 0.210026 0.873079 0.026326
v 0.221445 0.818862 0.026326
v -0.098033 0.650246 0.026326
v 0.235607 0.698175 0.026326
v -0.167876 0.744102 0.026326
v -0.171457 0.649411 0.026326
v 0.221445 0.818862 0.104843
v -0.098033 0.650246 0.104843
v 0.235607 0.698175 0.104843
v -0.167876 0.744102 0.104843
v -0.171457 0.649411 0.104843
v -0.168428 0.819917 0.104843
v 0.210026 0.873079 0.104843
v -0.171457 0.649411 0.104843
v -0.226247 0.744102 0.065585
v -0.229826 0.649411 0.065585
v -0.167876 0.744102 0.104843
v -0.168428 0.819917 0.104843
v -0.226797 0.819917 0.065585
v -0.174760 0.892357 0.104843
v -0.233129 0.892357 0.065585
v -0.184122 0.949219 0.104843
v -0.242491 0.949219 0.065585
v -0.199813 1.022438 0.104843
v -0.258184 1.022438 0.065585
v -0.216885 1.078781 0.104843
v -0.275254 1.078781 0.065585
v -0.241112 1.143952 0.104843
v -0.299483 1.143952 0.065585
v -0.274428 1.219248 0.104843
v -0.332798 1.219248 0.065585
v -0.299206 1.265724 0.104843
v -0.357576 1.265724 0.065585
v -0.329217 1.315835 0.104843
v -0.387588 1.315835 0.065585
v -0.362530 1.362830 0.104843
v -0.420899 1.362830 0.065585
v -0.398322 1.409047 0.104843
v -0.456691 1.409047 0.065585
v -0.436040 1.454224 0.104843
v -0.494413 1.454224 0.065585
v -0.482572 1.500701 0.104843
v -0.540941 1.500701 0.065585
v -0.553603 1.563274 0.104843
v -0.611974 1.563274 0.065585
v -0.605640 1.602740 0.104843
v -0.664009 1.602740 0.065585
v -0.663534 1.644688 0.078637
v -0.721904 1.655542 0.065585
v -0.664009 1.602740 0.065585
v -0.663534 1.644688 0.052533
v -0.605640 1.602740 0.026326
v -0.721904 1.655542 0.065585
v -0.611974 1.563274 0.065585
v -0.553603 1.563274 0.026326
v -0.540941 1.500701 0.065585
v -0.482572 1.500701 0.026326
v -0.494413 1.454224 0.065585
v -0.436040 1.454224 0.026326
v -0.456691 1.409047 0.065585
v -0.398322 1.409047 0.026326
v -0.420899 1.362830 0.065585
v -0.362530 1.362830 0.026326
v -0.387588 1.315835 0.065585
v -0.329217 1.315835 0.026326
v -0.357576 1.265724 0.065585
v -0.299206 1.265724 0.026326
v -0.332798 1.219248 0.065585
v -0.274428 1.219248 0.026326
v -0.299483 1.143952 0.065585
v -0.241112 1.143952 0.026326
v -0.275254 1.078781 0.065585
v -0.216885 1.078781 0.026326
v -0.258184 1.022438 0.065585
v -0.199813 1.022438 0.026326
v -0.242491 0.949219 0.065585
v -0.184122 0.949219 0.026326
v -0.233129 0.892357 0.065585
v -0.174760 0.892357 0.026326
v -0.226797 0.819917 0.065585
v -0.168428 0.819917 0.026326
v -0.226247 0.744102 0.065585
v -0.167876 0.744102 0.026326
v -0.171457 0.649411 0.026326
v -0.229826 0.649411 0.065585
v -0.098033 0.650246 0.065585
v -0.229826 0.649411 0.065585
v -0.171457 0.649411 0.026326
v -0.098033 0.650246 0.026326
v 0.235607 0.698175 0.026326
v 0.235607 0.698175 0.065585
v -0.098033 0.650246 0.104843
v 0.235607 0.698175 0.104843
v -0.171457 0.649411 0.104843
v -0.229826 0.649411 0.065585
v 0.144591 -0.163693 0.025036
v 0.155241 -0.082670 0.000654
v 0.175251 -0.088390 0.025061
v 0.175251 -0.088390 0.106108
v 0.124841 -0.157212 0.000654
v 0.155241 -0.082670 0.130516
v 0.144591 -0.163693 0.106133
v 0.124841 -0.157212 0.130516
v 0.099217 -0.234621 0.000654
v 0.099217 -0.234621 0.130516
v 0.118943 -0.241157 0.106116
v 0.041451 -0.373878 0.130516
v 0.118943 -0.241157 0.025053
v 0.041451 -0.373878 0.000654
v 0.060186 -0.382663 0.025164
v -0.041849 -0.502566 0.000654
v 0.060186 -0.382663 0.106005
v -0.041849 -0.502566 0.130516
v -0.033507 -0.520632 0.025161
v -0.033507 -0.520632 0.106009
v -0.079634 -0.495604 0.130516
v -0.079634 -0.495604 0.000654
v -0.097186 -0.506200 0.106279
v -0.086131 -0.439167 0.105969
v -0.097186 -0.506200 0.024890
v -0.086131 -0.439167 0.025201
v -0.065332 -0.441514 0.000654
v -0.065332 -0.441514 0.130516
v -0.085961 -0.397933 0.025008
v -0.065224 -0.395314 0.000654
v -0.085961 -0.397933 0.106161
v -0.065224 -0.395314 0.130516
v -0.097835 -0.357534 0.025026
v -0.078252 -0.350588 0.000654
v -0.097835 -0.357534 0.106143
v -0.078252 -0.350588 0.130516
v -0.120662 -0.312898 0.025012
v -0.103270 -0.301931 0.000654
v -0.120662 -0.312898 0.106158
v -0.103270 -0.301931 0.130516
v -0.162864 -0.268031 0.025280
v -0.150177 -0.252290 0.000654
v -0.162864 -0.268031 0.105889
v -0.150177 -0.252290 0.130516
v -0.255452 -0.204123 0.000654
v -0.255452 -0.204123 0.130516
v -0.275953 -0.207102 0.024428
v -0.275953 -0.207102 0.106741
v -0.218349 -0.144168 0.025315
v -0.215224 0.645146 0.000654
v -0.250180 0.563781 0.024997
v -0.229528 0.659502 0.025118
v -0.114164 0.678747 0.025108
v -0.231728 0.572963 0.000654
v -0.107949 0.659892 0.000654
v -0.229528 0.659502 0.106052
v -0.144679 0.518689 0.025177
v -0.134916 0.536159 0.000654
v -0.250180 0.563781 0.106173
v -0.034619 0.715327 0.024982
v -0.021958 0.699620 0.000654
v 0.043625 0.769248 0.000654
v -0.215224 0.645146 0.130516
v 0.026183 0.780161 0.025080
v -0.114164 0.678747 0.106062
v -0.231728 0.572963 0.130516
v -0.107949 0.659892 0.130516
v -0.144679 0.518689 0.105992
v -0.134916 0.536159 0.130516
v -0.034619 0.715327 0.106188
v -0.021958 0.699620 0.130516
v 0.043625 0.769248 0.130516
v 0.070985 0.823721 0.000654
v 0.026183 0.780161 0.106090
v 0.070985 0.823721 0.130516
v 0.058743 0.839689 0.025133
v 0.058743 0.839689 0.106037
v 0.124206 0.846439 0.106096
v 0.124206 0.846439 0.025073
v 0.114417 0.829046 0.000654
v 0.114417 0.829046 0.130516
v 0.158580 0.786606 0.024997
v 0.144819 0.771705 0.000654
v 0.158580 0.786606 0.106173
v 0.144819 0.771705 0.130516
v 0.212136 0.749998 0.000654
v 0.212136 0.749998 0.130516
v 0.213956 0.769688 0.105956
v 0.247751 0.755731 0.130516
v 0.213956 0.769688 0.025214
v 0.247751 0.755731 0.000654
v 0.260742 0.771060 0.024733
v 0.260742 0.771060 0.106436
v 0.272021 0.696137 0.025287
v 0.251224 0.698392 0.000654
v 0.225600 0.618933 0.000654
v 0.272021 0.696137 0.105883
v 0.251224 0.698392 0.130516
v 0.225600 0.618933 0.130516
v 0.245804 0.613838 0.025040
v 0.204752 0.534151 0.000654
v 0.245804 0.613838 0.106130
v 0.204752 0.534151 0.130516
v 0.225342 0.530674 0.106135
v 0.198239 0.485821 0.130516
v 0.225342 0.530674 0.025035
v 0.198239 0.485821 0.000654
v 0.219156 0.486202 0.024997
v 0.219156 0.486202 0.106173
v 0.232351 0.412266 0.025035
v 0.212136 0.407182 0.000654
v 0.232351 0.412266 0.106135
v 0.212136 0.407182 0.130516
v 0.238195 0.341241 0.000654
v 0.238195 0.341241 0.130516
v 0.258903 0.343902 0.025075
v 0.250248 0.243267 0.025068
v 0.229507 0.245810 0.000654
v 0.258903 0.343902 0.106095
v 0.214743 0.166352 0.000654
v 0.250248 0.243267 0.106101
v 0.229507 0.245810 0.130516
v 0.214743 0.166352 0.130516
v 0.235248 0.162482 0.025051
v 0.235248 0.162482 0.106118
v -0.202814 -0.157432 0.000654
v -0.218349 -0.144168 0.105854
v -0.202814 -0.157432 0.130516
v -0.191546 -0.112708 0.024965
v -0.172587 -0.121062 0.000654
v -0.191546 -0.112708 0.106204
v -0.172587 -0.121062 0.130516
v -0.165810 -0.091081 0.000654
v -0.165810 -0.091081 0.130516
v -0.186616 -0.089019 0.025028
v -0.186616 -0.089019 0.106141
v -0.186500 -0.048801 0.025015
v -0.165810 -0.045864 0.000654
v -0.186500 -0.048801 0.106155
v -0.165810 -0.045864 0.130516
v -0.202325 0.000840 0.025121
v -0.181446 0.001812 0.000654
v -0.202325 0.000840 0.106048
v -0.181446 0.001812 0.130516
v -0.176943 0.023044 0.000654
v -0.176943 0.023044 0.130516
v -0.194248 0.034075 0.025070
v -0.194248 0.034075 0.106100
v -0.151732 0.061934 0.025060
v -0.137919 0.047107 0.000654
v -0.151732 0.061934 0.106110
v -0.137919 0.047107 0.130516
v -0.114109 0.102814 0.106183
v -0.095889 0.093110 0.130516
v -0.114109 0.102814 0.024987
v -0.095889 0.093110 0.000654
v -0.080129 0.138406 0.130516
v -0.080129 0.138406 0.000654
v -0.100882 0.140935 0.024998
v -0.100882 0.140935 0.106171
v -0.104158 0.192213 0.025093
v -0.083881 0.197149 0.000654
v -0.104158 0.192213 0.106077
v -0.083881 0.197149 0.130516
v -0.134608 0.258350 0.024993
v -0.113903 0.255892 0.000654
v -0.134608 0.258350 0.106176
v -0.113903 0.255892 0.130516
v -0.114930 0.284881 0.025164
v -0.101142 0.270047 0.000654
v -0.114930 0.284881 0.106005
v -0.101142 0.270047 0.130516
v -0.080894 0.305001 0.024987
v -0.066620 0.290572 0.000654
v -0.080894 0.305001 0.106183
v -0.066620 0.290572 0.130516
v -0.041855 0.322419 0.000654
v -0.041855 0.322419 0.130516
v -0.059753 0.332631 0.106135
v -0.059753 0.332631 0.025035
v -0.044034 0.362275 0.106188
v -0.023843 0.357100 0.130516
v -0.044034 0.362275 0.024982
v -0.023843 0.357100 0.000654
v -0.020842 0.394610 0.130516
v -0.020842 0.394610 0.000654
v -0.041752 0.393996 0.025030
v -0.041752 0.393996 0.106140
v -0.047409 0.434270 0.024993
v -0.027595 0.440614 0.000654
v -0.047409 0.434270 0.106176
v -0.027595 0.440614 0.130516
v -0.070644 0.473134 0.106209
v -0.055364 0.486617 0.130516
v -0.070644 0.473134 0.024960
v -0.055364 0.486617 0.000654
v 0.198239 0.485821 0.130516
v -0.020842 0.394610 0.130516
v 0.212136 0.407182 0.130516
v -0.027595 0.440614 0.130516
v -0.023843 0.357100 0.130516
v 0.238195 0.341241 0.130516
v 0.229507 0.245810 0.130516
v -0.041855 0.322419 0.130516
v -0.055364 0.486617 0.130516
v 0.214743 0.166352 0.130516
v 0.204752 0.534151 0.130516
v -0.066620 0.290572 0.130516
v -0.083881 0.197149 0.130516
v -0.101142 0.270047 0.130516
v -0.113903 0.255892 0.130516
v -0.080129 0.138406 0.130516
v 0.155241 -0.082670 0.130516
v -0.095889 0.093110 0.130516
v -0.137919 0.047107 0.130516
v -0.165810 -0.045864 0.130516
v -0.181446 0.001812 0.130516
v -0.176943 0.023044 0.130516
v 0.124841 -0.157212 0.130516
v -0.165810 -0.091081 0.130516
v -0.172587 -0.121062 0.130516
v 0.099217 -0.234621 0.130516
v -0.150177 -0.252290 0.130516
v -0.202814 -0.157432 0.130516
v -0.255452 -0.204123 0.130516
v -0.103270 -0.301931 0.130516
v 0.041451 -0.373878 0.130516
v -0.078252 -0.350588 0.130516
v -0.065224 -0.395314 0.130516
v -0.065332 -0.441514 0.130516
v -0.041849 -0.502566 0.130516
v -0.079634 -0.495604 0.130516
v -0.021958 0.699620 0.130516
v 0.225600 0.618933 0.130516
v -0.107949 0.659892 0.130516
v -0.134916 0.536159 0.130516
v -0.215224 0.645146 0.130516
v -0.231728 0.572963 0.130516
v 0.144819 0.771705 0.130516
v 0.043625 0.769248 0.130516
v 0.070985 0.823721 0.130516
v 0.114417 0.829046 0.130516
v 0.212136 0.749998 0.130516
v 0.251224 0.698392 0.130516
v 0.247751 0.755731 0.130516
v -0.165810 -0.091081 0.000654
v 0.124841 -0.157212 0.000654
v -0.172587 -0.121062 0.000654
v -0.165810 -0.045864 0.000654
v 0.099217 -0.234621 0.000654
v 0.155241 -0.082670 0.000654
v -0.150177 -0.252290 0.000654
v -0.202814 -0.157432 0.000654
v -0.255452 -0.204123 0.000654
v -0.103270 -0.301931 0.000654
v 0.041451 -0.373878 0.000654
v -0.078252 -0.350588 0.000654
v -0.065224 -0.395314 0.000654
v -0.065332 -0.441514 0.000654
v -0.041849 -0.502566 0.000654
v -0.079634 -0.495604 0.000654
v -0.137919 0.047107 0.000654
v -0.181446 0.001812 0.000654
v -0.176943 0.023044 0.000654
v -0.095889 0.093110 0.000654
v -0.080129 0.138406 0.000654
v 0.214743 0.166352 0.000654
v -0.083881 0.197149 0.000654
v -0.113903 0.255892 0.000654
v -0.101142 0.270047 0.000654
v -0.066620 0.290572 0.000654
v -0.041855 0.322419 0.000654
v 0.229507 0.245810 0.000654
v -0.023843 0.357100 0.000654
v 0.238195 0.341241 0.000654
v 0.212136 0.407182 0.000654
v -0.020842 0.394610 0.000654
v 0.198239 0.485821 0.000654
v -0.027595 0.440614 0.000654
v -0.055364 0.486617 0.000654
v 0.204752 0.534151 0.000654
v -0.021958 0.699620 0.000654
v 0.225600 0.618933 0.000654
v -0.107949 0.659892 0.000654
v -0.134916 0.536159 0.000654
v -0.215224 0.645146 0.000654
v -0.231728 0.572963 0.000654
v 0.144819 0.771705 0.000654
v 0.043625 0.769248 0.000654
v 0.070985 0.823721 0.000654
v 0.114417 0.829046 0.000654
v 0.212136 0.749998 0.000654
v 0.251224 0.698392 0.000654
v 0.247751 0.755731 0.000654
vn 0.8822 0.4708 -0.0000
vn 0.8432 0.5376 -0.0000
vn 0.8822 0.4709 -0.0003
vn 0.9135 0.4068 -0.0003
vn 0.7959 0.6054 -0.0000
vn 0.7367 0.6762 -0.0000
vn 0.7959 0.6054 -0.0005
vn 0.7369 0.6760 -0.0000
vn 0.6809 0.7324 -0.0000
vn 0.6257 0.7801 -0.0000
vn 0.5618 0.8273 -0.0000
vn 0.5622 0.8270 -0.0005
vn 0.4924 0.8704 -0.0003
vn 0.4205 0.9073 -0.0000
vn 0.4920 0.8706 -0.0000
vn 0.4206 0.9072 -0.0005
vn 0.3458 0.9383 -0.0000
vn 0.2512 0.9679 0.0013
vn 0.2473 0.9689 0.0008
vn 0.2473 0.9689 -0.0012
vn 0.1851 0.9827 0.0063
vn 0.1851 0.9827 0.0062
vn 0.1850 0.9827 0.0101
vn 0.2512 0.9679 -0.0013
vn 0.1851 0.9827 -0.0063
vn 0.1850 0.9827 -0.0101
vn 0.8352 -0.5113 0.2027
vn 1.0000 -0.0000 -0.0000
vn 0.9787 0.0003 0.2055
vn 0.8352 0.5112 0.2027
vn 0.8529 -0.5220 -0.0003
vn 0.4782 -0.8782 -0.0000
vn 0.4688 -0.8610 0.1971
vn 0.8353 -0.5113 -0.2023
vn 0.9787 0.0003 -0.2055
vn 0.4688 -0.8610 -0.1971
vn 0.8353 0.5112 -0.2023
vn -0.0000 -1.0000 -0.0000
vn -0.0000 -0.9809 0.1944
vn -0.0000 -0.9809 -0.1944
vn -0.4689 -0.8610 0.1971
vn -0.4688 -0.8610 -0.1971
vn -0.4781 -0.8783 -0.0003
vn -0.8353 -0.5112 0.2022
vn -0.8352 -0.5113 -0.2023
vn -0.8530 -0.5219 -0.0004
vn -1.0000 -0.0000 -0.0000
vn -0.9787 0.0006 0.2053
vn -0.9787 0.0006 -0.2053
vn -0.8352 0.5113 0.2023
vn -0.8352 0.5113 -0.2023
vn -0.8529 0.5221 -0.0000
vn -0.4688 0.8611 0.1967
vn -0.4688 0.8611 -0.1967
vn -0.4782 0.8783 -0.0000
vn -0.0000 1.0000 -0.0000
vn 0.0003 0.9810 0.1942
vn 0.0003 0.9810 -0.1942
vn 0.4687 0.8612 0.1967
vn 0.4688 0.8611 -0.1967
vn 0.4780 0.8783 -0.0002
vn 0.8529 0.5221 -0.0000
vn -0.4782 -0.8782 -0.0000
vn -0.4734 -0.8695 -0.1410
vn -0.8529 -0.5220 -0.0003
vn -0.8438 -0.5166 -0.1451
vn -0.0000 -0.9903 -0.1390
vn -0.9891 -0.0000 -0.1473
vn 0.0004 -1.0000 -0.0003
vn 0.0003 -0.9903 0.1392
vn 0.4782 -0.8783 -0.0000
vn -0.4734 -0.8695 0.1410
vn 0.4734 -0.8695 0.1410
vn -0.8440 -0.5162 0.1453
vn 0.4732 -0.8696 -0.1412
vn -0.9891 -0.0000 0.1473
vn 0.8529 -0.5220 -0.0000
vn 0.8440 -0.5163 0.1454
vn 0.8440 -0.5163 -0.1453
vn 0.9891 -0.0000 0.1473
vn 0.9891 -0.0000 -0.1473
vn 1.0000 0.0004 -0.0003
vn 0.8438 0.5166 0.1451
vn 0.8439 0.5164 -0.1453
vn 0.4730 0.8697 0.1412
vn 0.4730 0.8697 -0.1412
vn 0.4782 0.8783 -0.0000
vn 0.0003 0.9903 0.1392
vn 0.0003 0.9903 -0.1392
vn 0.0004 1.0000 -0.0003
vn -0.4782 0.8782 -0.0000
vn -0.4734 0.8695 0.1410
vn -0.4734 0.8695 -0.1410
vn -0.8440 0.5163 0.1453
vn -0.8440 0.5163 -0.1454
vn -1.0000 0.0004 -0.0003
vn 0.9932 0.1165 -0.0000
vn 0.9869 0.1615 -0.0000
vn 0.9868 0.1620 -0.0005
vn 0.9722 0.2342 -0.0000
vn 0.9868 0.1620 -0.0006
vn 0.9548 0.2971 -0.0000
vn 0.9345 0.3559 -0.0000
vn 0.9548 0.2973 -0.0003
vn 0.9135 0.4068 -0.0002
vn 0.9135 0.4069 -0.0003
vn 0.0003 0.0004 1.0000
vn 0.0003 0.0004 -1.0000
vn -0.0006 0.0028 1.0000
vn -0.0006 0.0030 1.0000
vn -0.0006 0.0030 -1.0000
vn -0.0006 0.0028 -1.0000
vn -0.0005 0.0028 -1.0000
vn -0.0005 0.0028 1.0000
vn -0.5580 0.0211 0.8296
vn -0.5581 0.0086 0.8298
vn -0.5581 0.0084 0.8298
vn -0.5579 -0.0258 0.8295
vn -0.5579 -0.0269 0.8295
vn -0.5568 -0.0687 0.8278
vn -0.5567 -0.0715 0.8277
vn -0.5551 -0.1038 0.8253
vn -0.5549 -0.1065 0.8251
vn -0.5526 -0.1395 0.8217
vn -0.5524 -0.1455 0.8208
vn -0.5488 -0.1818 0.8160
vn -0.5484 -0.1876 0.8149
vn -0.5447 -0.2177 0.8099
vn -0.5438 -0.2251 0.8085
vn -0.5391 -0.2567 0.8022
vn -0.5377 -0.2678 0.7995
vn -0.5329 -0.2968 0.7924
vn -0.5314 -0.3053 0.7902
vn -0.5259 -0.3348 0.7819
vn -0.5228 -0.3500 0.7773
vn -0.5168 -0.3775 0.7684
vn -0.5146 -0.3870 0.7651
vn -0.5103 -0.4051 0.7587
vn -0.5083 -0.4143 0.7550
vn -0.5004 -0.4431 0.7438
vn -0.4934 -0.4674 0.7336
vn -0.4828 -0.5017 0.7178
vn -0.4763 -0.5213 0.7081
vn -0.4656 -0.5512 0.6923
vn -0.4559 -0.5768 0.6779
vn -0.4478 -0.5311 0.7193
vn -0.4306 -0.3645 0.8256
vn -0.4149 -0.2662 0.8701
vn -0.4148 -0.2662 0.8701
vn -0.4306 -0.3645 -0.8257
vn -0.4149 -0.2662 -0.8701
vn -0.4478 -0.5311 -0.7193
vn -0.4148 -0.2662 -0.8701
vn -0.4559 -0.5768 -0.6778
vn -0.4656 -0.5512 -0.6923
vn -0.4763 -0.5213 -0.7081
vn -0.4828 -0.5017 -0.7178
vn -0.4934 -0.4674 -0.7335
vn -0.5004 -0.4427 -0.7440
vn -0.5083 -0.4143 -0.7550
vn -0.5103 -0.4051 -0.7586
vn -0.5146 -0.3870 -0.7651
vn -0.5168 -0.3775 -0.7684
vn -0.5228 -0.3500 -0.7773
vn -0.5259 -0.3348 -0.7819
vn -0.5314 -0.3053 -0.7901
vn -0.5329 -0.2968 -0.7924
vn -0.5374 -0.2673 -0.7999
vn -0.5393 -0.2570 -0.8019
vn -0.5438 -0.2251 -0.8085
vn -0.5447 -0.2177 -0.8099
vn -0.5481 -0.1880 -0.8150
vn -0.5488 -0.1818 -0.8159
vn -0.5521 -0.1459 -0.8209
vn -0.5526 -0.1395 -0.8217
vn -0.5549 -0.1065 -0.8251
vn -0.5551 -0.1038 -0.8253
vn -0.5567 -0.0715 -0.8276
vn -0.5568 -0.0687 -0.8278
vn -0.5579 -0.0269 -0.8295
vn -0.5579 -0.0258 -0.8295
vn -0.5581 0.0086 -0.8297
vn -0.5581 0.0084 -0.8298
vn -0.5580 0.0211 -0.8296
vn 0.0753 -0.9972 -0.0003
vn 0.0078 -0.9999 0.0063
vn 0.0078 -1.0000 0.0062
vn 0.0751 -0.9972 0.0029
vn 0.1422 -0.9898 -0.0000
vn 0.1424 -0.9898 -0.0003
vn 0.0751 -0.9972 -0.0028
vn 0.1425 -0.9898 -0.0004
vn 0.0078 -1.0000 -0.0062
vn 0.0078 -0.9999 -0.0063
vn 0.8826 -0.3255 -0.3392
vn 0.7244 -0.2329 -0.6488
vn 0.8979 -0.2892 -0.3318
vn 0.8979 -0.2892 0.3318
vn 0.7144 -0.2635 -0.6483
vn 0.7244 -0.2329 0.6488
vn 0.8828 -0.3256 0.3387
vn 0.7145 -0.2639 0.6480
vn 0.7139 -0.2661 -0.6477
vn 0.7135 -0.2662 0.6482
vn 0.8833 -0.3291 0.3339
vn 0.6859 -0.3676 0.6280
vn 0.8833 -0.3291 -0.3339
vn 0.6859 -0.3676 -0.6280
vn 0.8349 -0.4495 -0.3177
vn 0.2671 -0.7231 -0.6370
vn 0.8349 -0.4495 0.3177
vn 0.2671 -0.7231 0.6370
vn 0.3396 -0.8946 -0.2903
vn 0.3396 -0.8946 0.2903
vn -0.5871 -0.4264 0.6881
vn -0.5871 -0.4264 -0.6881
vn -0.7737 -0.5502 0.3142
vn -0.9410 0.0883 0.3267
vn -0.7737 -0.5502 -0.3141
vn -0.9410 0.0883 -0.3267
vn -0.7786 0.0847 -0.6218
vn -0.7786 0.0847 0.6218
vn -0.9273 -0.1320 -0.3502
vn -0.7510 -0.1071 -0.6515
vn -0.9273 -0.1319 0.3502
vn -0.7510 -0.1070 0.6515
vn -0.8725 -0.3482 -0.3428
vn -0.7081 -0.2821 -0.6473
vn -0.8725 -0.3482 0.3427
vn -0.7081 -0.2820 0.6473
vn -0.7671 -0.5414 -0.3441
vn -0.6252 -0.4425 -0.6430
vn -0.7671 -0.5414 0.3442
vn -0.6252 -0.4425 0.6430
vn -0.5693 -0.7588 -0.3163
vn -0.4726 -0.6488 -0.5965
vn -0.5693 -0.7588 0.3163
vn -0.4726 -0.6488 0.5965
vn -0.6495 -0.1143 -0.7517
vn -0.6495 -0.1143 0.7517
vn -0.9228 -0.1625 -0.3494
vn -0.9228 -0.1625 0.3494
vn -0.7073 0.6367 -0.3072
vn -0.5185 0.5556 -0.6500
vn -0.8362 -0.4514 -0.3114
vn -0.6463 0.7020 -0.2992
vn -0.2738 0.9056 -0.3240
vn -0.6513 -0.3446 -0.6761
vn -0.2246 0.7570 -0.6136
vn -0.6463 0.7020 0.2992
vn -0.4320 -0.8446 -0.3164
vn -0.3574 -0.7085 -0.6085
vn -0.8362 -0.4514 0.3114
vn -0.5472 0.7630 -0.3441
vn -0.4481 0.6255 -0.6387
vn -0.6312 0.4499 -0.6318
vn -0.5185 0.5556 0.6500
vn -0.7643 0.5506 -0.3357
vn -0.2738 0.9056 0.3240
vn -0.6513 -0.3446 0.6761
vn -0.2246 0.7570 0.6136
vn -0.4320 -0.8446 0.3164
vn -0.3574 -0.7085 0.6085
vn -0.5474 0.7627 0.3445
vn -0.4481 0.6255 0.6387
vn -0.6312 0.4499 0.6318
vn -0.4184 0.6448 -0.6397
vn -0.7643 0.5506 0.3358
vn -0.4184 0.6448 0.6397
vn -0.5207 0.7999 -0.2983
vn -0.5207 0.7999 0.2983
vn 0.4226 0.8561 0.2976
vn 0.4226 0.8560 -0.2977
vn 0.3354 0.6818 -0.6502
vn 0.3354 0.6818 0.6502
vn 0.5823 0.7309 -0.3560
vn 0.4899 0.6004 -0.6321
vn 0.5823 0.7308 0.3561
vn 0.4899 0.6004 0.6321
vn 0.0828 0.7982 -0.5966
vn 0.0827 0.7982 0.5966
vn 0.1148 0.9422 0.3148
vn 0.4372 0.5619 0.7022
vn 0.1147 0.9422 -0.3148
vn 0.4372 0.5619 -0.7022
vn 0.5831 0.7466 -0.3203
vn 0.5831 0.7466 0.3203
vn 0.9479 -0.0824 -0.3076
vn 0.7790 -0.0733 -0.6227
vn 0.7337 -0.2067 -0.6473
vn 0.9479 -0.0825 0.3077
vn 0.7790 -0.0733 0.6227
vn 0.7337 -0.2067 0.6473
vn 0.9058 -0.2550 -0.3385
vn 0.7466 -0.1419 -0.6499
vn 0.9057 -0.2550 0.3385
vn 0.7467 -0.1420 0.6498
vn 0.9231 -0.1767 0.3416
vn 0.7574 0.0154 0.6528
vn 0.9231 -0.1767 -0.3417
vn 0.7576 0.0150 -0.6526
vn 0.9361 0.0180 -0.3512
vn 0.9361 0.0181 0.3512
vn 0.9041 0.2546 -0.3431
vn 0.7337 0.2072 -0.6471
vn 0.9041 0.2546 0.3431
vn 0.7337 0.2072 0.6471
vn 0.7488 0.1079 -0.6540
vn 0.7487 0.1079 0.6540
vn 0.9361 0.1355 -0.3247
vn 0.9341 -0.1265 -0.3339
vn 0.7548 -0.1029 -0.6478
vn 0.9361 0.1355 0.3247
vn 0.7438 -0.1581 -0.6494
vn 0.9340 -0.1269 0.3341
vn 0.7548 -0.1029 0.6478
vn 0.7441 -0.1581 0.6491
vn 0.9213 -0.1955 -0.3361
vn 0.9213 -0.1955 0.3361
vn -0.5882 0.5445 -0.5980
vn -0.7073 0.6367 0.3072
vn -0.5882 0.5445 0.5980
vn -0.8372 0.4126 -0.3589
vn -0.6806 0.3363 -0.6509
vn -0.8372 0.4126 0.3589
vn -0.6806 0.3363 0.6509
vn -0.7563 0.0828 -0.6489
vn -0.7564 0.0826 0.6489
vn -0.9334 0.0990 -0.3449
vn -0.9334 0.0990 0.3449
vn -0.9257 -0.1446 -0.3495
vn -0.7512 -0.1177 -0.6495
vn -0.9257 -0.1446 0.3495
vn -0.7512 -0.1176 0.6495
vn -0.9471 -0.0370 -0.3187
vn -0.7610 -0.0312 -0.6480
vn -0.9471 -0.0370 0.3188
vn -0.7610 -0.0312 0.6480
vn -0.6162 0.4406 -0.6528
vn -0.6162 0.4406 0.6529
vn -0.7719 0.5531 -0.3134
vn -0.7720 0.5530 0.3134
vn -0.6077 0.7204 -0.3343
vn -0.4976 0.5951 -0.6311
vn -0.6077 0.7204 0.3343
vn -0.4976 0.5951 0.6311
vn -0.8028 0.4818 0.3514
vn -0.6536 0.3917 0.6476
vn -0.8028 0.4818 -0.3514
vn -0.6535 0.3916 -0.6477
vn -0.7519 0.1033 0.6511
vn -0.7519 0.1033 -0.6511
vn -0.9267 0.1262 -0.3539
vn -0.9266 0.1265 0.3541
vn -0.9093 -0.2353 -0.3432
vn -0.7451 -0.1989 -0.6366
vn -0.9093 -0.2353 0.3432
vn -0.7451 -0.1989 0.6366
vn -0.9417 0.1061 -0.3194
vn -0.7318 0.0854 -0.6762
vn -0.9417 0.1061 0.3194
vn -0.7318 0.0854 0.6762
vn -0.6300 0.7128 -0.3082
vn -0.5117 0.5877 -0.6267
vn -0.6300 0.7128 0.3082
vn -0.5117 0.5877 0.6267
vn -0.6209 0.7033 -0.3462
vn -0.5080 0.5754 -0.6410
vn -0.6209 0.7033 0.3462
vn -0.5080 0.5754 0.6410
vn -0.6449 0.4134 -0.6428
vn -0.6452 0.4134 0.6425
vn -0.7917 0.5086 0.3384
vn -0.7917 0.5086 -0.3385
vn -0.8980 0.2590 0.3557
vn -0.7282 0.2096 0.6525
vn -0.8980 0.2590 -0.3557
vn -0.7282 0.2096 -0.6525
vn -0.7602 -0.0258 0.6492
vn -0.7603 -0.0259 -0.6491
vn -0.9380 -0.0313 -0.3453
vn -0.9380 -0.0313 0.3453
vn -0.8814 -0.3134 -0.3534
vn -0.7158 -0.2563 -0.6496
vn -0.8814 -0.3134 0.3534
vn -0.7157 -0.2563 0.6497
vn -0.6639 -0.6598 0.3521
vn -0.5425 -0.5388 0.6444
vn -0.6643 -0.6597 -0.3516
vn -0.5425 -0.5388 -0.6444
vn -0.0000 -0.0000 1.0000
vn -0.0000 -0.0000 -1.0000
vt 0.000000 0.000000
s 1
f 1/1/1 2/1/2 3/1/3
f 4/1/1 5/1/4 3/1/3
f 6/1/2 3/1/3 2/1/2
f 3/1/3 6/1/2 4/1/1
f 2/1/2 7/1/5 6/1/2
f 8/1/2 4/1/1 6/1/2
f 9/1/5 6/1/2 7/1/5
f 6/1/2 9/1/5 8/1/2
f 7/1/5 10/1/6 9/1/5
f 11/1/7 8/1/2 9/1/5
f 12/1/8 9/1/5 10/1/6
f 9/1/5 12/1/8 11/1/7
f 10/1/6 13/1/9 12/1/8
f 14/1/8 11/1/7 12/1/8
f 15/1/9 12/1/8 13/1/9
f 12/1/8 15/1/9 14/1/8
f 15/1/9 13/1/9 16/1/10
f 17/1/9 14/1/8 15/1/9
f 18/1/10 15/1/9 16/1/10
f 17/1/9 15/1/9 18/1/10
f 18/1/10 16/1/10 19/1/11
f 20/1/10 17/1/9 18/1/10
f 21/1/12 18/1/10 19/1/11
f 20/1/10 18/1/10 21/1/12
f 19/1/11 22/1/13 21/1/12
f 23/1/11 20/1/10 21/1/12
f 24/1/13 21/1/12 22/1/13
f 21/1/12 24/1/13 23/1/11
f 22/1/13 25/1/14 24/1/13
f 26/1/15 23/1/11 24/1/13
f 27/1/16 24/1/13 25/1/14
f 24/1/13 27/1/16 26/1/15
f 25/1/14 28/1/17 27/1/16
f 29/1/14 26/1/15 27/1/16
f 30/1/17 27/1/16 28/1/17
f 27/1/16 30/1/17 29/1/14
f 28/1/17 31/1/18 30/1/17
f 32/1/17 29/1/14 30/1/17
f 33/1/19 30/1/17 31/1/18
f 30/1/17 34/1/20 32/1/17
f 31/1/18 35/1/21 33/1/19
f 36/1/22 33/1/19 35/1/21
f 36/1/22 35/1/21 37/1/23
f 38/1/24 32/1/17 34/1/20
f 34/1/20 39/1/25 38/1/24
f 39/1/25 34/1/20 40/1/25
f 39/1/25 40/1/25 41/1/26
f 42/1/27 43/1/28 44/1/29
f 43/1/28 45/1/30 44/1/29
f 43/1/28 42/1/27 46/1/31
f 42/1/27 47/1/32 46/1/31
f 47/1/32 42/1/27 48/1/33
f 47/1/32 49/1/34 46/1/31
f 49/1/34 43/1/28 46/1/31
f 43/1/28 49/1/34 50/1/35
f 49/1/34 47/1/32 51/1/36
f 52/1/37 43/1/28 50/1/35
f 48/1/33 53/1/38 47/1/32
f 53/1/38 51/1/36 47/1/32
f 53/1/38 48/1/33 54/1/39
f 51/1/36 53/1/38 55/1/40
f 56/1/41 53/1/38 54/1/39
f 53/1/38 57/1/42 55/1/40
f 53/1/38 56/1/41 58/1/43
f 57/1/42 53/1/38 58/1/43
f 59/1/44 58/1/43 56/1/41
f 58/1/43 60/1/45 57/1/42
f 58/1/43 59/1/44 61/1/46
f 60/1/45 58/1/43 61/1/46
f 59/1/44 62/1/47 61/1/46
f 62/1/47 60/1/45 61/1/46
f 62/1/47 59/1/44 63/1/48
f 60/1/45 62/1/47 64/1/49
f 65/1/50 62/1/47 63/1/48
f 62/1/47 66/1/51 64/1/49
f 62/1/47 65/1/50 67/1/52
f 66/1/51 62/1/47 67/1/52
f 68/1/53 67/1/52 65/1/50
f 67/1/52 69/1/54 66/1/51
f 67/1/52 68/1/53 70/1/55
f 69/1/54 67/1/52 70/1/55
f 68/1/53 71/1/56 70/1/55
f 71/1/56 69/1/54 70/1/55
f 71/1/56 68/1/53 72/1/57
f 69/1/54 71/1/56 73/1/58
f 74/1/59 71/1/56 72/1/57
f 71/1/56 75/1/60 73/1/58
f 71/1/56 74/1/59 76/1/61
f 75/1/60 71/1/56 76/1/61
f 74/1/59 77/1/62 76/1/61
f 77/1/62 75/1/60 76/1/61
f 77/1/62 74/1/59 45/1/30
f 75/1/60 77/1/62 52/1/37
f 45/1/30 43/1/28 77/1/62
f 43/1/28 52/1/37 77/1/62
f 78/1/63 79/1/64 80/1/65
f 80/1/65 79/1/64 81/1/66
f 78/1/63 82/1/67 79/1/64
f 83/1/68 80/1/65 81/1/66
f 78/1/63 84/1/69 82/1/67
f 78/1/63 85/1/70 84/1/69
f 86/1/71 82/1/67 84/1/69
f 85/1/70 86/1/71 84/1/69
f 85/1/70 78/1/63 87/1/72
f 80/1/65 87/1/72 78/1/63
f 85/1/70 88/1/73 86/1/71
f 87/1/72 80/1/65 89/1/74
f 82/1/67 86/1/71 90/1/75
f 80/1/65 91/1/76 89/1/74
f 88/1/73 92/1/77 86/1/71
f 92/1/77 90/1/75 86/1/71
f 93/1/78 92/1/77 88/1/73
f 90/1/75 92/1/77 94/1/79
f 95/1/80 92/1/77 93/1/78
f 92/1/77 96/1/81 94/1/79
f 92/1/77 95/1/80 97/1/82
f 92/1/77 97/1/82 96/1/81
f 95/1/80 98/1/62 97/1/82
f 98/1/62 96/1/81 97/1/82
f 98/1/62 95/1/80 99/1/83
f 96/1/81 98/1/62 100/1/84
f 101/1/85 98/1/62 99/1/83
f 98/1/62 102/1/86 100/1/84
f 98/1/62 101/1/85 103/1/87
f 103/1/87 102/1/86 98/1/62
f 104/1/88 103/1/87 101/1/85
f 103/1/87 105/1/89 102/1/86
f 103/1/87 104/1/88 106/1/90
f 103/1/87 106/1/90 105/1/89
f 104/1/88 107/1/91 106/1/90
f 107/1/91 105/1/89 106/1/90
f 104/1/88 108/1/92 107/1/91
f 105/1/89 107/1/91 109/1/93
f 108/1/92 110/1/52 107/1/91
f 110/1/52 109/1/93 107/1/91
f 111/1/94 110/1/52 108/1/92
f 109/1/93 110/1/52 112/1/95
f 91/1/76 110/1/52 111/1/94
f 110/1/52 83/1/68 112/1/95
f 110/1/52 91/1/76 113/1/96
f 110/1/52 113/1/96 83/1/68
f 91/1/76 80/1/65 113/1/96
f 80/1/65 83/1/68 113/1/96
f 114/1/97 115/1/98 116/1/97
f 115/1/98 114/1/97 117/1/99
f 115/1/98 117/1/99 118/1/100
f 119/1/101 116/1/97 115/1/98
f 116/1/97 119/1/101 120/1/97
f 121/1/100 115/1/98 118/1/100
f 119/1/101 115/1/98 121/1/100
f 118/1/100 122/1/102 121/1/100
f 123/1/100 119/1/101 121/1/100
f 124/1/102 121/1/100 122/1/102
f 121/1/100 124/1/102 123/1/100
f 124/1/102 122/1/102 125/1/103
f 126/1/104 123/1/100 124/1/102
f 127/1/103 124/1/102 125/1/103
f 126/1/104 124/1/102 127/1/103
f 127/1/103 125/1/103 128/1/105
f 129/1/103 126/1/104 127/1/103
f 130/1/106 127/1/103 128/1/105
f 129/1/103 127/1/103 130/1/106
f 128/1/105 1/1/1 130/1/106
f 5/1/4 129/1/103 130/1/106
f 3/1/3 130/1/106 1/1/1
f 130/1/106 3/1/3 5/1/4
f 131/1/107 132/1/107 133/1/107
f 134/1/107 133/1/107 132/1/107
f 132/1/107 131/1/107 135/1/107
f 133/1/107 134/1/107 136/1/107
f 137/1/107 135/1/107 131/1/107
f 138/1/107 136/1/107 134/1/107
f 135/1/107 137/1/107 139/1/107
f 136/1/107 138/1/107 140/1/107
f 141/1/107 139/1/107 137/1/107
f 138/1/107 142/1/107 140/1/107
f 139/1/107 141/1/107 143/1/107
f 142/1/107 138/1/107 144/1/107
f 145/1/107 143/1/107 141/1/107
f 146/1/107 142/1/107 144/1/107
f 141/1/107 147/1/107 145/1/107
f 146/1/107 144/1/107 148/1/107
f 147/1/107 149/1/107 145/1/107
f 150/1/107 146/1/107 148/1/107
f 147/1/107 151/1/107 149/1/107
f 148/1/107 152/1/107 150/1/107
f 151/1/107 153/1/107 149/1/107
f 152/1/107 154/1/107 150/1/107
f 153/1/107 151/1/107 154/1/107
f 154/1/107 152/1/107 153/1/107
f 155/1/108 156/1/108 157/1/108
f 158/1/108 157/1/108 156/1/108
f 156/1/108 155/1/108 159/1/108
f 157/1/108 158/1/108 160/1/108
f 161/1/108 159/1/108 155/1/108
f 162/1/108 160/1/108 158/1/108
f 159/1/108 161/1/108 163/1/108
f 160/1/108 162/1/108 164/1/108
f 165/1/108 163/1/108 161/1/108
f 162/1/108 166/1/108 164/1/108
f 163/1/108 165/1/108 167/1/108
f 166/1/108 162/1/108 168/1/108
f 169/1/108 167/1/108 165/1/108
f 170/1/108 166/1/108 168/1/108
f 167/1/108 169/1/108 171/1/108
f 170/1/108 168/1/108 172/1/108
f 173/1/108 171/1/108 169/1/108
f 174/1/108 170/1/108 172/1/108
f 171/1/108 173/1/108 175/1/108
f 172/1/108 176/1/108 174/1/108
f 173/1/108 177/1/108 175/1/108
f 176/1/108 178/1/108 174/1/108
f 177/1/108 173/1/108 178/1/108
f 178/1/108 176/1/108 177/1/108
f 179/1/109 180/1/109 181/1/109
f 182/1/109 181/1/109 180/1/109
f 180/1/109 179/1/109 183/1/109
f 181/1/109 182/1/109 184/1/109
f 179/1/109 185/1/109 183/1/109
f 186/1/109 184/1/109 182/1/109
f 185/1/109 179/1/109 187/1/109
f 184/1/109 186/1/109 188/1/109
f 185/1/109 187/1/109 189/1/109
f 190/1/109 188/1/109 186/1/109
f 188/1/109 190/1/109 191/1/109
f 192/1/109 191/1/109 190/1/109
f 192/1/109 193/1/109 191/1/109
f 193/1/109 192/1/109 194/1/109
f 194/1/109 195/1/109 193/1/109
f 196/1/109 195/1/109 194/1/109
f 195/1/109 196/1/109 197/1/109
f 198/1/109 197/1/109 196/1/109
f 197/1/109 198/1/109 199/1/109
f 200/1/109 199/1/109 198/1/109
f 199/1/109 200/1/109 201/1/109
f 200/1/109 202/1/109 201/1/109
f 202/1/109 200/1/109 203/1/109
f 203/1/109 204/1/109 202/1/109
f 204/1/109 203/1/109 205/1/110
f 205/1/110 206/1/110 204/1/109
f 205/1/110 207/1/110 206/1/110
f 208/1/111 209/1/111 210/1/111
f 209/1/111 211/1/112 210/1/111
f 212/1/112 211/1/112 209/1/111
f 211/1/112 212/1/112 213/1/112
f 214/1/112 213/1/112 212/1/112
f 213/1/112 214/1/112 215/1/112
f 215/1/112 214/1/112 216/1/112
f 217/1/112 216/1/112 214/1/112
f 217/1/112 218/1/112 216/1/112
f 219/1/112 218/1/112 217/1/112
f 219/1/112 220/1/112 218/1/112
f 220/1/112 219/1/112 221/1/112
f 221/1/112 222/1/112 220/1/112
f 223/1/112 222/1/112 221/1/112
f 222/1/112 223/1/112 224/1/112
f 225/1/112 224/1/112 223/1/112
f 224/1/112 225/1/112 226/1/112
f 227/1/112 226/1/112 225/1/112
f 226/1/112 227/1/112 228/1/112
f 229/1/112 228/1/112 227/1/112
f 229/1/112 230/1/112 228/1/112
f 230/1/112 229/1/112 231/1/112
f 231/1/112 232/1/113 230/1/112
f 233/1/112 232/1/113 231/1/112
f 234/1/112 232/1/113 233/1/112
f 232/1/113 234/1/112 235/1/112
f 236/1/112 235/1/112 234/1/112
f 235/1/112 236/1/112 237/1/113
f 238/1/112 237/1/113 236/1/112
f 237/1/113 238/1/112 239/1/112
f 240/1/112 237/1/113 239/1/112
f 240/1/112 239/1/112 241/1/112
f 237/1/113 240/1/112 242/1/112
f 240/1/112 243/1/112 242/1/112
f 244/1/114 245/1/109 246/1/109
f 245/1/109 247/1/109 248/1/109
f 245/1/109 249/1/114 247/1/109
f 249/1/114 245/1/109 244/1/114
f 250/1/109 249/1/114 244/1/114
f 189/1/109 249/1/114 250/1/109
f 249/1/114 189/1/109 187/1/109
f 251/1/115 252/1/116 253/1/115
f 252/1/116 251/1/115 254/1/117
f 255/1/118 252/1/116 254/1/117
f 252/1/116 255/1/118 256/1/119
f 257/1/120 256/1/119 255/1/118
f 256/1/119 257/1/120 258/1/121
f 259/1/122 258/1/121 257/1/120
f 258/1/121 259/1/122 260/1/123
f 261/1/124 260/1/123 259/1/122
f 260/1/123 261/1/124 262/1/125
f 263/1/126 262/1/125 261/1/124
f 262/1/125 263/1/126 264/1/127
f 265/1/128 264/1/127 263/1/126
f 264/1/127 265/1/128 266/1/129
f 267/1/130 266/1/129 265/1/128
f 266/1/129 267/1/130 268/1/131
f 269/1/132 268/1/131 267/1/130
f 269/1/132 270/1/133 268/1/131
f 271/1/134 270/1/133 269/1/132
f 271/1/134 272/1/135 270/1/133
f 273/1/136 272/1/135 271/1/134
f 273/1/136 274/1/137 272/1/135
f 275/1/138 274/1/137 273/1/136
f 275/1/138 276/1/139 274/1/137
f 276/1/139 275/1/138 277/1/140
f 277/1/140 278/1/141 276/1/139
f 278/1/141 277/1/140 279/1/142
f 279/1/142 280/1/143 278/1/141
f 280/1/143 279/1/142 281/1/144
f 282/1/145 280/1/143 281/1/144
f 282/1/145 281/1/144 283/1/146
f 283/1/146 284/1/147 282/1/145
f 284/1/147 283/1/146 285/1/148
f 286/1/149 284/1/147 285/1/148
f 287/1/150 288/1/151 289/1/152
f 288/1/151 287/1/150 290/1/153
f 289/1/152 291/1/154 287/1/150
f 291/1/154 289/1/152 292/1/155
f 292/1/155 293/1/156 291/1/154
f 293/1/156 292/1/155 294/1/157
f 294/1/157 295/1/158 293/1/156
f 295/1/158 294/1/157 296/1/159
f 296/1/159 297/1/160 295/1/158
f 297/1/160 296/1/159 298/1/161
f 298/1/161 299/1/162 297/1/160
f 299/1/162 298/1/161 300/1/163
f 300/1/163 301/1/164 299/1/162
f 301/1/164 300/1/163 302/1/165
f 302/1/165 303/1/166 301/1/164
f 303/1/166 302/1/165 304/1/167
f 304/1/167 305/1/168 303/1/166
f 305/1/168 304/1/167 306/1/169
f 306/1/169 307/1/170 305/1/168
f 307/1/170 306/1/169 308/1/171
f 308/1/171 309/1/172 307/1/170
f 309/1/172 308/1/171 310/1/173
f 310/1/173 311/1/174 309/1/172
f 311/1/174 310/1/173 312/1/175
f 312/1/175 313/1/176 311/1/174
f 313/1/176 312/1/175 314/1/177
f 314/1/177 315/1/178 313/1/176
f 315/1/178 314/1/177 316/1/179
f 316/1/179 317/1/180 315/1/178
f 317/1/180 316/1/179 318/1/181
f 318/1/181 319/1/182 317/1/180
f 319/1/182 318/1/181 320/1/183
f 321/1/184 319/1/182 320/1/183
f 319/1/182 321/1/184 322/1/184
f 323/1/185 324/1/186 325/1/187
f 323/1/185 325/1/187 326/1/188
f 327/1/189 323/1/185 326/1/188
f 328/1/190 323/1/185 327/1/189
f 323/1/185 328/1/190 329/1/191
f 329/1/191 328/1/190 330/1/192
f 331/1/193 323/1/185 329/1/191
f 323/1/185 331/1/193 332/1/194
f 333/1/195 334/1/196 335/1/197
f 336/1/198 333/1/195 335/1/197
f 334/1/196 333/1/195 337/1/199
f 338/1/200 339/1/201 336/1/198
f 339/1/201 333/1/195 336/1/198
f 339/1/201 338/1/200 340/1/202
f 333/1/195 341/1/203 337/1/199
f 342/1/204 339/1/201 340/1/202
f 339/1/201 342/1/204 343/1/205
f 343/1/205 333/1/195 339/1/201
f 344/1/206 343/1/205 342/1/204
f 333/1/195 345/1/207 341/1/203
f 333/1/195 343/1/205 345/1/207
f 346/1/208 341/1/203 345/1/207
f 345/1/207 347/1/209 346/1/208
f 343/1/205 347/1/209 345/1/207
f 348/1/210 346/1/208 347/1/209
f 343/1/205 344/1/206 349/1/211
f 347/1/209 343/1/205 349/1/211
f 350/1/212 349/1/211 344/1/206
f 347/1/209 351/1/213 348/1/210
f 349/1/211 351/1/213 347/1/209
f 349/1/211 350/1/212 352/1/214
f 349/1/211 352/1/214 351/1/213
f 353/1/215 352/1/214 350/1/212
f 351/1/213 354/1/216 348/1/210
f 352/1/214 353/1/215 355/1/217
f 355/1/217 351/1/213 352/1/214
f 353/1/215 356/1/218 355/1/217
f 351/1/213 355/1/217 357/1/219
f 354/1/216 351/1/213 357/1/219
f 356/1/218 357/1/219 355/1/217
f 357/1/219 358/1/220 354/1/216
f 357/1/219 356/1/218 358/1/220
f 354/1/216 358/1/220 359/1/221
f 356/1/218 353/1/215 360/1/222
f 361/1/223 359/1/221 358/1/220
f 356/1/218 361/1/223 358/1/220
f 359/1/221 361/1/223 362/1/224
f 360/1/222 363/1/225 356/1/218
f 356/1/218 363/1/225 361/1/223
f 360/1/222 364/1/226 363/1/225
f 365/1/227 362/1/224 361/1/223
f 363/1/225 365/1/227 361/1/223
f 362/1/224 365/1/227 366/1/228
f 364/1/226 367/1/229 363/1/225
f 363/1/225 367/1/229 365/1/227
f 364/1/226 368/1/230 367/1/229
f 369/1/231 366/1/228 365/1/227
f 367/1/229 369/1/231 365/1/227
f 366/1/228 369/1/231 370/1/232
f 371/1/233 367/1/229 368/1/230
f 367/1/229 371/1/233 369/1/231
f 368/1/230 372/1/234 371/1/233
f 373/1/235 370/1/232 369/1/231
f 371/1/233 373/1/235 369/1/231
f 370/1/232 373/1/235 374/1/236
f 375/1/237 371/1/233 372/1/234
f 371/1/233 375/1/237 373/1/235
f 372/1/234 376/1/238 375/1/237
f 377/1/239 374/1/236 373/1/235
f 378/1/240 375/1/237 376/1/238
f 373/1/235 379/1/241 377/1/239
f 380/1/242 373/1/235 375/1/237
f 373/1/235 380/1/242 379/1/241
f 375/1/237 378/1/240 380/1/242
f 381/1/243 377/1/239 379/1/241
f 380/1/242 381/1/243 379/1/241
f 382/1/244 383/1/245 384/1/246
f 385/1/247 382/1/244 384/1/246
f 383/1/245 382/1/244 386/1/248
f 382/1/244 385/1/247 387/1/249
f 388/1/250 384/1/246 383/1/245
f 388/1/250 385/1/247 384/1/246
f 389/1/251 383/1/245 386/1/248
f 386/1/248 390/1/252 389/1/251
f 391/1/253 388/1/250 383/1/245
f 392/1/254 387/1/249 385/1/247
f 387/1/249 392/1/254 393/1/255
f 394/1/256 393/1/255 392/1/254
f 388/1/250 391/1/253 395/1/257
f 394/1/256 392/1/254 396/1/258
f 397/1/259 385/1/247 388/1/250
f 395/1/257 397/1/259 388/1/250
f 395/1/257 391/1/253 398/1/260
f 395/1/257 399/1/261 397/1/259
f 400/1/262 398/1/260 391/1/253
f 400/1/262 391/1/253 383/1/245
f 398/1/260 400/1/262 401/1/263
f 400/1/262 383/1/245 389/1/251
f 399/1/261 402/1/264 397/1/259
f 402/1/264 385/1/247 397/1/259
f 385/1/247 402/1/264 392/1/254
f 402/1/264 399/1/261 403/1/265
f 402/1/264 396/1/258 392/1/254
f 404/1/266 402/1/264 403/1/265
f 396/1/258 405/1/267 394/1/256
f 402/1/264 404/1/266 406/1/268
f 396/1/258 402/1/264 406/1/268
f 407/1/269 406/1/268 404/1/266
f 396/1/258 408/1/270 405/1/267
f 406/1/268 408/1/270 396/1/258
f 406/1/268 407/1/269 409/1/271
f 408/1/270 406/1/268 409/1/271
f 407/1/269 410/1/272 409/1/271
f 411/1/273 405/1/267 408/1/270
f 409/1/271 411/1/273 408/1/270
f 410/1/272 411/1/273 409/1/271
f 405/1/267 411/1/273 412/1/274
f 407/1/269 413/1/275 410/1/272
f 414/1/276 412/1/274 411/1/273
f 410/1/272 414/1/276 411/1/273
f 412/1/274 414/1/276 415/1/277
f 413/1/275 416/1/278 410/1/272
f 416/1/278 414/1/276 410/1/272
f 413/1/275 417/1/279 416/1/278
f 414/1/276 418/1/280 415/1/277
f 419/1/281 416/1/278 417/1/279
f 416/1/278 419/1/281 420/1/282
f 420/1/282 414/1/276 416/1/278
f 421/1/283 420/1/282 419/1/281
f 414/1/276 422/1/284 418/1/280
f 414/1/276 420/1/282 422/1/284
f 422/1/284 423/1/285 418/1/280
f 420/1/282 424/1/286 422/1/284
f 424/1/286 423/1/285 422/1/284
f 420/1/282 421/1/283 425/1/287
f 425/1/287 424/1/286 420/1/282
f 426/1/288 423/1/285 424/1/286
f 425/1/287 426/1/288 424/1/286
f 423/1/285 426/1/288 427/1/289
f 426/1/288 428/1/290 427/1/289
f 421/1/283 429/1/291 425/1/287
f 426/1/288 425/1/287 429/1/291
f 421/1/283 430/1/292 429/1/291
f 431/1/293 429/1/291 430/1/292
f 426/1/288 432/1/294 428/1/290
f 429/1/291 432/1/294 426/1/288
f 432/1/294 433/1/295 428/1/290
f 429/1/291 431/1/293 434/1/296
f 434/1/296 432/1/294 429/1/291
f 435/1/297 434/1/296 431/1/293
f 434/1/296 435/1/297 436/1/298
f 436/1/298 432/1/294 434/1/296
f 437/1/299 436/1/298 435/1/297
f 432/1/294 438/1/300 433/1/295
f 432/1/294 436/1/298 438/1/300
f 438/1/300 439/1/301 433/1/295
f 436/1/298 440/1/302 438/1/300
f 438/1/300 440/1/302 439/1/301
f 436/1/298 437/1/299 441/1/303
f 441/1/303 440/1/302 436/1/298
f 442/1/304 439/1/301 440/1/302
f 441/1/303 442/1/304 440/1/302
f 439/1/301 442/1/304 443/1/305
f 437/1/299 444/1/306 441/1/303
f 442/1/304 441/1/303 444/1/306
f 437/1/299 445/1/307 444/1/306
f 442/1/304 446/1/308 443/1/305
f 447/1/309 444/1/306 445/1/307
f 446/1/308 442/1/304 448/1/310
f 444/1/306 448/1/310 442/1/304
f 449/1/311 446/1/308 448/1/310
f 446/1/308 449/1/311 450/1/312
f 448/1/310 444/1/306 451/1/313
f 444/1/306 447/1/309 451/1/313
f 451/1/313 449/1/311 448/1/310
f 449/1/311 452/1/314 450/1/312
f 447/1/309 453/1/315 451/1/313
f 453/1/315 449/1/311 451/1/313
f 447/1/309 454/1/316 453/1/315
f 455/1/317 453/1/315 454/1/316
f 449/1/311 456/1/318 452/1/314
f 453/1/315 456/1/318 449/1/311
f 453/1/315 455/1/317 457/1/319
f 457/1/319 456/1/318 453/1/315
f 338/1/200 457/1/319 455/1/317
f 456/1/318 334/1/196 452/1/314
f 457/1/319 338/1/200 336/1/198
f 336/1/198 456/1/318 457/1/319
f 456/1/318 335/1/197 334/1/196
f 456/1/318 336/1/198 335/1/197
f 377/1/239 381/1/243 458/1/320
f 459/1/321 380/1/242 378/1/240
f 380/1/242 459/1/321 381/1/243
f 459/1/321 378/1/240 460/1/322
f 461/1/323 458/1/320 381/1/243
f 459/1/321 461/1/323 381/1/243
f 458/1/320 461/1/323 462/1/324
f 460/1/322 463/1/325 459/1/321
f 463/1/325 461/1/323 459/1/321
f 463/1/325 460/1/322 464/1/326
f 465/1/327 462/1/324 461/1/323
f 466/1/328 463/1/325 464/1/326
f 461/1/323 467/1/329 465/1/327
f 463/1/325 467/1/329 461/1/323
f 463/1/325 466/1/328 468/1/330
f 468/1/330 467/1/329 463/1/325
f 469/1/331 465/1/327 467/1/329
f 468/1/330 469/1/331 467/1/329
f 465/1/327 469/1/331 470/1/332
f 466/1/328 471/1/333 468/1/330
f 468/1/330 471/1/333 469/1/331
f 466/1/328 472/1/334 471/1/333
f 473/1/335 470/1/332 469/1/331
f 471/1/333 473/1/335 469/1/331
f 470/1/332 473/1/335 474/1/336
f 472/1/334 475/1/337 471/1/333
f 471/1/333 475/1/337 473/1/335
f 472/1/334 476/1/338 475/1/337
f 473/1/335 477/1/339 474/1/336
f 478/1/340 475/1/337 476/1/338
f 473/1/335 479/1/341 477/1/339
f 480/1/342 473/1/335 475/1/337
f 473/1/335 480/1/342 479/1/341
f 475/1/337 478/1/340 480/1/342
f 481/1/343 477/1/339 479/1/341
f 480/1/342 481/1/343 479/1/341
f 477/1/339 481/1/343 482/1/344
f 478/1/340 483/1/345 480/1/342
f 480/1/342 483/1/345 481/1/343
f 483/1/345 478/1/340 484/1/346
f 484/1/346 485/1/347 483/1/345
f 485/1/347 481/1/343 483/1/345
f 485/1/347 484/1/346 486/1/348
f 487/1/349 482/1/344 481/1/343
f 481/1/343 485/1/347 487/1/349
f 482/1/344 487/1/349 488/1/350
f 489/1/351 485/1/347 486/1/348
f 490/1/352 488/1/350 487/1/349
f 485/1/347 491/1/353 487/1/349
f 487/1/349 491/1/353 490/1/352
f 492/1/354 491/1/353 485/1/347
f 485/1/347 489/1/351 492/1/354
f 493/1/355 490/1/352 491/1/353
f 492/1/354 493/1/355 491/1/353
f 490/1/352 493/1/355 494/1/356
f 489/1/351 495/1/357 492/1/354
f 492/1/354 495/1/357 493/1/355
f 489/1/351 496/1/358 495/1/357
f 497/1/359 494/1/356 493/1/355
f 495/1/357 497/1/359 493/1/355
f 494/1/356 497/1/359 498/1/360
f 499/1/361 495/1/357 496/1/358
f 495/1/357 499/1/361 497/1/359
f 496/1/358 500/1/362 499/1/361
f 501/1/363 498/1/360 497/1/359
f 499/1/361 501/1/363 497/1/359
f 498/1/360 501/1/363 502/1/364
f 500/1/362 503/1/365 499/1/361
f 503/1/365 501/1/363 499/1/361
f 503/1/365 500/1/362 504/1/366
f 505/1/367 502/1/364 501/1/363
f 503/1/365 505/1/367 501/1/363
f 502/1/364 505/1/367 506/1/368
f 504/1/366 507/1/369 503/1/365
f 507/1/369 505/1/367 503/1/365
f 507/1/369 504/1/366 508/1/370
f 509/1/371 506/1/368 505/1/367
f 510/1/372 507/1/369 508/1/370
f 507/1/369 510/1/372 511/1/373
f 507/1/369 512/1/374 505/1/367
f 509/1/371 505/1/367 512/1/374
f 511/1/373 512/1/374 507/1/369
f 510/1/372 513/1/375 511/1/373
f 513/1/375 512/1/374 511/1/373
f 513/1/375 510/1/372 514/1/376
f 515/1/377 509/1/371 512/1/374
f 512/1/374 513/1/375 515/1/377
f 509/1/371 515/1/377 516/1/378
f 517/1/379 513/1/375 514/1/376
f 518/1/380 516/1/378 515/1/377
f 513/1/375 519/1/381 515/1/377
f 515/1/377 519/1/381 518/1/380
f 520/1/382 519/1/381 513/1/375
f 513/1/375 517/1/379 520/1/382
f 521/1/383 518/1/380 519/1/381
f 520/1/382 521/1/383 519/1/381
f 518/1/380 521/1/383 522/1/384
f 517/1/379 523/1/385 520/1/382
f 520/1/382 523/1/385 521/1/383
f 517/1/379 524/1/386 523/1/385
f 525/1/387 523/1/385 524/1/386
f 525/1/387 521/1/383 523/1/385
f 524/1/386 526/1/388 525/1/387
f 401/1/263 525/1/387 526/1/388
f 525/1/387 401/1/263 400/1/262
f 525/1/387 400/1/262 389/1/251
f 521/1/383 525/1/387 527/1/389
f 525/1/387 389/1/251 527/1/389
f 527/1/389 522/1/384 521/1/383
f 390/1/252 527/1/389 389/1/251
f 522/1/384 527/1/389 528/1/390
f 527/1/389 390/1/252 528/1/390
f 529/1/391 530/1/391 531/1/391
f 530/1/391 529/1/391 532/1/391
f 533/1/391 531/1/391 530/1/391
f 531/1/391 533/1/391 534/1/391
f 533/1/391 535/1/391 534/1/391
f 535/1/391 533/1/391 536/1/391
f 532/1/391 529/1/391 537/1/391
f 535/1/391 536/1/391 538/1/391
f 537/1/391 529/1/391 539/1/391
f 540/1/391 538/1/391 536/1/391
f 538/1/391 540/1/391 541/1/391
f 542/1/391 541/1/391 540/1/391
f 541/1/391 542/1/391 543/1/391
f 538/1/391 541/1/391 544/1/391
f 538/1/391 544/1/391 545/1/391
f 546/1/391 545/1/391 544/1/391
f 547/1/391 545/1/391 546/1/391
f 548/1/391 545/1/391 547/1/391
f 548/1/391 547/1/391 549/1/391
f 549/1/391 547/1/391 550/1/391
f 545/1/391 548/1/391 551/1/391
f 552/1/391 551/1/391 548/1/391
f 553/1/391 551/1/391 552/1/391
f 551/1/391 553/1/391 554/1/391
f 553/1/391 555/1/391 554/1/391
f 555/1/391 553/1/391 556/1/391
f 556/1/391 557/1/391 555/1/391
f 554/1/391 555/1/391 558/1/391
f 558/1/391 559/1/391 554/1/391
f 559/1/391 558/1/391 560/1/391
f 559/1/391 560/1/391 561/1/391
f 562/1/391 559/1/391 561/1/391
f 559/1/391 562/1/391 563/1/391
f 563/1/391 562/1/391 564/1/391
f 539/1/391 565/1/391 537/1/391
f 566/1/391 565/1/391 539/1/391
f 567/1/391 537/1/391 565/1/391
f 537/1/391 567/1/391 568/1/391
f 569/1/391 568/1/391 567/1/391
f 569/1/391 570/1/391 568/1/391
f 571/1/391 565/1/391 566/1/391
f 565/1/391 571/1/391 572/1/391
f 571/1/391 573/1/391 572/1/391
f 571/1/391 574/1/391 573/1/391
f 566/1/391 575/1/391 571/1/391
f 575/1/391 566/1/391 576/1/391
f 576/1/391 577/1/391 575/1/391
f 578/1/392 579/1/392 580/1/392
f 581/1/392 579/1/392 578/1/392
f 582/1/392 580/1/392 579/1/392
f 579/1/392 581/1/392 583/1/392
f 580/1/392 582/1/392 584/1/392
f 580/1/392 584/1/392 585/1/392
f 584/1/392 586/1/392 585/1/392
f 584/1/392 582/1/392 587/1/392
f 588/1/392 587/1/392 582/1/392
f 587/1/392 588/1/392 589/1/392
f 589/1/392 588/1/392 590/1/392
f 588/1/392 591/1/392 590/1/392
f 591/1/392 588/1/392 592/1/392
f 592/1/392 593/1/392 591/1/392
f 581/1/392 594/1/392 583/1/392
f 595/1/392 594/1/392 581/1/392
f 594/1/392 595/1/392 596/1/392
f 597/1/392 583/1/392 594/1/392
f 598/1/392 583/1/392 597/1/392
f 583/1/392 598/1/392 599/1/392
f 600/1/392 599/1/392 598/1/392
f 600/1/392 601/1/392 602/1/392
f 600/1/392 602/1/392 603/1/392
f 603/1/392 599/1/392 600/1/392
f 604/1/392 599/1/392 603/1/392
f 599/1/392 604/1/392 605/1/392
f 606/1/392 605/1/392 604/1/392
f 605/1/392 606/1/392 607/1/392
f 606/1/392 608/1/392 607/1/392
f 608/1/392 606/1/392 609/1/392
f 609/1/392 610/1/392 608/1/392
f 611/1/392 610/1/392 609/1/392
f 612/1/392 610/1/392 611/1/392
f 610/1/392 612/1/392 613/1/392
f 613/1/392 612/1/392 614/1/392
f 613/1/392 614/1/392 615/1/392
f 614/1/392 612/1/392 616/1/392
f 616/1/392 612/1/392 617/1/392
f 617/1/392 618/1/392 616/1/392
f 618/1/392 617/1/392 619/1/392
f 620/1/392 615/1/392 614/1/392
f 620/1/392 614/1/392 621/1/392
f 622/1/392 620/1/392 621/1/392
f 620/1/392 622/1/392 623/1/392
f 624/1/392 615/1/392 620/1/392
f 615/1/392 624/1/392 625/1/392
f 625/1/392 624/1/392 626/1/392
