# Blender 5.1.2
# www.blender.org
mtllib keyrambit.mtl
o keyrambit
v 0.779964 -0.141042 0.013265
v 0.785507 -0.376007 0.000000
v 0.779964 -0.141042 0.004422
v 0.779964 -0.141042 -0.004422
v 0.779964 -0.141042 -0.013265
v 0.031900 0.379553 -0.013265
v 0.107725 0.400637 -0.004422
v 0.107725 0.400637 -0.013265
v 0.031900 0.379553 -0.004422
v 0.386500 0.295821 -0.004422
v 0.386500 0.295821 -0.013265
v 0.107725 0.400637 0.004422
v 0.031900 0.379553 0.004422
v 0.107725 0.400637 0.013265
v 0.031900 0.379553 0.013265
v 0.386500 0.295821 0.013265
v 0.386500 0.295821 0.004422
v 0.420909 0.312688 0.013265
v 0.420909 0.312688 0.004422
v 0.420909 0.312688 -0.004422
v 0.420909 0.312688 -0.013265
v 0.568944 0.236295 -0.013265
v 0.568944 0.236295 -0.004422
v 0.568944 0.236295 0.004422
v 0.568944 0.236295 0.013265
v 0.694531 0.072349 0.013265
v 0.694531 0.072349 0.004422
v 0.779964 -0.141042 0.013265
v 0.779964 -0.141042 0.004422
v 0.694531 0.072349 -0.004422
v 0.779964 -0.141042 -0.004422
v 0.694531 0.072349 -0.013265
v 0.779964 -0.141042 -0.013265
v -0.637593 -0.136286 0.017735
v -0.627767 -0.069111 0.017735
v -0.637593 -0.136286 -0.017735
v -0.627767 -0.069111 -0.017735
v -0.689923 -0.177792 -0.017735
v -0.677928 -0.009082 0.017735
v -0.689923 -0.177792 0.017735
v -0.677928 -0.009082 -0.017735
v -0.747535 -0.172447 -0.017735
v -0.732846 -0.008555 -0.017735
v -0.747535 -0.172447 0.017735
v -0.732846 -0.008555 0.017735
v -0.793255 -0.115097 -0.017735
v -0.784082 -0.047664 -0.017735
v -0.793255 -0.115097 0.017735
v -0.784082 -0.047664 0.017735
v 0.694531 0.072349 0.013265
v 0.758566 -0.145428 0.025818
v 0.779964 -0.141042 0.013265
v 0.758566 -0.145428 0.025818
v 0.694531 0.072349 0.013265
v 0.675777 0.061355 0.025818
v 0.694531 0.072349 -0.013265
v 0.758566 -0.145428 -0.025818
v 0.675777 0.061355 -0.025818
v 0.779964 -0.141042 -0.013265
v 0.779964 -0.141042 -0.013265
v 0.759884 -0.254507 -0.013251
v 0.758566 -0.145428 -0.025818
v 0.785507 -0.376007 0.000000
v 0.785507 -0.376007 0.000000
v 0.779964 -0.141042 0.013265
v 0.759884 -0.254507 0.013251
v 0.758566 -0.145428 0.025818
v 0.694531 0.072349 0.013265
v 0.568944 0.236295 0.013265
v 0.554955 0.219083 0.025818
v 0.694531 0.072349 0.013265
v 0.554955 0.219083 0.025818
v 0.675777 0.061355 0.025818
v 0.694531 0.072349 -0.013265
v 0.554955 0.219083 -0.025818
v 0.568944 0.236295 -0.013265
v 0.675777 0.061355 -0.025818
v 0.568944 0.236295 -0.013265
v 0.420664 0.288383 -0.025818
v 0.420909 0.312688 -0.013265
v 0.554955 0.219083 -0.025818
v 0.568944 0.236295 0.013265
v 0.420909 0.312688 0.013265
v 0.420664 0.288383 0.025818
v 0.554955 0.219083 0.025818
v 0.386500 0.295821 -0.013265
v 0.108094 0.377380 -0.025818
v 0.107725 0.400637 -0.013265
v 0.108094 0.377380 -0.025818
v 0.386500 0.295821 -0.013265
v 0.387745 0.272247 -0.025818
v 0.386500 0.295821 0.013265
v 0.107725 0.400637 0.013265
v 0.108094 0.377380 0.025818
v 0.108094 0.377380 0.025818
v 0.387745 0.272247 0.025818
v 0.386500 0.295821 0.013265
v -0.516316 0.021513 -0.018738
v -0.568127 0.083411 -0.018738
v -0.568127 0.083411 0.018738
v -0.566222 0.100339 0.018738
v -0.516316 0.021513 0.018738
v -0.566222 0.100339 -0.018738
v -0.493694 0.022637 -0.018738
v -0.461056 0.178150 0.018738
v -0.493694 0.022637 0.018738
v -0.461056 0.178150 -0.018738
v -0.402026 0.102102 -0.018738
v -0.440844 0.176984 -0.018738
v -0.402026 0.102102 0.018738
v -0.440844 0.176984 0.018738
v -0.401065 0.121703 -0.018738
v -0.401065 0.121703 0.018738
v 0.031900 0.379553 -0.013265
v 0.107725 0.400637 -0.013265
v 0.108094 0.377380 -0.025818
v 0.031900 0.358901 -0.025818
v 0.108094 0.377380 0.025818
v 0.031900 0.379553 0.013265
v 0.031900 0.358901 0.025818
v 0.107725 0.400637 0.013265
v 0.283959 0.186325 -0.018763
v 0.441270 0.119473 0.018763
v 0.441270 0.119473 -0.018763
v 0.283959 0.186325 0.018763
v 0.116987 0.155281 0.018763
v 0.116986 0.155281 -0.018763
v 0.070693 0.173660 0.018763
v 0.070693 0.173660 -0.018763
v 0.052387 0.040265 0.000000
v -0.013285 0.106380 0.024352
v -0.013285 0.106380 -0.024352
v -0.141099 0.126329 0.024352
v -0.141099 0.126329 -0.024352
v -0.299308 0.069604 0.024352
v -0.299308 0.069604 -0.024352
v -0.429831 -0.053384 0.024352
v -0.429831 -0.053384 -0.024352
v -0.537313 -0.064297 0.024352
v -0.537313 -0.064297 -0.024352
v -0.655546 0.077575 0.024352
v -0.655546 0.077575 -0.024352
v -0.631623 0.180801 0.024352
v -0.631623 0.180801 -0.024352
v -0.458195 0.297038 0.024352
v -0.458195 0.297038 -0.024352
v 0.045198 0.389660 0.024352
v 0.045198 0.389660 -0.024352
v 0.084011 0.356747 0.024352
v 0.084011 0.356747 -0.024352
v 0.043167 0.305454 0.024352
v 0.043167 0.305454 -0.024352
v 0.086160 0.173120 0.024352
v 0.086160 0.173120 -0.024352
v 0.052387 0.040265 0.000000
v 0.094780 0.066034 -0.025818
v 0.276692 0.109494 -0.025818
v 0.274806 0.060563 0.000000
v 0.094780 0.066034 -0.025818
v 0.274806 0.060563 0.000000
v 0.091033 0.016973 0.000000
v 0.274806 0.060563 0.000000
v 0.094780 0.066034 0.025818
v 0.091033 0.016973 0.000000
v 0.276692 0.109494 0.025818
v -0.310642 0.088638 0.040956
v -0.341922 0.128315 0.040956
v -0.380216 0.096929 0.040956
v -0.384329 0.128958 0.040956
v -0.378025 0.221150 0.040956
v -0.304816 0.117430 0.040956
v -0.430150 0.193288 0.040956
v -0.439138 -0.032442 0.040956
v -0.144151 0.148331 0.040956
v -0.491679 0.004166 0.040956
v -0.145485 0.174518 0.040956
v -0.528223 -0.041486 0.040956
v -0.007891 0.157396 0.040956
v -0.521852 0.003470 0.040956
v -0.586581 0.077405 0.040956
v -0.632190 0.083268 0.040956
v -0.583153 0.110130 0.040956
v -0.612694 0.167390 0.040956
v -0.467180 0.196769 0.040956
v -0.000772 0.127440 0.040956
v -0.450205 0.276295 0.040956
v 0.063897 0.171554 0.040956
v 0.042289 0.097519 0.040956
v 0.015185 0.190030 0.040956
v 0.019040 0.309092 0.040956
v -0.027971 0.303928 0.040956
v -0.351491 0.249631 0.040956
v -0.052918 0.312636 0.040956
v 0.034160 0.364936 0.040956
v 0.052691 0.350048 0.040956
v -0.007891 0.157396 -0.040956
v 0.063897 0.171554 -0.040956
v -0.000772 0.127440 -0.040956
v 0.042289 0.097519 -0.040956
v -0.144151 0.148331 -0.040956
v 0.015185 0.190030 -0.040956
v -0.145485 0.174518 -0.040956
v 0.019040 0.309092 -0.040956
v -0.304816 0.117430 -0.040956
v -0.310642 0.088638 -0.040956
v -0.027971 0.303928 -0.040956
v -0.341922 0.128315 -0.040956
v 0.034160 0.364936 -0.040956
v 0.052691 0.350048 -0.040956
v -0.052918 0.312636 -0.040956
v -0.450205 0.276295 -0.040956
v -0.351491 0.249631 -0.040956
v -0.378025 0.221150 -0.040956
v -0.380216 0.096929 -0.040956
v -0.439138 -0.032442 -0.040956
v -0.384329 0.128958 -0.040956
v -0.491679 0.004166 -0.040956
v -0.430150 0.193288 -0.040956
v -0.467180 0.196769 -0.040956
v -0.528223 -0.041486 -0.040956
v -0.612694 0.167390 -0.040956
v -0.521852 0.003470 -0.040956
v -0.583153 0.110130 -0.040956
v -0.586581 0.077405 -0.040956
v -0.632190 0.083268 -0.040956
v -0.566222 0.100339 0.018738
v -0.586581 0.077405 0.040956
v -0.568127 0.083411 0.018738
v -0.516316 0.021513 0.018738
v -0.583153 0.110130 0.040956
v -0.521852 0.003470 0.040956
v -0.467180 0.196769 0.040956
v -0.491679 0.004166 0.040956
v -0.461056 0.178150 0.018738
v -0.493694 0.022637 0.018738
v -0.440844 0.176984 0.018738
v -0.402026 0.102102 0.018738
v -0.430150 0.193288 0.040956
v -0.380216 0.096929 0.040956
v -0.384329 0.128958 0.040956
v -0.401065 0.121703 0.018738
v -0.467180 0.196769 -0.040956
v -0.440844 0.176984 -0.018738
v -0.461056 0.178150 -0.018738
v -0.566222 0.100339 -0.018738
v -0.430150 0.193288 -0.040956
v -0.583153 0.110130 -0.040956
v -0.384329 0.128958 -0.040956
v -0.586581 0.077405 -0.040956
v -0.401065 0.121703 -0.018738
v -0.568127 0.083411 -0.018738
v -0.380216 0.096929 -0.040956
v -0.516316 0.021513 -0.018738
v -0.402026 0.102102 -0.018738
v -0.521852 0.003470 -0.040956
v -0.491679 0.004166 -0.040956
v -0.493694 0.022637 -0.018738
v -0.002699 0.191860 0.018738
v -0.016046 0.173660 0.018738
v 0.015185 0.190030 0.040956
v -0.040090 0.290451 0.018738
v -0.007891 0.157396 0.040956
v -0.027971 0.303928 0.040956
v -0.145485 0.174518 0.040956
v -0.052918 0.312636 0.040956
v -0.148465 0.192516 0.018738
v -0.054052 0.294422 0.018738
v -0.304816 0.117430 0.040956
v -0.342732 0.233694 0.018738
v -0.305337 0.135673 0.018738
v -0.351491 0.249631 0.040956
v -0.329828 0.141817 0.018738
v -0.360375 0.217690 0.018738
v -0.341922 0.128315 0.040956
v -0.378025 0.221150 0.040956
v -0.027971 0.303928 -0.040956
v 0.015185 0.190030 -0.040956
v -0.040090 0.290451 -0.018738
v -0.052918 0.312636 -0.040956
v -0.002699 0.191860 -0.018738
v -0.054052 0.294422 -0.018738
v -0.016046 0.173660 -0.018738
v -0.342732 0.233694 -0.018738
v -0.007891 0.157396 -0.040956
v -0.351491 0.249631 -0.040956
v -0.145485 0.174518 -0.040956
v -0.360375 0.217690 -0.018738
v -0.148465 0.192516 -0.018738
v -0.378025 0.221150 -0.040956
v -0.304816 0.117430 -0.040956
v -0.329828 0.141817 -0.018738
v -0.305337 0.135673 -0.018738
v -0.341922 0.128315 -0.040956
v 0.042289 0.097519 -0.040956
v 0.063897 0.171554 -0.040956
v 0.086160 0.173120 -0.024352
v 0.052387 0.040265 0.000000
v 0.043167 0.305454 -0.024352
v 0.019040 0.309092 -0.040956
v 0.052691 0.350048 -0.040956
v 0.084011 0.356747 -0.024352
v 0.045198 0.389660 -0.024352
v 0.034160 0.364936 -0.040956
v -0.458195 0.297038 -0.024352
v -0.450205 0.276295 -0.040956
v -0.612694 0.167390 -0.040956
v -0.631623 0.180801 -0.024352
v -0.632190 0.083268 -0.040956
v -0.655546 0.077575 -0.024352
v -0.528223 -0.041486 -0.040956
v -0.537313 -0.064297 -0.024352
v -0.429831 -0.053384 -0.024352
v -0.439138 -0.032442 -0.040956
v -0.299308 0.069604 -0.024352
v -0.310642 0.088638 -0.040956
v -0.144151 0.148331 -0.040956
v -0.141099 0.126329 -0.024352
v -0.013285 0.106380 -0.024352
v -0.000772 0.127440 -0.040956
v 0.042289 0.097519 -0.040956
v 0.052387 0.040265 0.000000
v -0.013285 0.106380 0.024352
v -0.144151 0.148331 0.040956
v -0.141099 0.126329 0.024352
v -0.299308 0.069604 0.024352
v -0.000772 0.127440 0.040956
v -0.310642 0.088638 0.040956
v 0.042289 0.097519 0.040956
v -0.439138 -0.032442 0.040956
v 0.052387 0.040265 0.000000
v -0.429831 -0.053384 0.024352
v 0.086160 0.173120 0.024352
v -0.528223 -0.041486 0.040956
v 0.063897 0.171554 0.040956
v -0.537313 -0.064297 0.024352
v 0.043167 0.305454 0.024352
v -0.655546 0.077575 0.024352
v 0.019040 0.309092 0.040956
v -0.632190 0.083268 0.040956
v 0.052691 0.350048 0.040956
v -0.631623 0.180801 0.024352
v 0.084011 0.356747 0.024352
v -0.612694 0.167390 0.040956
v 0.045198 0.389660 0.024352
v -0.458195 0.297038 0.024352
v 0.034160 0.364936 0.040956
v -0.450205 0.276295 0.040956
v -0.743299 0.050825 0.028462
v -0.668458 0.011095 0.028462
v -0.660270 0.055676 0.028462
v -0.606615 -0.062920 0.028462
v -0.739658 0.012699 0.028462
v -0.559528 -0.064557 0.028462
v -0.841041 -0.018122 0.028462
v -0.618541 -0.147482 0.028462
v -0.803102 -0.036416 0.028462
v -0.575897 -0.172320 0.028462
v -0.854644 -0.125406 0.028462
v -0.665241 -0.238892 0.028462
v -0.814459 -0.121103 0.028462
v -0.683737 -0.199242 0.028462
v -0.780555 -0.234143 0.028462
v -0.757947 -0.192139 0.028462
v -0.803102 -0.036416 -0.028462
v -0.854644 -0.125406 -0.028462
v -0.841041 -0.018122 -0.028462
v -0.814459 -0.121103 -0.028462
v -0.739658 0.012699 -0.028462
v -0.780555 -0.234143 -0.028462
v -0.743299 0.050825 -0.028462
v -0.757947 -0.192139 -0.028462
v -0.668458 0.011095 -0.028462
v -0.683737 -0.199242 -0.028462
v -0.660270 0.055676 -0.028462
v -0.665241 -0.238892 -0.028462
v -0.606615 -0.062920 -0.028462
v -0.618541 -0.147482 -0.028462
v -0.559528 -0.064557 -0.028462
v -0.575897 -0.172320 -0.028462
v -0.538095 -0.058394 -0.018426
v -0.557156 -0.183867 -0.018426
v -0.559528 -0.064557 -0.028462
v -0.575897 -0.172320 -0.028462
v -0.660270 0.055676 -0.028462
v -0.658973 -0.259736 -0.018426
v -0.651370 0.076798 -0.018426
v -0.665241 -0.238892 -0.028462
v -0.750165 0.071025 -0.018426
v -0.780555 -0.234143 -0.028462
v -0.743299 0.050825 -0.028462
v -0.791468 -0.254279 -0.018426
v -0.841041 -0.018122 -0.028462
v -0.875728 -0.130614 -0.018426
v -0.859985 -0.006441 -0.018426
v -0.854644 -0.125406 -0.028462
v -0.557156 -0.183867 0.018426
v -0.559528 -0.064557 0.028462
v -0.575897 -0.172320 0.028462
v -0.538095 -0.058394 0.018426
v -0.658973 -0.259736 0.018426
v -0.660270 0.055676 0.028462
v -0.665241 -0.238892 0.028462
v -0.651370 0.076798 0.018426
v -0.780555 -0.234143 0.028462
v -0.750165 0.071025 0.018426
v -0.791468 -0.254279 0.018426
v -0.743299 0.050825 0.028462
v -0.875728 -0.130614 0.018426
v -0.841041 -0.018122 0.028462
v -0.854644 -0.125406 0.028462
v -0.859985 -0.006441 0.018426
v -0.668458 0.011095 0.028462
v -0.627767 -0.069111 0.017735
v -0.606615 -0.062920 0.028462
v -0.618541 -0.147482 0.028462
v -0.677928 -0.009082 0.017735
v -0.637593 -0.136286 0.017735
v -0.739658 0.012699 0.028462
v -0.683737 -0.199242 0.028462
v -0.732846 -0.008555 0.017735
v -0.689923 -0.177792 0.017735
v -0.784082 -0.047664 0.017735
v -0.747535 -0.172447 0.017735
v -0.803102 -0.036416 0.028462
v -0.757947 -0.192139 0.028462
v -0.793255 -0.115097 0.017735
v -0.814459 -0.121103 0.028462
v -0.739658 0.012699 -0.028462
v -0.668458 0.011095 -0.028462
v -0.677928 -0.009082 -0.017735
v -0.732846 -0.008555 -0.017735
v -0.627767 -0.069111 -0.017735
v -0.784082 -0.047664 -0.017735
v -0.606615 -0.062920 -0.028462
v -0.803102 -0.036416 -0.028462
v -0.618541 -0.147482 -0.028462
v -0.793255 -0.115097 -0.017735
v -0.637593 -0.136286 -0.017735
v -0.814459 -0.121103 -0.028462
v -0.683737 -0.199242 -0.028462
v -0.757947 -0.192139 -0.028462
v -0.689923 -0.177792 -0.017735
v -0.747535 -0.172447 -0.017735
v 0.373161 0.241814 -0.025818
v 0.420664 0.288383 -0.025818
v 0.554955 0.219083 -0.025818
v 0.387745 0.272247 -0.025818
v 0.139900 0.326096 -0.025818
v 0.108094 0.377380 -0.025818
v 0.031900 0.313287 -0.025818
v 0.031900 0.343514 -0.025818
v 0.031900 0.358901 -0.025818
v 0.531123 0.058154 -0.025818
v 0.675777 0.061355 -0.025818
v 0.655490 -0.040742 -0.025818
v 0.758566 -0.145428 -0.025818
v 0.759884 -0.254507 -0.013251
v 0.517797 -0.006253 -0.025818
v 0.473814 0.045549 -0.025818
v 0.280687 0.150772 -0.025818
v 0.276692 0.109494 -0.025818
v 0.116282 0.119998 -0.025818
v 0.094780 0.066034 -0.025818
v 0.050285 0.105076 -0.025818
v 0.057794 0.130313 -0.025818
v 0.042793 0.079900 -0.025818
v 0.094780 0.066034 0.025818
v 0.050285 0.105076 0.025818
v 0.042793 0.079900 0.025818
v 0.116283 0.119998 0.025818
v 0.057794 0.130313 0.025818
v 0.276692 0.109494 0.025818
v 0.280687 0.150772 0.025818
v 0.473814 0.045549 0.025818
v 0.531123 0.058154 0.025818
v 0.517797 -0.006253 0.025818
v 0.655490 -0.040742 0.025818
v 0.759884 -0.254507 0.013251
v 0.758566 -0.145428 0.025818
v 0.675777 0.061355 0.025818
v 0.554955 0.219083 0.025818
v 0.373161 0.241814 0.025818
v 0.420664 0.288383 0.025818
v 0.387745 0.272247 0.025818
v 0.139900 0.326096 0.025818
v 0.108094 0.377380 0.025818
v 0.031900 0.313287 0.025818
v 0.031900 0.343514 0.025818
v 0.031900 0.358901 0.025818
v 0.139900 0.326096 0.025818
v 0.353632 0.212315 0.018763
v 0.373161 0.241814 0.025818
v 0.441270 0.119473 0.018763
v 0.135987 0.290920 0.018763
v 0.531123 0.058154 0.025818
v 0.031900 0.313287 0.025818
v 0.031900 0.308981 0.013265
v 0.031900 0.280396 0.018763
v 0.280687 0.150772 0.025818
v 0.283959 0.186325 0.018763
v 0.116987 0.155281 0.018763
v 0.116283 0.119998 0.025818
v 0.059363 0.135586 0.013265
v 0.057794 0.130313 0.025818
v 0.070693 0.173660 0.018763
v 0.280687 0.150772 -0.025818
v 0.116986 0.155281 -0.018763
v 0.283959 0.186325 -0.018763
v 0.441270 0.119473 -0.018763
v 0.531123 0.058154 -0.025818
v 0.373161 0.241814 -0.025818
v 0.353632 0.212315 -0.018763
v 0.139900 0.326096 -0.025818
v 0.135987 0.290920 -0.018763
v 0.031900 0.313287 -0.025818
v 0.031900 0.308981 -0.013265
v 0.031900 0.280396 -0.018763
v 0.116282 0.119998 -0.025818
v 0.059363 0.135586 -0.013265
v 0.070693 0.173660 -0.018763
v 0.057794 0.130313 -0.025818
v 0.517797 -0.006253 -0.025818
v 0.625481 -0.080842 0.000000
v 0.492444 -0.048217 0.000000
v 0.625481 -0.080842 0.000000
v 0.517797 -0.006253 -0.025818
v 0.655490 -0.040742 -0.025818
v 0.386500 0.295821 -0.013265
v 0.420664 0.288383 -0.025818
v 0.387745 0.272247 -0.025818
v 0.386500 0.295821 -0.013265
v 0.420909 0.312688 -0.013265
v 0.420664 0.288383 -0.025818
v 0.420664 0.288383 0.025818
v 0.386500 0.295821 0.013265
v 0.387745 0.272247 0.025818
v 0.386500 0.295821 0.013265
v 0.420664 0.288383 0.025818
v 0.420909 0.312688 0.013265
v 0.094780 0.066034 -0.025818
v 0.036073 0.059608 0.000000
v 0.042793 0.079900 -0.025818
v 0.091033 0.016973 0.000000
v 0.036073 0.059608 0.000000
v 0.091033 0.016973 0.000000
v 0.094780 0.066034 0.025818
v 0.042793 0.079900 0.025818
v 0.447200 0.004675 0.000000
v 0.276692 0.109494 -0.025818
v 0.473814 0.045549 -0.025818
v 0.274806 0.060563 0.000000
v 0.447200 0.004675 0.000000
v 0.276692 0.109494 0.025818
v 0.274806 0.060563 0.000000
v 0.473814 0.045549 0.025818
v 0.517797 -0.006253 0.025818
v 0.447200 0.004675 0.000000
v 0.492444 -0.048217 0.000000
v 0.625481 -0.080842 0.000000
v 0.517797 -0.006253 0.025818
v 0.655490 -0.040742 0.025818
v -0.305337 0.135673 -0.018738
v -0.148465 0.192516 0.018738
v -0.148465 0.192516 -0.018738
v -0.016046 0.173660 0.018738
v -0.305337 0.135673 0.018738
v -0.016046 0.173660 -0.018738
v -0.329828 0.141817 -0.018738
v -0.002699 0.191860 0.018738
v -0.329828 0.141817 0.018738
v -0.002699 0.191860 -0.018738
v -0.360375 0.217690 -0.018738
v -0.040090 0.290451 0.018738
v -0.360375 0.217690 0.018738
v -0.040090 0.290451 -0.018738
v -0.342732 0.233694 -0.018738
v -0.054052 0.294422 0.018738
v -0.342732 0.233694 0.018738
v -0.054052 0.294422 -0.018738
v 0.447200 0.004675 0.000000
v 0.517797 -0.006253 -0.025818
v 0.492444 -0.048217 0.000000
v 0.517797 -0.006253 -0.025818
v 0.447200 0.004675 0.000000
v 0.473814 0.045549 -0.025818
v 0.447200 0.004675 0.000000
v 0.517797 -0.006253 0.025818
v 0.473814 0.045549 0.025818
v 0.625481 -0.080842 0.000000
v 0.785507 -0.376007 0.000000
v 0.759884 -0.254507 0.013251
v 0.785507 -0.376007 0.000000
v 0.625481 -0.080842 0.000000
v 0.759884 -0.254507 -0.013251
v 0.655490 -0.040742 -0.025818
v 0.441270 0.119473 -0.018763
v 0.353632 0.212315 0.018763
v 0.353632 0.212315 -0.018763
v 0.441270 0.119473 0.018763
v 0.135987 0.290920 -0.018763
v 0.135987 0.290920 0.018763
v 0.031900 0.280396 -0.018763
v 0.031900 0.280396 0.018763
v 0.759884 -0.254507 0.013251
v 0.655490 -0.040742 0.025818
v 0.625481 -0.080842 0.000000
v -0.750165 0.071025 0.018426
v -0.651370 0.076798 -0.018426
v -0.750165 0.071025 -0.018426
v -0.859985 -0.006441 -0.018426
v -0.651370 0.076798 0.018426
v -0.859985 -0.006441 0.018426
v -0.538095 -0.058394 -0.018426
v -0.875728 -0.130614 0.018426
v -0.538095 -0.058394 0.018426
v -0.875728 -0.130614 -0.018426
v -0.557156 -0.183867 -0.018426
v -0.791468 -0.254279 0.018426
v -0.557156 -0.183867 0.018426
v -0.791468 -0.254279 -0.018426
v -0.658973 -0.259736 -0.018426
v -0.658973 -0.259736 0.018426
vn 0.9790 0.2041 0.0005
vn 0.9997 0.0234 0.0003
vn 0.9798 0.2002 0.0005
vn -0.2679 0.9634 -0.0000
vn 0.0445 0.9990 0.0003
vn 0.0447 0.9990 0.0008
vn -0.0484 0.9988 0.0003
vn 0.0446 0.9990 0.0007
vn -0.0480 0.9988 -0.0000
vn 0.0099 1.0000 0.0005
vn 0.0103 0.9999 -0.0000
vn 0.6423 0.7665 -0.0000
vn 0.6423 0.7664 -0.0000
vn 0.6420 0.7667 0.0002
vn 0.8691 0.4946 0.0003
vn 0.8692 0.4945 -0.0000
vn 0.9789 0.2043 0.0005
vn 0.9797 0.2005 0.0005
vn -0.8673 0.4978 0.0009
vn -0.9627 -0.2707 -0.0000
vn -0.8673 0.4978 -0.0000
vn -0.9626 -0.2708 -0.0000
vn -0.2863 0.9581 0.0007
vn -0.4296 -0.9030 0.0003
vn -0.2861 0.9582 -0.0000
vn -0.4297 -0.9030 -0.0000
vn 0.4764 0.8793 0.0005
vn 0.3165 -0.9486 -0.0000
vn 0.4769 0.8790 -0.0000
vn 0.3169 -0.9485 0.0004
vn 0.9642 0.2651 0.0003
vn 0.8652 -0.5014 0.0005
vn 0.9644 0.2645 -0.0000
vn 0.8653 -0.5013 -0.0000
vn 0.4350 0.2476 0.8657
vn 0.4165 0.0646 0.9068
vn 0.4147 0.0600 0.9080
vn 0.4350 0.2476 -0.8657
vn 0.4165 0.0647 -0.9068
vn 0.4148 0.0600 -0.9079
vn 0.4147 0.0600 -0.9080
vn 0.0019 -0.1452 -0.9894
vn 0.4165 0.0645 -0.9068
vn -0.0930 -0.1643 -0.9820
vn -0.0931 -0.1644 0.9820
vn 0.0019 -0.1452 0.9894
vn 0.4166 0.0644 0.9068
vn 0.4349 0.2477 0.8657
vn 0.3165 0.3775 0.8702
vn 0.3165 0.3776 0.8702
vn 0.4349 0.2477 -0.8657
vn 0.3165 0.3775 -0.8702
vn 0.3164 0.3776 -0.8703
vn 0.0049 0.4586 -0.8886
vn 0.3163 0.3776 -0.8702
vn 0.3164 0.3776 0.8702
vn 0.0049 0.4586 0.8886
vn 0.3163 0.3776 0.8702
vn -0.0211 0.4689 -0.8830
vn 0.0298 0.4860 -0.8734
vn 0.0186 0.4869 -0.8733
vn 0.0298 0.4861 -0.8734
vn -0.0211 0.4688 -0.8830
vn -0.0230 0.4688 -0.8830
vn -0.0211 0.4689 0.8830
vn 0.0186 0.4869 0.8733
vn 0.0298 0.4860 0.8734
vn 0.0298 0.4861 0.8734
vn -0.0230 0.4688 0.8830
vn -0.0213 0.4688 0.8830
vn 0.4026 0.9154 -0.0000
vn 0.9579 0.2870 -0.0000
vn 0.9579 0.2872 0.0003
vn 0.8674 -0.4976 -0.0000
vn -0.3742 0.9274 0.0004
vn 0.2865 -0.9581 -0.0000
vn -0.3736 0.9276 -0.0000
vn 0.2866 -0.9581 -0.0000
vn -0.9001 0.4356 0.0005
vn -0.4835 -0.8753 -0.0000
vn -0.9001 0.4356 0.0006
vn -0.4835 -0.8753 0.0004
vn -0.9593 -0.2826 0.0003
vn -0.9593 -0.2824 0.0003
vn -0.1276 0.4917 -0.8614
vn 0.0185 0.4869 -0.8733
vn 0.0296 0.4860 -0.8734
vn -0.1276 0.4917 -0.8613
vn 0.0296 0.4860 0.8734
vn -0.1276 0.4917 0.8614
vn -0.1276 0.4917 0.8613
vn 0.0185 0.4869 0.8733
vn 0.1088 0.9941 -0.0000
vn 0.3911 0.9203 -0.0000
vn 0.1090 0.9940 0.0004
vn 0.0969 0.9953 -0.0000
vn 0.3691 0.9294 0.0003
vn 0.3690 0.9294 -0.0000
vn -0.7095 -0.7047 -0.0000
vn -0.4274 -0.9041 0.0003
vn -0.4274 -0.9041 -0.0000
vn 0.0950 -0.9955 0.0003
vn 0.0946 -0.9955 -0.0000
vn 0.5231 -0.8523 -0.0000
vn 0.4165 -0.9091 -0.0000
vn -0.3799 -0.9250 0.0005
vn -0.3800 -0.9250 0.0006
vn -0.9731 -0.2302 0.0004
vn -0.9732 -0.2302 -0.0000
vn -0.8239 0.5668 0.0004
vn -0.8241 0.5664 -0.0000
vn -0.3767 0.9263 -0.0000
vn -0.3770 0.9262 -0.0000
vn 0.2591 0.9659 -0.0000
vn 0.2590 0.9659 -0.0000
vn 0.9954 0.0958 -0.0000
vn 0.9954 0.0960 -0.0000
vn 0.9842 -0.1770 -0.0000
vn 0.9842 -0.1771 -0.0000
vn 0.9987 0.0512 -0.0000
vn 0.9691 -0.2465 0.0007
vn -0.0819 -0.5161 -0.8526
vn -0.0185 -0.4669 -0.8841
vn -0.0185 -0.4668 -0.8842
vn -0.0820 -0.5161 -0.8526
vn -0.0689 -0.5133 -0.8554
vn -0.0185 -0.4668 0.8842
vn -0.0820 -0.5161 0.8526
vn -0.0689 -0.5133 0.8554
vn -0.0185 -0.4669 0.8841
vn -0.0000 -0.0000 1.0000
vn -0.0000 -0.0000 -1.0000
vn 0.6506 -0.3704 0.6630
vn 0.7269 0.2275 0.6480
vn 0.7270 0.2266 0.6482
vn 0.3180 0.6820 0.6586
vn 0.6515 -0.3685 0.6631
vn 0.2914 0.6927 0.6598
vn 0.2133 -0.7263 0.6534
vn -0.2547 0.7243 0.6407
vn 0.2039 -0.7296 0.6528
vn -0.3035 0.7082 0.6375
vn -0.3610 -0.6573 0.6616
vn -0.6681 0.3264 0.6687
vn -0.3789 -0.6465 0.6621
vn -0.6880 0.2718 0.6729
vn -0.7082 -0.2570 0.6576
vn -0.7110 -0.2467 0.6585
vn 0.2133 -0.7263 -0.6534
vn -0.3610 -0.6573 -0.6615
vn 0.2039 -0.7296 -0.6528
vn 0.6506 -0.3704 -0.6630
vn -0.3789 -0.6465 -0.6621
vn 0.6515 -0.3685 -0.6631
vn -0.7082 -0.2570 -0.6576
vn 0.7269 0.2275 -0.6480
vn -0.7110 -0.2467 -0.6585
vn 0.7270 0.2266 -0.6482
vn -0.6880 0.2718 -0.6729
vn 0.3180 0.6820 -0.6586
vn -0.6681 0.3264 -0.6687
vn 0.2914 0.6927 -0.6598
vn -0.2547 0.7243 -0.6407
vn -0.3035 0.7082 -0.6375
vn -0.7680 0.1049 0.6318
vn -0.2977 0.7042 0.6445
vn -0.7691 0.0957 0.6319
vn -0.5349 -0.5539 0.6380
vn -0.3168 0.6958 0.6446
vn -0.5320 -0.5568 0.6380
vn -0.0779 0.7830 0.6172
vn -0.0422 -0.7771 0.6279
vn -0.0866 0.7820 0.6173
vn -0.0403 -0.7772 0.6280
vn -0.0279 0.7754 0.6309
vn 0.3749 -0.6884 0.6210
vn -0.0298 0.7748 0.6315
vn 0.3776 -0.6871 0.6207
vn 0.5196 0.5740 0.6329
vn 0.7435 -0.1542 0.6507
vn 0.5216 0.5721 0.6330
vn 0.7445 -0.1495 0.6506
vn -0.5320 -0.5568 -0.6380
vn -0.7691 0.0958 -0.6319
vn -0.5349 -0.5539 -0.6380
vn -0.0422 -0.7771 -0.6279
vn -0.7680 0.1049 -0.6318
vn -0.0403 -0.7772 -0.6280
vn -0.2977 0.7042 -0.6445
vn 0.3749 -0.6884 -0.6210
vn -0.3168 0.6958 -0.6446
vn 0.3776 -0.6871 -0.6207
vn -0.0779 0.7830 -0.6172
vn 0.7435 -0.1542 -0.6507
vn -0.0866 0.7820 -0.6173
vn 0.7445 -0.1495 -0.6506
vn -0.0279 0.7754 -0.6309
vn 0.5196 0.5740 -0.6329
vn -0.0298 0.7748 -0.6315
vn 0.5216 0.5721 -0.6330
vn 0.7074 -0.2664 -0.6547
vn 0.6633 -0.0443 -0.7470
vn 0.6634 -0.0443 -0.7470
vn 0.7075 -0.2664 -0.6546
vn 0.5573 -0.1109 -0.8229
vn 0.5588 -0.0990 -0.8234
vn 0.4620 -0.0017 -0.8869
vn 0.4515 0.0565 -0.8905
vn 0.1502 0.5101 -0.8469
vn 0.1064 0.5269 -0.8433
vn -0.2243 0.5529 -0.8025
vn -0.2254 0.5522 -0.8027
vn -0.4798 0.3295 -0.8131
vn -0.4797 0.3298 -0.8131
vn -0.5533 -0.1308 -0.8226
vn -0.5531 -0.1309 -0.8228
vn -0.2129 -0.5182 -0.8284
vn -0.2128 -0.5182 -0.8284
vn 0.2443 -0.5334 -0.8098
vn 0.3137 -0.5112 -0.8002
vn 0.3134 -0.5110 -0.8004
vn 0.0620 -0.5900 -0.8050
vn 0.0554 -0.5903 -0.8053
vn -0.2060 -0.5788 -0.7890
vn -0.2164 -0.5773 -0.7873
vn -0.3186 -0.5550 -0.7684
vn -0.2060 -0.5788 0.7890
vn 0.0620 -0.5900 0.8050
vn 0.0554 -0.5903 0.8053
vn 0.3137 -0.5111 0.8003
vn -0.2164 -0.5773 0.7873
vn 0.3134 -0.5110 0.8004
vn 0.2547 -0.4795 0.8398
vn 0.2444 -0.5334 0.8098
vn 0.2006 -0.4943 0.8458
vn 0.6635 -0.0443 0.7469
vn -0.2128 -0.5182 0.8284
vn 0.6633 -0.0443 0.7470
vn 0.5573 -0.1109 0.8229
vn -0.5530 -0.1310 0.8228
vn 0.5588 -0.0990 0.8234
vn -0.5534 -0.1311 0.8225
vn 0.4620 -0.0017 0.8869
vn -0.4797 0.3298 0.8131
vn 0.4515 0.0565 0.8905
vn -0.4798 0.3296 0.8131
vn 0.1502 0.5102 0.8469
vn -0.2243 0.5528 0.8026
vn 0.1064 0.5269 0.8433
vn -0.2254 0.5521 0.8027
vn 0.3953 0.1102 -0.9119
vn 0.3559 -0.2127 -0.9100
vn 0.3954 0.1098 -0.9119
vn 0.3561 -0.2128 -0.9099
vn 0.1596 0.3683 -0.9159
vn 0.1240 -0.4000 -0.9081
vn 0.1597 0.3680 -0.9160
vn 0.1238 -0.4002 -0.9080
vn -0.1408 0.4017 -0.9049
vn -0.1958 -0.3504 -0.9159
vn -0.1412 0.4016 -0.9049
vn -0.3528 0.2110 -0.9116
vn -0.4079 -0.0978 -0.9078
vn -0.3529 0.2106 -0.9116
vn -0.4079 -0.0978 -0.9077
vn 0.3559 -0.2123 0.9101
vn 0.3954 0.1098 0.9119
vn 0.3561 -0.2123 0.9100
vn 0.3953 0.1102 0.9119
vn 0.1239 -0.4000 0.9081
vn 0.1597 0.3681 0.9160
vn 0.1237 -0.4004 0.9080
vn 0.1598 0.3679 0.9160
vn -0.1959 -0.3503 0.9159
vn -0.1408 0.4017 0.9049
vn -0.1955 -0.3507 0.9158
vn -0.1412 0.4016 0.9049
vn -0.4082 -0.0980 0.9076
vn -0.3530 0.2107 0.9116
vn -0.4080 -0.0977 0.9078
vn -0.3529 0.2108 0.9116
vn -0.1877 -0.3869 0.9028
vn -0.4199 -0.1190 0.8997
vn -0.4199 -0.1189 0.8998
vn -0.3803 0.2174 0.8989
vn -0.1868 -0.3878 0.9026
vn -0.3804 0.2175 0.8989
vn 0.1379 -0.4163 0.8987
vn -0.1239 0.4162 0.9008
vn 0.1379 -0.4164 0.8987
vn 0.3778 -0.2175 0.9000
vn 0.2071 0.3809 0.9011
vn 0.3776 -0.2164 0.9003
vn 0.2072 0.3810 0.9011
vn 0.4207 0.1155 0.8998
vn 0.1379 -0.4164 -0.8987
vn -0.1877 -0.3869 -0.9028
vn -0.1868 -0.3878 -0.9026
vn -0.4199 -0.1190 -0.8997
vn 0.3778 -0.2175 -0.9000
vn -0.4199 -0.1189 -0.8998
vn 0.3776 -0.2163 -0.9003
vn -0.3803 0.2174 -0.8989
vn 0.4207 0.1155 -0.8998
vn -0.3804 0.2175 -0.8989
vn -0.1239 0.4161 -0.9008
vn 0.2073 0.3809 -0.9011
vn -0.1239 0.4162 -0.9008
vn 0.2071 0.3809 -0.9011
vn -0.0073 -0.0071 -0.9999
vn -0.0073 -0.0070 -0.9999
vn -0.0074 -0.0071 -0.9999
vn -0.0073 -0.0071 0.9999
vn -0.0073 -0.0070 0.9999
vn -0.0074 -0.0071 0.9999
vn -0.0492 -0.1971 0.9791
vn -0.1186 -0.1697 0.9783
vn -0.1186 -0.1698 0.9783
vn -0.0427 0.0350 0.9985
vn -0.0493 -0.1967 0.9792
vn -0.0473 0.0279 0.9985
vn -0.0301 -0.2039 0.9785
vn -0.0302 -0.2040 0.9785
vn 0.0237 0.2077 0.9779
vn 0.0237 0.2079 0.9779
vn -0.0539 0.1996 0.9784
vn -0.0530 0.1997 0.9784
vn -0.0694 0.2016 0.9770
vn -0.0693 0.2015 0.9770
vn -0.0694 0.2015 0.9770
vn 0.0237 0.2077 -0.9779
vn -0.0539 0.1996 -0.9784
vn 0.0237 0.2079 -0.9779
vn -0.0427 0.0350 -0.9985
vn -0.0473 0.0279 -0.9985
vn -0.1186 -0.1698 -0.9783
vn -0.0493 -0.1967 -0.9792
vn -0.0304 -0.2038 -0.9786
vn -0.0302 -0.2040 -0.9785
vn -0.0302 -0.2039 -0.9785
vn -0.0530 0.1997 -0.9784
vn -0.0694 0.2016 -0.9770
vn -0.0695 0.2014 -0.9770
vn -0.0693 0.2015 -0.9770
vn -0.2457 -0.3971 -0.8843
vn -0.2436 -0.3454 -0.9063
vn -0.2391 -0.3501 -0.9057
vn -0.0214 0.4688 -0.8830
vn 0.0044 0.4586 -0.8886
vn -0.0235 0.4688 -0.8830
vn 0.0044 0.4586 0.8886
vn -0.0214 0.4688 0.8830
vn -0.0235 0.4688 0.8830
vn -0.0822 -0.5161 -0.8526
vn -0.2876 -0.5434 -0.7887
vn -0.2876 -0.5435 -0.7886
vn -0.0691 -0.5133 -0.8554
vn -0.2876 -0.5434 0.7887
vn -0.0691 -0.5133 0.8554
vn -0.0822 -0.5161 0.8526
vn -0.2876 -0.5435 0.7886
vn -0.2604 -0.3887 -0.8838
vn -0.0189 -0.4669 -0.8841
vn -0.0186 -0.4668 -0.8842
vn -0.2603 -0.3887 0.8838
vn -0.0188 -0.4668 0.8842
vn -0.0186 -0.4669 0.8841
vn -0.2604 -0.3887 0.8838
vn -0.2457 -0.3970 0.8843
vn -0.2605 -0.3886 0.8838
vn -0.2436 -0.3454 0.9063
vn -0.2457 -0.3971 0.8843
vn -0.2391 -0.3501 0.9057
vn -0.0508 0.9987 0.0003
vn -0.1029 0.9947 -0.0000
vn -0.3905 0.9206 -0.0000
vn -0.0507 0.9987 0.0006
vn -0.3902 0.9207 0.0004
vn 0.6594 0.7518 -0.0000
vn -0.9910 0.1339 0.0005
vn -0.9910 0.1339 -0.0000
vn 0.9751 -0.2216 -0.0000
vn -0.6786 -0.7345 0.0003
vn -0.6787 -0.7344 0.0004
vn 0.4555 -0.8903 -0.0000
vn -0.0349 -0.9994 -0.0000
vn 0.4555 -0.8902 0.0003
vn -0.0348 -0.9994 0.0003
vn -0.2605 -0.3886 -0.8838
vn -0.2457 -0.3970 -0.8843
vn -0.2458 -0.3970 -0.8843
vn -0.2458 -0.3971 -0.8843
vn -0.2604 -0.3886 -0.8838
vn -0.2606 -0.3886 -0.8838
vn -0.2606 -0.3886 0.8838
vn -0.2459 -0.3970 0.8843
vn -0.2437 -0.3452 0.9063
vn -0.0933 -0.1644 0.9820
vn 0.0017 -0.1453 0.9894
vn -0.0933 -0.1644 -0.9820
vn -0.2438 -0.3453 -0.9063
vn 0.0016 -0.1452 -0.9894
vn -0.2393 -0.3500 -0.9057
vn -0.7272 -0.6864 -0.0000
vn -0.5489 -0.8359 -0.0000
vn -0.5492 -0.8357 0.0003
vn -0.1226 -0.9925 -0.0000
vn 0.1002 -0.9950 0.0005
vn 0.1002 -0.9950 0.0004
vn 0.0018 -0.1453 0.9894
vn -0.2393 -0.3500 0.9057
vn -0.2438 -0.3453 0.9063
vn -0.3309 0.9437 0.0005
vn 0.3986 0.9171 0.0004
vn -0.3305 0.9438 -0.0000
vn -0.8583 0.5132 0.0003
vn 0.3984 0.9172 -0.0000
vn -0.8583 0.5131 0.0004
vn 0.9633 0.2686 -0.0000
vn -0.9724 -0.2332 0.0002
vn 0.9632 0.2686 -0.0000
vn -0.9724 -0.2332 -0.0000
vn 0.8584 -0.5130 0.0006
vn -0.4875 -0.8731 0.0004
vn 0.8584 -0.5130 -0.0000
vn -0.4874 -0.8732 0.0002
vn 0.2959 -0.9552 -0.0000
vn 0.2961 -0.9551 0.0006
vt 0.000000 0.756895
vt 1.000000 0.243105
vt 0.000000 0.585632
vt 0.000000 0.414368
vt 0.000000 0.243105
vt 1.000000 0.414368
vt 1.000000 0.585632
vt 1.000000 0.756895
vt 0.000000 0.000000
vt 0.233000 1.000000
vt 0.107549 1.000000
vt 0.233000 0.000000
vt 0.107549 0.000000
vt 0.758174 0.000000
vt 0.758174 1.000000
vt 0.128572 1.000000
vt 0.128572 0.000000
vt 0.916885 0.000000
vt 0.916884 1.000000
vt 0.994835 0.000000
vt 0.930914 0.000000
vt 0.994835 1.000000
vt 0.930914 1.000000
vt 0.995173 0.000000
vt 0.995173 1.000000
vt 0.989126 0.000000
vt 0.959929 0.000000
vt 0.989126 1.000000
vt 0.959929 1.000000
vt 0.873934 0.000000
vt 0.975099 0.000000
vt 0.993430 0.000000
vt 0.991852 0.000000
vt 0.666746 0.000000
vt 0.679266 0.000000
vt 0.916956 0.000000
vt 0.885747 0.000000
vt 0.911297 0.000000
vt 0.970562 0.000000
vt 0.988455 0.000000
vt 0.987536 0.000000
vt 0.991514 0.000000
vt 0.988455 1.000000
vt 0.991514 1.000000
vt 0.970562 1.000000
vt 0.987536 1.000000
vt 0.911297 1.000000
vt 0.885747 1.000000
vt 0.666746 1.000000
vt 0.916956 1.000000
vt 0.679266 1.000000
vt 0.873933 1.000000
vt 0.975099 1.000000
vt 0.993430 1.000000
vt 0.991852 1.000000
s 1
f 1/1/1 2/2/2 3/3/3
f 2/2/2 4/4/3 3/3/3
f 2/2/2 5/5/1 4/4/3
f 6/2/4 7/6/5 8/2/6
f 7/6/5 6/2/4 9/6/4
f 10/6/7 8/2/6 7/6/5
f 8/2/6 10/6/7 11/2/7
f 9/6/4 12/7/5 7/6/5
f 12/7/5 9/6/4 13/7/4
f 13/7/4 14/8/8 12/7/5
f 14/8/8 13/7/4 15/8/4
f 16/8/7 12/7/5 14/8/8
f 17/7/9 7/6/5 12/7/5
f 12/7/5 16/8/7 17/7/9
f 7/6/5 17/7/9 10/6/7
f 18/8/10 17/7/9 16/8/7
f 19/7/11 10/6/7 17/7/9
f 17/7/9 18/8/10 19/7/11
f 20/6/11 11/2/7 10/6/7
f 10/6/7 19/7/11 20/6/11
f 11/2/7 20/6/11 21/2/11
f 20/6/11 22/5/12 21/2/11
f 19/7/11 23/4/12 20/6/11
f 22/5/12 20/6/11 23/4/12
f 18/8/10 24/3/13 19/7/11
f 23/4/12 19/7/11 24/3/13
f 24/3/13 18/8/10 25/1/14
f 25/1/14 26/1/15 24/3/13
f 27/3/16 24/3/13 26/1/15
f 24/3/13 27/3/16 23/4/12
f 26/1/15 28/1/17 27/3/16
f 29/3/18 27/3/16 28/1/17
f 30/4/16 23/4/12 27/3/16
f 27/3/16 29/3/18 30/4/16
f 23/4/12 30/4/16 22/5/12
f 31/4/18 30/4/16 29/3/18
f 32/5/16 22/5/12 30/4/16
f 30/4/16 31/4/18 32/5/16
f 33/5/17 32/5/16 31/4/18
f 34/9/19 35/9/20 36/9/21
f 37/9/22 36/9/21 35/9/20
f 36/9/21 38/9/23 34/9/19
f 37/9/22 35/9/20 39/9/24
f 38/9/23 40/9/25 34/9/19
f 41/9/26 37/9/22 39/9/24
f 38/9/23 42/9/27 40/9/25
f 43/9/28 41/9/26 39/9/24
f 42/9/27 44/9/29 40/9/25
f 43/9/28 39/9/24 45/9/30
f 42/9/27 46/9/31 44/9/29
f 47/9/32 43/9/28 45/9/30
f 46/9/31 48/9/33 44/9/29
f 46/9/31 47/9/32 48/9/33
f 49/9/34 48/9/33 47/9/32
f 47/9/32 45/9/30 49/9/34
f 50/1/35 51/10/36 52/1/37
f 53/10/36 54/1/35 55/11/35
f 56/5/38 57/12/39 58/13/38
f 57/12/39 56/5/38 59/5/40
f 60/5/41 61/14/42 62/12/43
f 60/5/41 63/2/44 61/14/42
f 64/8/45 65/1/37 66/15/46
f 66/15/46 65/1/37 67/10/47
f 68/1/48 69/1/49 70/16/49
f 71/1/48 72/16/50 73/11/48
f 74/5/51 75/17/52 76/5/52
f 75/17/52 74/5/51 77/13/51
f 78/5/53 79/18/54 80/2/54
f 79/18/54 78/5/53 81/17/55
f 82/1/56 83/8/57 84/19/57
f 84/19/57 85/16/58 82/1/56
f 86/2/59 87/20/60 88/2/61
f 89/20/62 90/2/63 91/21/64
f 92/8/65 93/8/66 94/22/67
f 95/22/68 96/23/69 97/8/70
f 98/9/71 99/9/72 100/9/73
f 99/9/72 101/9/74 100/9/73
f 98/9/71 100/9/73 102/9/71
f 101/9/74 99/9/72 103/9/74
f 102/9/71 104/9/75 98/9/71
f 103/9/74 105/9/76 101/9/74
f 104/9/75 102/9/71 106/9/77
f 103/9/74 107/9/78 105/9/76
f 108/9/79 104/9/75 106/9/77
f 109/9/80 105/9/76 107/9/78
f 108/9/79 106/9/77 110/9/81
f 105/9/76 109/9/80 111/9/82
f 108/9/79 110/9/81 112/9/83
f 109/9/80 113/9/84 111/9/82
f 112/9/83 110/9/81 113/9/84
f 112/9/83 113/9/84 109/9/80
f 114/2/85 115/2/86 116/20/87
f 114/2/85 116/20/87 117/24/88
f 118/22/89 119/8/90 120/25/91
f 119/8/90 118/22/89 121/8/92
f 122/9/93 123/9/94 124/9/94
f 123/9/94 122/9/93 125/9/95
f 122/9/93 126/9/96 125/9/95
f 126/9/96 122/9/93 127/9/96
f 127/9/96 128/9/97 126/9/96
f 128/9/97 127/9/96 129/9/98
f 130/9/99 131/9/100 132/9/101
f 131/9/100 133/9/102 132/9/101
f 134/9/103 132/9/101 133/9/102
f 133/9/102 135/9/104 134/9/103
f 136/9/104 134/9/103 135/9/104
f 135/9/104 137/9/105 136/9/104
f 138/9/105 136/9/104 137/9/105
f 137/9/105 139/9/106 138/9/105
f 140/9/107 138/9/105 139/9/106
f 139/9/106 141/9/108 140/9/107
f 142/9/109 140/9/107 141/9/108
f 141/9/108 143/9/110 142/9/109
f 144/9/111 142/9/109 143/9/110
f 143/9/110 145/9/112 144/9/111
f 146/9/113 144/9/111 145/9/112
f 145/9/112 147/9/114 146/9/113
f 148/9/115 146/9/113 147/9/114
f 148/9/115 147/9/114 149/9/116
f 150/9/117 148/9/115 149/9/116
f 150/9/117 149/9/116 151/9/118
f 152/9/119 150/9/117 151/9/118
f 151/9/118 153/9/120 152/9/119
f 154/9/120 152/9/119 153/9/120
f 155/9/121 154/9/120 153/9/120
f 156/26/122 157/27/123 158/2/124
f 159/26/125 160/2/123 161/2/126
f 162/8/127 163/28/128 164/8/129
f 163/28/128 162/8/127 165/29/130
f 166/9/131 167/9/131 168/9/131
f 168/9/131 167/9/131 169/9/131
f 167/9/131 170/9/131 169/9/131
f 167/9/131 166/9/131 171/9/131
f 169/9/131 170/9/131 172/9/131
f 168/9/131 173/9/131 166/9/131
f 174/9/131 171/9/131 166/9/131
f 173/9/131 168/9/131 175/9/131
f 171/9/131 174/9/131 176/9/131
f 173/9/131 175/9/131 177/9/131
f 174/9/131 178/9/131 176/9/131
f 177/9/131 175/9/131 179/9/131
f 180/9/131 177/9/131 179/9/131
f 177/9/131 180/9/131 181/9/131
f 182/9/131 181/9/131 180/9/131
f 181/9/131 182/9/131 183/9/131
f 184/9/131 183/9/131 182/9/131
f 178/9/131 174/9/131 185/9/131
f 183/9/131 184/9/131 186/9/131
f 185/9/131 187/9/131 178/9/131
f 187/9/131 185/9/131 188/9/131
f 178/9/131 187/9/131 189/9/131
f 190/9/131 189/9/131 187/9/131
f 172/9/131 186/9/131 184/9/131
f 189/9/131 190/9/131 191/9/131
f 186/9/131 172/9/131 170/9/131
f 186/9/131 170/9/131 192/9/131
f 193/9/131 186/9/131 192/9/131
f 194/9/131 186/9/131 193/9/131
f 191/9/131 194/9/131 193/9/131
f 190/9/131 194/9/131 191/9/131
f 194/9/131 190/9/131 195/9/131
f 196/9/132 197/9/132 198/9/132
f 198/9/132 197/9/132 199/9/132
f 200/9/132 196/9/132 198/9/132
f 197/9/132 196/9/132 201/9/132
f 196/9/132 200/9/132 202/9/132
f 203/9/132 197/9/132 201/9/132
f 200/9/132 204/9/132 202/9/132
f 204/9/132 200/9/132 205/9/132
f 201/9/132 206/9/132 203/9/132
f 205/9/132 207/9/132 204/9/132
f 208/9/132 203/9/132 206/9/132
f 203/9/132 208/9/132 209/9/132
f 210/9/132 208/9/132 206/9/132
f 211/9/132 208/9/132 210/9/132
f 211/9/132 210/9/132 212/9/132
f 211/9/132 212/9/132 213/9/132
f 214/9/132 207/9/132 205/9/132
f 215/9/132 214/9/132 205/9/132
f 207/9/132 214/9/132 216/9/132
f 216/9/132 213/9/132 207/9/132
f 214/9/132 215/9/132 217/9/132
f 213/9/132 216/9/132 218/9/132
f 218/9/132 211/9/132 213/9/132
f 218/9/132 219/9/132 211/9/132
f 220/9/132 217/9/132 215/9/132
f 221/9/132 211/9/132 219/9/132
f 217/9/132 220/9/132 222/9/132
f 219/9/132 223/9/132 221/9/132
f 220/9/132 224/9/132 222/9/132
f 223/9/132 225/9/132 221/9/132
f 224/9/132 220/9/132 225/9/132
f 225/9/132 223/9/132 224/9/132
f 226/9/133 227/9/134 228/9/135
f 229/9/136 228/9/135 227/9/134
f 227/9/134 226/9/133 230/9/137
f 227/9/134 231/9/138 229/9/136
f 226/9/133 232/9/139 230/9/137
f 233/9/140 229/9/136 231/9/138
f 226/9/133 234/9/141 232/9/139
f 229/9/136 233/9/140 235/9/142
f 236/9/143 232/9/139 234/9/141
f 237/9/144 235/9/142 233/9/140
f 232/9/139 236/9/143 238/9/145
f 233/9/140 239/9/146 237/9/144
f 236/9/143 240/9/147 238/9/145
f 237/9/144 239/9/146 241/9/148
f 236/9/143 241/9/148 240/9/147
f 241/9/148 239/9/146 240/9/147
f 242/9/149 243/9/150 244/9/151
f 245/9/152 242/9/149 244/9/151
f 243/9/150 242/9/149 246/9/153
f 242/9/149 245/9/152 247/9/154
f 248/9/155 243/9/150 246/9/153
f 245/9/152 249/9/156 247/9/154
f 243/9/150 248/9/155 250/9/157
f 249/9/156 245/9/152 251/9/158
f 252/9/159 250/9/157 248/9/155
f 253/9/160 249/9/156 251/9/158
f 250/9/157 252/9/159 254/9/161
f 249/9/156 253/9/160 255/9/162
f 256/9/163 254/9/161 252/9/159
f 253/9/160 256/9/163 255/9/162
f 254/9/161 256/9/163 257/9/164
f 256/9/163 253/9/160 257/9/164
f 258/9/165 259/9/166 260/9/167
f 260/9/167 261/9/168 258/9/165
f 259/9/166 262/9/169 260/9/167
f 261/9/168 260/9/167 263/9/170
f 259/9/166 264/9/171 262/9/169
f 265/9/172 261/9/168 263/9/170
f 264/9/171 259/9/166 266/9/173
f 261/9/168 265/9/172 267/9/174
f 266/9/173 268/9/175 264/9/171
f 265/9/172 269/9/176 267/9/174
f 268/9/175 266/9/173 270/9/177
f 269/9/176 265/9/172 271/9/178
f 272/9/179 268/9/175 270/9/177
f 271/9/178 273/9/180 269/9/176
f 268/9/175 272/9/179 274/9/181
f 273/9/180 271/9/178 275/9/182
f 272/9/179 275/9/182 274/9/181
f 275/9/182 272/9/179 273/9/180
f 276/9/183 277/9/184 278/9/185
f 278/9/185 279/9/186 276/9/183
f 278/9/185 277/9/184 280/9/187
f 279/9/186 278/9/185 281/9/188
f 277/9/184 282/9/189 280/9/187
f 281/9/188 283/9/190 279/9/186
f 282/9/189 277/9/184 284/9/191
f 285/9/192 279/9/186 283/9/190
f 284/9/191 286/9/193 282/9/189
f 287/9/194 285/9/192 283/9/190
f 288/9/195 282/9/189 286/9/193
f 289/9/196 285/9/192 287/9/194
f 290/9/197 288/9/195 286/9/193
f 291/9/198 289/9/196 287/9/194
f 288/9/195 290/9/197 292/9/199
f 290/9/197 291/9/198 292/9/199
f 293/9/200 289/9/196 291/9/198
f 291/9/198 290/9/197 293/9/200
f 294/9/201 295/9/202 296/9/203
f 294/9/201 296/9/203 297/9/204
f 295/9/202 298/9/205 296/9/203
f 298/9/205 295/9/202 299/9/206
f 300/9/207 298/9/205 299/9/206
f 298/9/205 300/9/207 301/9/208
f 300/9/207 302/9/209 301/9/208
f 300/9/207 303/9/210 302/9/209
f 304/9/211 302/9/209 303/9/210
f 304/9/211 303/9/210 305/9/212
f 306/9/213 304/9/211 305/9/212
f 304/9/211 306/9/213 307/9/214
f 308/9/215 307/9/214 306/9/213
f 307/9/214 308/9/215 309/9/216
f 310/9/217 309/9/216 308/9/215
f 309/9/216 310/9/217 311/9/218
f 310/9/217 312/9/219 311/9/218
f 310/9/217 313/9/219 312/9/219
f 314/9/220 312/9/219 313/9/219
f 313/9/219 315/9/221 314/9/220
f 316/9/222 314/9/220 315/9/221
f 314/9/220 316/9/222 317/9/223
f 316/9/222 318/9/224 317/9/223
f 318/9/224 316/9/222 319/9/225
f 320/9/226 318/9/224 319/9/225
f 318/9/224 320/9/226 321/9/226
f 322/9/227 323/9/228 324/9/229
f 325/9/230 324/9/229 323/9/228
f 323/9/228 322/9/227 326/9/231
f 323/9/228 327/9/232 325/9/230
f 322/9/227 328/9/233 326/9/231
f 329/9/234 325/9/230 327/9/232
f 322/9/227 330/9/235 328/9/233
f 325/9/230 329/9/234 331/9/234
f 332/9/236 328/9/233 330/9/235
f 333/9/237 331/9/234 329/9/234
f 328/9/233 332/9/236 334/9/238
f 331/9/234 333/9/237 335/9/237
f 336/9/239 334/9/238 332/9/236
f 333/9/237 337/9/240 335/9/237
f 334/9/238 336/9/239 338/9/241
f 337/9/240 333/9/237 339/9/242
f 340/9/243 338/9/241 336/9/239
f 341/9/244 337/9/240 339/9/242
f 340/9/243 336/9/239 342/9/245
f 341/9/244 339/9/242 343/9/246
f 344/9/247 340/9/243 342/9/245
f 345/9/248 341/9/244 343/9/246
f 340/9/243 344/9/247 346/9/249
f 345/9/248 346/9/249 344/9/247
f 346/9/249 345/9/248 347/9/250
f 345/9/248 343/9/246 347/9/250
f 348/9/131 349/9/131 350/9/131
f 351/9/131 350/9/131 349/9/131
f 349/9/131 348/9/131 352/9/131
f 350/9/131 351/9/131 353/9/131
f 354/9/131 352/9/131 348/9/131
f 355/9/131 353/9/131 351/9/131
f 352/9/131 354/9/131 356/9/131
f 353/9/131 355/9/131 357/9/131
f 358/9/131 356/9/131 354/9/131
f 359/9/131 357/9/131 355/9/131
f 360/9/131 356/9/131 358/9/131
f 359/9/131 355/9/131 361/9/131
f 362/9/131 360/9/131 358/9/131
f 362/9/131 359/9/131 361/9/131
f 360/9/131 362/9/131 363/9/131
f 362/9/131 361/9/131 363/9/131
f 364/9/132 365/9/132 366/9/132
f 365/9/132 364/9/132 367/9/132
f 366/9/132 368/9/132 364/9/132
f 367/9/132 369/9/132 365/9/132
f 368/9/132 366/9/132 370/9/132
f 369/9/132 367/9/132 371/9/132
f 370/9/132 372/9/132 368/9/132
f 373/9/132 369/9/132 371/9/132
f 372/9/132 370/9/132 374/9/132
f 369/9/132 373/9/132 375/9/132
f 374/9/132 376/9/132 372/9/132
f 377/9/132 375/9/132 373/9/132
f 376/9/132 374/9/132 378/9/132
f 378/9/132 377/9/132 376/9/132
f 375/9/132 377/9/132 379/9/132
f 378/9/132 379/9/132 377/9/132
f 380/9/251 381/9/252 382/9/253
f 382/9/253 381/9/252 383/9/254
f 384/9/255 380/9/251 382/9/253
f 385/9/256 383/9/254 381/9/252
f 380/9/251 384/9/255 386/9/257
f 387/9/258 383/9/254 385/9/256
f 384/9/255 388/9/259 386/9/257
f 385/9/256 389/9/260 387/9/258
f 388/9/259 384/9/255 390/9/261
f 389/9/260 385/9/256 391/9/260
f 392/9/262 388/9/259 390/9/261
f 393/9/263 389/9/260 391/9/260
f 394/9/264 388/9/259 392/9/262
f 392/9/262 393/9/263 394/9/264
f 389/9/260 393/9/263 395/9/265
f 393/9/263 392/9/262 395/9/265
f 396/9/266 397/9/267 398/9/268
f 397/9/267 396/9/266 399/9/269
f 398/9/268 400/9/270 396/9/266
f 399/9/269 401/9/271 397/9/267
f 400/9/270 398/9/268 402/9/272
f 401/9/271 399/9/269 403/9/273
f 404/9/274 400/9/270 402/9/272
f 403/9/273 405/9/275 401/9/271
f 406/9/276 400/9/270 404/9/274
f 401/9/271 405/9/275 407/9/277
f 404/9/274 408/9/278 406/9/276
f 405/9/275 409/9/279 407/9/277
f 408/9/278 404/9/274 410/9/280
f 410/9/280 409/9/279 408/9/278
f 409/9/279 405/9/275 411/9/281
f 408/9/278 409/9/279 411/9/281
f 412/9/282 413/9/283 414/9/284
f 413/9/283 415/9/285 414/9/284
f 413/9/283 412/9/282 416/9/286
f 415/9/285 413/9/283 417/9/287
f 418/9/288 416/9/286 412/9/282
f 417/9/287 419/9/289 415/9/285
f 416/9/286 418/9/288 420/9/290
f 419/9/289 417/9/287 421/9/289
f 422/9/291 420/9/290 418/9/288
f 423/9/292 419/9/289 421/9/289
f 418/9/288 424/9/293 422/9/291
f 425/9/294 419/9/289 423/9/292
f 424/9/293 426/9/295 422/9/291
f 426/9/295 425/9/294 423/9/292
f 426/9/295 424/9/293 427/9/295
f 427/9/295 425/9/294 426/9/295
f 428/9/296 429/9/297 430/9/298
f 428/9/296 430/9/298 431/9/296
f 429/9/297 432/9/299 430/9/298
f 433/9/300 428/9/296 431/9/296
f 432/9/299 429/9/297 434/9/301
f 428/9/296 433/9/300 435/9/302
f 434/9/301 436/9/303 432/9/299
f 437/9/304 435/9/302 433/9/300
f 436/9/303 438/9/305 432/9/299
f 435/9/302 437/9/304 439/9/304
f 436/9/303 440/9/306 438/9/305
f 437/9/304 441/9/307 439/9/304
f 438/9/305 440/9/306 442/9/308
f 441/9/307 437/9/304 443/9/309
f 440/9/306 443/9/309 442/9/308
f 443/9/309 440/9/306 441/9/307
f 444/30/310 445/18/310 446/17/310
f 445/18/310 444/30/310 447/21/310
f 448/31/310 447/21/310 444/30/310
f 447/21/310 448/31/310 449/20/310
f 448/31/310 450/32/310 449/20/310
f 449/20/310 450/32/310 451/33/310
f 449/20/310 451/33/310 452/24/310
f 453/34/310 444/30/310 446/17/310
f 454/13/310 453/34/310 446/17/310
f 453/34/310 454/13/310 455/35/311
f 454/13/310 456/12/310 455/35/311
f 457/14/312 455/35/311 456/12/310
f 455/35/311 458/36/310 453/34/310
f 459/37/310 453/34/310 458/36/310
f 460/38/310 453/34/310 459/37/310
f 460/38/310 459/37/310 461/27/310
f 462/39/310 460/38/310 461/27/310
f 461/27/310 463/26/310 462/39/310
f 464/40/310 462/39/310 463/26/310
f 462/39/310 464/40/310 465/41/310
f 463/26/310 466/42/310 464/40/310
f 467/28/313 468/43/313 469/44/313
f 467/28/313 470/45/313 468/43/313
f 468/43/313 470/45/313 471/46/313
f 472/29/313 470/45/313 467/28/313
f 470/45/313 472/29/313 473/47/313
f 472/29/313 474/48/313 473/47/313
f 475/49/313 473/47/313 474/48/313
f 476/50/313 475/49/313 474/48/313
f 477/51/314 475/49/313 476/50/313
f 477/51/314 478/15/313 479/10/315
f 480/11/313 477/51/314 479/10/315
f 475/49/313 477/51/314 480/11/313
f 480/11/313 481/16/313 475/49/313
f 482/52/313 475/49/313 481/16/313
f 483/19/313 482/52/313 481/16/313
f 482/52/313 483/19/313 484/23/313
f 485/53/313 482/52/313 484/23/313
f 485/53/313 484/23/313 486/22/313
f 486/22/313 487/54/313 485/53/313
f 487/54/313 486/22/313 488/55/313
f 488/55/313 486/22/313 489/25/313
f 490/9/316 491/9/317 492/9/318
f 491/9/317 493/9/319 492/9/318
f 491/9/317 490/9/316 494/9/320
f 495/9/321 492/9/318 493/9/319
f 496/9/322 494/9/320 490/9/316
f 494/9/320 496/9/322 497/9/323
f 498/9/322 494/9/320 497/9/323
f 499/9/324 495/9/321 493/9/319
f 499/9/324 493/9/319 500/9/325
f 500/9/325 501/9/326 499/9/324
f 502/9/327 499/9/324 501/9/326
f 503/9/328 502/9/327 501/9/326
f 502/9/327 503/9/328 504/9/329
f 503/9/328 501/9/326 505/9/330
f 506/9/331 507/9/332 508/9/333
f 508/9/333 509/9/334 506/9/331
f 510/9/335 506/9/331 509/9/334
f 509/9/334 511/9/336 510/9/335
f 511/9/336 509/9/334 512/9/336
f 512/9/336 513/9/337 511/9/336
f 513/9/337 512/9/336 514/9/337
f 514/9/337 515/9/338 513/9/337
f 515/9/338 514/9/337 516/9/339
f 516/9/339 514/9/337 517/9/340
f 507/9/332 506/9/331 518/9/341
f 519/9/342 507/9/332 518/9/341
f 507/9/332 519/9/342 520/9/343
f 519/9/342 518/9/341 521/9/344
f 522/36/345 523/2/346 524/2/345
f 525/2/346 526/36/345 527/35/347
f 528/2/348 529/18/349 530/21/350
f 531/2/348 532/2/349 533/18/349
f 534/19/351 535/8/352 536/23/353
f 537/8/352 538/19/351 539/8/351
f 540/26/354 541/2/355 542/42/356
f 541/2/355 540/26/354 543/2/357
f 544/8/358 545/8/359 546/28/360
f 544/8/358 546/28/360 547/44/361
f 548/2/362 549/27/363 550/37/362
f 549/27/363 548/2/362 551/2/364
f 552/8/365 553/29/366 554/8/367
f 553/29/366 552/8/365 555/48/368
f 556/50/369 557/8/370 558/8/369
f 559/8/371 560/50/372 558/8/372
f 560/50/372 559/8/371 561/51/373
f 562/9/374 563/9/375 564/9/375
f 563/9/375 565/9/376 564/9/375
f 563/9/375 562/9/374 566/9/377
f 567/9/378 564/9/375 565/9/376
f 568/9/379 566/9/377 562/9/374
f 567/9/378 565/9/376 569/9/380
f 566/9/377 568/9/379 570/9/379
f 569/9/380 571/9/381 567/9/378
f 572/9/382 570/9/379 568/9/379
f 573/9/383 571/9/381 569/9/380
f 570/9/379 572/9/382 574/9/382
f 571/9/381 573/9/383 575/9/384
f 576/9/385 574/9/382 572/9/382
f 577/9/386 575/9/384 573/9/383
f 574/9/382 576/9/385 578/9/387
f 575/9/384 577/9/386 579/9/388
f 576/9/385 579/9/388 578/9/387
f 577/9/386 578/9/387 579/9/388
f 580/2/389 581/36/390 582/2/391
f 583/36/392 584/2/393 585/37/394
f 586/8/395 587/50/396 588/48/395
f 589/8/397 590/8/398 591/15/399
f 592/2/400 593/2/401 594/14/402
f 595/35/403 594/14/402 593/2/401
f 596/9/404 597/9/405 598/9/406
f 597/9/405 596/9/404 599/9/404
f 600/9/407 598/9/406 597/9/405
f 600/9/407 597/9/405 601/9/407
f 602/9/408 600/9/407 601/9/407
f 602/9/408 601/9/407 603/9/409
f 604/15/410 605/51/411 606/8/412
f 607/9/413 608/9/414 609/9/415
f 610/9/416 607/9/413 609/9/415
f 608/9/414 607/9/413 611/9/417
f 607/9/413 610/9/416 612/9/418
f 613/9/419 608/9/414 611/9/417
f 610/9/416 614/9/420 612/9/418
f 613/9/419 611/9/417 615/9/421
f 610/9/416 616/9/422 614/9/420
f 617/9/423 613/9/419 615/9/421
f 616/9/422 618/9/424 614/9/420
f 617/9/423 615/9/421 619/9/425
f 618/9/424 616/9/422 620/9/426
f 621/9/427 617/9/423 619/9/425
f 620/9/426 622/9/428 618/9/424
f 621/9/427 619/9/425 622/9/428
f 622/9/428 620/9/426 621/9/427
