# Blender 5.1.2
# www.blender.org
mtllib KeyrambitFinal.mtl
o Keyrambit
v -0.345477 1.991092 0.045075
v -0.663093 2.019999 0.064737
v -0.345477 1.991092 0.058183
v -0.345477 1.991092 0.071291
v -0.345477 1.991092 0.084399
v 0.146412 1.667287 0.084399
v 0.146412 1.667287 0.071291
v 0.146412 1.667287 0.058183
v 0.146412 1.667287 0.045075
v -0.064222 1.855117 0.045075
v -0.064222 1.855117 0.058183
v -0.345477 1.991092 0.045075
v -0.345477 1.991092 0.058183
v -0.064222 1.855117 0.071291
v -0.345477 1.991092 0.071291
v -0.064222 1.855117 0.084399
v -0.345477 1.991092 0.084399
v -0.525637 -0.106100 0.090953
v -0.525637 -0.106100 0.038521
v -0.452131 -0.174295 0.090953
v -0.359994 -0.167673 0.090953
v -0.452131 -0.174295 0.038521
v -0.359994 -0.167673 0.038521
v -0.242188 0.194564 0.092453
v -0.163036 0.117910 0.092453
v -0.163036 0.117910 0.037020
v -0.139894 0.119840 0.037020
v -0.242188 0.194564 0.037020
v -0.139894 0.119840 0.092453
v 0.265801 0.989886 0.028624
v 0.265801 0.989886 0.100850
v 0.192741 0.939351 0.028624
v 0.192741 0.939351 0.100850
v 0.017388 1.009615 0.028624
v 0.017388 1.009615 0.100850
v -0.165498 0.975493 0.064737
v -0.139894 0.119840 0.037020
v -0.172827 0.093194 0.004136
v -0.163036 0.117910 0.037020
v -0.242188 0.194564 0.037020
v -0.128220 0.094877 0.004136
v -0.267071 0.189267 0.004136
v -0.139894 0.119840 0.092453
v -0.128220 0.094877 0.125338
v -0.172827 0.093194 0.125338
v -0.163036 0.117910 0.092453
v -0.242188 0.194564 0.092453
v -0.267071 0.189267 0.125338
v 0.081576 0.401530 0.004136
v -0.062446 0.440935 0.037020
v 0.037497 0.391722 0.037021
v -0.081856 0.424903 0.004136
v 0.040611 0.367321 0.004136
v 0.081576 0.401530 0.125338
v 0.037497 0.391722 0.092453
v 0.040611 0.367321 0.125338
v -0.062446 0.440935 0.092453
v -0.081856 0.424903 0.125338
v -0.088883 0.956650 0.125338
v 0.017388 1.009615 0.100850
v -0.165498 0.975493 0.064737
v -0.088883 0.956650 0.004136
v -0.165498 0.975493 0.064737
v 0.017388 1.009615 0.028624
v -0.062446 0.440935 0.092453
v -0.062446 0.440935 0.037020
v 0.037497 0.391722 0.092453
v 0.037497 0.391722 0.037021
v -0.179520 0.003737 0.091988
v -0.179520 0.003737 0.037485
v -0.352333 0.171819 0.091988
v -0.352333 0.171819 0.037485
v -0.523957 0.156549 0.091988
v -0.523957 0.156549 0.037485
v 0.292016 0.916701 0.084399
v 0.327412 1.019260 0.071291
v 0.327412 1.019260 0.084399
v 0.292016 0.916701 0.071291
v 0.210607 1.411857 0.071291
v 0.210607 1.411857 0.084399
v 0.327412 1.019260 0.058183
v 0.292016 0.916701 0.058183
v 0.327412 1.019260 0.045075
v 0.292016 0.916701 0.045075
v 0.210607 1.411857 0.045075
v 0.210607 1.411857 0.058183
v 0.236526 1.457392 0.045075
v 0.236526 1.457392 0.058183
v 0.236526 1.457392 0.071291
v 0.236526 1.457392 0.084399
v 0.146412 1.667287 0.084399
v 0.146412 1.667287 0.071291
v 0.146412 1.667287 0.058183
v 0.146412 1.667287 0.045075
v -0.466755 0.042153 0.038521
v -0.466755 0.042153 0.090953
v -0.527688 -0.026445 0.090953
v -0.527688 -0.026445 0.038521
v -0.525637 -0.106100 0.090953
v -0.525637 -0.106100 0.038521
v -0.242188 0.194564 0.092453
v -0.242188 0.194564 0.037020
v -0.238632 0.225422 0.092453
v -0.238632 0.225422 0.037020
v -0.122764 0.344617 0.092453
v -0.122764 0.344617 0.037020
v 0.053104 1.280408 0.092567
v -0.023198 1.503220 0.036906
v -0.023198 1.503220 0.092567
v 0.053104 1.280408 0.036906
v -0.003971 1.053677 0.036906
v -0.003971 1.053677 0.092567
v 0.016769 0.988905 0.036906
v 0.016769 0.988905 0.092567
v -0.036887 0.022067 0.028624
v -0.036887 0.022067 0.100850
v 0.136140 0.250413 0.028624
v 0.136140 0.250413 0.100850
v 0.306900 0.934190 0.028624
v 0.306900 0.934190 0.100850
v 0.265801 0.989886 0.028624
v 0.265801 0.989886 0.100850
v -0.242188 0.194564 0.037020
v -0.267071 0.189267 0.004136
v -0.263421 0.230529 0.004136
v -0.238632 0.225422 0.037020
v -0.122764 0.344617 0.037020
v -0.127808 0.374913 0.004136
v -0.127808 0.374913 0.125338
v -0.242188 0.194564 0.092453
v -0.122764 0.344617 0.092453
v -0.267071 0.189267 0.125338
v -0.263421 0.230529 0.125338
v -0.238632 0.225422 0.092453
v 0.008946 0.869556 0.037021
v -0.012398 0.881331 0.004136
v -0.001553 0.691613 0.004136
v 0.022520 0.685428 0.037021
v -0.093205 0.477524 0.004136
v -0.068585 0.474749 0.037020
v -0.062446 0.440935 0.037020
v -0.081856 0.424903 0.004136
v 0.008946 0.869556 0.092453
v -0.012398 0.881331 0.125338
v -0.001553 0.691613 0.125338
v 0.022520 0.685428 0.092453
v -0.093205 0.477524 0.125338
v -0.062446 0.440935 0.092453
v -0.068585 0.474749 0.092453
v -0.081856 0.424903 0.125338
v -0.051819 1.055652 0.026553
v -0.035830 0.976244 0.045075
v -0.043119 0.974401 0.026553
v -0.051819 1.055652 0.102921
v -0.035830 0.976244 0.084399
v -0.043119 0.974401 0.102921
v -0.068585 0.474749 0.092453
v 0.022520 0.685428 0.037021
v 0.022520 0.685428 0.092453
v 0.008946 0.869556 0.037021
v -0.068585 0.474749 0.037020
v 0.008946 0.869556 0.092453
v -0.062446 0.440935 0.092453
v -0.062446 0.440935 0.037020
v -0.196208 -0.131139 0.037485
v -0.179520 0.003737 0.091988
v -0.196208 -0.131139 0.091988
v -0.310947 -0.274605 0.091988
v -0.179520 0.003737 0.037485
v -0.310947 -0.274605 0.037485
v -0.064222 1.855117 0.045075
v -0.353290 1.962799 0.026553
v -0.345477 1.991092 0.045075
v -0.353290 1.962799 0.026553
v -0.064222 1.855117 0.045075
v -0.080836 1.829688 0.026553
v -0.663093 2.019999 0.064737
v -0.345477 1.991092 0.045075
v -0.500914 1.973636 0.045075
v -0.353290 1.962799 0.026553
v -0.064222 1.855117 0.045075
v 0.146412 1.667287 0.045075
v 0.121902 1.650465 0.026553
v -0.064222 1.855117 0.045075
v 0.121902 1.650465 0.026553
v -0.080836 1.829688 0.026553
v 0.146412 1.667287 0.045075
v 0.236526 1.457392 0.045075
v 0.203626 1.459548 0.026553
v 0.121902 1.650465 0.026553
v 0.210607 1.411857 0.045075
v 0.327412 1.019260 0.045075
v 0.295923 1.021323 0.026553
v 0.295923 1.021323 0.026553
v 0.178768 1.415069 0.026553
v 0.210607 1.411857 0.045075
v 0.295923 1.021323 0.026553
v 0.292016 0.916701 0.045075
v 0.264051 0.918534 0.026553
v 0.327412 1.019260 0.045075
v -0.118005 1.278962 0.064737
v -0.126850 1.030605 0.026553
v -0.193582 1.030371 0.064737
v -0.051608 1.276896 0.026553
v -0.132726 0.472025 0.004136
v -0.081856 0.424903 0.004136
v -0.127808 0.374913 0.004136
v -0.084819 0.366328 0.004136
v 0.040611 0.367321 0.004136
v -0.093205 0.477524 0.004136
v -0.001782 0.298668 0.004136
v -0.308245 0.306059 0.004136
v -0.036925 0.695092 0.004136
v -0.263421 0.230529 0.004136
v -0.001553 0.691613 0.004136
v -0.328537 0.184081 0.004136
v -0.012398 0.881331 0.004136
v -0.267071 0.189267 0.004136
v -0.172827 0.093194 0.004136
v -0.169022 0.029567 0.004136
v -0.128220 0.094877 0.004136
v -0.053325 0.049628 0.004136
v -0.000451 0.246704 0.004136
v -0.052275 0.894320 0.004136
v 0.108726 0.262585 0.004136
v 0.013245 0.978760 0.004136
v -0.088883 0.956650 0.004136
v 0.033901 0.910582 0.004136
v 0.195483 0.905760 0.004136
v 0.184207 0.840800 0.004136
v 0.081576 0.401530 0.004136
v 0.193736 0.805603 0.004136
v 0.272448 0.921466 0.004136
v 0.253950 0.948001 0.004136
v -0.081918 0.878994 0.028624
v -0.036925 0.695092 0.004136
v -0.066414 0.701633 0.028624
v -0.157510 0.488632 0.028624
v -0.052275 0.894320 0.004136
v -0.132726 0.472025 0.004136
v -0.088883 0.956650 0.004136
v -0.308245 0.306059 0.004136
v -0.165498 0.975493 0.064737
v -0.335773 0.320560 0.028624
v 0.017388 1.009615 0.028624
v -0.328537 0.184081 0.004136
v 0.013245 0.978760 0.004136
v -0.360258 0.173463 0.028624
v 0.192741 0.939351 0.028624
v -0.178840 -0.002076 0.028624
v 0.195483 0.905760 0.004136
v -0.169022 0.029567 0.004136
v 0.253950 0.948001 0.004136
v -0.036887 0.022067 0.028624
v 0.265801 0.989886 0.028624
v -0.053325 0.049628 0.004136
v 0.306900 0.934190 0.028624
v 0.136140 0.250413 0.028624
v 0.272448 0.921466 0.004136
v 0.108726 0.262585 0.004136
v -0.222953 -0.120171 0.022535
v -0.269980 -0.013371 0.022535
v -0.208867 -0.005841 0.022535
v -0.364628 0.078121 0.022535
v -0.274204 -0.111044 0.022535
v -0.362558 0.143649 0.022535
v -0.325106 -0.248319 0.022535
v -0.480183 0.069552 0.022535
v -0.346422 -0.193920 0.022535
v -0.509970 0.130274 0.022535
v -0.471575 -0.257148 0.022535
v -0.608157 0.013402 0.022535
v -0.462137 -0.202479 0.022535
v -0.556130 -0.015366 0.022535
v -0.612111 -0.145380 0.022535
v -0.553208 -0.118115 0.022535
v -0.523957 0.156549 0.037485
v -0.362558 0.143649 0.022535
v -0.509970 0.130274 0.022535
v -0.352333 0.171819 0.037485
v -0.635861 0.023272 0.037485
v -0.208867 -0.005841 0.022535
v -0.608157 0.013402 0.022535
v -0.179520 0.003737 0.037485
v -0.612111 -0.145380 0.022535
v -0.196208 -0.131139 0.037485
v -0.640354 -0.158511 0.037485
v -0.222953 -0.120171 0.022535
v -0.480503 -0.285403 0.037485
v -0.325106 -0.248319 0.022535
v -0.471575 -0.257148 0.022535
v -0.310947 -0.274605 0.037485
v -0.269980 -0.013371 0.022535
v -0.374897 0.049990 0.038521
v -0.364628 0.078121 0.022535
v -0.480183 0.069552 0.022535
v -0.298132 -0.024222 0.038521
v -0.466755 0.042153 0.038521
v -0.274204 -0.111044 0.022535
v -0.556130 -0.015366 0.022535
v -0.302383 -0.099982 0.038521
v -0.527688 -0.026445 0.038521
v -0.359994 -0.167673 0.038521
v -0.525637 -0.106100 0.038521
v -0.346422 -0.193920 0.022535
v -0.553208 -0.118115 0.022535
v -0.452131 -0.174295 0.038521
v -0.462137 -0.202479 0.022535
v -0.126850 1.030605 0.026553
v -0.077970 0.966310 0.026553
v -0.112741 0.958213 0.026553
v -0.051819 1.055652 0.026553
v -0.043119 0.974401 0.026553
v -0.051608 1.276896 0.026553
v 0.004665 1.278975 0.026553
v -0.120437 1.553416 0.026553
v -0.098175 1.631442 0.026553
v -0.186590 1.618808 0.026553
v -0.220873 1.811222 0.026553
v -0.500914 1.973636 0.045075
v -0.353290 1.962799 0.026553
v -0.080836 1.829688 0.026553
v 0.121902 1.650465 0.026553
v 0.136281 1.398264 0.026553
v 0.203626 1.459548 0.026553
v 0.178768 1.415069 0.026553
v 0.229332 1.069475 0.026553
v 0.295923 1.021323 0.026553
v 0.202291 0.922582 0.026553
v 0.243223 0.919899 0.026553
v 0.264051 0.918534 0.026553
v 0.229332 1.069475 0.026553
v 0.094531 1.373356 0.036906
v 0.136281 1.398264 0.026553
v -0.023198 1.503220 0.036906
v 0.181409 1.068009 0.036906
v -0.098175 1.631442 0.026553
v 0.202291 0.922582 0.026553
v 0.196461 0.922964 0.045075
v 0.157754 0.925501 0.036906
v 0.004665 1.278975 0.026553
v 0.053104 1.280408 0.036906
v -0.003971 1.053677 0.036906
v -0.051819 1.055652 0.026553
v -0.035830 0.976244 0.045075
v 0.016769 0.988905 0.036906
v 0.203626 1.459548 0.026553
v 0.210607 1.411857 0.045075
v 0.178768 1.415069 0.026553
v 0.210607 1.411857 0.045075
v 0.203626 1.459548 0.026553
v 0.236526 1.457392 0.045075
v -0.140814 0.950839 0.064737
v -0.193582 1.030371 0.064737
v -0.126850 1.030605 0.026553
v -0.178115 1.521463 0.064737
v -0.051608 1.276896 0.026553
v -0.118005 1.278962 0.064737
v -0.120437 1.553416 0.026553
v -0.186590 1.618808 0.026553
v -0.178115 1.521463 0.064737
v -0.245661 1.588107 0.064737
v -0.277883 1.773458 0.064737
v -0.186590 1.618808 0.026553
v -0.220873 1.811222 0.026553
v -0.178115 1.521463 0.064737
v -0.186590 1.618808 0.026553
v -0.120437 1.553416 0.026553
v -0.277883 1.773458 0.064737
v -0.663093 2.019999 0.064737
v -0.500914 1.973636 0.045075
v -0.500914 1.973636 0.045075
v -0.220873 1.811222 0.026553
v -0.277883 1.773458 0.064737
v -0.466755 0.042153 0.038521
v -0.374897 0.049990 0.038521
v -0.466755 0.042153 0.090953
v -0.374897 0.049990 0.090953
v -0.298132 -0.024222 0.038521
v -0.298132 -0.024222 0.090953
v -0.122764 0.344617 0.092453
v -0.024838 0.285197 0.092453
v -0.122764 0.344617 0.037020
v -0.024838 0.285197 0.037021
v -0.096146 0.344033 0.092453
v -0.096145 0.344033 0.037020
v -0.360258 0.173463 0.028624
v -0.360258 0.173463 0.100850
v -0.178840 -0.002076 0.028624
v -0.178840 -0.002076 0.100850
v -0.036887 0.022067 0.028624
v -0.036887 0.022067 0.100850
v -0.024838 0.285197 0.037021
v -0.122764 0.344617 0.037020
v -0.001782 0.298668 0.004136
v -0.127808 0.374913 0.004136
v -0.084819 0.366328 0.004136
v -0.096145 0.344033 0.037020
v -0.024838 0.285197 0.092453
v -0.001782 0.298668 0.125338
v -0.084819 0.366328 0.125338
v -0.096146 0.344033 0.092453
v -0.127808 0.374913 0.125338
v -0.122764 0.344617 0.092453
v 0.034800 0.886326 0.037021
v 0.008946 0.869556 0.037021
v 0.033901 0.910582 0.004136
v 0.164908 0.825922 0.037021
v -0.012398 0.881331 0.004136
v 0.184207 0.840800 0.004136
v 0.184207 0.840800 0.125338
v 0.033901 0.910582 0.125338
v 0.164908 0.825922 0.092453
v 0.034800 0.886326 0.092453
v 0.008946 0.869556 0.092453
v -0.012398 0.881331 0.125338
v 0.008946 0.869556 0.037021
v 0.008946 0.869556 0.092453
v 0.034800 0.886326 0.037021
v 0.034800 0.886326 0.092453
v 0.164908 0.825922 0.037021
v 0.164908 0.825922 0.092453
v -0.023198 1.503220 0.092567
v 0.094531 1.373356 0.036906
v 0.094531 1.373356 0.092567
v -0.023198 1.503220 0.036906
v -0.310947 -0.274605 0.091988
v -0.310947 -0.274605 0.037485
v -0.480503 -0.285403 0.037485
v -0.480503 -0.285403 0.091988
v -0.640354 -0.158511 0.037485
v -0.640354 -0.158511 0.091988
v -0.298132 -0.024222 0.038521
v -0.298132 -0.024222 0.090953
v -0.302383 -0.099982 0.090953
v -0.302383 -0.099982 0.038521
v -0.359994 -0.167673 0.090953
v -0.359994 -0.167673 0.038521
v -0.139894 0.119840 0.037020
v -0.139894 0.119840 0.092453
v -0.025137 0.256377 0.037021
v -0.025137 0.256377 0.092453
v -0.024838 0.285197 0.092453
v -0.024838 0.285197 0.037021
v -0.165498 0.975493 0.064737
v -0.081918 0.878994 0.028624
v -0.081918 0.878994 0.100850
v -0.066414 0.701633 0.028624
v -0.066414 0.701633 0.100850
v -0.157510 0.488632 0.028624
v -0.157510 0.488632 0.100850
v -0.335773 0.320560 0.028624
v -0.335773 0.320560 0.100850
v -0.360258 0.173463 0.028624
v -0.360258 0.173463 0.100850
v -0.139894 0.119840 0.037020
v -0.128220 0.094877 0.004136
v -0.000451 0.246704 0.004136
v -0.025137 0.256377 0.037021
v -0.024838 0.285197 0.037021
v -0.001782 0.298668 0.004136
v -0.000451 0.246704 0.125338
v -0.024838 0.285197 0.092453
v -0.025137 0.256377 0.092453
v -0.139894 0.119840 0.092453
v -0.001782 0.298668 0.125338
v -0.128220 0.094877 0.125338
v 0.164908 0.825922 0.037021
v 0.184207 0.840800 0.004136
v 0.193736 0.805603 0.004136
v 0.168999 0.806064 0.037021
v 0.060753 0.414395 0.037021
v 0.081576 0.401530 0.004136
v 0.037497 0.391722 0.037021
v 0.184207 0.840800 0.125338
v 0.164908 0.825922 0.092453
v 0.193736 0.805603 0.125338
v 0.168999 0.806064 0.092453
v 0.060753 0.414395 0.092453
v 0.081576 0.401530 0.125338
v 0.037497 0.391722 0.092453
v 0.181409 1.068009 0.036906
v 0.202291 0.922582 0.026553
v 0.196461 0.922964 0.045075
v 0.181409 1.068009 0.092567
v 0.202291 0.922582 0.102921
v 0.196461 0.922964 0.084399
v -0.126850 1.030605 0.102921
v -0.140814 0.950839 0.064737
v -0.112741 0.958213 0.102921
v -0.140814 0.950839 0.064737
v -0.126850 1.030605 0.026553
v -0.112741 0.958213 0.026553
v 0.037497 0.391722 0.092453
v 0.164908 0.825922 0.037021
v 0.037497 0.391722 0.037021
v 0.164908 0.825922 0.092453
v 0.060753 0.414395 0.092453
v 0.168999 0.806064 0.037021
v 0.060753 0.414395 0.037021
v 0.168999 0.806064 0.092453
v 0.094531 1.373356 0.036906
v 0.094531 1.373356 0.092567
v 0.181409 1.068009 0.092567
v 0.181409 1.068009 0.036906
v 0.157754 0.925501 0.092567
v 0.157754 0.925501 0.036906
v -0.523957 0.156549 0.091988
v -0.640354 -0.158511 0.037485
v -0.523957 0.156549 0.037485
v -0.640354 -0.158511 0.091988
v -0.635861 0.023272 0.091988
v -0.635861 0.023272 0.037485
v -0.064222 1.855117 0.084399
v -0.353290 1.962799 0.102920
v -0.080836 1.829688 0.102921
v -0.345477 1.991092 0.084399
v -0.345477 1.991092 0.084399
v -0.500914 1.973636 0.084399
v -0.353290 1.962799 0.102920
v -0.663093 2.019999 0.064737
v -0.064222 1.855117 0.084399
v 0.121902 1.650465 0.102921
v 0.146412 1.667287 0.084399
v -0.080836 1.829688 0.102921
v 0.146412 1.667287 0.084399
v 0.203626 1.459548 0.102921
v 0.236526 1.457392 0.084399
v 0.121902 1.650465 0.102921
v 0.210607 1.411857 0.084399
v 0.295923 1.021323 0.102921
v 0.327412 1.019260 0.084399
v 0.295923 1.021323 0.102921
v 0.210607 1.411857 0.084399
v 0.178768 1.415069 0.102921
v 0.292016 0.916701 0.084399
v 0.327412 1.019260 0.084399
v 0.295923 1.021323 0.102921
v 0.264051 0.918534 0.102921
v -0.126850 1.030605 0.102921
v -0.051608 1.276896 0.102921
v -0.118005 1.278962 0.064737
v -0.126850 1.030605 0.102921
v -0.118005 1.278962 0.064737
v -0.193582 1.030371 0.064737
v -0.012398 0.881331 0.125338
v 0.013245 0.978760 0.125338
v -0.052275 0.894320 0.125338
v -0.088883 0.956650 0.125338
v -0.036925 0.695092 0.125338
v 0.033901 0.910582 0.125338
v -0.001553 0.691613 0.125338
v 0.195483 0.905760 0.125338
v -0.093205 0.477524 0.125338
v -0.132726 0.472025 0.125338
v 0.184207 0.840800 0.125338
v -0.081856 0.424903 0.125338
v 0.272448 0.921466 0.125338
v 0.253950 0.948001 0.125338
v 0.193736 0.805603 0.125338
v 0.108726 0.262585 0.125338
v 0.081576 0.401530 0.125338
v 0.040611 0.367321 0.125338
v -0.127808 0.374913 0.125338
v -0.308245 0.306059 0.125338
v -0.084819 0.366328 0.125338
v -0.263421 0.230529 0.125338
v -0.001782 0.298668 0.125338
v -0.000451 0.246704 0.125338
v -0.328537 0.184081 0.125338
v -0.053325 0.049628 0.125338
v -0.267071 0.189267 0.125338
v -0.128220 0.094877 0.125338
v -0.172827 0.093194 0.125338
v -0.169022 0.029567 0.125338
v -0.088883 0.956650 0.125338
v 0.013245 0.978760 0.125338
v 0.017388 1.009615 0.100850
v 0.192741 0.939351 0.100850
v 0.195483 0.905760 0.125338
v 0.253950 0.948001 0.125338
v 0.265801 0.989886 0.100850
v 0.306900 0.934190 0.100850
v 0.272448 0.921466 0.125338
v 0.136140 0.250413 0.100850
v 0.108726 0.262585 0.125338
v -0.053325 0.049628 0.125338
v -0.036887 0.022067 0.100850
v -0.169022 0.029567 0.125338
v -0.178840 -0.002076 0.100850
v -0.328537 0.184081 0.125338
v -0.360258 0.173463 0.100850
v -0.335773 0.320560 0.100850
v -0.308245 0.306059 0.125338
v -0.157510 0.488632 0.100850
v -0.132726 0.472025 0.125338
v -0.036925 0.695092 0.125338
v -0.066414 0.701633 0.100850
v -0.081918 0.878994 0.100850
v -0.052275 0.894320 0.125338
v -0.088883 0.956650 0.125338
v -0.165498 0.975493 0.064737
v -0.346422 -0.193920 0.106939
v -0.471575 -0.257148 0.106939
v -0.325106 -0.248319 0.106939
v -0.462137 -0.202479 0.106939
v -0.274204 -0.111044 0.106939
v -0.612111 -0.145380 0.106939
v -0.222953 -0.120171 0.106939
v -0.553208 -0.118115 0.106939
v -0.269980 -0.013371 0.106939
v -0.556130 -0.015366 0.106939
v -0.208867 -0.005841 0.106939
v -0.608157 0.013402 0.106939
v -0.364628 0.078121 0.106939
v -0.480183 0.069552 0.106939
v -0.362558 0.143649 0.106939
v -0.509970 0.130274 0.106939
v -0.352333 0.171819 0.091988
v -0.523957 0.156549 0.091988
v -0.362558 0.143649 0.106939
v -0.509970 0.130274 0.106939
v -0.208867 -0.005841 0.106939
v -0.635861 0.023272 0.091988
v -0.179520 0.003737 0.091988
v -0.608157 0.013402 0.106939
v -0.196208 -0.131139 0.091988
v -0.612111 -0.145380 0.106939
v -0.222953 -0.120171 0.106939
v -0.640354 -0.158511 0.091988
v -0.325106 -0.248319 0.106939
v -0.480503 -0.285403 0.091988
v -0.310947 -0.274605 0.091988
v -0.471575 -0.257148 0.106939
v -0.274204 -0.111044 0.106939
v -0.269980 -0.013371 0.106939
v -0.298132 -0.024222 0.090953
v -0.302383 -0.099982 0.090953
v -0.374897 0.049990 0.090953
v -0.359994 -0.167673 0.090953
v -0.364628 0.078121 0.106939
v -0.346422 -0.193920 0.106939
v -0.480183 0.069552 0.106939
v -0.452131 -0.174295 0.090953
v -0.466755 0.042153 0.090953
v -0.462137 -0.202479 0.106939
v -0.556130 -0.015366 0.106939
v -0.553208 -0.118115 0.106939
v -0.527688 -0.026445 0.090953
v -0.525637 -0.106100 0.090953
v 0.136281 1.398264 0.102921
v 0.203626 1.459548 0.102921
v 0.121902 1.650465 0.102921
v 0.178768 1.415069 0.102921
v 0.229332 1.069475 0.102921
v 0.295923 1.021323 0.102921
v 0.202291 0.922582 0.102921
v 0.243223 0.919899 0.102921
v 0.264051 0.918534 0.102921
v -0.098175 1.631442 0.102921
v -0.080836 1.829688 0.102921
v -0.220873 1.811222 0.102921
v -0.353290 1.962799 0.102920
v -0.500914 1.973636 0.084399
v -0.186590 1.618808 0.102921
v -0.120437 1.553416 0.102921
v 0.004665 1.278975 0.102921
v -0.051608 1.276896 0.102921
v -0.051819 1.055652 0.102921
v -0.126850 1.030605 0.102921
v -0.077970 0.966310 0.102921
v -0.043119 0.974401 0.102921
v -0.112741 0.958213 0.102921
v 0.004665 1.278975 0.102921
v -0.003971 1.053677 0.092567
v 0.053104 1.280408 0.092567
v -0.023198 1.503220 0.092567
v -0.098175 1.631442 0.102921
v 0.136281 1.398264 0.102921
v 0.094531 1.373356 0.092567
v 0.229332 1.069475 0.102921
v 0.181409 1.068009 0.092567
v 0.202291 0.922582 0.102921
v 0.196461 0.922964 0.084399
v 0.157754 0.925501 0.092567
v -0.051819 1.055652 0.102921
v -0.035830 0.976244 0.084399
v 0.016769 0.988905 0.092567
v -0.186590 1.618808 0.102921
v -0.277883 1.773458 0.064737
v -0.245661 1.588107 0.064737
v -0.277883 1.773458 0.064737
v -0.186590 1.618808 0.102921
v -0.220873 1.811222 0.102921
v 0.210607 1.411857 0.084399
v 0.203626 1.459548 0.102921
v 0.178768 1.415069 0.102921
v 0.210607 1.411857 0.084399
v 0.236526 1.457392 0.084399
v 0.203626 1.459548 0.102921
v -0.126850 1.030605 0.102921
v -0.140814 0.950839 0.064737
v -0.193582 1.030371 0.064737
v -0.178115 1.521463 0.064737
v -0.051608 1.276896 0.102921
v -0.120437 1.553416 0.102921
v -0.118005 1.278962 0.064737
v -0.178115 1.521463 0.064737
v -0.186590 1.618808 0.102921
v -0.245661 1.588107 0.064737
v -0.186590 1.618808 0.102921
v -0.178115 1.521463 0.064737
v -0.120437 1.553416 0.102921
v -0.663093 2.019999 0.064737
v -0.277883 1.773458 0.064737
v -0.500914 1.973636 0.084399
v -0.220873 1.811222 0.102921
vn 0.2688 0.9632 -0.0000
vn 0.0890 0.9960 -0.0000
vn 0.8108 0.5853 -0.0000
vn 0.5584 0.8296 -0.0000
vn 0.5583 0.8296 -0.0000
vn 0.9105 0.4136 -0.0000
vn 0.3310 0.9436 -0.0000
vn 0.3309 0.9437 -0.0000
vn -0.4488 0.8936 -0.0000
vn 0.9433 0.3320 -0.0000
vn 0.3543 0.9351 -0.0000
vn -0.4453 0.8954 -0.0000
vn -0.4452 0.8954 -0.0000
vn 0.1597 0.9872 -0.0000
vn -0.1162 0.9932 -0.0000
vn 0.1202 0.9927 -0.0000
vn -0.1879 0.9822 -0.0000
vn -0.3406 0.6919 -0.6366
vn 0.2843 0.7301 -0.6213
vn 0.7271 0.2754 -0.6289
vn 0.7347 0.2518 -0.6300
vn -0.3406 0.6919 0.6366
vn 0.2843 0.7301 0.6214
vn -0.3406 0.6919 0.6367
vn 0.2843 0.7301 0.6213
vn 0.7271 0.2754 0.6289
vn 0.7347 0.2518 0.6300
vn -0.1074 0.7743 -0.6236
vn -0.6820 0.4314 -0.5906
vn -0.1074 0.7744 -0.6236
vn 0.6334 0.4887 -0.6000
vn 0.6263 0.4973 -0.6004
vn -0.1075 0.7743 0.6236
vn -0.6820 0.4314 0.5906
vn -0.1074 0.7744 0.6236
vn 0.6334 0.4887 0.6001
vn 0.6263 0.4973 0.6003
vn -0.2279 0.7418 0.6307
vn -0.0019 0.6921 0.7218
vn -0.0019 0.6921 -0.7218
vn -0.4922 0.3000 -0.8171
vn -0.5107 0.2458 -0.8239
vn -0.1636 0.9865 -0.0000
vn 0.7976 0.6032 -0.0000
vn 0.3380 0.9411 -0.0000
vn -0.4609 0.8875 -0.0000
vn 0.9437 -0.3309 -0.0000
vn 0.9998 -0.0183 -0.0000
vn 0.9998 -0.0182 -0.0000
vn 0.9937 -0.1125 -0.0000
vn 0.9936 -0.1125 -0.0000
vn 0.9983 -0.0576 -0.0000
vn 0.9983 -0.0575 -0.0000
vn 0.4453 -0.8954 -0.0000
vn 0.9386 -0.3451 -0.0000
vn 0.9105 0.4135 -0.0000
vn 0.9028 -0.4300 -0.0000
vn 0.9029 -0.4299 -0.0000
vn 0.3813 -0.9245 -0.0000
vn 0.9990 0.0452 -0.0000
vn 0.9457 0.3252 -0.0000
vn 0.9457 0.3251 -0.0000
vn 0.9996 0.0295 -0.0000
vn 0.9535 0.3015 -0.0000
vn 0.5198 -0.8543 -0.0000
vn 0.9028 -0.4301 -0.0000
vn 0.9822 0.1879 -0.0000
vn 0.7314 -0.3090 -0.6079
vn 0.7271 0.2753 -0.6289
vn 0.7347 0.2517 -0.6300
vn 0.7113 -0.3546 -0.6069
vn 0.2945 -0.7090 -0.6408
vn 0.2366 -0.7258 -0.6459
vn 0.7314 -0.3090 0.6079
vn 0.2945 -0.7090 0.6408
vn 0.2366 -0.7259 0.6458
vn 0.7271 0.2753 0.6289
vn 0.7347 0.2517 0.6300
vn 0.7113 -0.3547 0.6069
vn 0.7079 -0.3530 -0.6118
vn 0.8027 -0.1314 -0.5817
vn 0.6996 -0.3684 -0.6123
vn 0.8017 -0.1391 -0.5813
vn 0.7977 -0.0839 -0.5972
vn 0.7977 -0.0838 -0.5972
vn 0.6334 0.4886 -0.6001
vn 0.6264 0.4972 -0.6004
vn 0.6996 -0.3683 0.6123
vn 0.8028 -0.1314 0.5817
vn 0.7079 -0.3530 0.6118
vn 0.8017 -0.1391 0.5813
vn 0.7977 -0.0837 0.5972
vn 0.7977 -0.0838 0.5972
vn 0.6334 0.4886 0.6001
vn 0.6263 0.4972 0.6004
vn 0.2159 -0.0693 -0.9740
vn 0.2146 -0.0849 -0.9730
vn 0.2146 -0.0848 -0.9730
vn 0.2146 -0.0849 0.9730
vn 0.2158 -0.0693 0.9740
vn 0.2146 -0.0848 0.9730
vn 0.9936 -0.1126 -0.0000
vn 0.9859 -0.1674 -0.0000
vn 0.8951 -0.4458 -0.0000
vn 0.7976 0.6031 -0.0000
vn 0.9231 -0.3845 -0.0000
vn 0.9433 0.3320 -0.0001
vn 0.4609 -0.8874 -0.0000
vn 0.4609 -0.8875 -0.0000
vn 0.2965 0.4375 -0.8489
vn 0.0993 0.4343 -0.8953
vn 0.0915 0.4350 -0.8958
vn 0.0993 0.4342 -0.8953
vn 0.2965 0.4375 -0.8490
vn -0.1878 -0.0904 -0.9780
vn -0.1576 0.0104 -0.9874
vn 0.4236 0.3047 -0.8530
vn 0.2965 0.4374 -0.8489
vn 0.4237 0.3047 -0.8530
vn 0.4871 -0.0240 -0.8730
vn 0.5002 -0.0563 -0.8641
vn 0.5213 -0.0183 -0.8532
vn 0.5221 -0.0025 -0.8529
vn 0.5222 -0.0025 -0.8528
vn 0.5001 -0.0563 -0.8641
vn 0.5001 -0.0564 -0.8641
vn 0.5221 -0.0026 -0.8529
vn 0.5161 -0.1676 -0.8400
vn 0.5213 -0.0184 -0.8532
vn -0.4969 0.0168 -0.8676
vn -0.5535 -0.0502 -0.8314
vn -0.5476 -0.0352 -0.8360
vn -0.4969 0.0168 -0.8677
vn -0.0000 -0.0000 -1.0000
vn -0.0000 0.0001 -1.0000
vn -0.0000 -0.0001 -1.0000
vn -0.6250 -0.1715 -0.7616
vn -0.6171 0.1036 -0.7801
vn -0.6178 0.0958 -0.7804
vn -0.5224 0.3586 -0.7736
vn -0.6190 -0.1879 -0.7626
vn -0.4921 0.3000 -0.8172
vn -0.5479 0.2878 -0.7855
vn -0.5651 -0.1842 -0.8042
vn -0.4922 0.3000 -0.8172
vn -0.0018 0.6920 -0.7219
vn -0.0018 0.6921 -0.7218
vn -0.0798 0.5896 -0.8037
vn -0.1791 -0.5708 -0.8013
vn -0.0642 0.5896 -0.8052
vn 0.0319 0.4866 -0.8730
vn 0.3137 -0.5271 -0.7898
vn 0.0943 0.4755 -0.8746
vn 0.5515 0.1214 -0.8253
vn 0.5651 -0.2734 -0.7784
vn 0.5664 0.0736 -0.8209
vn -0.2031 0.3919 -0.8973
vn 0.1456 0.4100 -0.9004
vn -0.2031 0.3920 -0.8973
vn -0.4240 0.1621 -0.8910
vn 0.4032 0.1391 -0.9045
vn -0.3896 -0.1791 -0.9034
vn 0.4220 -0.1775 -0.8891
vn 0.4220 -0.1775 -0.8890
vn -0.1302 -0.4247 -0.8959
vn 0.2031 -0.3919 -0.8973
vn -0.1302 -0.4246 -0.8959
vn -0.4283 -0.1687 -0.8877
vn -0.1544 -0.4314 -0.8889
vn -0.1544 -0.4313 -0.8889
vn 0.2100 -0.4173 -0.8842
vn -0.4283 -0.1688 -0.8877
vn -0.4387 0.1709 -0.8822
vn 0.4397 -0.1632 -0.8832
vn -0.2085 0.4144 -0.8859
vn 0.4213 0.1925 -0.8862
vn 0.4213 0.1925 -0.8863
vn 0.1544 0.4377 -0.8858
vn -0.0084 -0.0074 -0.9999
vn -0.0084 -0.0073 -0.9999
vn -0.2156 -0.0410 -0.9756
vn -0.1888 -0.1137 -0.9754
vn -0.1888 -0.1138 -0.9754
vn 0.0361 -0.0496 -0.9981
vn 0.0283 -0.0491 -0.9984
vn -0.2217 -0.0170 -0.9750
vn -0.2155 -0.0410 -0.9756
vn 0.2287 0.0086 -0.9735
vn 0.2158 -0.0693 -0.9740
vn 0.4871 -0.0241 -0.8730
vn 0.5002 -0.0564 -0.8641
vn -0.5922 -0.2606 -0.7625
vn -0.5476 -0.0353 -0.8360
vn -0.4344 -0.2476 -0.8660
vn -0.4969 0.0167 -0.8676
vn -0.4344 -0.2477 -0.8660
vn -0.4416 -0.2317 -0.8668
vn -0.3870 -0.2355 -0.8915
vn -0.4416 -0.2316 -0.8668
vn -0.3940 -0.2269 -0.8906
vn -0.1877 -0.0905 -0.9780
vn -0.1576 0.0103 -0.9874
vn -0.1577 0.0104 -0.9874
vn -0.3940 -0.2270 -0.8906
vn -0.3870 -0.2356 -0.8915
vn 0.4452 -0.8954 -0.0000
vn -0.3380 -0.9411 -0.0000
vn -0.9310 -0.3649 -0.0000
vn 0.3812 -0.9245 -0.0000
vn -0.3452 -0.9385 -0.0000
vn -0.9076 -0.4198 -0.0000
vn -0.9490 -0.3154 -0.0000
vn -0.3000 -0.9540 -0.0000
vn -0.3000 -0.9539 -0.0000
vn 0.5197 -0.8543 -0.0000
vn -0.7067 -0.3240 -0.6290
vn -0.3143 -0.7115 -0.6284
vn -0.6953 -0.3424 -0.6320
vn 0.2944 -0.7090 -0.6408
vn 0.2365 -0.7259 -0.6458
vn -0.3071 -0.7135 -0.6298
vn -0.3143 -0.7115 0.6284
vn -0.7067 -0.3240 0.6290
vn -0.6953 -0.3424 0.6319
vn -0.3071 -0.7135 0.6297
vn 0.2365 -0.7259 0.6458
vn 0.2944 -0.7073 0.6427
vn 0.0585 -0.7930 -0.6064
vn 0.0507 -0.7932 -0.6069
vn -0.6091 -0.5120 -0.6057
vn -0.6112 -0.5063 -0.6084
vn -0.6112 -0.5063 0.6084
vn 0.0507 -0.7932 0.6069
vn -0.6091 -0.5120 0.6057
vn 0.0585 -0.7930 0.6064
vn 0.6996 -0.3684 0.6123
vn 0.0686 -0.9976 -0.0000
vn -0.7840 -0.6208 -0.0000
vn -0.7370 -0.6759 -0.0000
vn -0.8740 -0.4859 -0.0000
vn -0.2998 -0.9540 -0.0000
vn -0.2999 -0.9540 -0.0000
vn -0.9060 -0.4233 -0.0000
vn -0.9269 0.3753 -0.0000
vn -0.4489 0.8936 -0.0000
vn -0.9385 0.3452 -0.0000
vn -0.9386 0.3451 -0.0000
vn -0.7555 -0.6552 -0.0000
vn -0.9872 0.1597 -0.0000
vn -0.8199 0.5724 -0.0000
vn -0.8200 0.5724 -0.0000
vn -0.8838 0.4679 -0.0000
vn -0.3407 0.6918 -0.6366
vn -0.7373 0.2685 -0.6199
vn -0.3407 0.6918 -0.6367
vn -0.7408 0.2537 -0.6220
vn -0.7067 -0.3239 -0.6290
vn -0.6954 -0.3423 -0.6319
vn -0.7373 0.2685 0.6199
vn -0.7067 -0.3239 0.6290
vn -0.7408 0.2537 0.6220
vn -0.3407 0.6918 0.6367
vn -0.6953 -0.3423 0.6319
vn -0.3407 0.6918 0.6366
vn -0.8059 0.0133 -0.5919
vn -0.6091 -0.5119 -0.6058
vn -0.8021 0.0132 -0.5970
vn -0.1075 0.7744 -0.6236
vn -0.6091 -0.5119 0.6057
vn -0.8059 0.0133 0.5919
vn -0.8021 0.0132 0.5970
vn -0.2218 -0.0170 -0.9750
vn -0.2218 -0.0170 0.9750
vn -0.2156 -0.0410 0.9756
vn -0.5535 -0.0502 0.8313
vn -0.5922 -0.2605 0.7625
vn -0.5922 -0.2605 -0.7625
vn -0.5535 -0.0502 -0.8313
vn -0.8614 0.5079 -0.0000
vn -0.1635 0.9865 -0.0000
vn -0.9994 0.0339 -0.0000
vn -0.7840 -0.6207 -0.0000
vn -0.9986 -0.0530 -0.0000
vn -0.8741 -0.4858 -0.0000
vn -0.9859 0.1675 -0.0000
vn -0.9859 0.1674 -0.0000
vn -0.9351 0.3543 -0.0000
vn -0.4609 0.8874 -0.0000
vn 0.2965 0.4375 0.8489
vn 0.0993 0.4343 0.8953
vn 0.2965 0.4375 0.8490
vn 0.0915 0.4350 0.8958
vn -0.1577 0.0104 0.9874
vn 0.0993 0.4342 0.8953
vn -0.1877 -0.0904 0.9781
vn 0.2965 0.4374 0.8490
vn 0.4236 0.3047 0.8530
vn 0.4237 0.3047 0.8530
vn 0.4871 -0.0240 0.8730
vn 0.5002 -0.0563 0.8641
vn 0.5221 -0.0025 0.8529
vn 0.5213 -0.0183 0.8532
vn 0.5001 -0.0564 0.8641
vn 0.5001 -0.0563 0.8641
vn 0.5161 -0.1676 0.8400
vn 0.5213 -0.0184 0.8532
vn 0.5221 -0.0026 0.8529
vn -0.5535 -0.0502 0.8314
vn -0.4969 0.0168 0.8676
vn -0.4969 0.0168 0.8677
vn -0.5535 -0.0501 0.8314
vn -0.5476 -0.0352 0.8360
vn -0.0000 -0.0000 1.0000
vn -0.0000 0.0001 1.0000
vn -0.0000 0.0003 1.0000
vn -0.0000 -0.0001 1.0000
vn -0.0018 0.6920 0.7219
vn -0.0798 0.5896 0.8037
vn -0.0642 0.5896 0.8052
vn 0.0319 0.4866 0.8730
vn 0.0943 0.4755 0.8746
vn 0.5515 0.1214 0.8253
vn 0.5664 0.0736 0.8209
vn 0.5652 -0.2734 0.7784
vn 0.3137 -0.5271 0.7898
vn -0.1791 -0.5708 0.8013
vn -0.5651 -0.1842 0.8042
vn -0.5479 0.2878 0.7855
vn -0.5224 0.3586 0.7736
vn -0.6170 0.1036 0.7801
vn -0.6178 0.0958 0.7804
vn -0.6250 -0.1715 0.7616
vn -0.6190 -0.1879 0.7626
vn -0.6040 -0.2924 0.7414
vn -0.6041 -0.2924 0.7414
vn -0.0000 -0.0002 1.0000
vn 0.1456 0.4100 0.9004
vn -0.2031 0.3920 0.8973
vn 0.4032 0.1391 0.9045
vn -0.4240 0.1621 0.8910
vn 0.4221 -0.1775 0.8890
vn -0.3896 -0.1791 0.9034
vn -0.3896 -0.1792 0.9034
vn 0.2031 -0.3919 0.8973
vn -0.1302 -0.4247 0.8959
vn -0.1302 -0.4246 0.8959
vn -0.4387 0.1709 0.8822
vn -0.4283 -0.1688 0.8877
vn -0.1544 -0.4313 0.8889
vn -0.2085 0.4144 0.8859
vn 0.2100 -0.4173 0.8842
vn 0.1544 0.4377 0.8858
vn 0.4397 -0.1632 0.8832
vn 0.4213 0.1925 0.8862
vn 0.4213 0.1925 0.8863
vn -0.0084 -0.0073 0.9999
vn -0.0084 -0.0074 0.9999
vn 0.2287 0.0086 0.9735
vn 0.0361 -0.0496 0.9981
vn 0.0283 -0.0491 0.9984
vn -0.1888 -0.1138 0.9754
vn -0.2156 -0.0411 0.9756
vn -0.2217 -0.0170 0.9750
vn -0.2155 -0.0411 0.9756
vn 0.2159 -0.0693 0.9740
vn -0.4416 -0.2316 0.8668
vn -0.3870 -0.2355 0.8915
vn -0.3871 -0.2355 0.8915
vn -0.3940 -0.2269 0.8907
vn 0.4871 -0.0241 0.8730
vn -0.5477 -0.0353 0.8360
vn -0.4344 -0.2476 0.8660
vn -0.4969 0.0167 0.8676
vn -0.4344 -0.2477 0.8660
vn -0.4416 -0.2317 0.8668
vn -0.1877 -0.0905 0.9780
vn -0.3870 -0.2356 0.8915
vn -0.1577 0.0103 0.9874
vn -0.3940 -0.2270 0.8906
vt -0.539658 -0.371547
vt -0.537523 -0.406202
vt -0.538235 -0.371547
vt -0.536812 -0.371547
vt -0.535388 -0.371547
vt -0.539658 -0.315894
vt -0.539658 -0.340075
vt -0.538235 -0.315894
vt -0.538235 -0.340075
vt -0.536812 -0.315894
vt -0.536812 -0.340075
vt -0.535388 -0.315894
vt -0.535388 -0.340075
vt -0.534669 -0.376179
vt -0.534669 -0.367721
vt -0.540378 -0.376179
vt -0.540378 -0.367721
vt -0.534669 -0.357775
vt -0.540378 -0.357775
vt -0.534507 -0.347572
vt -0.534507 -0.338443
vt -0.540539 -0.338443
vt -0.540539 -0.335946
vt -0.540539 -0.347572
vt -0.534507 -0.335946
vt -0.533604 -0.298129
vt -0.541443 -0.298129
vt -0.541443 -0.305694
vt -0.533604 -0.305694
vt -0.541443 -0.325212
vt -0.533604 -0.325212
vt -0.537523 -0.344807
vt -0.544116 -0.339329
vt -0.544116 -0.334502
vt -0.544116 -0.350234
vt -0.530931 -0.339329
vt -0.530931 -0.334502
vt -0.530931 -0.350234
vt -0.540539 -0.318638
vt -0.544116 -0.313927
vt -0.544116 -0.318128
vt -0.540539 -0.329829
vt -0.544116 -0.331820
vt -0.530931 -0.318128
vt -0.530931 -0.313927
vt -0.534507 -0.318638
vt -0.534507 -0.329829
vt -0.530931 -0.331820
vt -0.530931 -0.336362
vt -0.544116 -0.336362
vt -0.534558 -0.359358
vt -0.534558 -0.339418
vt -0.540489 -0.339418
vt -0.540489 -0.359358
vt -0.534558 -0.377864
vt -0.540489 -0.377864
vt -0.549056 -0.351064
vt -0.560411 -0.349641
vt -0.560411 -0.351064
vt -0.549056 -0.349641
vt -0.602158 -0.349641
vt -0.602158 -0.351064
vt -0.560411 -0.348217
vt -0.549056 -0.348217
vt -0.560411 -0.346794
vt -0.549056 -0.346794
vt -0.602158 -0.346794
vt -0.602158 -0.348217
vt -0.607311 -0.346794
vt -0.607311 -0.348217
vt -0.607311 -0.349641
vt -0.607311 -0.351064
vt -0.629480 -0.351064
vt -0.629480 -0.349641
vt -0.629480 -0.348217
vt -0.629480 -0.346794
vt -0.448798 -0.351784
vt -0.440961 -0.351784
vt -0.448798 -0.346074
vt -0.440961 -0.346074
vt -0.432333 -0.351784
vt -0.432333 -0.346074
vt -0.466959 -0.345913
vt -0.470347 -0.351945
vt -0.466959 -0.351945
vt -0.470347 -0.345913
vt -0.484074 -0.351945
vt -0.484074 -0.345913
vt -0.586803 -0.351949
vt -0.610360 -0.345909
vt -0.610360 -0.351949
vt -0.586803 -0.345909
vt -0.561798 -0.345909
vt -0.561798 -0.351949
vt -0.554865 -0.345909
vt -0.554865 -0.351949
vt -0.449691 -0.345009
vt -0.475663 -0.345009
vt -0.449691 -0.352849
vt -0.475663 -0.352849
vt -0.551047 -0.345009
vt -0.551047 -0.352849
vt -0.556860 -0.345009
vt -0.556860 -0.352849
vt -0.470649 -0.342337
vt -0.466130 -0.342337
vt -0.487341 -0.342337
vt -0.470649 -0.355521
vt -0.487341 -0.355521
vt -0.466130 -0.355521
vt -0.541876 -0.345913
vt -0.522492 -0.342337
vt -0.543097 -0.342337
vt -0.522046 -0.345913
vt -0.498632 -0.342337
vt -0.498554 -0.345913
vt -0.494886 -0.345913
vt -0.493075 -0.342337
vt -0.543097 -0.355521
vt -0.522492 -0.355521
vt -0.541876 -0.351945
vt -0.522046 -0.351945
vt -0.498632 -0.355521
vt -0.498554 -0.351945
vt -0.494886 -0.351945
vt -0.493075 -0.355521
vt -0.561693 -0.344773
vt -0.553169 -0.346794
vt -0.552934 -0.344773
vt -0.553169 -0.351064
vt -0.561692 -0.353085
vt -0.552934 -0.353085
vt -0.431940 -0.345963
vt -0.446734 -0.351895
vt -0.431940 -0.351895
vt -0.415494 -0.351895
vt -0.446734 -0.345963
vt -0.415494 -0.345963
vt -0.426760 -0.340075
vt -0.417171 -0.372194
vt -0.413966 -0.371547
vt -0.429568 -0.341696
vt -0.413136 -0.406202
vt -0.416973 -0.388282
vt -0.445567 -0.315894
vt -0.447662 -0.318433
vt -0.467735 -0.304627
vt -0.467772 -0.308212
vt -0.472888 -0.307115
vt -0.514636 -0.291656
vt -0.514580 -0.295086
vt -0.472702 -0.310592
vt -0.525991 -0.294765
vt -0.525991 -0.297811
vt -0.489615 -0.341813
vt -0.516574 -0.341006
vt -0.517135 -0.348242
vt -0.489332 -0.334596
vt -0.577287 -0.337672
vt -0.581972 -0.331820
vt -0.587706 -0.336449
vt -0.588322 -0.331725
vt -0.587378 -0.318128
vt -0.576415 -0.333426
vt -0.595184 -0.322237
vt -0.596530 -0.355530
vt -0.552355 -0.328868
vt -0.604398 -0.350131
vt -0.552555 -0.325006
vt -0.609871 -0.356864
vt -0.531949 -0.327531
vt -0.608917 -0.350234
vt -0.618610 -0.339329
vt -0.625440 -0.338464
vt -0.618097 -0.334502
vt -0.622521 -0.326057
vt -0.600729 -0.321724
vt -0.530883 -0.331949
vt -0.598187 -0.309995
vt -0.521199 -0.325443
vt -0.524435 -0.336362
vt -0.528494 -0.322718
vt -0.527916 -0.305158
vt -0.534957 -0.305919
vt -0.583405 -0.313927
vt -0.538693 -0.304635
vt -0.525652 -0.296921
vt -0.522877 -0.299117
vt -0.532757 -0.335055
vt -0.551898 -0.332113
vt -0.575590 -0.340479
vt -0.522923 -0.344807
vt -0.595136 -0.358619
vt -0.517865 -0.325212
vt -0.611232 -0.360228
vt -0.524303 -0.305694
vt -0.628938 -0.339304
vt -0.625355 -0.324079
vt -0.518187 -0.298129
vt -0.523999 -0.293275
vt -0.599384 -0.306935
vt -0.642079 -0.343249
vt -0.630871 -0.349109
vt -0.629645 -0.342534
vt -0.621610 -0.360025
vt -0.641534 -0.348872
vt -0.614559 -0.360267
vt -0.656716 -0.353418
vt -0.623396 -0.372497
vt -0.651035 -0.356116
vt -0.617010 -0.376161
vt -0.658753 -0.369241
vt -0.630390 -0.385979
vt -0.652735 -0.368607
vt -0.633160 -0.380131
vt -0.647658 -0.385279
vt -0.644273 -0.379084
vt -0.614203 -0.377864
vt -0.611349 -0.359358
vt -0.629451 -0.389053
vt -0.628312 -0.339418
vt -0.643107 -0.340270
vt -0.649292 -0.388249
vt -0.661911 -0.370009
vt -0.659553 -0.351695
vt -0.624778 -0.360938
vt -0.632290 -0.352085
vt -0.626249 -0.370846
vt -0.640514 -0.352007
vt -0.634086 -0.376968
vt -0.648186 -0.357775
vt -0.642713 -0.376179
vt -0.649560 -0.367721
vt -0.523238 -0.335248
vt -0.524359 -0.338961
vt -0.513354 -0.333047
vt -0.522113 -0.331526
vt -0.488734 -0.328508
vt -0.459813 -0.344027
vt -0.451231 -0.342168
vt -0.453226 -0.351668
vt -0.432606 -0.356754
vt -0.474886 -0.315080
vt -0.509817 -0.302650
vt -0.525991 -0.304539
vt -0.525991 -0.300081
vt -0.477810 -0.319431
vt -0.464686 -0.333124
vt -0.510403 -0.307838
vt -0.525991 -0.309390
vt -0.525991 -0.305174
vt -0.488244 -0.323264
vt -0.513249 -0.327843
vt -0.521878 -0.330748
vt -0.520181 -0.325132
vt -0.525366 -0.341954
vt -0.463799 -0.350056
vt -0.457023 -0.357857
vt -0.437100 -0.362669
vt -0.534669 -0.370846
vt -0.534669 -0.360938
vt -0.540378 -0.370846
vt -0.540378 -0.360938
vt -0.534669 -0.352085
vt -0.540378 -0.352085
vt -0.540539 -0.335686
vt -0.534507 -0.335686
vt -0.540539 -0.332795
vt -0.540539 -0.324642
vt -0.534507 -0.332795
vt -0.534507 -0.324642
vt -0.533604 -0.360228
vt -0.533604 -0.339304
vt -0.541443 -0.360228
vt -0.541443 -0.339304
vt -0.533604 -0.324079
vt -0.541443 -0.324079
vt -0.530931 -0.331725
vt -0.530931 -0.322237
vt -0.530931 -0.336449
vt -0.544116 -0.331725
vt -0.544116 -0.322237
vt -0.544116 -0.336449
vt -0.534507 -0.322448
vt -0.534507 -0.325132
vt -0.530931 -0.322718
vt -0.534507 -0.307907
vt -0.530931 -0.327531
vt -0.530931 -0.305919
vt -0.544116 -0.305919
vt -0.544116 -0.322718
vt -0.540539 -0.307907
vt -0.540539 -0.322448
vt -0.540539 -0.325132
vt -0.544116 -0.327531
vt -0.540543 -0.333124
vt -0.534503 -0.319431
vt -0.540543 -0.319431
vt -0.534503 -0.333124
vt -0.540489 -0.351695
vt -0.534558 -0.370009
vt -0.534558 -0.351695
vt -0.540489 -0.370009
vt -0.534558 -0.388249
vt -0.540489 -0.388249
vt -0.640514 -0.351784
vt -0.632290 -0.351784
vt -0.632290 -0.346074
vt -0.640514 -0.346074
vt -0.648186 -0.351784
vt -0.648186 -0.346074
vt -0.615561 -0.351945
vt -0.599812 -0.345913
vt -0.615561 -0.345913
vt -0.599812 -0.351945
vt -0.596785 -0.351945
vt -0.596785 -0.345913
vt -0.522923 -0.348929
vt -0.532757 -0.345009
vt -0.532757 -0.352849
vt -0.551898 -0.345009
vt -0.551898 -0.352849
vt -0.575590 -0.345009
vt -0.575590 -0.352849
vt -0.595136 -0.345009
vt -0.595136 -0.352849
vt -0.611232 -0.345009
vt -0.611232 -0.352849
vt -0.600729 -0.342337
vt -0.618097 -0.342337
vt -0.595184 -0.342337
vt -0.600729 -0.355521
vt -0.595184 -0.355521
vt -0.618097 -0.355521
vt -0.538693 -0.342337
vt -0.536771 -0.345913
vt -0.534957 -0.342337
vt -0.538862 -0.345913
vt -0.582093 -0.345913
vt -0.583405 -0.342337
vt -0.584735 -0.345913
vt -0.536771 -0.351945
vt -0.538693 -0.355521
vt -0.534957 -0.355521
vt -0.538862 -0.351945
vt -0.582093 -0.351945
vt -0.583405 -0.355521
vt -0.584735 -0.351945
vt -0.510403 -0.345909
vt -0.525991 -0.344773
vt -0.525991 -0.346794
vt -0.525991 -0.353085
vt -0.510403 -0.351949
vt -0.525991 -0.351064
vt -0.516574 -0.353085
vt -0.525366 -0.348929
vt -0.524359 -0.353085
vt -0.516574 -0.344773
vt -0.524359 -0.344773
vt -0.477810 -0.351949
vt -0.477810 -0.345909
vt -0.525991 -0.351949
vt -0.525991 -0.345909
vt -0.629451 -0.351895
vt -0.614203 -0.351895
vt -0.614203 -0.345963
vt -0.649292 -0.351895
vt -0.629451 -0.345963
vt -0.649292 -0.345963
vt -0.648287 -0.340075
vt -0.657876 -0.372194
vt -0.645478 -0.341696
vt -0.661081 -0.371547
vt -0.658073 -0.388282
vt -0.661911 -0.406202
vt -0.627385 -0.318433
vt -0.629480 -0.315894
vt -0.607275 -0.308212
vt -0.607311 -0.304627
vt -0.602158 -0.307115
vt -0.560466 -0.295086
vt -0.560411 -0.291656
vt -0.602345 -0.310592
vt -0.549056 -0.294765
vt -0.549056 -0.297811
vt -0.558472 -0.341006
vt -0.585714 -0.334596
vt -0.585432 -0.341813
vt -0.557911 -0.348242
vt -0.543097 -0.327531
vt -0.553848 -0.325443
vt -0.544163 -0.331949
vt -0.550612 -0.336362
vt -0.522692 -0.328868
vt -0.546553 -0.322718
vt -0.522492 -0.325006
vt -0.547130 -0.305158
vt -0.498632 -0.333426
vt -0.497759 -0.337672
vt -0.540090 -0.305919
vt -0.493075 -0.331820
vt -0.549395 -0.296921
vt -0.552170 -0.299117
vt -0.536354 -0.304635
vt -0.476859 -0.309995
vt -0.491642 -0.313927
vt -0.487669 -0.318128
vt -0.487341 -0.336449
vt -0.478517 -0.355530
vt -0.486724 -0.331725
vt -0.470649 -0.350131
vt -0.479863 -0.322237
vt -0.474317 -0.321724
vt -0.465176 -0.356864
vt -0.452526 -0.326057
vt -0.466130 -0.350234
vt -0.456950 -0.334502
vt -0.456437 -0.339329
vt -0.449607 -0.338464
vt -0.557182 -0.325212
vt -0.550743 -0.305694
vt -0.556860 -0.298129
vt -0.551047 -0.293275
vt -0.475663 -0.306935
vt -0.449691 -0.324079
vt -0.446109 -0.339304
vt -0.463815 -0.360228
vt -0.479911 -0.358619
vt -0.499457 -0.340479
vt -0.523149 -0.332113
vt -0.542289 -0.335055
vt -0.552124 -0.344807
vt -0.424012 -0.356116
vt -0.416294 -0.369241
vt -0.418330 -0.353418
vt -0.422311 -0.368607
vt -0.433513 -0.348872
vt -0.427389 -0.385279
vt -0.432968 -0.343249
vt -0.430774 -0.379084
vt -0.444175 -0.349109
vt -0.441887 -0.380131
vt -0.445402 -0.342534
vt -0.444657 -0.385979
vt -0.453436 -0.360025
vt -0.451651 -0.372497
vt -0.460488 -0.360267
vt -0.458037 -0.376161
vt -0.463698 -0.359358
vt -0.460843 -0.377864
vt -0.445596 -0.389053
vt -0.446734 -0.339418
vt -0.431940 -0.340270
vt -0.425754 -0.388249
vt -0.413136 -0.370009
vt -0.415494 -0.351695
vt -0.442757 -0.352085
vt -0.434533 -0.352007
vt -0.450269 -0.360938
vt -0.426861 -0.357775
vt -0.425487 -0.367721
vt -0.448798 -0.370846
vt -0.440961 -0.376968
vt -0.432333 -0.376179
vt -0.600161 -0.315080
vt -0.565229 -0.302650
vt -0.549056 -0.304539
vt -0.549056 -0.300081
vt -0.623816 -0.342168
vt -0.642440 -0.356754
vt -0.621820 -0.351668
vt -0.615234 -0.344027
vt -0.586313 -0.328508
vt -0.561692 -0.333047
vt -0.551809 -0.335248
vt -0.552934 -0.331526
vt -0.550687 -0.338961
vt -0.561798 -0.327843
vt -0.586803 -0.323264
vt -0.610360 -0.333124
vt -0.597236 -0.319431
vt -0.564643 -0.307838
vt -0.549056 -0.305174
vt -0.549056 -0.309390
vt -0.553169 -0.330748
vt -0.554865 -0.325132
vt -0.637947 -0.362669
vt -0.618024 -0.357857
vt -0.549681 -0.341954
vt -0.611248 -0.350056
s 1
usemtl 
f 1/1/1 2/2/2 3/3/1
f 2/2/2 4/4/1 3/3/1
f 2/2/2 5/5/1 4/4/1
f 9/6/3 10/7/4 8/8/3
f 11/9/5 8/8/3 10/7/4
f 8/8/3 11/9/5 7/10/3
f 10/7/4 12/1/1 11/9/5
f 13/3/1 11/9/5 12/1/1
f 14/11/5 7/10/3 11/9/5
f 11/9/5 13/3/1 14/11/5
f 7/10/3 14/11/5 6/12/3
f 15/4/1 14/11/5 13/3/1
f 16/13/5 6/12/3 14/11/5
f 14/11/5 15/4/1 16/13/5
f 17/5/1 16/13/5 15/4/1
f 18/14/6 20/15/7 19/16/6
f 20/15/7 22/17/8 19/16/6
f 20/15/7 21/18/9 22/17/8
f 23/19/9 22/17/8 21/18/9
f 24/20/10 25/21/11 26/22/11
f 25/21/11 27/23/12 26/22/11
f 24/20/10 26/22/11 28/24/10
f 27/23/12 25/21/11 29/25/13
f 31/26/14 30/27/14 32/28/15
f 33/29/15 31/26/14 32/28/15
f 32/28/15 34/30/16 33/29/15
f 35/31/16 33/29/15 34/30/16
f 36/32/17 35/31/16 34/30/16
f 37/23/18 38/33/19 39/22/19
f 40/24/20 39/22/19 38/33/19
f 38/33/19 37/23/18 41/34/18
f 38/33/19 42/35/21 40/24/20
f 43/25/22 45/36/23 44/37/24
f 45/36/23 43/25/22 46/21/25
f 47/20/26 45/36/23 46/21/25
f 45/36/23 47/20/26 48/38/27
f 51/39/28 49/40/29 53/41/30
f 50/42/31 53/41/30 52/43/32
f 53/41/30 50/42/31 51/39/28
f 56/44/33 54/45/34 55/46/35
f 57/47/36 56/44/33 55/46/35
f 58/48/37 56/44/33 57/47/36
f 59/49/38 60/31/39 61/32/38
f 64/30/40 62/50/41 63/32/42
f 67/46/43 66/42/44 65/47/44
f 66/42/44 67/46/43 68/39/43
f 71/51/45 69/52/10 70/53/10
f 71/51/45 70/53/10 72/54/45
f 73/55/46 71/51/45 72/54/45
f 73/55/46 72/54/45 74/56/46
f 75/57/47 76/58/48 77/59/49
f 76/58/48 75/57/47 78/60/47
f 79/61/50 77/59/49 76/58/48
f 77/59/49 79/61/50 80/62/50
f 78/60/47 81/63/49 76/58/48
f 81/63/49 78/60/47 82/64/47
f 82/64/47 83/65/48 81/63/49
f 83/65/48 82/64/47 84/66/47
f 85/67/51 81/63/49 83/65/48
f 86/68/50 76/58/48 81/63/49
f 81/63/49 85/67/51 86/68/50
f 76/58/48 86/68/50 79/61/50
f 87/69/52 86/68/50 85/67/51
f 88/70/52 79/61/50 86/68/50
f 86/68/50 87/69/52 88/70/52
f 89/71/53 80/62/50 79/61/50
f 79/61/50 88/70/52 89/71/53
f 80/62/50 89/71/53 90/72/53
f 89/71/53 91/73/3 90/72/53
f 88/70/52 92/74/3 89/71/53
f 91/73/3 89/71/53 92/74/3
f 87/69/52 93/75/3 88/70/52
f 92/74/3 88/70/52 93/75/3
f 93/75/3 87/69/52 94/76/3
f 96/77/54 97/78/55 95/79/54
f 97/78/55 98/80/55 95/79/54
f 97/78/55 99/81/6 98/80/55
f 99/81/6 100/82/56 98/80/55
f 102/83/10 103/84/57 101/85/10
f 103/84/57 102/83/10 104/86/58
f 105/87/59 103/84/57 104/86/58
f 105/87/59 104/86/58 106/88/59
f 107/89/60 108/90/61 109/91/62
f 108/90/61 107/89/60 110/92/60
f 107/89/60 111/93/63 110/92/60
f 111/93/63 107/89/60 112/94/63
f 112/94/63 113/95/64 111/93/63
f 113/95/64 112/94/63 114/96/64
f 115/97/65 117/98/57 116/99/65
f 118/100/66 116/99/65 117/98/57
f 117/98/57 119/101/67 118/100/66
f 120/102/67 118/100/66 119/101/67
f 120/102/67 119/101/67 121/103/14
f 122/104/14 120/102/67 121/103/14
f 125/105/68 123/83/69 124/106/70
f 123/83/69 125/105/68 126/86/71
f 127/88/72 126/86/71 125/105/68
f 125/105/68 128/107/73 127/88/72
f 133/108/74 131/87/75 129/109/76
f 130/85/77 133/108/74 132/110/78
f 131/87/75 133/108/74 134/84/79
f 133/108/74 130/85/77 134/84/79
f 135/111/80 137/112/81 136/113/82
f 137/112/81 135/111/80 138/114/83
f 138/114/83 139/115/84 137/112/81
f 139/115/84 138/114/83 140/116/85
f 141/117/86 139/115/84 140/116/85
f 139/115/84 141/117/86 142/118/87
f 144/119/88 145/120/89 143/121/90
f 146/122/91 143/121/90 145/120/89
f 147/123/92 146/122/91 145/120/89
f 146/122/91 147/123/92 149/124/93
f 147/123/92 148/125/94 149/124/93
f 148/125/94 147/123/92 150/126/95
f 151/127/96 152/128/97 153/129/98
f 155/130/99 154/131/100 156/132/101
f 157/124/102 158/114/103 159/122/103
f 158/114/103 160/111/104 159/122/103
f 158/114/103 157/124/102 161/116/50
f 162/121/104 159/122/103 160/111/104
f 163/125/105 161/116/50 157/124/102
f 161/116/50 163/125/105 164/117/44
f 165/133/106 166/134/107 167/135/106
f 168/136/108 165/133/106 167/135/106
f 166/134/107 165/133/106 169/137/10
f 165/133/106 168/136/108 170/138/109
f 171/139/110 172/140/111 173/141/112
f 174/140/113 175/139/114 176/142/114
f 177/143/115 178/141/112 179/144/116
f 179/144/116 178/141/112 180/140/113
f 181/139/110 182/145/117 183/146/117
f 184/139/118 185/146/117 186/142/110
f 187/145/119 188/147/120 189/148/120
f 189/148/120 190/146/119 187/145/119
f 191/149/121 192/150/122 193/151/123
f 194/151/124 195/152/125 196/149/126
f 197/151/127 198/153/128 199/154/128
f 198/153/128 197/151/127 200/150/129
f 201/155/130 202/156/131 203/157/132
f 202/156/131 201/155/130 204/158/133
f 205/159/134 206/160/134 207/161/134
f 207/161/134 206/160/134 208/162/134
f 206/160/134 209/163/135 208/162/134
f 206/160/134 205/159/134 210/164/134
f 208/162/134 209/163/135 211/165/134
f 207/161/134 212/166/134 205/159/134
f 213/167/134 210/164/134 205/159/134
f 212/166/134 207/161/134 214/168/134
f 210/164/134 213/167/134 215/169/134
f 212/166/134 214/168/134 216/170/134
f 213/167/134 217/171/134 215/169/134
f 216/170/134 214/168/134 218/172/134
f 219/173/134 216/170/134 218/172/134
f 216/170/134 219/173/134 220/174/134
f 221/175/134 220/174/134 219/173/134
f 220/174/134 221/175/134 222/176/134
f 223/177/136 222/176/134 221/175/134
f 217/171/134 213/167/134 224/178/134
f 222/176/134 223/177/136 225/179/134
f 224/178/134 226/180/134 217/171/134
f 226/180/134 224/178/134 227/181/134
f 217/171/134 226/180/134 228/182/134
f 229/183/135 228/182/134 226/180/134
f 211/165/134 225/179/134 223/177/136
f 228/182/134 229/183/135 230/184/134
f 225/179/134 211/165/134 209/163/135
f 225/179/134 209/163/135 231/185/134
f 232/186/134 225/179/134 231/185/134
f 233/187/135 225/179/134 232/186/134
f 230/184/134 233/187/135 232/186/134
f 229/183/135 233/187/135 230/184/134
f 233/187/135 229/183/135 234/188/136
f 235/189/137 236/167/138 237/190/139
f 238/191/140 237/190/139 236/167/138
f 236/167/138 235/189/137 239/178/141
f 236/167/138 240/159/140 238/191/140
f 235/189/137 241/181/142 239/178/141
f 242/166/143 238/191/140 240/159/140
f 235/189/137 243/192/42 241/181/142
f 238/191/140 242/166/143 244/193/143
f 246/170/144 244/193/143 242/166/143
f 241/181/145 245/194/146 247/180/147
f 244/193/143 246/170/144 248/195/144
f 249/196/148 247/180/147 245/194/146
f 246/170/144 250/197/149 248/195/144
f 247/180/147 249/196/148 251/183/150
f 250/197/149 246/170/144 252/174/149
f 253/188/151 251/183/150 249/196/148
f 254/198/152 250/197/149 252/174/149
f 253/188/151 249/196/148 255/199/153
f 254/198/152 252/174/149 256/176/152
f 257/200/154 253/188/151 255/199/153
f 258/201/155 254/198/152 256/176/152
f 253/188/151 257/200/154 259/187/156
f 258/201/155 259/187/156 257/200/154
f 259/187/156 258/201/155 260/179/155
f 258/201/155 256/176/152 260/179/155
f 261/202/134 262/203/135 263/204/134
f 264/205/136 263/204/134 262/203/135
f 262/203/135 261/202/134 265/206/134
f 263/204/134 264/205/136 266/207/136
f 267/208/134 265/206/134 261/202/134
f 268/209/134 266/207/136 264/205/136
f 265/206/134 267/208/134 269/210/134
f 266/207/136 268/209/134 270/211/134
f 271/212/135 269/210/134 267/208/134
f 272/213/134 270/211/134 268/209/134
f 273/214/134 269/210/134 271/212/135
f 272/213/134 268/209/134 274/215/134
f 275/216/134 273/214/134 271/212/135
f 275/216/134 272/213/134 274/215/134
f 273/214/134 275/216/134 276/217/136
f 275/216/134 274/215/134 276/217/136
f 277/218/157 278/207/158 279/211/159
f 278/207/158 277/218/157 280/219/158
f 279/211/159 281/220/160 277/218/157
f 280/219/158 282/204/161 278/207/158
f 281/220/160 279/211/159 283/213/160
f 282/204/161 280/219/158 284/221/161
f 285/216/162 281/220/160 283/213/160
f 284/221/161 286/222/163 282/204/161
f 287/223/162 281/220/160 285/216/162
f 282/204/161 286/222/163 288/202/164
f 285/216/162 289/224/165 287/223/162
f 286/222/163 290/208/166 288/202/164
f 289/224/165 285/216/162 291/212/167
f 291/212/167 290/208/166 289/224/165
f 290/208/166 286/222/163 292/225/166
f 289/224/165 290/208/166 292/225/166
f 293/203/168 294/226/169 295/205/170
f 294/226/169 296/209/171 295/205/170
f 294/226/169 293/203/168 297/227/172
f 296/209/171 294/226/169 298/228/171
f 299/206/173 297/227/172 293/203/168
f 298/228/171 300/215/174 296/209/171
f 297/227/172 299/206/173 301/229/173
f 300/215/174 298/228/171 302/230/174
f 303/231/175 301/229/173 299/206/173
f 304/232/176 300/215/174 302/230/174
f 299/206/173 305/210/175 303/231/175
f 306/217/177 300/215/174 304/232/176
f 305/210/175 307/233/178 303/231/175
f 307/233/178 306/217/177 304/232/176
f 307/233/178 305/210/175 308/214/178
f 308/214/178 306/217/177 307/233/178
f 309/156/179 310/234/180 311/235/180
f 309/156/179 312/236/180 310/234/180
f 310/234/180 312/236/180 313/237/179
f 314/158/180 312/236/180 309/156/179
f 312/236/180 314/158/180 315/238/180
f 314/158/180 316/239/180 315/238/180
f 317/240/180 315/238/180 316/239/180
f 318/241/180 317/240/180 316/239/180
f 319/242/179 317/240/180 318/241/180
f 319/242/179 320/144/179 321/140/180
f 322/142/180 319/242/179 321/140/180
f 317/240/180 319/242/179 322/142/180
f 322/142/180 323/146/180 317/240/180
f 324/243/179 317/240/180 323/146/180
f 325/148/180 324/243/179 323/146/180
f 324/243/179 325/148/180 326/152/180
f 327/244/180 324/243/179 326/152/180
f 327/244/180 326/152/180 328/151/180
f 328/151/180 329/245/180 327/244/180
f 329/245/180 328/151/180 330/246/179
f 330/246/179 328/151/180 331/154/180
f 332/244/181 333/247/182 334/243/183
f 333/247/182 335/248/184 334/243/183
f 333/247/182 332/244/181 336/249/181
f 337/240/185 334/243/183 335/248/184
f 338/245/186 336/249/181 332/244/181
f 340/250/186 336/249/187 339/251/186
f 341/238/188 337/240/185 335/248/184
f 341/238/188 335/248/184 342/252/188
f 342/252/188 343/253/189 341/238/188
f 344/236/96 341/238/188 343/253/189
f 345/254/98 344/236/96 343/253/189
f 345/254/98 343/253/189 346/255/98
f 347/148/190 348/149/126 349/152/191
f 350/149/126 351/148/190 352/147/190
f 353/256/192 354/157/193 355/156/131
f 356/257/194 357/158/195 358/155/195
f 357/158/195 356/257/194 359/239/196
f 360/241/197 361/257/196 362/258/197
f 363/259/198 364/241/199 362/258/199
f 364/241/199 363/259/198 365/242/200
f 366/257/196 367/241/197 368/239/196
f 369/259/198 370/143/201 371/144/202
f 372/144/203 373/242/204 374/259/205
f 375/260/206 376/261/207 377/262/206
f 378/263/207 377/262/206 376/261/207
f 378/263/207 376/261/207 379/264/208
f 380/265/208 378/263/207 379/264/208
f 381/266/59 383/267/209 385/268/210
f 382/269/211 386/270/210 384/271/211
f 385/268/210 383/267/209 386/270/210
f 385/268/210 386/270/210 382/269/211
f 387/272/212 389/273/213 388/274/212
f 390/275/214 388/274/212 389/273/213
f 389/273/213 391/276/215 390/275/214
f 392/277/215 390/275/214 391/276/215
f 393/271/216 397/278/217 395/279/218
f 394/267/219 396/280/220 398/270/221
f 393/271/216 398/270/221 397/278/217
f 398/270/221 396/280/220 397/278/217
f 401/281/222 399/269/223 400/282/224
f 399/269/223 401/281/222 402/268/225
f 403/283/226 402/268/225 401/281/222
f 402/268/225 403/283/226 404/266/227
f 405/284/228 406/285/80 407/286/229
f 407/286/229 408/287/230 405/284/228
f 406/285/80 409/288/82 407/286/229
f 408/287/230 407/286/229 410/289/231
f 411/290/232 412/291/233 413/292/234
f 413/292/234 412/291/233 414/293/235
f 412/291/233 415/294/90 414/293/235
f 415/294/90 412/291/233 416/295/236
f 418/294/104 417/285/104 419/284/237
f 419/284/237 420/293/237 418/294/104
f 421/287/238 420/293/237 419/284/237
f 420/293/237 421/287/238 422/292/238
f 423/296/239 424/297/240 425/298/240
f 424/297/240 423/296/239 426/299/239
f 427/300/109 429/301/241 428/302/109
f 427/300/109 430/303/242 429/301/241
f 430/303/242 431/304/243 429/301/241
f 431/304/243 430/303/242 432/305/243
f 435/306/244 434/307/208 433/308/208
f 435/306/244 433/308/208 436/309/244
f 437/310/245 435/306/244 436/309/244
f 437/310/245 436/309/244 438/311/245
f 440/312/12 441/313/246 439/314/12
f 440/312/12 442/315/247 441/313/246
f 443/316/211 441/313/246 442/315/247
f 441/313/246 443/316/211 444/317/211
f 445/318/248 446/319/208 447/320/208
f 446/319/208 448/321/249 447/320/208
f 449/322/249 447/320/208 448/321/249
f 448/321/249 450/323/250 449/322/249
f 451/324/251 449/322/249 450/323/250
f 450/323/250 452/325/252 451/324/251
f 453/326/252 451/324/251 452/325/252
f 452/325/252 454/327/212 453/326/252
f 455/328/212 453/326/252 454/327/212
f 456/314/253 458/329/254 457/330/255
f 456/314/253 459/313/256 458/329/254
f 460/317/257 458/329/254 459/313/256
f 458/329/254 460/317/257 461/331/258
f 462/332/259 463/316/260 464/315/261
f 465/312/262 462/332/259 464/315/261
f 463/316/260 462/332/259 466/333/263
f 462/332/259 465/312/262 467/334/264
f 470/335/265 468/336/266 469/337/231
f 468/336/266 470/335/265 471/338/267
f 470/335/265 472/339/29 471/338/267
f 472/339/29 470/335/265 473/340/29
f 473/340/29 474/341/268 472/339/29
f 476/342/269 477/343/270 475/344/232
f 477/343/270 476/342/269 478/345/271
f 478/345/271 479/346/34 477/343/270
f 480/347/34 477/343/270 479/346/34
f 481/348/33 480/347/34 479/346/34
f 482/349/181 483/350/272 484/351/272
f 486/352/273 485/353/274 487/354/273
f 488/355/275 489/356/276 490/357/276
f 491/356/277 492/358/278 493/359/277
f 498/346/279 496/341/280 494/348/280
f 499/338/281 497/342/238 495/336/282
f 496/341/280 498/346/279 500/339/279
f 497/342/238 499/338/281 501/345/281
f 498/346/279 501/345/281 500/339/279
f 499/338/281 500/339/279 501/345/281
f 504/353/283 503/360/284 502/361/284
f 504/353/283 502/361/284 505/349/283
f 506/362/285 504/353/283 505/349/283
f 506/362/285 505/349/283 507/363/286
f 512/364/287 508/365/288 510/366/288
f 511/367/243 513/368/287 509/369/243
f 512/364/287 510/366/288 513/368/287
f 513/368/287 511/367/243 512/364/287
f 514/370/289 515/371/290 516/372/291
f 515/371/290 514/370/289 517/373/292
f 518/373/292 519/374/293 520/371/294
f 518/373/292 521/375/295 519/374/293
f 522/370/296 523/376/297 524/377/297
f 523/376/297 522/370/296 525/372/289
f 526/377/298 527/378/299 528/379/299
f 527/378/299 526/377/298 529/376/298
f 530/380/300 531/381/301 532/382/302
f 533/381/301 534/380/303 535/383/304
f 536/384/305 537/382/306 538/381/307
f 536/384/305 538/381/307 539/385/305
f 540/386/308 541/387/309 542/388/310
f 543/386/311 544/388/309 545/389/312
f 546/390/313 547/391/313 548/392/313
f 548/392/313 547/391/313 549/393/313
f 550/394/313 546/390/313 548/392/313
f 547/391/313 546/390/313 551/395/313
f 546/390/313 550/394/313 552/396/313
f 553/397/314 547/391/313 551/395/313
f 550/394/313 554/398/313 552/396/313
f 554/398/313 550/394/313 555/399/313
f 551/395/313 556/400/313 553/397/314
f 555/399/313 557/401/313 554/398/313
f 558/402/314 553/397/314 556/400/313
f 553/397/314 558/402/314 559/403/315
f 560/404/313 558/402/314 556/400/313
f 561/405/313 558/402/314 560/404/313
f 561/405/313 560/404/313 562/406/314
f 561/405/313 562/406/314 563/407/313
f 564/408/313 557/401/313 555/399/313
f 565/409/313 564/408/313 555/399/313
f 557/401/313 564/408/313 566/410/313
f 566/410/313 563/407/313 557/401/313
f 564/408/313 565/409/313 567/411/313
f 563/407/313 566/410/313 568/412/316
f 568/412/316 561/405/313 563/407/313
f 568/412/316 569/413/316 561/405/313
f 570/414/313 567/411/313 565/409/313
f 571/415/313 561/405/313 569/413/316
f 567/411/313 570/414/313 572/416/316
f 569/413/316 573/417/313 571/415/313
f 570/414/313 574/418/314 572/416/316
f 573/417/313 575/419/314 571/415/313
f 574/418/314 570/414/313 575/419/314
f 575/419/314 573/417/313 574/418/314
f 576/393/38 577/391/317 578/420/317
f 577/391/317 579/421/318 578/420/317
f 579/421/318 577/391/317 580/397/319
f 581/403/320 579/421/318 580/397/319
f 579/421/318 581/403/320 582/422/321
f 581/403/320 583/423/322 582/422/321
f 581/403/320 584/402/323 583/423/322
f 585/424/324 583/423/322 584/402/323
f 585/424/324 584/402/323 586/405/324
f 587/415/325 585/424/324 586/405/324
f 585/424/324 587/415/325 588/425/325
f 589/419/326 588/425/325 587/415/325
f 588/425/325 589/419/326 590/426/326
f 591/414/327 590/426/326 589/419/326
f 590/426/326 591/414/327 592/427/327
f 591/414/327 593/428/328 592/427/327
f 591/414/327 594/409/328 593/428/328
f 595/429/329 593/428/328 594/409/328
f 594/409/328 596/399/329 595/429/329
f 597/394/330 595/429/329 596/399/329
f 595/429/329 597/394/330 598/430/331
f 597/394/330 599/431/332 598/430/331
f 599/431/332 597/394/330 600/392/333
f 601/393/334 599/431/332 600/392/333
f 599/431/332 601/393/334 602/432/335
f 603/433/313 604/434/313 605/435/313
f 604/434/313 603/433/313 606/436/313
f 605/435/313 607/437/313 603/433/313
f 606/436/313 608/438/316 604/434/313
f 607/437/313 605/435/313 609/439/313
f 608/438/316 606/436/313 610/440/316
f 609/439/313 611/441/314 607/437/313
f 612/442/313 608/438/316 610/440/316
f 611/441/314 609/439/313 613/443/313
f 608/438/316 612/442/313 614/444/313
f 613/443/313 615/445/336 611/441/314
f 616/446/313 614/444/313 612/442/313
f 615/445/336 613/443/313 617/447/336
f 617/447/336 616/446/313 615/445/336
f 614/444/313 616/446/313 618/448/313
f 617/447/336 618/448/313 616/446/313
f 619/449/337 620/450/338 621/447/337
f 621/447/337 620/450/338 622/448/338
f 623/443/339 619/449/337 621/447/337
f 624/451/340 622/448/338 620/450/338
f 619/449/337 623/443/339 625/452/339
f 626/444/340 622/448/338 624/451/340
f 623/443/339 627/453/341 625/452/339
f 624/451/340 628/438/342 626/444/340
f 627/453/341 623/443/339 629/439/341
f 628/438/342 624/451/340 630/454/343
f 631/435/344 627/453/341 629/439/341
f 632/455/345 628/438/342 630/454/343
f 633/456/344 627/453/341 631/435/344
f 631/435/344 632/455/345 633/456/344
f 628/438/342 632/455/345 634/434/346
f 632/455/345 631/435/344 634/434/346
f 635/437/347 636/441/348 637/457/348
f 635/437/347 637/457/348 638/458/347
f 636/441/348 639/459/349 637/457/348
f 640/460/350 635/437/347 638/458/347
f 639/459/349 636/441/348 641/445/349
f 635/437/347 640/460/350 642/433/350
f 641/445/349 643/446/351 639/459/349
f 644/461/352 642/433/350 640/460/350
f 643/446/351 645/462/351 639/459/349
f 642/433/350 644/461/352 646/436/352
f 643/446/351 647/442/353 645/462/351
f 644/461/352 648/440/354 646/436/352
f 645/462/351 647/442/353 649/463/353
f 648/440/354 644/461/352 650/464/355
f 647/442/353 650/464/355 649/463/353
f 650/464/355 647/442/353 648/440/354
f 651/465/356 652/378/356 653/376/356
f 652/378/356 651/465/356 654/383/356
f 655/466/356 654/383/356 651/465/356
f 654/383/356 655/466/356 656/381/356
f 655/466/356 657/467/357 656/381/356
f 656/381/356 657/467/357 658/468/357
f 656/381/356 658/468/357 659/385/356
f 660/469/356 651/465/356 653/376/356
f 661/372/356 660/469/356 653/376/356
f 660/469/356 661/372/356 662/470/357
f 661/372/356 663/371/356 662/470/357
f 664/374/357 662/470/357 663/371/356
f 662/470/357 665/471/356 660/469/356
f 666/472/356 660/469/356 665/471/356
f 667/473/356 660/469/356 666/472/356
f 667/473/356 666/472/356 668/387/356
f 669/474/356 667/473/356 668/387/356
f 668/387/356 670/386/356 669/474/356
f 671/475/356 669/474/356 670/386/356
f 669/474/356 671/475/356 672/476/356
f 670/386/356 673/477/356 671/475/356
f 674/473/358 675/478/100 676/479/358
f 676/479/358 677/480/359 674/473/358
f 678/469/360 674/473/358 677/480/359
f 677/480/359 679/465/361 678/469/360
f 679/465/361 677/480/359 680/481/361
f 680/481/361 681/466/362 679/465/361
f 681/466/362 680/481/361 682/482/362
f 682/482/362 683/467/363 681/466/362
f 684/483/363 682/482/364 685/484/363
f 675/478/100 674/473/358 686/474/365
f 687/485/101 675/478/100 686/474/365
f 675/478/100 687/485/101 688/486/101
f 689/471/366 690/487/367 691/488/366
f 692/487/368 693/471/366 694/470/369
f 695/380/303 696/378/370 697/383/303
f 698/380/303 699/379/370 700/378/370
f 702/489/276 701/386/275 703/389/371
f 704/490/372 705/387/373 706/472/372
f 705/387/373 704/490/372 707/388/373
f 708/490/374 709/471/375 710/488/375
f 711/471/375 712/490/374 713/472/374
f 714/375/376 715/487/377 716/374/378
f 717/470/379 716/374/378 715/487/377
