# Blender 5.1.2
# www.blender.org
mtllib sakurabody.mtl
o RenderMesh_77711083770356
v -0.030478 1.468981 -0.136921
v 0.010448 1.515471 -0.103871
v 0.004402 1.489910 -0.141055
v 0.039282 1.470134 -0.149057
v 0.039282 1.470134 -0.149057
v 0.039282 1.429432 -0.152926
v -0.030478 1.428279 -0.140789
v 0.004402 1.408504 -0.148792
v 0.010448 1.376397 -0.117087
v 0.039282 1.429432 -0.152926
v -0.049141 1.410179 -0.103416
v -0.049141 1.479717 -0.096808
v -0.018515 1.462694 -0.024977
v -0.018515 1.413368 -0.029664
v 0.023755 1.488056 -0.029987
v 0.023755 1.389405 -0.039361
v 0.066024 1.464092 -0.039684
v 0.066024 1.414766 -0.044371
v 0.070037 1.481687 -0.117543
v 0.070037 1.412150 -0.124151
v 0.060187 0.616342 0.138819
v 0.092909 0.607658 0.157036
v 0.076178 0.622537 0.156915
v 0.080661 0.644413 0.155279
v 0.088771 0.590924 0.139025
v 0.067846 0.653715 0.136023
v 0.114123 0.614655 0.155519
v 0.074036 0.643605 0.093892
v 0.068603 0.617094 0.095874
v 0.088879 0.599063 0.096021
v 0.114588 0.607543 0.094183
v 0.125015 0.602877 0.136433
v 0.104090 0.665670 0.133432
v 0.099745 0.652084 0.092054
v 0.132674 0.640251 0.133637
v 0.120021 0.634053 0.092200
v 0.118608 0.636531 0.153883
v 0.092909 0.607658 0.157036
v 0.101876 0.651410 0.153763
v 0.076178 0.622537 0.156915
v 0.151009 -0.400841 -0.077004
v 0.127053 -0.377875 -0.057593
v 0.141331 -0.380666 -0.077839
v 0.153912 -0.362306 -0.080268
v 0.176173 -0.364118 -0.081862
v 0.185850 -0.384292 -0.081026
v 0.173268 -0.402653 -0.078597
v 0.143586 -0.412339 -0.056165
v 0.181616 -0.415437 -0.058888
v 0.153117 -0.399905 -0.015297
v 0.141389 -0.375458 -0.016310
v 0.180092 -0.402102 -0.017228
v 0.156637 -0.353207 -0.019253
v 0.203111 -0.384068 -0.063038
v 0.185850 -0.384292 -0.081026
v 0.195340 -0.379851 -0.020172
v 0.176173 -0.364118 -0.081862
v 0.183611 -0.355404 -0.021184
v 0.186577 -0.349604 -0.064465
v 0.148548 -0.346508 -0.061742
v 0.195340 -0.379851 -0.020172
v 0.153117 -0.399905 -0.015297
v 0.180092 -0.402102 -0.017228
v 0.183611 -0.355404 -0.021184
v 0.141389 -0.375458 -0.016310
v 0.156637 -0.353207 -0.019253
v 0.068603 0.617094 0.095874
v 0.099745 0.652084 0.092054
v 0.088879 0.599063 0.096021
v 0.074036 0.643605 0.093892
v 0.120021 0.634053 0.092200
v 0.114588 0.607543 0.094183
v 0.066024 1.414766 -0.044371
v -0.018515 1.413368 -0.029664
v 0.023755 1.389405 -0.039361
v -0.018515 1.462694 -0.024977
v 0.066024 1.464092 -0.039684
v 0.023755 1.488056 -0.029987
vn -0.4525 0.2538 -0.8549
vn -0.0228 0.9948 -0.0988
vn -0.1114 0.3861 -0.9157
vn -0.1719 0.0930 -0.9807
vn 0.6198 0.3121 -0.7200
vn -0.3938 -0.1086 -0.9128
vn -0.1036 -0.2011 -0.9741
vn -0.0384 -0.9179 -0.3949
vn 0.5508 -0.3103 -0.7748
vn -0.8649 -0.4941 -0.0881
vn -0.8663 0.4913 0.0901
vn -0.7840 0.4395 0.4385
vn -0.8611 -0.3462 0.3724
vn -0.1475 0.9181 0.3678
vn -0.1153 -0.9762 0.1836
vn 0.7809 0.5995 0.1758
vn 0.8673 -0.4943 0.0599
vn 0.7632 0.5030 -0.4056
vn 0.7182 -0.4085 -0.5633
vn -0.8855 -0.2819 0.3694
vn -0.1601 -0.7048 0.6911
vn -0.6831 -0.2450 0.6880
vn -0.1670 0.2176 0.9616
vn -0.1777 -0.9084 0.3784
vn -0.7149 0.6546 0.2458
vn 0.2275 -0.1330 0.9646
vn -0.6700 0.6934 -0.2652
vn -0.9431 -0.2733 -0.1894
vn -0.1689 -0.9684 -0.1835
vn 0.7684 -0.5871 -0.2548
vn 0.7309 -0.6296 0.2634
vn 0.2042 0.9707 0.1271
vn 0.2255 0.9186 -0.3247
vn 0.9388 0.3161 0.1369
vn 0.8842 0.3394 -0.3210
vn 0.3123 0.1339 0.9405
vn 0.0502 0.0646 0.9966
vn 0.0921 0.3335 0.9382
vn 0.0502 0.0647 0.9966
vn -0.2322 -0.3161 -0.9199
vn -0.9889 0.0686 -0.1319
vn -0.3492 -0.0259 -0.9367
vn -0.1582 0.1807 -0.9707
vn -0.0772 -0.0785 -0.9939
vn -0.0775 -0.0784 -0.9939
vn 0.0727 -0.3064 -0.9491
vn -0.5659 -0.8220 -0.0638
vn 0.4097 -0.8919 -0.1914
vn -0.5448 -0.7583 0.3579
vn -0.9445 -0.0054 0.3285
vn 0.3248 -0.8972 0.2994
vn -0.4962 0.8382 0.2265
vn 0.9237 -0.0940 -0.3715
vn 0.7214 -0.0259 -0.6921
vn 0.9710 -0.1446 0.1903
vn 0.4017 0.5709 -0.7160
vn 0.5468 0.8242 0.1475
vn 0.5049 0.7452 -0.4356
vn -0.4289 0.8467 -0.3150
vn 0.0775 0.0784 0.9939
vn 0.0775 0.0783 0.9939
vn -0.0501 -0.0638 -0.9967
vn -0.0501 -0.0640 -0.9967
vn -0.0500 -0.0643 -0.9967
vn -0.0501 -0.0643 -0.9967
vn 0.1719 -0.0930 0.9807
vn 0.1721 -0.0932 0.9807
vt 0.000000 0.000000
s 1
f 1/1/1 2/1/2 3/1/3
f 4/1/4 1/1/1 3/1/3
f 2/1/2 5/1/5 3/1/3
f 6/1/4 1/1/1 4/1/4
f 1/1/1 6/1/4 7/1/6
f 6/1/4 8/1/7 7/1/6
f 9/1/8 7/1/6 8/1/7
f 10/1/9 9/1/8 8/1/7
f 11/1/10 1/1/1 7/1/6
f 7/1/6 9/1/8 11/1/10
f 1/1/1 11/1/10 12/1/11
f 2/1/2 1/1/1 12/1/11
f 11/1/10 13/1/12 12/1/11
f 13/1/12 2/1/2 12/1/11
f 13/1/12 11/1/10 14/1/13
f 9/1/8 14/1/13 11/1/10
f 2/1/2 13/1/12 15/1/14
f 14/1/13 9/1/8 16/1/15
f 17/1/16 2/1/2 15/1/14
f 9/1/8 18/1/17 16/1/15
f 2/1/2 17/1/16 19/1/18
f 18/1/17 19/1/18 17/1/16
f 5/1/5 2/1/2 19/1/18
f 19/1/18 10/1/9 5/1/5
f 19/1/18 18/1/17 20/1/19
f 10/1/9 19/1/18 20/1/19
f 20/1/19 18/1/17 9/1/8
f 20/1/19 9/1/8 10/1/9
f 21/1/20 22/1/21 23/1/22
f 21/1/20 23/1/22 24/1/23
f 22/1/21 21/1/20 25/1/24
f 26/1/25 21/1/20 24/1/23
f 25/1/24 27/1/26 22/1/21
f 21/1/20 26/1/25 28/1/27
f 29/1/28 21/1/20 28/1/27
f 25/1/24 21/1/20 29/1/28
f 30/1/29 25/1/24 29/1/28
f 31/1/30 25/1/24 30/1/29
f 27/1/26 25/1/24 32/1/31
f 25/1/24 31/1/30 32/1/31
f 33/1/32 28/1/27 26/1/25
f 24/1/23 33/1/32 26/1/25
f 28/1/27 33/1/32 34/1/33
f 31/1/30 35/1/34 32/1/31
f 32/1/31 35/1/34 27/1/26
f 35/1/34 31/1/30 36/1/35
f 34/1/33 33/1/32 36/1/35
f 33/1/32 35/1/34 36/1/35
f 35/1/34 37/1/36 27/1/26
f 35/1/34 33/1/32 37/1/36
f 37/1/36 38/1/37 27/1/26
f 33/1/32 24/1/23 39/1/38
f 33/1/32 39/1/38 37/1/36
f 39/1/38 38/1/37 37/1/36
f 40/1/39 39/1/38 24/1/23
f 38/1/37 39/1/38 40/1/39
f 41/1/40 42/1/41 43/1/42
f 42/1/41 44/1/43 43/1/42
f 45/1/44 43/1/42 44/1/43
f 43/1/42 45/1/44 41/1/40
f 46/1/45 41/1/40 45/1/44
f 41/1/40 46/1/45 47/1/46
f 42/1/41 41/1/40 48/1/47
f 49/1/48 41/1/40 47/1/46
f 41/1/40 49/1/48 48/1/47
f 49/1/48 50/1/49 48/1/47
f 50/1/49 42/1/41 48/1/47
f 42/1/41 50/1/49 51/1/50
f 50/1/49 49/1/48 52/1/51
f 53/1/52 42/1/41 51/1/50
f 47/1/46 54/1/53 49/1/48
f 54/1/53 52/1/51 49/1/48
f 54/1/53 47/1/46 55/1/54
f 52/1/51 54/1/53 56/1/55
f 57/1/56 54/1/53 55/1/54
f 54/1/53 58/1/57 56/1/55
f 54/1/53 57/1/56 59/1/58
f 59/1/58 58/1/57 54/1/53
f 57/1/56 60/1/59 59/1/58
f 60/1/59 58/1/57 59/1/58
f 58/1/57 60/1/59 53/1/52
f 42/1/41 53/1/52 60/1/59
f 60/1/59 57/1/56 44/1/43
f 44/1/43 42/1/41 60/1/59
f 61/1/60 62/1/60 63/1/60
f 64/1/61 62/1/60 61/1/60
f 64/1/61 65/1/60 62/1/60
f 65/1/60 64/1/61 66/1/61
f 67/1/62 68/1/63 69/1/64
f 68/1/63 67/1/62 70/1/65
f 71/1/63 69/1/64 68/1/63
f 69/1/64 71/1/63 72/1/62
f 73/1/66 74/1/66 75/1/66
f 74/1/66 73/1/66 76/1/67
f 76/1/67 73/1/66 77/1/66
f 76/1/67 77/1/66 78/1/66
o RenderMesh_109749587275758
v -0.275651 -1.935327 0.032380
v -0.306679 -1.942233 -0.005606
v -0.249846 -1.953017 -0.005606
v -0.261926 -1.928026 -0.044259
v -0.306679 -1.942233 -0.005606
v -0.312549 -1.915781 -0.045346
v -0.249846 -1.953017 -0.005606
v 0.887187 2.318180 -0.006049
v 0.858568 2.334587 -0.024097
v 0.864892 2.329660 0.016927
v -0.306679 -1.942233 -0.005606
v -0.275651 -1.935327 0.032380
v -0.364467 -1.835511 0.047077
v -0.435457 -1.732359 -0.005594
v -0.306679 -1.942233 -0.005606
v -0.364467 -1.835511 0.047077
v 0.858568 2.334587 -0.024097
v 0.836985 2.325439 0.010104
v 0.864892 2.329660 0.016927
v 1.263037 1.971168 -0.027842
v 1.262800 1.984403 0.002325
v 1.285144 1.970787 -0.005606
v 1.056764 2.002792 -0.005606
v 1.116565 1.929062 0.037561
v 1.115978 1.947105 -0.005133
v 1.047318 1.971791 0.050471
v 0.349878 2.069431 -0.040355
v 0.372179 2.082662 0.017003
v 0.382669 2.066868 -0.040764
v 0.332174 2.076945 -0.005647
v 0.887187 2.318180 -0.006049
v 1.056764 2.002792 -0.005606
v 0.916551 2.238714 -0.040732
v 1.095765 1.926089 -0.053225
v 1.095765 1.926089 -0.053225
v 1.056764 2.002792 -0.005606
v 1.115978 1.947105 -0.005133
v 0.916551 2.238714 -0.040732
v 0.858568 2.334587 -0.024097
v 0.887187 2.318180 -0.006049
v 1.047318 1.971791 0.050471
v 0.887187 2.318180 -0.006049
v 0.864892 2.329660 0.016927
v 1.056764 2.002792 -0.005606
v -0.508402 -1.444047 -0.005596
v -0.498780 -1.311109 -0.065099
v -0.433322 -1.675382 -0.067258
v -0.435457 -1.732359 -0.005594
v -0.312549 -1.915781 -0.045346
v -0.306679 -1.942233 -0.005606
v 1.265198 1.955512 0.019133
v 1.285144 1.970787 -0.005606
v 1.262800 1.984403 0.002325
v 0.858568 2.334587 -0.024097
v 0.834288 2.318722 -0.030550
v 0.836985 2.325439 0.010104
v -0.325931 1.699529 0.020979
v -0.274888 1.719235 0.040036
v -0.302083 1.726940 -0.005606
v 0.412683 2.040551 -0.006048
v 0.382669 2.066868 -0.040764
v 0.372179 2.082662 0.017003
v -0.302083 1.726940 -0.005606
v -0.274888 1.719235 0.040036
v -0.251292 1.724509 -0.005994
v -0.296068 1.705159 -0.061239
v -0.302083 1.726940 -0.005606
v -0.260815 1.714248 -0.049798
v -0.251292 1.724509 -0.005994
v -0.323932 1.683109 -0.048161
v -0.325931 1.699529 0.020979
v -0.302083 1.726940 -0.005606
v -0.296068 1.705159 -0.061239
v 1.263037 1.971168 -0.027842
v 1.095765 1.926089 -0.053225
v 1.115978 1.947105 -0.005133
v 1.262800 1.984403 0.002325
v 0.486275 -0.454727 -0.005411
v 0.576862 -0.417070 -0.015568
v 0.526958 -0.435511 0.018037
v 0.332174 2.076945 -0.005647
v 0.349878 2.069431 -0.040355
v 0.266555 1.999103 -0.049959
v -0.483447 -0.234663 0.052926
v -0.507688 -0.214295 -0.005804
v -0.378795 -0.429568 -0.007493
v -0.345196 -0.436607 0.059834
v 1.198233 1.042499 -0.005631
v 1.200737 1.009460 -0.034812
v 1.191584 1.036142 -0.032839
v 1.211800 1.005620 0.002966
v 1.115978 1.947105 -0.005133
v 1.116565 1.929062 0.037561
v 1.262800 1.984403 0.002325
v 1.198233 1.042499 -0.005631
v 1.191494 1.035931 0.021763
v 1.211800 1.005620 0.002966
v 0.526958 -0.435511 0.018037
v 0.024289 -0.540424 0.038677
v 0.486275 -0.454727 -0.005411
v 0.024213 -0.558119 -0.005217
v 0.365547 -0.466657 -0.043136
v 0.024213 -0.558119 -0.005217
v 0.029791 -0.539128 -0.049252
v 0.486275 -0.454727 -0.005411
v 0.576862 -0.417070 -0.015568
v 0.266773 1.999389 0.038838
v 0.357065 2.035871 0.046514
v 0.372179 2.082662 0.017003
v 0.332174 2.076945 -0.005647
v 0.167817 1.889125 -0.005056
v 0.266773 1.999389 0.038838
v 0.332174 2.076945 -0.005647
v 0.266555 1.999103 -0.049959
v 0.412683 2.040551 -0.006048
v 0.372179 2.082662 0.017003
v 0.399813 2.037091 0.026671
v -0.305903 -1.835197 -0.075125
v -0.261926 -1.928026 -0.044259
v -0.312549 -1.915781 -0.045346
v -0.346592 -0.431854 -0.070255
v -0.378795 -0.429568 -0.007493
v -0.471536 -0.250223 -0.063332
v -0.507688 -0.214295 -0.005804
v -0.538287 -0.050794 -0.070043
v -0.592738 0.128155 -0.005598
v -0.585006 0.216675 -0.048542
v 0.576862 -0.417070 -0.015568
v 0.575799 -0.401745 0.011604
v 0.526958 -0.435511 0.018037
v 0.894899 2.203481 0.048744
v 1.047318 1.971791 0.050471
v 0.864892 2.329660 0.016927
v -0.507688 -0.214295 -0.005804
v -0.576072 0.136065 0.053695
v -0.592738 0.128155 -0.005598
v -0.483447 -0.234663 0.052926
v -0.023283 1.502267 0.054437
v 0.036217 1.570289 -0.005606
v -0.014748 1.529569 -0.005606
v 0.046675 1.531604 0.058388
v -0.023283 1.502267 -0.065648
v 0.036217 1.570289 -0.005606
v 0.046675 1.531604 -0.069599
v -0.014748 1.529569 -0.005606
v 0.937536 1.136267 -0.060812
v 0.960003 1.142105 -0.005701
v 0.991475 1.096378 -0.055296
v 0.999601 1.113260 -0.005606
v 0.960003 1.142105 -0.005701
v 0.991475 1.096378 0.044087
v 0.999601 1.113260 -0.005606
v 0.937982 1.135346 0.050414
v -0.221447 -1.899558 -0.005139
v -0.275651 -1.935327 0.032380
v -0.249846 -1.953017 -0.005606
v -0.238324 -1.891625 0.032144
v -0.592738 0.128155 -0.005598
v -0.579610 0.247928 0.018466
v -0.580255 0.251973 -0.022002
v -0.576072 0.136065 0.053695
v -0.585006 0.216675 -0.048542
v 0.464023 1.297752 0.027826
v 0.486993 1.286493 -0.032525
v 0.433440 1.299376 -0.034217
v 0.429033 1.299707 0.017909
v -0.014748 1.529569 -0.005606
v -0.077537 1.550893 -0.005354
v -0.023283 1.502267 0.054437
v -0.094208 1.532582 0.056646
v -0.331639 1.650835 -0.005606
v -0.325931 1.699529 0.020979
v -0.323932 1.683109 -0.048161
v -0.023283 1.502267 -0.065648
v -0.102787 1.540387 -0.067118
v -0.077537 1.550893 -0.005354
v -0.014748 1.529569 -0.005606
v 0.029791 -0.539128 -0.049252
v -0.116621 -0.668263 -0.005606
v -0.136245 -0.661790 -0.048131
v 0.024213 -0.558119 -0.005217
v 0.024289 -0.540424 0.038677
v -0.116621 -0.668263 -0.005606
v 0.024213 -0.558119 -0.005217
v -0.148037 -0.674320 0.036936
v 1.056808 1.683600 -0.052278
v 1.074889 1.694064 -0.005606
v 1.076738 1.468593 -0.005663
v 1.055949 1.416766 -0.052483
v 1.094145 1.778058 -0.004876
v 1.079723 1.792525 -0.055976
v 0.999601 1.113260 -0.005606
v 1.097178 1.075599 0.037650
v 1.106977 1.089422 -0.005688
v 0.991475 1.096378 0.044087
v 1.191494 1.035931 0.021763
v 1.198233 1.042499 -0.005631
v 1.096961 1.075765 -0.048724
v 0.991475 1.096378 -0.055296
v 0.999601 1.113260 -0.005606
v 1.106977 1.089422 -0.005688
v 1.191584 1.036142 -0.032839
v 1.198233 1.042499 -0.005631
v 1.056101 1.417170 0.040998
v 1.076738 1.468593 -0.005663
v 1.056826 1.684772 0.041139
v 1.074889 1.694064 -0.005606
v 1.094145 1.778058 -0.004876
v 1.078897 1.793629 0.047576
v 0.464023 1.297752 0.027826
v 0.494097 1.278713 -0.005307
v 0.486993 1.286493 -0.032525
v 0.485503 1.276079 0.025471
v 0.357065 2.035871 0.046514
v 0.399813 2.037091 0.026671
v 0.372179 2.082662 0.017003
v 0.457132 1.286180 -0.046854
v 0.433440 1.299376 -0.034217
v 0.486993 1.286493 -0.032525
v -0.275108 1.657802 0.069440
v -0.274888 1.719235 0.040036
v -0.325931 1.699529 0.020979
v -0.312160 1.632940 0.048804
v -0.239725 -1.886248 -0.044287
v -0.221447 -1.899558 -0.005139
v -0.261926 -1.928026 -0.044259
v -0.249846 -1.953017 -0.005606
v 1.192164 0.980912 -0.017570
v 1.200737 1.009460 -0.034812
v 1.211800 1.005620 0.002966
v 1.116565 1.929062 0.037561
v 1.265198 1.955512 0.019133
v 1.262800 1.984403 0.002325
v 1.011235 1.843080 0.076879
v -0.498779 -1.310843 0.053920
v -0.508402 -1.444047 -0.005596
v -0.453207 -1.599883 0.055703
v -0.435457 -1.732359 -0.005594
v -0.364467 -1.835511 0.047077
v -0.515265 -1.202462 -0.005510
v -0.471375 -1.076689 0.049190
v -0.376777 -0.510120 -0.005457
v -0.345196 -0.436607 0.059834
v -0.378795 -0.429568 -0.007493
v 0.544515 -0.405444 -0.032413
v 0.576862 -0.417070 -0.015568
v 0.365547 -0.466657 -0.043136
v -0.500507 -0.023469 0.080153
v -0.576072 0.136065 0.053695
v -0.483447 -0.234663 0.052926
v -0.346592 -0.431854 -0.070255
v -0.376777 -0.510120 -0.005457
v -0.378795 -0.429568 -0.007493
v 1.168231 1.017349 0.042317
v 1.178160 0.983910 0.025271
v 1.211800 1.005620 0.002966
v 1.191494 1.035931 0.021763
v 1.004076 1.880730 -0.088102
v 1.095765 1.926089 -0.053225
v 1.095035 1.867573 -0.068604
v 1.263037 1.971168 -0.027842
v 0.916551 2.238714 -0.040732
v 0.888466 2.228058 -0.055955
v 0.858568 2.334587 -0.024097
v 0.834288 2.318722 -0.030550
v 1.097178 1.075599 0.037650
v 1.168231 1.017349 0.042317
v 1.191494 1.035931 0.021763
v 0.167817 1.889125 -0.005056
v 0.266555 1.999103 -0.049959
v 0.152901 1.816295 -0.051865
v 0.036217 1.570289 -0.005606
v 0.046675 1.531604 -0.069599
v 0.167817 1.889125 -0.005056
v 0.036217 1.570289 -0.005606
v 0.151086 1.809643 0.043410
v 0.046675 1.531604 0.058388
v 0.266773 1.999389 0.038838
v 1.285144 1.970787 -0.005606
v 1.270936 1.928225 -0.005914
v 1.263037 1.971168 -0.027842
v 1.256105 1.922242 -0.026657
v 0.395953 2.028761 -0.038341
v 0.382669 2.066868 -0.040764
v 0.412683 2.040551 -0.006048
v -0.068568 -0.537916 0.052674
v 0.024289 -0.540424 0.038677
v 0.235855 -0.445094 0.061873
v 0.526958 -0.435511 0.018037
v -0.148037 -0.674320 0.036936
v 0.575799 -0.401745 0.011604
v 0.576862 -0.417070 -0.015568
v 0.581439 -0.387640 -0.010519
v -0.576072 0.136065 0.053695
v -0.546183 0.215355 0.058171
v -0.579610 0.247928 0.018466
v -0.331639 1.650835 -0.005606
v -0.312160 1.632940 0.048804
v -0.325931 1.699529 0.020979
v 1.042705 1.339131 -0.005681
v 1.055949 1.416766 -0.052483
v 1.076738 1.468593 -0.005663
v 0.937536 1.136267 -0.060812
v 0.960003 1.142105 -0.005701
v 1.056101 1.417170 0.040998
v 0.937982 1.135346 0.050414
v 0.960003 1.142105 -0.005701
v -0.306190 -1.834415 0.064124
v -0.275651 -1.935327 0.032380
v -0.238324 -1.891625 0.032144
v -0.515265 -1.202462 -0.005510
v -0.498780 -1.311109 -0.065099
v -0.508402 -1.444047 -0.005596
v -0.470533 -1.071839 -0.059877
v -0.376777 -0.510120 -0.005457
v -0.346592 -0.431854 -0.070255
v -0.094208 1.532582 0.056646
v -0.251292 1.724509 -0.005994
v -0.274888 1.719235 0.040036
v -0.077537 1.550893 -0.005354
v -0.102787 1.540387 -0.067118
v -0.251292 1.724509 -0.005994
v -0.077537 1.550893 -0.005354
v -0.260815 1.714248 -0.049798
v 1.011235 1.843080 0.076879
v 1.047318 1.971791 0.050471
v 0.894899 2.203481 0.048744
v 1.116565 1.929062 0.037561
v 1.270936 1.928225 -0.005914
v 1.285144 1.970787 -0.005606
v 1.265198 1.955512 0.019133
v 1.251096 1.917881 0.016323
v 0.456893 0.913570 -0.068878
v 0.490091 0.911932 -0.005606
v 0.527748 0.884414 -0.083097
v 0.552552 0.918351 -0.003280
v -0.220866 -0.682198 -0.075708
v -0.136245 -0.661790 -0.048131
v -0.307587 -0.923474 -0.065763
v -0.060191 -0.536801 -0.062427
v 0.029791 -0.539128 -0.049252
v 0.182493 -0.437788 -0.079789
v 0.365547 -0.466657 -0.043136
v 0.544515 -0.405444 -0.032413
v 0.456893 0.913570 -0.068878
v 0.459294 0.965389 -0.005194
v 0.490091 0.911932 -0.005606
v 0.460300 0.905467 0.058715
v 0.490091 0.911932 -0.005606
v 0.459294 0.965389 -0.005194
v 0.527748 0.884414 0.071885
v 0.552552 0.918351 -0.003280
v 0.490091 0.911932 -0.005606
v 0.460300 0.905467 0.058715
v 0.433440 1.299376 -0.034217
v 0.394341 1.254266 -0.006417
v 0.429033 1.299707 0.017909
v 0.937982 1.135346 0.050414
v 0.907763 1.059237 0.069618
v 0.991475 1.096378 0.044087
v 0.850333 1.085808 0.081622
v 1.097178 1.075599 0.037650
v 1.168231 1.017349 0.042317
v 0.076843 1.359972 -0.091886
v -0.102787 1.540387 -0.067118
v -0.023283 1.502267 -0.065648
v -0.212244 1.571177 -0.087426
v -0.260815 1.714248 -0.049798
v -0.296068 1.705159 -0.061239
v 1.178160 0.983910 0.025271
v 1.192164 0.980912 -0.017570
v 1.211800 1.005620 0.002966
v -0.305903 -1.835197 -0.075125
v -0.239725 -1.886248 -0.044287
v -0.261926 -1.928026 -0.044259
v 1.056826 1.684772 0.041139
v 1.011235 1.843080 0.076879
v 1.017319 1.444619 0.063401
v 1.078897 1.793629 0.047576
v 1.251096 1.917881 0.016323
v 1.265198 1.955512 0.019133
v 1.056101 1.417170 0.040998
v 0.937982 1.135346 0.050414
v 0.850333 1.085808 0.081622
v -0.106451 0.197366 -0.066937
v -0.264781 -0.191246 -0.073368
v -0.268089 -0.145093 -0.005606
v -0.130976 0.198924 -0.006219
v -0.015480 0.587874 -0.005677
v 0.018197 0.614002 -0.079721
v 0.045436 0.937215 -0.005521
v 0.069705 0.961156 -0.068722
v 0.030322 1.117300 -0.005606
v 0.052238 1.123036 -0.063902
v -0.024591 1.261953 -0.008528
v 0.002593 1.277291 -0.070235
v -0.268089 -0.145093 -0.005606
v -0.103779 0.202914 0.056495
v -0.130976 0.198924 -0.006219
v -0.264781 -0.191246 0.062157
v -0.015480 0.587874 -0.005677
v 0.019209 0.618123 0.068867
v 0.045436 0.937215 -0.005521
v 0.069599 0.960167 0.057610
v 0.030322 1.117300 -0.005606
v 0.052238 1.123036 0.052692
v -0.024591 1.261953 -0.008528
v -0.003568 1.283035 0.054318
v 1.016955 1.433997 -0.074512
v 1.056808 1.683600 -0.052278
v 1.055949 1.416766 -0.052483
v 0.937536 1.136267 -0.060812
v 0.841922 1.088216 -0.092476
v 1.004076 1.880730 -0.088102
v 1.079723 1.792525 -0.055976
v 1.095035 1.867573 -0.068604
v 1.256105 1.922242 -0.026657
v 1.263037 1.971168 -0.027842
v 0.076843 1.359972 -0.091886
v -0.023283 1.502267 -0.065648
v 0.046675 1.531604 -0.069599
v 0.180751 1.772266 -0.070031
v 0.152901 1.816295 -0.051865
v 0.295096 1.970193 -0.066015
v 0.266555 1.999103 -0.049959
v 0.349878 2.069431 -0.040355
v 0.382669 2.066868 -0.040764
v -0.576072 0.136065 0.053695
v -0.500507 -0.023469 0.080153
v -0.546183 0.215355 0.058171
v -0.440729 -1.263997 -0.087896
v -0.470533 -1.071839 -0.059877
v -0.301850 -0.559078 -0.087521
v -0.498780 -1.311109 -0.065099
v -0.346592 -0.431854 -0.070255
v -0.391961 -1.600776 -0.089153
v -0.433322 -1.675382 -0.067258
v -0.305903 -1.835197 -0.075125
v -0.312549 -1.915781 -0.045346
v -0.262176 -0.380876 -0.094239
v -0.363332 -0.309030 -0.083310
v -0.471536 -0.250223 -0.063332
v -0.264781 -0.191246 -0.073368
v -0.483339 -0.093043 -0.090632
v -0.013865 0.273075 -0.091816
v -0.538287 -0.050794 -0.070043
v -0.546563 0.215443 -0.069106
v -0.585006 0.216675 -0.048542
v -0.106451 0.197366 -0.066937
v 0.018197 0.614002 -0.079721
v 0.133087 0.874485 -0.100378
v 0.069705 0.961156 -0.068722
v 0.100818 1.220553 -0.083007
v 0.052238 1.123036 -0.063902
v 0.002593 1.277291 -0.070235
v 0.076843 1.359972 -0.091886
v -0.212244 1.571177 -0.087426
v -0.262720 1.546447 -0.067525
v -0.323932 1.683109 -0.048161
v -0.296068 1.705159 -0.061239
v -0.441260 -1.248197 0.075969
v -0.471375 -1.076689 0.049190
v -0.498779 -1.310843 0.053920
v -0.310107 -0.629723 0.078258
v -0.392240 -1.599685 0.077942
v -0.345196 -0.436607 0.059834
v -0.453207 -1.599883 0.055703
v -0.364467 -1.835511 0.047077
v -0.306190 -1.834415 0.064124
v -0.275651 -1.935327 0.032380
v -0.250459 -0.365001 0.080333
v -0.334148 -0.330745 0.075352
v -0.483447 -0.234663 0.052926
v -0.414408 -0.252397 0.072735
v -0.500507 -0.023469 0.080153
v -0.264781 -0.191246 0.062157
v -0.103779 0.202914 0.056495
v -0.004365 0.306259 0.081760
v 0.019209 0.618123 0.068867
v 0.106495 0.614755 0.104161
v 0.069599 0.960167 0.057610
v 0.121419 1.063690 0.072822
v 0.052238 1.123036 0.052692
v -0.003568 1.283035 0.054318
v 0.229770 -0.263003 -0.005697
v 0.221078 -0.236981 -0.032247
v 0.279796 -0.083265 -0.013687
v 0.460300 0.905467 0.058715
v 0.459294 0.965389 -0.005194
v 0.436038 1.043179 0.049426
v 0.457459 1.096391 -0.006135
v 0.485503 1.276079 0.025471
v 0.494097 1.278713 -0.005307
v 0.436591 1.044464 -0.060442
v 0.457459 1.096391 -0.006135
v 0.459294 0.965389 -0.005194
v 0.456893 0.913570 -0.068878
v 0.486993 1.286493 -0.032525
v 0.494097 1.278713 -0.005307
v 0.279796 -0.083265 -0.013687
v 0.221028 -0.237010 0.021035
v 0.229770 -0.263003 -0.005697
v 0.274825 -0.074367 0.008740
v 0.432337 0.828245 0.091697
v 0.527748 0.884414 0.071885
v 0.460300 0.905467 0.058715
v -0.258167 -0.727542 0.068448
v -0.148037 -0.674320 0.036936
v -0.068568 -0.537916 0.052674
v -0.307587 -0.923474 0.054552
v 0.432337 0.828245 0.091697
v 0.460300 0.905467 0.058715
v 0.390942 0.956939 0.075289
v 0.436038 1.043179 0.049426
v 0.411163 1.146050 0.064380
v 0.485503 1.276079 0.025471
v 0.464023 1.297752 0.027826
v 0.394341 1.254266 -0.006417
v 0.433440 1.299376 -0.034217
v 0.373686 1.148428 -0.059087
v 0.394341 1.254266 -0.006417
v 0.373839 1.150792 0.047961
v 0.429033 1.299707 0.017909
v 0.099024 1.460153 0.074692
v 0.046675 1.531604 0.058388
v -0.022600 1.406936 0.075951
v 0.151086 1.809643 0.043410
v -0.023283 1.502267 0.054437
v 0.214106 1.850463 0.057620
v 0.266773 1.999389 0.038838
v 0.357065 2.035871 0.046514
v -0.094208 1.532582 0.056646
v -0.275108 1.657802 0.069440
v -0.274888 1.719235 0.040036
v -0.003568 1.283035 0.054318
v 0.121419 1.063690 0.072822
v -0.201368 1.475790 0.056530
v -0.275108 1.657802 0.069440
v -0.312160 1.632940 0.048804
v -0.292942 1.552307 -0.005502
v -0.312160 1.632940 0.048804
v -0.331639 1.650835 -0.005606
v -0.215545 -0.548309 -0.005543
v -0.227197 -0.498493 -0.066303
v -0.022051 0.007352 -0.005592
v 0.067188 0.288433 -0.073224
v 0.101429 0.279066 -0.005606
v 0.263930 0.490933 -0.006621
v 0.271272 0.526168 -0.072367
v 0.647290 0.793619 -0.005852
v 0.666906 0.838113 -0.063884
v 0.847962 0.949495 -0.005606
v 0.884869 0.995371 -0.061545
v -0.022051 0.007352 -0.005592
v -0.228759 -0.506901 0.054757
v -0.215545 -0.548309 -0.005543
v -0.045777 0.011215 0.055581
v 0.101429 0.279066 -0.005606
v 0.095053 0.331612 0.066905
v 0.263930 0.490933 -0.006621
v 0.254184 0.512547 0.060899
v 0.647290 0.793619 -0.005852
v 0.695156 0.860037 0.051581
v 0.847962 0.949495 -0.005606
v 0.887203 0.998239 0.054449
v -0.262720 1.546447 -0.067525
v -0.331639 1.650835 -0.005606
v -0.323932 1.683109 -0.048161
v -0.292942 1.552307 -0.005502
v 0.432337 0.828245 0.091697
v 0.431164 0.723164 0.088126
v 0.527748 0.884414 0.071885
v -0.546563 0.215443 -0.069106
v -0.585006 0.216675 -0.048542
v -0.580255 0.251973 -0.022002
v 0.244769 0.741868 -0.006216
v 0.278834 0.675131 0.071924
v 0.266900 0.708310 -0.005606
v 0.215468 0.704236 0.076904
v -0.307587 -0.923474 -0.065763
v -0.301850 -0.559078 -0.087521
v -0.220866 -0.682198 -0.075708
v -0.220866 -0.682198 -0.075708
v -0.301850 -0.559078 -0.087521
v -0.226721 -0.590188 -0.065646
v -0.227197 -0.498493 -0.066303
v -0.262176 -0.380876 -0.094239
v 0.067188 0.288433 -0.073224
v -0.013865 0.273075 -0.091816
v 0.232626 0.571641 -0.102777
v 0.271272 0.526168 -0.072367
v 0.372974 0.674176 -0.098256
v 0.666906 0.838113 -0.063884
v 0.489606 0.779212 -0.102806
v 0.704309 0.945496 -0.090674
v 0.884869 0.995371 -0.061545
v 0.841922 1.088216 -0.092476
v 1.010167 1.043136 -0.072784
v 1.126989 0.987583 -0.044748
v 1.200737 1.009460 -0.034812
v 1.096961 1.075765 -0.048724
v 1.191584 1.036142 -0.032839
v 0.991475 1.096378 -0.055296
v 0.841922 1.088216 -0.092476
v 0.937536 1.136267 -0.060812
v 0.258918 0.672771 -0.083348
v 0.266900 0.708310 -0.005606
v 0.316241 0.702427 -0.081362
v 0.313528 0.730207 -0.004054
v 0.266900 0.708310 -0.005606
v 0.278834 0.675131 0.071924
v 0.313528 0.730207 -0.004054
v 0.209917 0.703189 -0.092955
v 0.266900 0.708310 -0.005606
v 0.258918 0.672771 -0.083348
v 0.244769 0.741868 -0.006216
v -0.356500 -1.290919 -0.005612
v -0.374261 -1.160918 -0.064688
v -0.339678 -1.105560 -0.005606
v -0.307587 -0.923474 -0.065763
v -0.272640 -0.900681 -0.003319
v -0.136245 -0.661790 -0.048131
v -0.116621 -0.668263 -0.005606
v 0.209917 0.703189 -0.092955
v -0.013865 0.273075 -0.091816
v 0.133087 0.874485 -0.100378
v 0.232626 0.571641 -0.102777
v 0.258918 0.672771 -0.083348
v -0.228759 -0.506901 0.054757
v -0.250459 -0.365001 0.080333
v -0.310107 -0.629723 0.078258
v -0.045777 0.011215 0.055581
v -0.223619 -0.584949 0.052467
v -0.258167 -0.727542 0.068448
v -0.307587 -0.923474 0.054552
v -0.004365 0.306259 0.081760
v 0.095053 0.331612 0.066905
v 0.106495 0.614755 0.104161
v 0.174860 0.530515 0.094915
v 0.254184 0.512547 0.060899
v 0.215468 0.704236 0.076904
v 0.121419 1.063690 0.072822
v 0.146782 1.311120 0.051877
v 0.278834 0.675131 0.071924
v 0.431164 0.723164 0.088126
v 0.695156 0.860037 0.051581
v 0.850333 1.085808 0.081622
v 0.887203 0.998239 0.054449
v 0.907763 1.059237 0.069618
v 1.168231 1.017349 0.042317
v 1.178160 0.983910 0.025271
v 0.365124 0.770682 0.077147
v 0.431164 0.723164 0.088126
v 0.432337 0.828245 0.091697
v 0.278834 0.675131 0.071924
v 0.174860 0.530515 0.094915
v 0.342813 0.968362 0.054180
v 0.390942 0.956939 0.075289
v 0.411163 1.146050 0.064380
v 0.373839 1.150792 0.047961
v 0.429033 1.299707 0.017909
v 0.464023 1.297752 0.027826
v -0.307587 -0.923474 0.054552
v -0.272640 -0.900681 -0.003319
v -0.148037 -0.674320 0.036936
v -0.116621 -0.668263 -0.005606
v -0.339678 -1.105560 -0.005606
v -0.373843 -1.158479 0.053034
v -0.356500 -1.290919 -0.005612
v 0.841922 1.088216 -0.092476
v 0.806826 1.144749 -0.070295
v 1.016955 1.433997 -0.074512
v 0.964298 1.431529 -0.060475
v 0.673800 0.992800 -0.072932
v 0.959173 1.792438 -0.066937
v 0.704309 0.945496 -0.090674
v 1.004076 1.880730 -0.088102
v 0.888466 2.228058 -0.055955
v 0.834288 2.318722 -0.030550
v 0.527748 0.884414 -0.083097
v 0.489606 0.779212 -0.102806
v 0.438841 0.817116 -0.104161
v 0.456893 0.913570 -0.068878
v 0.391738 0.949845 -0.086130
v 0.436591 1.044464 -0.060442
v 0.412352 1.147081 -0.075716
v 0.486993 1.286493 -0.032525
v 0.457132 1.286180 -0.046854
v 0.365124 0.770682 -0.088357
v 0.391738 0.949845 -0.086130
v 0.372974 0.674176 -0.098256
v 0.341633 0.966349 -0.062901
v 0.316241 0.702427 -0.081362
v 0.258918 0.672771 -0.083348
v 0.232626 0.571641 -0.102777
v 0.412352 1.147081 -0.075716
v 0.373686 1.148428 -0.059087
v 0.433440 1.299376 -0.034217
v 0.457132 1.286180 -0.046854
v 0.313528 0.730207 -0.004054
v 0.365124 0.770682 0.077147
v 0.341484 0.780967 -0.006188
v 0.278834 0.675131 0.071924
v -0.334148 -0.330745 0.075352
v -0.264781 -0.191246 0.062157
v -0.338896 -0.244448 0.049907
v 1.200737 1.009460 -0.034812
v 1.192164 0.980912 -0.017570
v 1.126989 0.987583 -0.044748
v 0.209917 0.703189 -0.092955
v 0.133087 0.874485 -0.100378
v 0.160812 1.230837 -0.059593
v 0.100818 1.220553 -0.083007
v 0.076843 1.359972 -0.091886
v 0.156592 1.413763 -0.062629
v 0.180751 1.772266 -0.070031
v 0.229198 1.793251 -0.051879
v 0.295096 1.970193 -0.066015
v 0.395953 2.028761 -0.038341
v 0.382669 2.066868 -0.040764
v 0.313528 0.730207 -0.004054
v 0.365124 0.770682 -0.088357
v 0.316241 0.702427 -0.081362
v 0.341484 0.780967 -0.006188
v 0.828332 2.300618 -0.005629
v 0.836985 2.325439 0.010104
v 0.834288 2.318722 -0.030550
v 0.544515 -0.405444 -0.032413
v 0.560133 -0.375975 -0.016832
v 0.581439 -0.387640 -0.010519
v 0.576862 -0.417070 -0.015568
v 0.964343 1.432044 0.049305
v 1.017319 1.444619 0.063401
v 0.959226 1.792122 0.055733
v 1.011235 1.843080 0.076879
v 0.850333 1.085808 0.081622
v 0.894899 2.203481 0.048744
v 0.807721 1.145930 0.059165
v 0.852943 2.236756 0.031872
v 0.864892 2.329660 0.016927
v 0.836985 2.325439 0.010104
v 0.676866 0.994922 0.062734
v 0.431164 0.723164 0.088126
v 0.527748 0.884414 0.071885
v 0.244769 0.741868 -0.006216
v 0.168722 1.318497 -0.005624
v 0.146782 1.311120 0.051877
v 0.215468 0.704236 0.076904
v 0.225838 1.725324 -0.005500
v 0.228349 1.791908 0.040952
v 0.244769 0.741868 -0.006216
v 0.160812 1.230837 -0.059593
v 0.168722 1.318497 -0.005624
v 0.209917 0.703189 -0.092955
v 0.156592 1.413763 -0.062629
v 0.225838 1.725324 -0.005500
v 0.229198 1.793251 -0.051879
v 0.181461 -0.396537 0.056013
v 0.226115 -0.338003 0.027932
v 0.174708 -0.282035 0.034437
v 0.221028 -0.237010 0.021035
v 0.252487 -0.064816 0.016147
v 0.274825 -0.074367 0.008740
v -0.363332 -0.309030 -0.083310
v -0.343811 -0.243418 -0.062300
v -0.264781 -0.191246 -0.073368
v 0.146782 1.311120 0.051877
v 0.099024 1.460153 0.074692
v 0.121419 1.063690 0.072822
v 0.228349 1.791908 0.040952
v 0.214106 1.850463 0.057620
v 0.399813 2.037091 0.026671
v 0.357065 2.035871 0.046514
v 0.229770 -0.263003 -0.005697
v 0.225711 -0.335905 -0.038885
v 0.221078 -0.236981 -0.032247
v 0.229770 -0.263003 -0.005697
v 0.221028 -0.237010 0.021035
v 0.226115 -0.338003 0.027932
v 0.341633 0.966349 -0.062901
v 0.326048 1.010781 -0.005612
v 0.373686 1.148428 -0.059087
v 0.394341 1.254266 -0.006417
v 0.341484 0.780967 -0.006188
v 0.365124 0.770682 -0.088357
v 0.341484 0.780967 -0.006188
v 0.342813 0.968362 0.054180
v 0.326048 1.010781 -0.005612
v 0.365124 0.770682 0.077147
v 0.373839 1.150792 0.047961
v 0.394341 1.254266 -0.006417
v 0.149621 -0.166716 -0.005564
v 0.095275 -0.394483 -0.005307
v 0.120846 -0.392308 0.039607
v 0.173226 -0.147591 0.018094
v 0.172619 -0.148645 -0.029330
v 0.120457 -0.382231 -0.045201
v 0.149621 -0.166716 -0.005564
v 0.095275 -0.394483 -0.005307
v 0.073344 -0.429673 -0.059600
v 0.182493 -0.437788 -0.079789
v -0.060191 -0.536801 -0.062427
v 0.120457 -0.382231 -0.045201
v -0.091078 -0.498724 -0.048866
v -0.226721 -0.590188 -0.065646
v -0.220866 -0.682198 -0.075708
v 0.172081 -0.327696 -0.049865
v 0.172619 -0.148645 -0.029330
v 0.248334 -0.058317 -0.025782
v -0.096317 -0.502598 0.038803
v -0.068568 -0.537916 0.052674
v 0.120846 -0.392308 0.039607
v -0.223619 -0.584949 0.052467
v -0.258167 -0.727542 0.068448
v 0.235855 -0.445094 0.061873
v 0.526958 -0.435511 0.018037
v 0.575799 -0.401745 0.011604
v 0.563219 -0.381196 0.010385
v 0.257475 -0.389398 0.046694
v 0.181461 -0.396537 0.056013
v 0.226115 -0.338003 0.027932
v 0.174708 -0.282035 0.034437
v 0.173226 -0.147591 0.018094
v 0.252487 -0.064816 0.016147
v -0.580255 0.251973 -0.022002
v -0.579610 0.247928 0.018466
v -0.537197 0.258348 0.009367
v -0.268089 -0.145093 -0.005606
v -0.338896 -0.244448 0.049907
v -0.264781 -0.191246 0.062157
v -0.333865 -0.223887 -0.006858
v 0.552552 0.918351 -0.003280
v 0.673800 0.992800 -0.072932
v 0.527748 0.884414 -0.083097
v 0.755684 1.109554 -0.005717
v 0.806826 1.144749 -0.070295
v 0.895265 1.324448 -0.005558
v 0.964298 1.431529 -0.060475
v 0.946559 1.451508 -0.005606
v 0.958059 1.568472 -0.005621
v 0.959173 1.792438 -0.066937
v 0.279796 -0.083265 -0.013687
v 0.271389 -0.055388 -0.008942
v 0.274825 -0.074367 0.008740
v 0.552552 0.918351 -0.003280
v 0.676866 0.994922 0.062734
v 0.755684 1.109554 -0.005717
v 0.527748 0.884414 0.071885
v 0.807721 1.145930 0.059165
v 0.895265 1.324448 -0.005558
v 0.964343 1.432044 0.049305
v 0.946559 1.451508 -0.005606
v 0.958059 1.568472 -0.005621
v 0.959226 1.792122 0.055733
v -0.356119 -1.501012 -0.068558
v -0.305903 -1.835197 -0.075125
v -0.391961 -1.600776 -0.089153
v -0.239725 -1.886248 -0.044287
v -0.440729 -1.263997 -0.087896
v -0.374261 -1.160918 -0.064688
v -0.307587 -0.923474 -0.065763
v -0.301850 -0.559078 -0.087521
v -0.306190 -1.834415 0.064124
v -0.238324 -1.891625 0.032144
v -0.356174 -1.500683 0.057309
v -0.392240 -1.599685 0.077942
v -0.441260 -1.248197 0.075969
v -0.373843 -1.158479 0.053034
v -0.307587 -0.923474 0.054552
v -0.310107 -0.629723 0.078258
v 0.884869 0.995371 -0.061545
v 0.955262 0.981877 -0.005646
v 0.847962 0.949495 -0.005606
v 0.887203 0.998239 0.054449
v 0.847962 0.949495 -0.005606
v 0.955262 0.981877 -0.005646
v 0.225711 -0.335905 -0.038885
v 0.172081 -0.327696 -0.049865
v 0.221078 -0.236981 -0.032247
v 0.248334 -0.058317 -0.025782
v 0.279796 -0.083265 -0.013687
v 0.182493 -0.437788 -0.079789
v 0.257429 -0.386295 -0.055215
v 0.544515 -0.405444 -0.032413
v 0.560133 -0.375975 -0.016832
v 0.248334 -0.058317 -0.025782
v 0.271389 -0.055388 -0.008942
v 0.279796 -0.083265 -0.013687
v -0.264781 -0.191246 -0.073368
v -0.343811 -0.243418 -0.062300
v -0.333865 -0.223887 -0.006858
v -0.268089 -0.145093 -0.005606
v -0.546183 0.215355 0.058171
v -0.537197 0.258348 0.009367
v -0.579610 0.247928 0.018466
v 0.581439 -0.387640 -0.010519
v 0.563219 -0.381196 0.010385
v 0.575799 -0.401745 0.011604
v 0.225711 -0.335905 -0.038885
v 0.229770 -0.263003 -0.005697
v 0.272901 -0.376305 -0.004714
v 0.226115 -0.338003 0.027932
v 0.272901 -0.376305 -0.004714
v 0.229770 -0.263003 -0.005697
v 0.252487 -0.064816 0.016147
v 0.237098 -0.049600 0.001040
v 0.173226 -0.147591 0.018094
v -0.201368 1.475790 0.056530
v -0.292942 1.552307 -0.005502
v -0.024591 1.261953 -0.008528
v -0.312160 1.632940 0.048804
v -0.003568 1.283035 0.054318
v 0.002593 1.277291 -0.070235
v -0.024591 1.261953 -0.008528
v -0.262720 1.546447 -0.067525
v -0.292942 1.552307 -0.005502
v 1.178160 0.983910 0.025271
v 1.131174 0.973495 -0.005582
v 1.192164 0.980912 -0.017570
v -0.537197 0.258348 0.009367
v -0.526170 0.254170 -0.019184
v -0.580255 0.251973 -0.022002
v -0.338896 -0.244448 0.049907
v -0.414408 -0.252397 0.072735
v -0.334148 -0.330745 0.075352
v -0.414034 -0.144373 0.053836
v -0.500507 -0.023469 0.080153
v -0.508373 0.211484 0.044007
v -0.546183 0.215355 0.058171
v -0.546563 0.215443 -0.069106
v -0.526170 0.254170 -0.019184
v -0.508736 0.212507 -0.055301
v -0.580255 0.251973 -0.022002
v -0.415234 -0.142400 -0.065448
v -0.483339 -0.093043 -0.090632
v -0.508736 0.212507 -0.055301
v -0.546563 0.215443 -0.069106
v -0.363332 -0.309030 -0.083310
v -0.343811 -0.243418 -0.062300
v 0.173226 -0.147591 0.018094
v 0.237098 -0.049600 0.001040
v 0.149621 -0.166716 -0.005564
v 0.237098 -0.049600 0.001040
v 0.172619 -0.148645 -0.029330
v 0.149621 -0.166716 -0.005564
v 0.248334 -0.058317 -0.025782
v 1.078897 1.793629 0.047576
v 1.094145 1.778058 -0.004876
v 1.251096 1.917881 0.016323
v 1.270936 1.928225 -0.005914
v 1.256105 1.922242 -0.026657
v 1.270936 1.928225 -0.005914
v 1.094145 1.778058 -0.004876
v 1.079723 1.792525 -0.055976
v 1.126989 0.987583 -0.044748
v 1.131174 0.973495 -0.005582
v 0.955262 0.981877 -0.005646
v 1.192164 0.980912 -0.017570
v 0.884869 0.995371 -0.061545
v 0.887203 0.998239 0.054449
v 0.955262 0.981877 -0.005646
v 1.178160 0.983910 0.025271
v 1.131174 0.973495 -0.005582
v 0.228349 1.791908 0.040952
v 0.225838 1.725324 -0.005500
v 0.301686 1.886406 -0.005546
v 0.229198 1.793251 -0.051879
v 0.301686 1.886406 -0.005546
v 0.225838 1.725324 -0.005500
v -0.546183 0.215355 0.058171
v -0.508373 0.211484 0.044007
v -0.537197 0.258348 0.009367
v -0.215545 -0.548309 -0.005543
v -0.226721 -0.590188 -0.065646
v -0.227197 -0.498493 -0.066303
v 0.237098 -0.049600 0.001040
v 0.252487 -0.064816 0.016147
v 0.271389 -0.055388 -0.008942
v 0.274825 -0.074367 0.008740
v -0.215545 -0.548309 -0.005543
v -0.228759 -0.506901 0.054757
v -0.223619 -0.584949 0.052467
v 0.257475 -0.389398 0.046694
v 0.272901 -0.376305 -0.004714
v 0.226115 -0.338003 0.027932
v 0.257429 -0.386295 -0.055215
v 0.225711 -0.335905 -0.038885
v 0.272901 -0.376305 -0.004714
v 0.828332 2.300618 -0.005629
v 0.852943 2.236756 0.031872
v 0.836985 2.325439 0.010104
v 0.073344 -0.429673 -0.059600
v 0.095275 -0.394483 -0.005307
v 0.120457 -0.382231 -0.045201
v 0.248334 -0.058317 -0.025782
v 0.237098 -0.049600 0.001040
v 0.271389 -0.055388 -0.008942
v 0.228349 1.791908 0.040952
v 0.301686 1.886406 -0.005546
v 0.399813 2.037091 0.026671
v 0.412683 2.040551 -0.006048
v 0.560133 -0.375975 -0.016832
v 0.563219 -0.381196 0.010385
v 0.581439 -0.387640 -0.010519
v 0.395953 2.028761 -0.038341
v 0.412683 2.040551 -0.006048
v 0.301686 1.886406 -0.005546
v 0.229198 1.793251 -0.051879
v -0.226721 -0.590188 -0.065646
v -0.120069 -0.493899 -0.005842
v -0.091078 -0.498724 -0.048866
v -0.215545 -0.548309 -0.005543
v 0.095275 -0.394483 -0.005307
v 0.073344 -0.429673 -0.059600
v -0.223619 -0.584949 0.052467
v -0.120069 -0.493899 -0.005842
v -0.215545 -0.548309 -0.005543
v -0.096317 -0.502598 0.038803
v 0.095275 -0.394483 -0.005307
v 0.120846 -0.392308 0.039607
v -0.497962 0.224136 -0.005160
v -0.526170 0.254170 -0.019184
v -0.537197 0.258348 0.009367
v -0.508373 0.211484 0.044007
v -0.497962 0.224136 -0.005160
v -0.508736 0.212507 -0.055301
v -0.526170 0.254170 -0.019184
v -0.407855 -0.113605 -0.006138
v -0.497962 0.224136 -0.005160
v -0.508373 0.211484 0.044007
v -0.414034 -0.144373 0.053836
v -0.497962 0.224136 -0.005160
v -0.407855 -0.113605 -0.006138
v -0.508736 0.212507 -0.055301
v -0.415234 -0.142400 -0.065448
v 0.959173 1.792438 -0.066937
v 0.958059 1.568472 -0.005621
v 0.924696 1.883043 -0.005605
v 0.834288 2.318722 -0.030550
v 0.828332 2.300618 -0.005629
v -0.343811 -0.243418 -0.062300
v -0.415234 -0.142400 -0.065448
v -0.333865 -0.223887 -0.006858
v -0.407855 -0.113605 -0.006138
v 0.959226 1.792122 0.055733
v 0.924696 1.883043 -0.005605
v 0.958059 1.568472 -0.005621
v 0.852943 2.236756 0.031872
v 0.828332 2.300618 -0.005629
v -0.356500 -1.290919 -0.005612
v -0.373843 -1.158479 0.053034
v -0.356174 -1.500683 0.057309
v -0.318215 -1.552884 -0.005587
v -0.221447 -1.899558 -0.005139
v -0.238324 -1.891625 0.032144
v -0.333865 -0.223887 -0.006858
v -0.407855 -0.113605 -0.006138
v -0.414034 -0.144373 0.053836
v -0.338896 -0.244448 0.049907
v -0.356119 -1.501012 -0.068558
v -0.356500 -1.290919 -0.005612
v -0.318215 -1.552884 -0.005587
v -0.374261 -1.160918 -0.064688
v -0.221447 -1.899558 -0.005139
v -0.239725 -1.886248 -0.044287
v 0.272901 -0.376305 -0.004714
v 0.563219 -0.381196 0.010385
v 0.560133 -0.375975 -0.016832
v 0.257475 -0.389398 0.046694
v 0.272901 -0.376305 -0.004714
v 0.560133 -0.375975 -0.016832
v 0.257429 -0.386295 -0.055215
vn -0.1771 -0.9326 0.3146
vn -0.1751 -0.8412 -0.5116
vn -0.1752 -0.8412 -0.5116
vn -0.1752 -0.8411 -0.5117
vn 0.4825 0.8754 0.0308
vn -0.5690 -0.5906 0.5722
vn -0.8460 -0.5188 0.1232
vn -0.1829 0.9724 0.1447
vn 0.3847 0.8464 -0.3682
vn 0.5808 0.7070 0.4034
vn 0.5809 0.7070 0.4034
vn 0.0297 0.9714 -0.2355
vn 0.0297 0.9714 -0.2356
vn 0.8554 0.4785 -0.1984
vn 0.8554 0.4785 -0.1983
vn 0.5880 0.6208 -0.5185
vn 0.6484 0.4928 -0.5802
vn 0.8104 0.4386 0.3885
vn 0.7518 0.4289 0.5009
vn 0.7464 0.4280 0.5097
vn 0.8146 0.4385 0.3797
vn -0.8736 -0.1611 -0.4592
vn -0.8638 -0.1524 -0.4802
vn -0.9061 -0.2956 -0.3027
vn -0.8538 -0.4049 -0.3271
vn -0.8106 -0.4662 -0.3543
vn 0.5318 0.4581 0.7123
vn -0.5239 0.8453 -0.1047
vn -0.4568 0.7915 0.4061
vn 0.7004 0.7106 -0.0666
vn 0.0484 0.9892 0.1382
vn -0.0347 0.9515 -0.3057
vn -0.0347 0.9515 -0.3056
vn -0.7600 0.6062 -0.2345
vn -0.7600 0.6062 -0.2344
vn -0.2033 0.9150 -0.3484
vn 0.3903 -0.9176 0.0756
vn -0.5504 0.7125 -0.4353
vn -0.8370 -0.5103 0.1976
vn -0.8442 -0.5073 0.1731
vn -0.7927 -0.5228 0.3135
vn -0.7827 -0.5239 0.3360
vn 0.9172 0.3002 -0.2618
vn -0.2460 0.8917 0.3799
vn 0.8675 0.3909 0.3076
vn 0.2033 -0.9053 0.3731
vn 0.2072 -0.9012 -0.3807
vn 0.2032 -0.9089 -0.3642
vn 0.2032 -0.9089 -0.3641
vn 0.2521 -0.7918 -0.5563
vn 0.2571 -0.7745 -0.5780
vn -0.3603 0.6355 0.6829
vn -0.2978 0.5761 0.7612
vn -0.3731 0.6464 0.6656
vn -0.4279 0.6933 0.5798
vn -0.7523 0.6589 -0.0005
vn -0.7517 0.6582 0.0416
vn -0.7525 0.6585 -0.0002
vn -0.7521 0.6577 -0.0424
vn 0.7632 0.5382 0.3575
vn -0.0630 -0.3416 -0.9377
vn -0.7700 -0.5153 -0.3763
vn -0.7821 -0.5141 -0.3522
vn -0.8505 -0.4481 -0.2756
vn -0.8860 -0.3561 -0.2970
vn -0.9506 -0.2372 -0.2004
vn -0.9125 -0.1388 -0.3847
vn -0.9005 -0.1240 -0.4168
vn 0.5518 -0.7170 0.4260
vn 0.4772 0.3196 0.8186
vn -0.9265 -0.2312 0.2969
vn -0.9265 -0.2312 0.2968
vn -0.4646 0.7787 0.4216
vn -0.4646 0.7787 0.4217
vn -0.4645 0.7787 0.4217
vn -0.4646 0.7787 -0.4216
vn -0.4645 0.7787 -0.4216
vn 0.5716 0.7513 -0.3299
vn 0.5715 0.7513 -0.3300
vn 0.5699 0.7525 0.3301
vn 0.5698 0.7525 0.3301
vn 0.6906 -0.4681 0.5513
vn -0.9861 0.0797 0.1458
vn -0.9831 0.0739 0.1672
vn -0.9890 0.0856 0.1204
vn -0.9831 0.0739 0.1673
vn -0.9937 0.1052 0.0380
vn 0.1467 0.9881 -0.0463
vn 0.2354 0.9676 -0.0910
vn 0.1768 0.9823 -0.0618
vn 0.0562 0.9984 -0.0016
vn 0.3378 0.8568 0.3896
vn 0.3378 0.8568 0.3895
vn -0.9865 0.1509 -0.0640
vn 0.3611 0.8577 -0.3660
vn 0.3612 0.8577 -0.3660
vn 0.5731 -0.7563 -0.3155
vn 0.5731 -0.7563 -0.3156
vn 0.5827 -0.7502 0.3126
vn 0.9338 -0.0851 -0.3476
vn 0.9339 -0.1173 -0.3379
vn 0.9169 -0.0012 -0.3992
vn 0.9151 -0.0022 -0.4032
vn 0.9258 -0.2069 -0.3164
vn 0.2023 0.9177 0.3420
vn 0.2989 0.8902 0.3438
vn 0.3213 0.8824 0.3438
vn 0.4216 0.8403 0.3408
vn 0.4217 0.8403 0.3408
vn 0.2978 0.8910 -0.3427
vn 0.2024 0.9177 -0.3419
vn 0.3211 0.8829 -0.3426
vn 0.4207 0.8412 -0.3397
vn 0.9156 -0.0027 0.4020
vn 0.9172 -0.0021 0.3984
vn 0.9327 -0.0890 0.3496
vn 0.9326 -0.1163 0.3418
vn 0.9228 -0.2098 0.3233
vn 0.9228 -0.2098 0.3232
vn 0.6420 0.7515 0.1517
vn 0.6420 0.7516 0.1516
vn 0.3755 0.4046 0.8338
vn 0.2199 0.8514 -0.4763
vn -0.5151 0.3038 0.8015
vn -0.5150 0.3038 0.8015
vn 0.7666 -0.4048 -0.4985
vn 0.7665 -0.4048 -0.4986
vn 0.7666 -0.4047 -0.4985
vn 0.8519 -0.4333 -0.2941
vn 0.0483 0.3740 0.9262
vn 0.0217 0.4865 0.8734
vn 0.0171 0.5039 0.8636
vn 0.0510 0.3633 0.9303
vn -0.9552 -0.0207 0.2951
vn -0.9091 -0.1343 0.3943
vn -0.9227 -0.2400 0.3017
vn -0.8459 -0.3132 0.4317
vn -0.8214 -0.3265 0.4677
vn -0.9122 0.0998 0.3973
vn -0.9255 0.1752 0.3358
vn -0.9424 0.1355 0.3057
vn -0.9282 0.0750 0.3645
vn -0.8952 -0.0112 0.4456
vn 0.2315 -0.5344 -0.8129
vn -0.5936 -0.1504 0.7906
vn -0.8899 -0.0333 -0.4549
vn 0.6488 -0.1140 0.7524
vn 0.6273 -0.1982 0.7531
vn 0.6497 -0.1114 0.7520
vn 0.6684 -0.0138 0.7437
vn 0.2803 0.2104 -0.9366
vn 0.1925 0.2329 -0.9533
vn 0.1748 0.2482 -0.9528
vn 0.0784 0.2522 -0.9645
vn 0.3183 0.2718 -0.9082
vn 0.2978 0.2727 -0.9148
vn 0.1124 0.3136 -0.9429
vn 0.0569 0.3002 -0.9522
vn 0.3370 0.4766 0.8120
vn -0.7729 0.4435 -0.4539
vn -0.7395 0.4648 -0.4870
vn -0.8539 0.3792 -0.3564
vn -0.8773 0.3557 -0.3223
vn -0.7677 0.4404 0.4655
vn -0.8773 0.3548 0.3233
vn -0.8545 0.3761 0.3583
vn -0.7342 0.4593 0.5000
vn 0.7573 -0.1807 -0.6276
vn 0.7573 -0.1806 -0.6276
vn 0.8185 0.2522 -0.5163
vn 0.1390 -0.2382 0.9612
vn 0.1251 -0.4272 0.8954
vn 0.1428 -0.5207 0.8417
vn 0.1438 -0.5229 0.8402
vn 0.1411 -0.1942 0.9708
vn 0.9750 -0.1751 0.1369
vn -0.6580 0.2072 0.7239
vn -0.9460 -0.0627 0.3181
vn 0.9334 -0.3589 -0.0043
vn 0.9407 -0.2792 -0.1926
vn 0.9672 -0.2539 -0.0004
vn 0.8711 -0.3610 -0.3329
vn 0.9413 -0.2791 0.1897
vn 0.8748 -0.3609 0.3232
vn 0.2600 -0.2175 0.9408
vn -0.9113 0.1006 -0.3992
vn -0.9636 0.0007 -0.2675
vn -0.9752 -0.0276 -0.2194
vn -0.9259 0.1761 -0.3342
vn -0.9560 0.1819 -0.2301
vn -0.9569 0.1819 -0.2265
vn 0.6537 0.6574 0.3750
vn 0.6419 0.6553 0.3982
vn 0.6392 0.6549 0.4030
vn 0.6558 0.6577 0.3706
vn 0.6596 0.6542 -0.3701
vn 0.6839 0.6570 -0.3173
vn 0.6548 0.6539 -0.3789
vn 0.6897 0.6572 -0.3039
vn 0.2306 0.1334 0.9639
vn 0.2238 0.1354 0.9652
vn 0.2041 0.1415 0.9687
vn 0.2558 0.1246 0.9587
vn 0.8020 -0.3035 0.5144
vn 0.1380 0.9525 -0.2715
vn 0.1379 0.9525 -0.2715
vn 0.1379 0.9525 -0.2716
vn 0.3456 -0.1943 -0.9181
vn 0.3334 -0.2713 -0.9029
vn 0.3406 -0.1600 -0.9265
vn 0.1614 -0.2518 -0.9542
vn 0.1214 -0.3989 -0.9089
vn 0.1145 -0.4217 -0.8995
vn 0.1437 -0.2906 -0.9460
vn 0.1485 -0.2673 -0.9521
vn 0.7915 0.4591 -0.4034
vn 0.7911 0.4522 0.4119
vn 0.0706 0.9504 0.3028
vn 0.0707 0.9504 0.3028
vn -0.7746 0.6286 -0.0695
vn 0.2377 0.1478 0.9600
vn 0.2277 0.1715 0.9585
vn 0.1622 0.2454 0.9557
vn 0.2627 0.1363 0.9552
vn 0.1360 0.2826 0.9495
vn 0.2343 0.3575 -0.9040
vn 0.2374 0.3518 -0.9054
vn 0.2344 0.3575 -0.9040
vn 0.2472 0.3294 -0.9113
vn 0.2491 0.3246 -0.9125
vn 0.2491 0.3247 -0.9124
vn 0.6391 -0.7238 0.2601
vn 0.3092 -0.1649 -0.9366
vn 0.5354 -0.0335 0.8440
vn 0.3484 -0.1298 0.9283
vn 0.4694 -0.0587 0.8810
vn 0.3055 -0.1445 0.9412
vn 0.2902 -0.1690 0.9419
vn 0.4432 -0.0909 0.8918
vn 0.4069 -0.1425 0.9023
vn -0.8916 0.3069 -0.3329
vn -0.8770 0.3566 -0.3221
vn -0.8770 0.3566 -0.3222
vn -0.8896 0.3137 -0.3319
vn -0.9136 0.2232 -0.3399
vn -0.9205 0.1959 -0.3380
vn -0.9337 0.0632 -0.3524
vn -0.9328 0.0115 -0.3603
vn -0.8986 -0.1982 -0.3914
vn -0.8975 -0.2011 -0.3924
vn -0.8585 -0.3132 -0.4060
vn -0.8585 -0.3132 -0.4061
vn -0.8775 0.3568 0.3205
vn -0.8926 0.3040 0.3330
vn -0.8896 0.3156 0.3300
vn -0.9131 0.2240 0.3408
vn -0.9207 0.1938 0.3388
vn -0.9337 0.0622 0.3525
vn -0.9331 0.0134 0.3595
vn -0.9044 -0.2001 0.3769
vn -0.8705 -0.3152 0.3780
vn -0.8705 -0.3152 0.3779
vn 0.4656 -0.0716 -0.8821
vn 0.4999 -0.0226 -0.8658
vn 0.4598 -0.0891 -0.8836
vn 0.3788 -0.1435 -0.9143
vn 0.3749 -0.1425 -0.9161
vn 0.2870 -0.1309 -0.9490
vn 0.2725 -0.1436 -0.9514
vn 0.2577 -0.2020 -0.9449
vn 0.2776 -0.0835 -0.9571
vn 0.2711 -0.0617 -0.9606
vn -0.1614 0.1158 -0.9801
vn -0.1021 0.1104 -0.9886
vn -0.1809 0.1178 -0.9764
vn -0.2502 0.1470 -0.9570
vn -0.2806 0.1744 -0.9439
vn -0.2171 0.2456 -0.9447
vn -0.1986 0.2544 -0.9465
vn -0.1000 0.3011 -0.9483
vn -0.2531 0.0407 0.9666
vn -0.3918 0.0320 -0.9195
vn -0.3788 0.0731 -0.9226
vn -0.2766 0.0368 -0.9603
vn -0.3722 -0.0187 -0.9280
vn -0.2552 -0.0374 -0.9662
vn -0.3261 -0.0782 -0.9421
vn -0.2863 -0.1358 -0.9485
vn -0.3915 -0.2693 -0.8799
vn -0.4119 -0.2858 -0.8653
vn -0.1877 0.0076 -0.9822
vn -0.1819 -0.0694 -0.9809
vn -0.2902 -0.1768 -0.9405
vn -0.2482 0.1236 -0.9608
vn -0.4305 -0.1474 -0.8905
vn -0.3058 0.0739 -0.9492
vn -0.4210 -0.0480 -0.9058
vn -0.4072 -0.0090 -0.9133
vn -0.4073 -0.0090 -0.9133
vn -0.3037 0.1138 -0.9459
vn -0.3165 0.0650 -0.9464
vn -0.3632 0.0641 -0.9295
vn -0.3992 0.0193 -0.9167
vn -0.2286 -0.0792 -0.9703
vn -0.3615 -0.0236 -0.9321
vn -0.1770 -0.1309 -0.9755
vn -0.1732 -0.1475 -0.9738
vn -0.2521 -0.1231 -0.9598
vn -0.2805 -0.1026 -0.9544
vn -0.3670 -0.0402 -0.9293
vn -0.3924 0.0398 0.9189
vn -0.3799 0.0739 0.9221
vn -0.3517 -0.0178 0.9359
vn -0.2831 0.0427 0.9581
vn -0.3176 -0.1085 0.9420
vn -0.2190 -0.0206 0.9755
vn -0.3205 -0.0919 0.9428
vn -0.2922 -0.2265 0.9291
vn -0.2793 -0.2760 0.9197
vn -0.2559 -0.3599 0.8972
vn -0.1351 0.0183 0.9907
vn -0.1389 -0.0655 0.9881
vn -0.2980 -0.1641 0.9404
vn -0.3291 -0.2683 0.9054
vn -0.3073 -0.1461 0.9403
vn -0.2461 0.1138 0.9625
vn -0.2989 0.1070 0.9483
vn -0.3321 0.0719 0.9405
vn -0.3625 0.0720 0.9292
vn -0.3682 0.0739 0.9268
vn -0.3729 0.0670 0.9255
vn -0.3166 -0.0061 0.9485
vn -0.3652 -0.1123 0.9241
vn -0.3890 -0.1449 0.9097
vn 0.8199 -0.2511 -0.5145
vn 0.9711 0.1815 0.1549
vn 0.9665 0.1372 0.2169
vn 0.9578 0.0069 0.2873
vn 0.9600 -0.1332 0.2462
vn 0.9518 -0.1905 0.2404
vn 0.9492 -0.1922 0.2491
vn 0.9576 0.0017 -0.2882
vn 0.9593 -0.1290 -0.2512
vn 0.9668 0.1199 -0.2256
vn 0.9724 0.1617 -0.1682
vn 0.9415 -0.1855 -0.2813
vn 0.9362 -0.1868 -0.2977
vn 0.8769 -0.2410 0.4158
vn 0.8769 -0.2410 0.4159
vn -0.0503 0.4076 0.9118
vn 0.3495 -0.1787 0.9197
vn 0.3938 -0.3004 0.8687
vn 0.4053 -0.3338 0.8511
vn 0.3384 -0.1513 0.9288
vn 0.3895 0.2387 0.8896
vn 0.3668 0.2019 0.9081
vn 0.3631 0.1307 0.9225
vn 0.4654 0.0184 0.8849
vn 0.4695 -0.0007 0.8829
vn 0.2879 0.1197 0.9501
vn 0.2501 0.1434 0.9576
vn -0.7883 0.3909 -0.4752
vn -0.8131 0.3888 0.4333
vn -0.1098 0.0798 0.9907
vn -0.1283 0.1481 0.9806
vn -0.0990 -0.0217 0.9949
vn -0.2979 0.1461 0.9434
vn -0.0105 0.2201 0.9754
vn -0.3280 0.2117 0.9206
vn -0.1730 0.1830 0.9678
vn -0.1547 0.1773 0.9719
vn 0.2472 0.2885 0.9250
vn 0.3347 0.3955 0.8553
vn 0.3403 0.4050 0.8486
vn -0.1205 -0.0811 0.9894
vn -0.1049 -0.0528 0.9931
vn -0.1790 -0.1494 0.9725
vn -0.3165 -0.1942 0.9285
vn -0.3632 -0.2119 0.9073
vn -0.9104 -0.3574 0.2084
vn 0.8612 -0.2994 -0.4108
vn 0.8648 -0.3026 -0.4007
vn 0.9050 -0.3443 -0.2500
vn 0.7876 -0.4742 -0.3935
vn 0.7714 -0.4934 -0.4020
vn 0.6771 -0.6486 -0.3476
vn 0.6399 -0.6855 -0.3474
vn 0.5793 -0.7419 -0.3376
vn 0.5737 -0.7509 -0.3271
vn 0.5689 -0.7579 -0.3193
vn 0.8622 -0.3492 0.3670
vn 0.8729 -0.3063 0.3798
vn 0.8633 -0.3454 0.3681
vn 0.8089 -0.4576 0.3692
vn 0.7670 -0.5171 0.3799
vn 0.6587 -0.6556 0.3692
vn 0.6500 -0.6664 0.3653
vn 0.5806 -0.7412 0.3369
vn 0.5696 -0.7536 0.3280
vn 0.5650 -0.7588 0.3242
vn -0.8569 -0.3318 -0.3945
vn 0.2232 -0.0356 0.9741
vn -0.3662 0.5907 -0.7190
vn 0.5583 0.7351 0.3847
vn 0.5582 0.7351 0.3847
vn 0.5582 0.7351 0.3848
vn 0.0540 -0.0606 -0.9967
vn 0.3243 0.1236 -0.9379
vn 0.3144 -0.0051 -0.9493
vn 0.3076 0.0750 -0.9486
vn 0.3223 -0.0851 -0.9428
vn 0.2978 -0.1114 -0.9481
vn 0.2743 -0.2117 -0.9381
vn 0.2792 -0.1464 -0.9490
vn 0.3124 -0.3229 -0.8934
vn 0.3213 -0.3260 -0.8891
vn 0.3076 -0.3708 -0.8763
vn 0.2919 -0.3307 -0.8974
vn 0.3095 -0.3678 -0.8769
vn 0.2451 -0.2996 -0.9221
vn 0.1205 -0.2811 -0.9521
vn 0.1379 -0.2549 -0.9571
vn 0.1204 -0.0275 -0.9923
vn 0.1535 -0.1679 -0.9738
vn 0.2062 0.0583 -0.9768
vn 0.2013 0.1802 -0.9628
vn 0.2180 0.1383 -0.9661
vn 0.1886 0.3079 -0.9325
vn 0.2160 0.2885 -0.9328
vn 0.2160 0.2884 -0.9328
vn -0.4101 0.8491 -0.3330
vn -0.4101 0.8491 -0.3329
vn -0.3985 0.8194 0.4120
vn 0.6325 0.6310 -0.4492
vn 0.6326 0.6309 -0.4492
vn 0.8914 -0.0809 -0.4460
vn 0.8987 -0.1387 -0.4160
vn 0.9021 -0.2225 -0.3699
vn 0.8790 -0.3542 -0.3193
vn 0.8480 -0.4343 -0.3038
vn 0.7599 -0.5092 -0.4041
vn 0.7502 -0.5078 -0.4235
vn 0.0521 0.0300 -0.9982
vn -0.0123 0.0037 -0.9999
vn -0.0122 0.0037 -0.9999
vn 0.0316 0.0222 -0.9993
vn 0.2596 0.1168 -0.9586
vn 0.3778 -0.0850 0.9220
vn 0.3430 -0.1165 0.9321
vn 0.2541 -0.0049 0.9672
vn 0.3379 -0.1295 0.9322
vn 0.2824 0.0070 0.9593
vn 0.0919 -0.0509 0.9945
vn 0.0373 -0.0801 0.9961
vn 0.1632 -0.1201 0.9792
vn 0.1419 -0.1416 0.9797
vn 0.1682 0.0008 0.9858
vn 0.2121 -0.1641 0.9634
vn 0.3096 -0.3304 0.8916
vn 0.1682 0.0652 0.9836
vn 0.1967 0.0626 0.9785
vn 0.1973 0.0623 0.9784
vn 0.1125 0.0758 0.9908
vn 0.3133 -0.3727 0.8735
vn 0.2774 -0.3146 0.9078
vn 0.1460 -0.2579 0.9551
vn 0.1086 -0.2731 0.9558
vn 0.0706 -0.2967 0.9524
vn 0.0628 -0.3288 0.9423
vn -0.1829 0.0341 0.9825
vn -0.1623 0.0563 0.9851
vn -0.2618 0.0370 0.9644
vn -0.1791 0.2467 0.9524
vn -0.1896 0.2864 0.9392
vn -0.3730 0.0641 0.9256
vn -0.3974 0.0300 0.9172
vn -0.3439 0.2046 0.9164
vn -0.3467 0.1977 0.9169
vn -0.3000 0.3080 0.9028
vn 0.8748 -0.3492 0.3359
vn 0.8435 -0.4261 0.3270
vn 0.7440 -0.4903 0.4539
vn 0.7339 -0.4880 0.4725
vn 0.8976 -0.2235 0.3799
vn 0.8966 -0.1406 0.4198
vn 0.8914 -0.0812 0.4459
vn -0.2521 0.2084 -0.9450
vn -0.2638 0.2016 -0.9433
vn -0.2669 0.0593 -0.9619
vn -0.2609 0.0934 -0.9608
vn -0.1848 0.2289 -0.9558
vn -0.3722 -0.0392 -0.9273
vn -0.1741 0.2319 -0.9570
vn -0.4139 -0.0451 -0.9092
vn -0.4258 -0.0461 -0.9036
vn -0.0142 0.2484 -0.9686
vn -0.0210 0.1042 -0.9943
vn -0.0662 0.1138 -0.9913
vn 0.2080 0.2600 -0.9429
vn 0.3008 0.1529 -0.9414
vn 0.4763 0.0124 -0.8792
vn 0.5057 -0.0037 -0.8627
vn 0.4510 0.0349 -0.8918
vn 0.4315 0.0475 -0.9008
vn -0.2003 0.0388 -0.9790
vn -0.3438 0.0700 -0.9364
vn -0.1653 0.1187 -0.9791
vn -0.3615 0.0769 -0.9292
vn -0.1762 0.1774 -0.9683
vn -0.1283 0.2397 -0.9623
vn -0.3719 0.1977 -0.9070
vn -0.3760 0.1782 -0.9093
vn -0.3495 0.2913 -0.8905
vn -0.7755 0.6012 0.1926
vn -0.7755 0.6013 0.1926
vn -0.7755 0.6013 0.1925
vn -0.3301 0.2507 0.9100
vn 0.2708 -0.5560 -0.7859
vn 0.2862 0.0866 -0.9543
vn 0.2903 0.0865 -0.9530
vn 0.3494 0.0358 -0.9363
vn 0.3526 0.0388 -0.9350
vn 0.3582 -0.0149 -0.9335
vn 0.3642 -0.0314 -0.9308
vn 0.3845 -0.0889 -0.9189
vn 0.4080 -0.1758 -0.8959
vn 0.3628 -0.1873 -0.9129
vn 0.2774 -0.0239 -0.9605
vn 0.2508 0.0260 -0.9677
vn -0.8207 0.5098 -0.2579
vn -0.9460 0.3239 0.0092
vn 0.4473 0.1555 -0.8808
vn 0.4001 0.2543 -0.8805
vn 0.4441 0.1626 -0.8811
vn 0.4812 0.0749 -0.8734
vn -0.2667 0.1041 0.9581
vn -0.2658 0.0466 0.9629
vn -0.3422 -0.0368 0.9389
vn -0.3447 -0.0374 0.9380
vn -0.2346 0.2007 0.9512
vn -0.3722 -0.0002 0.9282
vn -0.2490 0.1898 0.9497
vn -0.2834 0.1344 0.9495
vn -0.2463 0.1851 0.9514
vn -0.1945 0.2552 0.9471
vn -0.1927 0.2621 0.9456
vn -0.1926 0.2621 0.9456
vn 0.9197 0.1197 0.3739
vn 0.9483 -0.0226 0.3165
vn 0.9450 0.0008 0.3271
vn 0.9541 -0.1455 0.2618
vn 0.9062 0.1110 -0.4081
vn 0.9438 0.1043 -0.3137
vn 0.9723 0.0076 -0.2335
vn 0.9042 0.1100 -0.4127
vn 0.9484 -0.1211 -0.2931
vn 0.9366 -0.1504 -0.3164
vn 0.3280 0.1938 0.9246
vn 0.2933 0.1599 0.9426
vn 0.2563 0.0904 0.9624
vn 0.2804 -0.0027 0.9599
vn 0.3036 -0.0284 0.9524
vn -0.3704 0.3814 -0.8470
vn 0.4666 0.0141 0.8844
vn 0.3603 -0.0327 0.9323
vn 0.4900 0.0231 0.8714
vn 0.4703 -0.1357 0.8720
vn 0.3991 -0.1932 0.8963
vn 0.3650 -0.2137 0.9061
vn 0.9650 0.0623 -0.2549
vn 0.9654 0.0661 0.2521
vn -0.9625 0.0005 -0.2713
vn -0.9451 0.1110 -0.3075
vn -0.9480 0.2522 -0.1944
vn -0.9502 0.2660 -0.1623
vn -0.9632 -0.0782 -0.2570
vn -0.9604 -0.0811 -0.2665
vn -0.9638 -0.0752 0.2559
vn -0.9605 0.0027 0.2783
vn -0.9461 0.1071 0.3056
vn -0.9617 -0.0783 0.2626
vn -0.9495 0.2534 0.1849
vn -0.9518 0.2678 0.1497
vn -0.8241 0.2103 0.5259
vn -0.8242 0.2103 0.5259
vn -0.8252 0.2084 -0.5249
vn -0.8253 0.2084 -0.5249
vn -0.1546 0.2747 -0.9490
vn -0.2140 0.2913 -0.9324
vn -0.0990 0.1958 -0.9756
vn -0.2249 0.2875 -0.9310
vn -0.0883 0.1909 -0.9776
vn -0.0347 0.1694 -0.9849
vn -0.2259 0.1403 -0.9640
vn -0.0991 0.1137 -0.9886
vn -0.0893 0.1141 -0.9895
vn -0.0922 0.2134 0.9726
vn -0.0952 0.2105 0.9730
vn -0.1556 0.1714 0.9728
vn -0.0522 0.1675 0.9845
vn 0.0404 0.2007 0.9788
vn 0.1498 -0.0283 0.9883
vn 0.1349 0.0885 0.9869
vn 0.1262 0.1432 0.9816
vn 0.0979 0.2681 0.9584
vn -0.0863 0.2123 0.9734
vn 0.0766 0.3829 0.9206
vn -0.1575 0.1255 0.9795
vn -0.1038 0.1187 0.9875
vn -0.1000 0.1190 0.9878
vn -0.2170 0.9709 0.1010
vn -0.6609 0.6650 0.3478
vn -0.6609 0.6650 0.3477
vn -0.5977 0.7724 -0.2148
vn -0.6430 0.6910 -0.3302
vn -0.5814 0.7980 -0.1584
vn -0.7349 0.6149 -0.2860
vn -0.7826 0.5478 -0.2957
vn -0.8597 0.4669 -0.2072
vn -0.9175 0.2498 -0.3095
vn -0.9086 0.2007 -0.3662
vn -0.9938 -0.0002 -0.1115
vn -0.9971 -0.0155 -0.0747
vn 0.9569 0.2708 0.1047
vn -0.5942 0.7728 0.2228
vn -0.6386 0.6894 0.3419
vn -0.7352 0.6135 0.2882
vn -0.5802 0.7969 0.1683
vn -0.7835 0.5463 0.2962
vn -0.8605 0.4659 0.2063
vn -0.9179 0.2494 0.3087
vn -0.9089 0.2008 0.3654
vn -0.9936 -0.0004 0.1127
vn -0.9970 -0.0155 0.0755
vn 0.3662 0.0581 -0.9287
vn 0.4651 0.0872 -0.8809
vn 0.3486 0.0678 -0.9348
vn 0.4762 0.0884 -0.8749
vn 0.3085 0.0134 -0.9511
vn 0.3436 -0.0587 -0.9373
vn 0.3544 -0.0782 -0.9318
vn 0.4742 0.0884 0.8760
vn 0.4859 0.0905 0.8693
vn 0.3670 0.0584 0.9284
vn 0.3477 0.0681 0.9351
vn 0.3086 0.0095 0.9512
vn 0.3475 -0.0646 0.9355
vn 0.3622 -0.0880 0.9279
vn 0.2482 -0.8229 -0.5111
vn 0.2492 -0.8252 0.5069
vn 0.1779 0.2202 -0.9591
vn 0.1993 0.1849 -0.9623
vn 0.3505 -0.0081 -0.9365
vn 0.3496 -0.0197 -0.9367
vn 0.3457 -0.0188 -0.9381
vn 0.1350 0.3256 -0.9358
vn 0.1204 0.3363 -0.9340
vn 0.0970 0.3528 -0.9307
vn 0.5388 0.2964 -0.7886
vn -0.6451 0.6882 -0.3320
vn -0.0445 0.7537 0.6557
vn 0.7305 0.4757 0.4899
vn 0.7030 0.2619 -0.6612
vn 0.6890 0.2680 0.6734
vn -0.4037 0.4058 0.8200
vn -0.7136 -0.6373 0.2910
vn -0.7326 -0.5305 0.4265
vn -0.6421 -0.6533 0.4011
vn -0.7310 -0.4925 0.4723
vn -0.6286 -0.6497 0.4276
vn -0.6421 -0.6285 -0.4391
vn -0.6497 -0.6312 -0.4236
vn -0.7008 -0.6483 -0.2977
vn -0.7058 -0.6497 -0.2824
vn 0.1418 -0.9831 0.1156
vn -0.0318 0.9872 -0.1565
vn 0.2588 0.2358 0.9367
vn 0.2951 0.2045 0.9333
vn 0.2490 0.2865 0.9251
vn 0.4362 0.1535 0.8866
vn 0.4668 0.1500 0.8716
vn 0.3758 0.1529 0.9140
vn 0.3602 0.1539 0.9201
vn 0.1214 0.7594 -0.6392
vn 0.1213 0.7594 -0.6392
vn 0.4236 0.2065 -0.8820
vn 0.4256 0.1539 -0.8917
vn 0.3575 0.1365 -0.9239
vn 0.3486 0.1365 -0.9273
vn 0.4218 0.2251 -0.8783
vn -0.7683 0.5560 0.3171
vn -0.7184 0.5840 -0.3779
vn 0.5853 -0.7150 0.3824
vn 0.5890 -0.7175 0.3718
vn 0.6283 -0.7411 0.2365
vn 0.6323 -0.7432 0.2189
vn 0.6248 -0.7396 -0.2501
vn 0.6284 -0.7414 -0.2354
vn 0.5925 -0.7200 -0.3614
vn 0.5895 -0.7180 -0.3700
vn -0.0071 -0.9457 -0.3250
vn 0.0003 -0.9409 -0.3387
vn -0.0192 -0.9738 -0.2266
vn 0.0471 -0.9383 -0.3427
vn -0.0160 -0.9765 -0.2150
vn -0.0240 -0.9712 0.2372
vn -0.0250 -0.9689 0.2463
vn -0.0374 -0.9426 0.3317
vn -0.0445 -0.9245 0.3787
vn 0.7887 -0.3716 0.4898
vn 0.7899 -0.3717 -0.4878
vn 0.3164 0.6825 0.6588
vn 0.9826 0.0037 -0.1857
vn 0.2869 0.8053 0.5188
vn 0.3671 0.7456 0.5562
vn 0.3885 0.7271 0.5660
vn 0.4747 0.6447 0.5992
vn 0.9830 0.0592 0.1740
vn 0.7290 0.5784 0.3661
vn 0.7416 0.5772 -0.3417
vn -0.8566 -0.0275 0.5153
vn -0.6647 0.7203 -0.1984
vn 0.0812 0.9573 -0.2773
vn 0.8146 -0.5619 0.1438
vn 0.8132 -0.5619 0.1513
vn 0.7903 -0.5649 0.2374
vn 0.7861 -0.5657 0.2490
vn 0.4495 0.8853 0.1189
vn 0.7967 -0.5723 -0.1944
vn 0.7944 -0.5727 -0.2025
vn 0.8115 -0.5685 -0.1349
vn 0.8129 -0.5679 -0.1292
vn -0.4595 0.7765 -0.4312
vn -0.4335 0.8014 -0.4120
vn -0.4131 0.8199 -0.3964
vn -0.3848 0.8434 -0.3750
vn -0.4561 0.7861 0.4171
vn -0.4424 0.8172 0.3693
vn -0.4354 0.8316 0.3448
vn -0.4179 0.8599 0.2931
vn 0.6877 0.6764 0.2637
vn 0.6877 0.6764 0.2638
vn 0.7613 0.5762 -0.2972
vn 0.9368 0.2524 0.2424
vn 0.9353 0.2523 -0.2481
vn 0.9353 0.2523 -0.2480
vn -0.9275 -0.1191 -0.3543
vn -0.9223 -0.0978 -0.3740
vn -0.9393 -0.1893 -0.2861
vn -0.9410 -0.2107 -0.2646
vn 0.7765 0.5301 -0.3407
vn -0.9298 -0.1211 0.3477
vn -0.9467 -0.1943 0.2570
vn -0.9222 -0.0978 0.3741
vn -0.9491 -0.2166 0.2286
vn -0.9491 -0.2166 0.2287
vn 0.9773 0.0622 0.2024
vn 0.9838 0.0523 0.1712
vn 0.9099 0.1556 0.3845
vn 0.9053 0.2201 0.3633
vn 0.9018 0.2498 0.3526
vn 0.9011 0.2483 0.3554
vn 0.7774 0.5448 0.3144
vn 0.7774 0.5447 0.3144
vn 0.7774 0.5447 0.3145
vn 0.9102 0.1558 -0.3837
vn 0.9764 0.0641 -0.2062
vn 0.9051 0.2192 -0.3642
vn 0.9829 0.0544 -0.1757
vn 0.9068 0.2527 -0.3375
vn 0.9068 0.2522 -0.3377
vn 0.0033 0.9695 0.2451
vn 0.0062 0.9808 0.1948
vn 0.0073 0.9822 0.1877
vn 0.0033 0.9687 0.2482
vn -0.0094 0.9814 -0.1916
vt 0.000000 0.000000
s 1
f 79/2/68 80/2/68 81/2/68
f 82/2/69 83/2/70 84/2/70
f 83/2/70 82/2/69 85/2/71
f 86/2/72 87/2/72 88/2/72
f 89/2/73 90/2/73 91/2/73
f 92/2/74 93/2/74 94/2/74
f 95/2/75 96/2/75 97/2/75
f 98/2/76 99/2/76 100/2/76
f 101/2/77 102/2/77 103/2/78
f 102/2/77 101/2/77 104/2/77
f 105/2/79 106/2/80 107/2/80
f 106/2/80 105/2/79 108/2/79
f 109/2/81 110/2/82 111/2/81
f 112/2/82 111/2/81 110/2/82
f 113/2/83 114/2/83 115/2/83
f 116/2/84 117/2/84 118/2/84
f 119/2/85 120/2/86 121/2/87
f 122/2/88 120/2/86 119/2/85
f 123/2/89 124/2/90 125/2/91
f 125/2/91 126/2/92 123/2/89
f 125/2/91 127/2/93 126/2/92
f 128/2/93 126/2/92 127/2/93
f 129/2/94 130/2/94 131/2/94
f 132/2/95 133/2/95 134/2/95
f 135/2/96 136/2/96 137/2/96
f 138/2/97 139/2/97 140/2/97
f 141/2/98 142/2/98 143/2/98
f 144/2/99 145/2/99 146/2/99
f 146/2/99 145/2/99 147/2/100
f 148/2/101 149/2/102 150/2/102
f 148/2/101 150/2/102 151/2/101
f 152/2/103 153/2/103 154/2/103
f 152/2/103 154/2/103 155/2/103
f 156/2/104 157/2/104 158/2/104
f 159/2/105 160/2/105 161/2/105
f 162/2/106 163/2/107 164/2/108
f 165/2/109 162/2/106 164/2/108
f 166/2/110 167/2/110 168/2/110
f 167/2/110 166/2/110 169/2/110
f 170/2/111 171/2/111 172/2/111
f 173/2/112 174/2/112 175/2/112
f 176/2/113 177/2/113 178/2/113
f 179/2/113 178/2/113 177/2/113
f 180/2/114 181/2/115 182/2/116
f 181/2/115 180/2/114 183/2/117
f 180/2/114 184/2/118 183/2/117
f 185/2/119 186/2/120 187/2/121
f 188/2/122 185/2/119 187/2/121
f 189/2/123 190/2/124 191/2/125
f 189/2/123 191/2/125 192/2/126
f 193/2/127 194/2/127 195/2/127
f 196/2/128 197/2/128 198/2/128
f 199/2/129 200/2/130 201/2/131
f 201/2/131 200/2/130 202/2/132
f 201/2/131 202/2/132 203/2/133
f 203/2/133 202/2/132 204/2/134
f 204/2/134 205/2/135 203/2/133
f 206/2/136 207/2/136 208/2/136
f 209/2/137 210/2/137 211/2/137
f 212/2/138 213/2/139 214/2/139
f 213/2/139 212/2/138 215/2/138
f 216/2/140 217/2/141 218/2/140
f 217/2/141 216/2/140 219/2/142
f 220/2/143 221/2/143 222/2/144
f 221/2/143 220/2/143 223/2/143
f 224/2/145 225/2/145 226/2/146
f 226/2/146 225/2/145 227/2/145
f 228/2/147 229/2/147 230/2/148
f 229/2/147 228/2/147 231/2/147
f 232/2/149 233/2/149 234/2/149
f 233/2/149 232/2/149 235/2/149
f 236/2/150 237/2/151 238/2/152
f 237/2/151 236/2/150 239/2/153
f 236/2/150 238/2/152 240/2/154
f 241/2/155 242/2/156 243/2/157
f 243/2/157 244/2/158 241/2/155
f 245/2/159 246/2/160 247/2/159
f 246/2/160 248/2/160 247/2/159
f 249/2/161 250/2/161 251/2/161
f 252/2/162 253/2/162 254/2/163
f 252/2/162 254/2/163 255/2/162
f 256/2/164 257/2/165 258/2/165
f 257/2/165 256/2/164 259/2/164
f 260/2/166 261/2/166 262/2/166
f 261/2/166 260/2/166 263/2/166
f 264/2/167 265/2/168 266/2/169
f 267/2/170 264/2/167 266/2/169
f 264/2/167 268/2/171 265/2/168
f 264/2/167 269/2/171 268/2/171
f 270/2/172 271/2/173 272/2/174
f 271/2/173 270/2/172 273/2/172
f 274/2/175 272/2/174 271/2/173
f 272/2/174 274/2/175 275/2/176
f 276/2/177 277/2/178 278/2/178
f 276/2/177 278/2/178 279/2/179
f 280/2/180 276/2/177 279/2/179
f 280/2/180 279/2/179 281/2/180
f 282/2/181 283/2/182 284/2/183
f 284/2/183 283/2/182 285/2/184
f 285/2/184 286/2/185 284/2/183
f 287/2/186 284/2/183 286/2/185
f 288/2/187 289/2/188 290/2/188
f 289/2/188 288/2/187 291/2/187
f 292/2/189 293/2/189 294/2/189
f 295/2/190 296/2/190 297/2/190
f 298/2/191 299/2/192 300/2/192
f 298/2/191 300/2/192 301/2/191
f 302/2/193 303/2/193 304/2/194
f 304/2/194 303/2/193 305/2/195
f 306/2/196 307/2/196 308/2/196
f 309/2/197 310/2/198 311/2/199
f 309/2/197 312/2/200 310/2/198
f 313/2/201 314/2/202 315/2/203
f 315/2/203 314/2/202 316/2/204
f 316/2/204 317/2/205 315/2/203
f 313/2/201 318/2/206 314/2/202
f 313/2/201 319/2/207 318/2/206
f 319/2/207 320/2/208 318/2/206
f 319/2/207 321/2/209 320/2/208
f 321/2/209 322/2/210 320/2/208
f 323/2/211 324/2/211 325/2/211
f 326/2/212 327/2/212 328/2/212
f 329/2/213 330/2/213 331/2/213
f 332/2/214 333/2/215 334/2/216
f 332/2/214 334/2/216 335/2/217
f 336/2/218 337/2/219 338/2/220
f 337/2/219 339/2/221 338/2/220
f 336/2/218 340/2/222 337/2/219
f 336/2/218 341/2/223 340/2/222
f 341/2/223 342/2/224 340/2/222
f 343/2/225 342/2/224 341/2/223
f 344/2/226 345/2/226 346/2/226
f 347/2/227 348/2/228 349/2/229
f 350/2/230 347/2/227 349/2/229
f 349/2/229 351/2/230 350/2/230
f 352/2/231 353/2/232 354/2/233
f 354/2/233 353/2/232 355/2/232
f 352/2/231 354/2/233 356/2/234
f 357/2/235 358/2/236 359/2/235
f 360/2/236 359/2/235 358/2/236
f 361/2/237 362/2/237 363/2/237
f 364/2/238 365/2/239 366/2/240
f 366/2/240 365/2/239 367/2/241
f 364/2/238 368/2/242 365/2/239
f 369/2/243 370/2/243 371/2/243
f 372/2/244 373/2/244 374/2/244
f 375/2/245 376/2/245 377/2/245
f 378/2/246 379/2/247 380/2/248
f 378/2/246 381/2/249 379/2/247
f 381/2/249 378/2/246 382/2/249
f 378/2/246 380/2/248 383/2/250
f 384/2/251 378/2/246 383/2/250
f 378/2/246 384/2/251 385/2/251
f 386/2/252 387/2/252 388/2/252
f 389/2/253 390/2/254 391/2/255
f 390/2/254 389/2/253 392/2/256
f 392/2/256 389/2/253 393/2/257
f 392/2/256 393/2/257 394/2/258
f 395/2/259 396/2/260 397/2/261
f 395/2/259 398/2/262 396/2/260
f 399/2/263 400/2/264 401/2/265
f 399/2/263 402/2/266 400/2/264
f 403/2/267 404/2/268 405/2/269
f 403/2/267 406/2/270 404/2/268
f 407/2/271 408/2/271 409/2/271
f 409/2/271 410/2/271 407/2/271
f 411/2/272 412/2/273 413/2/273
f 412/2/273 414/2/274 413/2/273
f 415/2/275 416/2/276 417/2/277
f 415/2/275 418/2/278 416/2/276
f 418/2/278 419/2/279 416/2/276
f 418/2/278 420/2/280 419/2/279
f 420/2/280 421/2/281 419/2/279
f 420/2/280 422/2/282 421/2/281
f 423/2/283 424/2/283 425/2/283
f 426/2/284 427/2/284 428/2/284
f 429/2/285 430/2/285 431/2/285
f 431/2/285 432/2/286 429/2/285
f 433/2/287 434/2/287 435/2/287
f 436/2/288 437/2/289 438/2/290
f 437/2/289 436/2/288 439/2/291
f 437/2/289 440/2/292 438/2/290
f 440/2/292 437/2/289 441/2/292
f 442/2/293 443/2/294 444/2/295
f 442/2/293 445/2/296 443/2/294
f 446/2/297 443/2/294 445/2/296
f 445/2/296 447/2/298 446/2/297
f 448/2/299 449/2/299 450/2/299
f 451/2/300 452/2/300 453/2/300
f 454/2/301 455/2/302 456/2/303
f 454/2/301 457/2/304 455/2/302
f 458/2/305 455/2/302 457/2/304
f 459/2/305 455/2/302 458/2/305
f 456/2/303 460/2/306 454/2/301
f 456/2/303 461/2/307 460/2/306
f 461/2/307 456/2/303 462/2/307
f 463/2/308 464/2/309 465/2/310
f 463/2/308 465/2/310 466/2/311
f 467/2/312 463/2/308 466/2/311
f 463/2/308 467/2/312 468/2/313
f 469/2/314 468/2/313 467/2/312
f 468/2/313 469/2/314 470/2/315
f 471/2/316 470/2/315 469/2/314
f 470/2/315 471/2/316 472/2/317
f 473/2/318 472/2/317 471/2/316
f 472/2/317 473/2/318 474/2/319
f 475/2/320 476/2/321 477/2/322
f 476/2/321 475/2/320 478/2/320
f 479/2/323 477/2/322 476/2/321
f 479/2/323 476/2/321 480/2/324
f 481/2/325 479/2/323 480/2/324
f 481/2/325 480/2/324 482/2/326
f 483/2/327 481/2/325 482/2/326
f 483/2/327 482/2/326 484/2/327
f 485/2/328 483/2/327 484/2/327
f 485/2/328 484/2/327 486/2/329
f 487/2/330 488/2/331 489/2/332
f 490/2/333 487/2/330 489/2/332
f 491/2/334 487/2/330 490/2/333
f 488/2/331 487/2/330 492/2/335
f 488/2/331 492/2/335 493/2/336
f 493/2/336 492/2/335 494/2/337
f 494/2/337 495/2/338 493/2/336
f 494/2/337 496/2/339 495/2/338
f 497/2/340 498/2/341 499/2/342
f 499/2/342 500/2/343 497/2/340
f 500/2/343 499/2/342 501/2/344
f 502/2/345 500/2/343 501/2/344
f 502/2/345 501/2/344 503/2/346
f 504/2/347 502/2/345 503/2/346
f 502/2/345 504/2/347 505/2/347
f 506/2/348 507/2/348 508/2/348
f 509/2/349 510/2/350 511/2/351
f 509/2/349 512/2/352 510/2/350
f 511/2/351 510/2/350 513/2/353
f 514/2/354 512/2/352 509/2/349
f 512/2/352 514/2/354 515/2/355
f 514/2/354 516/2/356 515/2/355
f 516/2/356 517/2/357 515/2/355
f 511/2/351 513/2/353 518/2/358
f 518/2/358 513/2/353 519/2/359
f 519/2/359 513/2/353 520/2/360
f 518/2/358 519/2/359 521/2/361
f 519/2/359 520/2/360 522/2/362
f 521/2/361 523/2/363 518/2/358
f 522/2/362 520/2/360 524/2/364
f 525/2/365 522/2/362 524/2/364
f 524/2/364 526/2/366 525/2/365
f 523/2/363 521/2/361 527/2/367
f 523/2/363 527/2/367 528/2/368
f 523/2/363 528/2/368 529/2/369
f 529/2/369 528/2/368 530/2/370
f 530/2/370 531/2/371 529/2/369
f 531/2/371 530/2/370 532/2/372
f 532/2/372 533/2/373 531/2/371
f 533/2/373 534/2/374 531/2/371
f 533/2/373 535/2/375 534/2/374
f 535/2/375 533/2/373 536/2/376
f 537/2/377 535/2/375 536/2/376
f 535/2/375 537/2/377 538/2/377
f 539/2/378 540/2/379 541/2/380
f 539/2/378 542/2/381 540/2/379
f 541/2/380 543/2/382 539/2/378
f 542/2/381 544/2/383 540/2/379
f 543/2/382 541/2/380 545/2/384
f 546/2/385 543/2/382 545/2/384
f 547/2/386 543/2/382 546/2/385
f 547/2/386 546/2/385 548/2/387
f 542/2/381 549/2/388 544/2/383
f 549/2/388 550/2/389 544/2/383
f 550/2/389 551/2/390 544/2/383
f 550/2/389 552/2/391 551/2/390
f 552/2/391 553/2/392 551/2/390
f 549/2/388 554/2/393 550/2/389
f 549/2/388 555/2/394 554/2/393
f 549/2/388 556/2/395 555/2/394
f 557/2/396 555/2/394 556/2/395
f 557/2/396 556/2/395 558/2/397
f 558/2/397 559/2/398 557/2/396
f 558/2/397 560/2/399 559/2/398
f 560/2/399 561/2/400 559/2/398
f 561/2/400 560/2/399 562/2/401
f 563/2/402 564/2/402 565/2/402
f 566/2/403 567/2/404 568/2/405
f 568/2/405 567/2/404 569/2/406
f 569/2/406 570/2/407 568/2/405
f 569/2/406 571/2/408 570/2/407
f 572/2/409 573/2/410 574/2/411
f 575/2/412 572/2/409 574/2/411
f 573/2/410 572/2/409 576/2/413
f 573/2/410 576/2/413 577/2/414
f 578/2/415 579/2/416 580/2/416
f 579/2/416 578/2/415 581/2/415
f 582/2/417 583/2/417 584/2/417
f 585/2/418 586/2/419 587/2/420
f 585/2/418 588/2/421 586/2/419
f 589/2/422 590/2/423 591/2/424
f 591/2/424 590/2/423 592/2/425
f 591/2/424 592/2/425 593/2/426
f 592/2/425 594/2/427 593/2/426
f 594/2/427 595/2/428 593/2/426
f 596/2/429 597/2/429 598/2/429
f 599/2/430 600/2/430 601/2/430
f 602/2/431 603/2/432 604/2/433
f 602/2/431 605/2/434 603/2/432
f 604/2/433 603/2/432 606/2/435
f 605/2/434 602/2/431 607/2/436
f 605/2/434 607/2/436 608/2/437
f 608/2/437 607/2/436 609/2/438
f 606/2/435 610/2/439 604/2/433
f 604/2/433 610/2/439 611/2/440
f 611/2/440 610/2/439 612/2/441
f 602/2/431 604/2/433 613/2/442
f 614/2/443 602/2/431 613/2/442
f 604/2/433 615/2/444 613/2/442
f 604/2/433 616/2/445 615/2/444
f 615/2/444 616/2/445 617/2/446
f 618/2/447 619/2/447 620/2/447
f 621/2/448 622/2/449 623/2/450
f 623/2/450 622/2/449 624/2/451
f 624/2/451 625/2/452 623/2/450
f 624/2/451 626/2/453 625/2/452
f 624/2/451 627/2/454 626/2/453
f 627/2/454 628/2/455 626/2/453
f 627/2/454 629/2/456 628/2/455
f 630/2/457 628/2/455 629/2/456
f 629/2/456 631/2/457 630/2/457
f 632/2/458 633/2/459 634/2/459
f 633/2/459 632/2/458 635/2/460
f 632/2/458 636/2/461 635/2/460
f 637/2/462 635/2/460 636/2/461
f 636/2/461 638/2/463 637/2/462
f 639/2/464 637/2/462 638/2/463
f 638/2/463 640/2/465 639/2/464
f 641/2/466 639/2/464 640/2/465
f 640/2/465 642/2/467 641/2/466
f 643/2/467 641/2/466 642/2/467
f 644/2/468 645/2/468 646/2/468
f 645/2/468 644/2/468 647/2/468
f 648/2/469 649/2/469 650/2/469
f 651/2/470 652/2/470 653/2/470
f 654/2/471 655/2/472 656/2/473
f 655/2/472 654/2/471 657/2/473
f 658/2/474 659/2/474 660/2/474
f 661/2/475 662/2/476 663/2/477
f 663/2/477 662/2/476 664/2/478
f 664/2/478 662/2/476 665/2/479
f 665/2/479 666/2/480 664/2/478
f 666/2/480 665/2/479 667/2/481
f 666/2/480 667/2/481 668/2/482
f 668/2/482 669/2/483 666/2/480
f 668/2/482 670/2/484 669/2/483
f 671/2/485 669/2/483 670/2/484
f 671/2/485 670/2/484 672/2/486
f 672/2/486 673/2/487 671/2/485
f 671/2/485 673/2/487 674/2/488
f 674/2/488 673/2/487 675/2/489
f 675/2/489 676/2/490 674/2/488
f 676/2/490 677/2/491 674/2/488
f 676/2/490 678/2/492 677/2/491
f 678/2/492 676/2/490 679/2/493
f 678/2/492 679/2/493 680/2/494
f 681/2/495 679/2/493 676/2/490
f 682/2/496 681/2/495 676/2/490
f 681/2/495 682/2/496 683/2/497
f 684/2/498 685/2/499 686/2/498
f 686/2/498 685/2/499 687/2/499
f 688/2/500 689/2/500 690/2/500
f 691/2/501 692/2/502 693/2/501
f 692/2/502 691/2/501 694/2/502
f 695/2/503 696/2/504 697/2/505
f 698/2/506 697/2/505 696/2/504
f 697/2/505 698/2/506 699/2/507
f 698/2/506 700/2/508 699/2/507
f 700/2/508 701/2/509 699/2/507
f 702/2/510 703/2/511 704/2/512
f 703/2/511 702/2/510 705/2/513
f 702/2/510 706/2/514 705/2/513
f 707/2/515 708/2/516 709/2/517
f 707/2/515 710/2/518 708/2/516
f 711/2/519 707/2/515 709/2/517
f 712/2/520 711/2/519 709/2/517
f 713/2/521 712/2/520 709/2/517
f 710/2/518 714/2/522 708/2/516
f 710/2/518 715/2/523 714/2/522
f 715/2/523 716/2/524 714/2/522
f 716/2/524 715/2/523 717/2/525
f 717/2/525 715/2/523 718/2/526
f 717/2/525 719/2/527 716/2/524
f 719/2/527 720/2/528 716/2/524
f 719/2/527 721/2/529 720/2/528
f 719/2/527 717/2/525 722/2/530
f 717/2/525 718/2/526 723/2/531
f 723/2/531 718/2/526 724/2/532
f 723/2/531 724/2/532 725/2/533
f 724/2/532 726/2/534 725/2/533
f 726/2/534 727/2/535 725/2/533
f 726/2/534 728/2/536 727/2/535
f 728/2/536 726/2/534 729/2/536
f 730/2/537 731/2/538 732/2/539
f 733/2/540 731/2/538 730/2/537
f 733/2/540 734/2/541 731/2/538
f 732/2/539 735/2/542 730/2/537
f 732/2/539 736/2/543 735/2/542
f 737/2/544 735/2/542 736/2/543
f 735/2/542 737/2/544 738/2/545
f 737/2/544 739/2/546 738/2/545
f 739/2/546 737/2/544 740/2/546
f 741/2/547 742/2/548 743/2/549
f 743/2/549 742/2/548 744/2/550
f 741/2/547 745/2/551 742/2/548
f 745/2/551 741/2/547 746/2/552
f 747/2/553 745/2/551 746/2/552
f 748/2/554 749/2/555 750/2/556
f 750/2/556 749/2/555 751/2/557
f 748/2/554 752/2/558 749/2/555
f 751/2/557 753/2/559 750/2/556
f 752/2/558 748/2/554 754/2/560
f 750/2/556 753/2/559 755/2/561
f 753/2/559 756/2/562 755/2/561
f 753/2/559 757/2/562 756/2/562
f 754/2/560 758/2/563 752/2/558
f 754/2/560 759/2/564 758/2/563
f 760/2/565 758/2/563 759/2/564
f 760/2/565 761/2/566 758/2/563
f 760/2/565 762/2/567 761/2/566
f 762/2/567 763/2/568 761/2/566
f 762/2/567 764/2/569 763/2/568
f 763/2/568 764/2/569 765/2/570
f 765/2/570 764/2/569 766/2/571
f 759/2/564 767/2/572 760/2/565
f 767/2/572 768/2/573 760/2/565
f 767/2/572 759/2/564 769/2/574
f 768/2/573 767/2/572 770/2/575
f 771/2/576 767/2/572 769/2/574
f 769/2/574 772/2/577 771/2/576
f 769/2/574 773/2/577 772/2/577
f 770/2/575 774/2/578 768/2/573
f 774/2/578 770/2/575 775/2/579
f 776/2/580 774/2/578 775/2/579
f 774/2/578 776/2/580 777/2/580
f 778/2/581 779/2/582 780/2/581
f 779/2/582 778/2/581 781/2/583
f 782/2/584 783/2/584 784/2/584
f 785/2/585 786/2/585 787/2/585
f 788/2/586 789/2/587 790/2/588
f 790/2/588 789/2/587 791/2/589
f 792/2/590 790/2/588 791/2/589
f 793/2/591 790/2/588 792/2/590
f 794/2/592 793/2/591 792/2/590
f 793/2/591 794/2/592 795/2/593
f 794/2/592 796/2/594 795/2/593
f 796/2/594 797/2/595 795/2/593
f 796/2/594 798/2/596 797/2/595
f 799/2/597 800/2/597 801/2/597
f 800/2/597 799/2/597 802/2/597
f 803/2/598 804/2/598 805/2/598
f 806/2/599 807/2/600 808/2/601
f 806/2/599 808/2/601 809/2/602
f 810/2/603 811/2/604 812/2/605
f 811/2/604 813/2/606 812/2/605
f 810/2/603 814/2/607 811/2/604
f 812/2/605 813/2/606 815/2/608
f 814/2/607 810/2/603 816/2/609
f 812/2/605 815/2/608 817/2/610
f 815/2/608 818/2/611 817/2/610
f 818/2/611 819/2/611 817/2/610
f 814/2/607 816/2/609 820/2/612
f 821/2/613 814/2/607 820/2/612
f 821/2/613 820/2/612 822/2/614
f 823/2/615 824/2/616 825/2/617
f 825/2/617 826/2/615 823/2/615
f 824/2/616 827/2/618 825/2/617
f 828/2/618 825/2/617 827/2/618
f 829/2/619 830/2/620 831/2/621
f 829/2/619 832/2/622 830/2/620
f 831/2/621 830/2/620 833/2/623
f 834/2/624 831/2/621 833/2/623
f 833/2/623 835/2/624 834/2/624
f 836/2/625 837/2/626 838/2/627
f 837/2/626 839/2/628 838/2/627
f 839/2/628 840/2/629 838/2/627
f 839/2/628 841/2/629 840/2/629
f 842/2/630 843/2/630 844/2/630
f 845/2/631 846/2/632 847/2/633
f 846/2/632 845/2/631 848/2/634
f 846/2/632 848/2/634 849/2/635
f 850/2/636 849/2/635 848/2/634
f 849/2/635 850/2/636 851/2/636
f 852/2/637 853/2/637 854/2/637
f 855/2/638 856/2/638 857/2/638
f 858/2/639 859/2/640 860/2/641
f 859/2/640 861/2/642 860/2/641
f 862/2/643 859/2/640 858/2/639
f 862/2/643 858/2/639 863/2/644
f 864/2/645 865/2/646 866/2/647
f 864/2/645 867/2/648 865/2/646
f 865/2/646 868/2/649 866/2/647
f 866/2/647 868/2/649 869/2/650
f 870/2/651 871/2/651 872/2/652
f 870/2/651 872/2/652 873/2/651
f 874/2/653 875/2/653 876/2/653
f 876/2/653 875/2/653 877/2/654
f 878/2/655 879/2/656 880/2/657
f 879/2/656 878/2/655 881/2/658
f 882/2/659 878/2/655 880/2/657
f 880/2/657 883/2/660 882/2/659
f 883/2/660 880/2/657 884/2/660
f 879/2/656 881/2/658 885/2/661
f 885/2/661 881/2/658 886/2/662
f 885/2/661 886/2/662 887/2/663
f 888/2/664 889/2/665 890/2/666
f 891/2/667 889/2/665 888/2/664
f 892/2/667 889/2/665 891/2/667
f 889/2/665 893/2/668 890/2/666
f 893/2/668 894/2/669 895/2/670
f 896/2/671 893/2/668 895/2/670
f 897/2/672 893/2/668 896/2/671
f 898/2/673 893/2/668 897/2/672
f 890/2/666 893/2/668 898/2/673
f 898/2/673 897/2/672 899/2/674
f 898/2/673 900/2/675 890/2/666
f 900/2/675 901/2/676 890/2/666
f 900/2/675 902/2/677 901/2/676
f 903/2/678 904/2/678 905/2/678
f 906/2/679 907/2/680 908/2/679
f 907/2/680 906/2/679 909/2/680
f 910/2/681 911/2/682 912/2/683
f 910/2/681 913/2/684 911/2/682
f 913/2/684 914/2/685 911/2/682
f 913/2/684 915/2/686 914/2/685
f 914/2/685 915/2/686 916/2/687
f 916/2/687 915/2/686 917/2/688
f 917/2/688 918/2/689 916/2/687
f 918/2/689 919/2/690 916/2/687
f 920/2/691 921/2/691 922/2/691
f 923/2/692 924/2/693 925/2/694
f 923/2/692 926/2/695 924/2/693
f 925/2/694 924/2/693 927/2/696
f 925/2/694 927/2/696 928/2/697
f 927/2/696 929/2/698 928/2/697
f 929/2/698 930/2/699 928/2/697
f 930/2/699 929/2/698 931/2/700
f 931/2/700 929/2/698 932/2/701
f 933/2/702 934/2/703 935/2/704
f 934/2/703 933/2/702 936/2/705
f 935/2/704 937/2/706 933/2/702
f 937/2/706 938/2/707 933/2/702
f 937/2/706 939/2/708 938/2/707
f 937/2/706 940/2/708 939/2/708
f 941/2/709 942/2/710 943/2/711
f 943/2/711 944/2/712 941/2/709
f 943/2/711 945/2/713 944/2/712
f 943/2/711 946/2/714 945/2/713
f 947/2/715 945/2/713 946/2/714
f 948/2/715 945/2/713 947/2/715
f 949/2/716 950/2/716 951/2/716
f 952/2/717 953/2/717 954/2/717
f 955/2/718 956/2/719 957/2/720
f 957/2/720 956/2/719 958/2/721
f 957/2/720 958/2/721 959/2/722
f 960/2/723 956/2/719 955/2/718
f 960/2/723 955/2/718 961/2/724
f 962/2/725 960/2/723 961/2/724
f 961/2/724 963/2/725 962/2/725
f 964/2/726 965/2/726 966/2/726
f 967/2/727 968/2/727 969/2/727
f 967/2/727 969/2/727 970/2/727
f 971/2/728 972/2/728 973/2/728
f 974/2/729 975/2/729 976/2/729
f 977/2/730 978/2/730 979/2/730
f 980/2/731 981/2/731 982/2/731
f 983/2/732 984/2/732 985/2/732
f 986/2/733 987/2/734 988/2/735
f 987/2/734 986/2/733 989/2/736
f 990/2/737 986/2/733 988/2/735
f 991/2/738 992/2/739 993/2/740
f 993/2/740 992/2/739 994/2/741
f 995/2/742 996/2/742 997/2/742
f 998/2/743 999/2/743 1000/2/743
f 1001/2/744 1002/2/745 1003/2/746
f 1001/2/744 1004/2/747 1002/2/745
f 1004/2/747 1005/2/748 1002/2/745
f 1004/2/747 1006/2/749 1005/2/748
f 1006/2/749 1007/2/750 1005/2/748
f 1008/2/751 1009/2/752 1010/2/751
f 1009/2/752 1008/2/751 1011/2/752
f 1012/2/753 1013/2/754 1014/2/755
f 1014/2/755 1013/2/754 1015/2/756
f 1016/2/757 1013/2/754 1012/2/753
f 1016/2/757 1012/2/753 1017/2/757
f 1018/2/758 1019/2/758 1020/2/758
f 1021/2/759 1022/2/759 1023/2/759
f 1022/2/759 1021/2/759 1024/2/759
f 1025/2/760 1026/2/761 1027/2/762
f 1027/2/762 1026/2/761 1028/2/763
f 1029/2/764 1030/2/765 1031/2/766
f 1032/2/767 1029/2/764 1031/2/766
f 1033/2/768 1034/2/769 1035/2/770
f 1033/2/768 1036/2/771 1034/2/769
f 1037/2/772 1033/2/768 1035/2/770
f 1038/2/773 1039/2/774 1040/2/775
f 1040/2/775 1039/2/774 1041/2/776
f 1042/2/777 1043/2/777 1044/2/777
f 1045/2/778 1046/2/778 1047/2/778
f 1048/2/779 1049/2/779 1050/2/779
f 1051/2/780 1052/2/780 1053/2/780
f 1054/2/781 1055/2/782 1056/2/783
f 1056/2/783 1055/2/782 1057/2/784
f 1058/2/785 1059/2/785 1060/2/785
f 1061/2/786 1062/2/786 1063/2/786
f 1064/2/787 1065/2/787 1066/2/787
f 1067/2/788 1068/2/788 1069/2/788
f 1070/2/789 1071/2/789 1072/2/789
f 1073/2/790 1074/2/790 1075/2/790
f 1076/2/791 1077/2/792 1078/2/793
f 1078/2/793 1077/2/792 1079/2/794
f 1080/2/795 1081/2/795 1082/2/795
f 1083/2/796 1084/2/797 1085/2/798
f 1086/2/799 1083/2/796 1085/2/798
f 1087/2/800 1088/2/801 1089/2/802
f 1088/2/801 1087/2/800 1090/2/800
f 1091/2/803 1089/2/802 1088/2/801
f 1089/2/802 1091/2/803 1092/2/803
f 1093/2/804 1094/2/805 1095/2/804
f 1094/2/805 1093/2/804 1096/2/806
f 1097/2/807 1094/2/805 1096/2/806
f 1097/2/807 1096/2/806 1098/2/807
f 1099/2/808 1100/2/808 1101/2/808
f 1101/2/808 1102/2/809 1099/2/808
f 1103/2/810 1104/2/810 1105/2/810
f 1106/2/811 1107/2/811 1108/2/811
f 1108/2/811 1109/2/811 1106/2/811
f 1110/2/812 1111/2/813 1112/2/812
f 1113/2/813 1112/2/812 1111/2/813
f 1114/2/814 1115/2/815 1116/2/816
f 1117/2/817 1114/2/814 1116/2/816
f 1117/2/817 1116/2/816 1118/2/817
f 1119/2/818 1120/2/818 1121/2/818
f 1120/2/818 1122/2/818 1121/2/818
f 1123/2/819 1124/2/820 1125/2/821
f 1123/2/819 1126/2/822 1124/2/820
f 1127/2/823 1124/2/820 1126/2/822
f 1128/2/824 1129/2/825 1130/2/826
f 1128/2/824 1130/2/826 1131/2/827
f 1131/2/827 1130/2/826 1132/2/828
f 1132/2/828 1130/2/826 1133/2/829
f 1134/2/830 1135/2/831 1136/2/832
f 1136/2/832 1137/2/830 1134/2/830
f 1138/2/833 1139/2/834 1140/2/835
f 1141/2/836 1139/2/834 1138/2/833
f 1140/2/835 1142/2/837 1138/2/833
f 1142/2/837 1143/2/838 1138/2/833
f 1144/2/839 1145/2/840 1146/2/841
f 1144/2/839 1147/2/842 1145/2/840
f 1148/2/843 1149/2/843 1150/2/843
