o scope_noir
usemtl Meshpart1Mtl.012
v -0.830590009689331 0.08495199680328369 -0.030439000576734543
v -0.8312649726867676 0.0956680029630661 0.00013600000238511711
v -0.8242520093917847 0.10644199699163437 -0.021549999713897705
v -0.8242520093917847 0.10644199699163437 -0.021549999713897705
v -0.8312649726867676 0.0956680029630661 0.00013600000238511711
v -0.8243039846420288 0.11527200043201447 0.00013600000238511711
v -0.8312649726867676 0.0956680029630661 0.00013600000238511711
v -0.830590009689331 0.08495199680328369 -0.030439000576734543
v -0.8312649726867676 0.08328700065612793 -0.02974499948322773
v -0.8312649726867676 0.0956680029630661 0.00013600000238511711
v -0.8243039846420288 0.10644199699163437 0.021449999883770943
v -0.8243039846420288 0.11527200043201447 0.00013600000238511711
v -0.8312649726867676 0.0956680029630661 0.00013600000238511711
v -0.8306419849395752 0.08495199680328369 0.030339999124407768
v -0.8243039846420288 0.10644199699163437 0.021449999883770943
v -0.8306419849395752 0.08495199680328369 0.030339999124407768
v -0.8312649726867676 0.0956680029630661 0.00013600000238511711
v -0.8312649726867676 0.08341000229120255 0.02974800020456314
v -0.8312649726867676 0.06345699727535248 -0.021549999713897705
v -0.8312649726867676 0.0956680029630661 0.00013600000238511711
v -0.8312649726867676 0.08328700065612793 -0.02974499948322773
v -0.8312649726867676 0.0956680029630661 0.00013600000238511711
v -0.8312649726867676 0.06345699727535248 0.021449999883770943
v -0.8312649726867676 0.08341000229120255 0.02974800020456314
v -0.8312649726867676 0.0956680029630661 0.00013600000238511711
v -0.8312649726867676 0.06345699727535248 -0.021549999713897705
v -0.8312649726867676 0.06345699727535248 0.021449999883770943
v -0.8312649726867676 0.06345699727535248 -0.021549999713897705
v -0.8312649726867676 0.003470999887213111 0.00013600000238511711
v -0.8312649726867676 0.06345699727535248 0.021449999883770943
v -0.8312649726867676 0.06345699727535248 0.021449999883770943
v -0.8312649726867676 0.003470999887213111 0.00013600000238511711
v -0.8312649726867676 0.016815999522805214 0.03237500041723251
v -0.8312649726867676 0.003470999887213111 0.00013600000238511711
v -0.8312649726867676 0.06345699727535248 -0.021549999713897705
v -0.8312649726867676 0.01697699911892414 -0.03247400000691414
v -0.8312649726867676 0.003470999887213111 0.00013600000238511711
v -0.8243039846420288 -0.0009619999909773469 0.03649799898266792
v -0.8312649726867676 0.016815999522805214 0.03237500041723251
v -0.8242520093917847 -0.0009619999909773469 -0.03659699857234955
v -0.8312649726867676 0.003470999887213111 0.00013600000238511711
v -0.8312649726867676 0.01697699911892414 -0.03247400000691414
v -0.8243039846420288 -0.0009619999909773469 0.03649799898266792
v -0.8312649726867676 0.003470999887213111 0.00013600000238511711
v -0.8297070264816284 -0.0009619999909773469 0.00013600000238511711
v -0.8312649726867676 0.003470999887213111 0.00013600000238511711
v -0.8242520093917847 -0.0009619999909773469 -0.03659699857234955
v -0.8297070264816284 -0.0009619999909773469 0.00013600000238511711
v 0.9890369772911072 0.10068599879741669 0.00013600000238511711
v 0.9839959740638733 0.10644199699163437 0.021449999883770943
v 0.9890369772911072 0.08882900327444077 0.028730999678373337
v 0.9839959740638733 0.10644199699163437 0.021449999883770943
v 0.9890369772911072 0.10068599879741669 0.00013600000238511711
v 0.9839959740638733 0.11527200043201447 0.00013600000238511711
v 0.9890369772911072 0.10068599879741669 0.00013600000238511711
v 0.9839460253715515 0.10644199699163437 -0.021549999713897705
v 0.9839959740638733 0.11527200043201447 0.00013600000238511711
v 0.9839460253715515 0.10644199699163437 -0.021549999713897705
v 0.9890369772911072 0.10068599879741669 0.00013600000238511711
v 0.9890369772911072 0.08865799754858017 -0.028886999934911728
v 0.9890369772911072 0.10068599879741669 0.00013600000238511711
v 0.9890369772911072 0.06345699727535248 -0.021549999713897705
v 0.9890369772911072 0.08865799754858017 -0.028886999934911728
v 0.9890369772911072 0.08865799754858017 -0.028886999934911728
v 0.9890369772911072 0.06345699727535248 -0.021549999713897705
v 0.9890369772911072 0.08495199680328369 -0.030439000576734543
v 0.9890369772911072 0.08882900327444077 0.028730999678373337
v 0.9890369772911072 0.06345699727535248 0.021449999883770943
v 0.9890369772911072 0.10068599879741669 0.00013600000238511711
v 0.9890369772911072 0.10068599879741669 0.00013600000238511711
v 0.9890369772911072 0.06345699727535248 0.021449999883770943
v 0.9890369772911072 0.06345699727535248 -0.021549999713897705
v 0.9890369772911072 0.06345699727535248 0.021449999883770943
v 0.9890369772911072 0.08882900327444077 0.028730999678373337
v 0.9890369772911072 0.08495199680328369 0.030339999124407768
v 0.9890369772911072 -0.0009619999909773469 -0.0012570000253617764
v 0.9890369772911072 0.06345699727535248 -0.021549999713897705
v 0.9890369772911072 0.06345699727535248 0.021449999883770943
v 0.9890369772911072 0.06345699727535248 -0.021549999713897705
v 0.9890369772911072 -0.0009619999909773469 -0.0012570000253617764
v 0.9890369772911072 0.012372000142931938 -0.033438000828027725
v 0.9890369772911072 -0.0009619999909773469 -0.0012570000253617764
v 0.9839460253715515 -0.0009619999909773469 -0.03659699857234955
v 0.9890369772911072 0.012372000142931938 -0.033438000828027725
v 0.9890369772911072 0.06345699727535248 0.021449999883770943
v 0.9890369772911072 -0.0009619999909773469 0.0015300000086426735
v 0.9890369772911072 -0.0009619999909773469 -0.0012570000253617764
v 0.9890369772911072 -0.0009619999909773469 0.0015300000086426735
v 0.9890369772911072 0.06345699727535248 0.021449999883770943
v 0.9890369772911072 0.012241999618709087 0.03339200094342232
v 0.9890369772911072 0.012241999618709087 0.03339200094342232
v 0.9839959740638733 -0.0009619999909773469 0.03649799898266792
v 0.9890369772911072 -0.0009619999909773469 0.0015300000086426735
vt 1.804819941520691 -0.5991050004959106
vt 1.8119499683380127 -0.5966029763221741
vt 1.8069000244140625 -0.5940880179405212
vt 1.8069000244140625 -0.5940880179405212
vt 1.8119499683380127 -0.5966029763221741
vt 1.8119499683380127 -0.5920259952545166
vt 1.8119499683380127 -0.5966029763221741
vt 1.804819941520691 -0.5991050004959106
vt 1.8049800395965576 -0.5994920134544373
vt 1.8119499683380127 -0.5966029763221741
vt 1.8169300556182861 -0.5940880179405212
vt 1.8119499683380127 -0.5920259952545166
vt 1.8119499683380127 -0.5966029763221741
vt 1.8190100193023682 -0.5991050004959106
vt 1.8169300556182861 -0.5940880179405212
vt 1.8190100193023682 -0.5991050004959106
vt 1.8119499683380127 -0.5966029763221741
vt 1.8188600540161133 -0.5994639992713928
vt 1.8069000244140625 -0.6041219830513
vt 1.8119499683380127 -0.5966029763221741
vt 1.8049800395965576 -0.5994920134544373
vt 1.8119499683380127 -0.5966029763221741
vt 1.8169300556182861 -0.6041219830513
vt 1.8188600540161133 -0.5994639992713928
vt 1.8119499683380127 -0.5966029763221741
vt 1.8069000244140625 -0.6041219830513
vt 1.8169300556182861 -0.6041219830513
vt 1.8069000244140625 -0.6041219830513
vt 1.8119499683380127 -0.6181240081787109
vt 1.8169300556182861 -0.6041219830513
vt 1.8169300556182861 -0.6041219830513
vt 1.8119499683380127 -0.6181240081787109
vt 1.8194700479507446 -0.6150090098381042
vt 1.8119499683380127 -0.6181240081787109
vt 1.8069000244140625 -0.6041219830513
vt 1.8043400049209595 -0.6149719953536987
vt 1.8119499683380127 -0.6181240081787109
vt 1.8204400539398193 -0.6191589832305908
vt 1.8194700479507446 -0.6150090098381042
vt 1.803380012512207 -0.6191589832305908
vt 1.8119499683380127 -0.6181240081787109
vt 1.8043400049209595 -0.6149719953536987
vt 1.8204400539398193 -0.6191589832305908
vt 1.8119499683380127 -0.6181240081787109
vt 1.8119499683380127 -0.6191589832305908
vt 1.8119499683380127 -0.6181240081787109
vt 1.803380012512207 -0.6191589832305908
vt 1.8119499683380127 -0.6191589832305908
vt 1.8118699789047241 -0.5954319834709167
vt 1.8069000244140625 -0.5940880179405212
vt 1.8051899671554565 -0.5981990098953247
vt 1.8069000244140625 -0.5940880179405212
vt 1.8118699789047241 -0.5954319834709167
vt 1.8118699789047241 -0.5920259952545166
vt 1.8118699789047241 -0.5954319834709167
vt 1.8169300556182861 -0.5940880179405212
vt 1.8118699789047241 -0.5920259952545166
vt 1.8169300556182861 -0.5940880179405212
vt 1.8118699789047241 -0.5954319834709167
vt 1.8186500072479248 -0.598239004611969
vt 1.8118699789047241 -0.5954319834709167
vt 1.8169300556182861 -0.6041219830513
vt 1.8186500072479248 -0.598239004611969
vt 1.8186500072479248 -0.598239004611969
vt 1.8169300556182861 -0.6041219830513
vt 1.8190100193023682 -0.5991050004959106
vt 1.8051899671554565 -0.5981990098953247
vt 1.8069000244140625 -0.6041219830513
vt 1.8118699789047241 -0.5954319834709167
vt 1.8118699789047241 -0.5954319834709167
vt 1.8069000244140625 -0.6041219830513
vt 1.8169300556182861 -0.6041219830513
vt 1.8069000244140625 -0.6041219830513
vt 1.8051899671554565 -0.5981990098953247
vt 1.804819941520691 -0.5991050004959106
vt 1.8121999502182007 -0.619159996509552
vt 1.8169300556182861 -0.6041219830513
vt 1.8069000244140625 -0.6041219830513
vt 1.8169300556182861 -0.6041219830513
vt 1.8121999502182007 -0.619159996509552
vt 1.8197200298309326 -0.6160470247268677
vt 1.8121999502182007 -0.619159996509552
vt 1.8204400539398193 -0.619159996509552
vt 1.8197200298309326 -0.6160470247268677
vt 1.8069000244140625 -0.6041219830513
vt 1.8115500211715698 -0.619159996509552
vt 1.8121999502182007 -0.619159996509552
vt 1.8115500211715698 -0.619159996509552
vt 1.8069000244140625 -0.6041219830513
vt 1.8041000366210938 -0.6160770058631897
vt 1.8041000366210938 -0.6160770058631897
vt 1.803380012512207 -0.619159996509552
vt 1.8115500211715698 -0.619159996509552
vn -0.9337777320780809 0.3300921344915077 -0.13819670698665798
vn -0.9784244027778545 0.20660515010231137 0
vn -0.9337161605255581 0.33030571126601216 -0.13810238476747666
vn -0.9337161605255581 0.33030571126601216 -0.13810238476747666
vn -0.9784244027778545 0.20660515010231137 0
vn -0.9412590597028778 0.3376853306367544 0
vn -0.9784244027778545 0.20660515010231137 0
vn -0.9337777320780809 0.3300921344915077 -0.13819670698665798
vn -0.979935489020695 0.18400666381672193 -0.07660277428925696
vn -0.9784244027778545 0.20660515010231137 0
vn -0.9337777320780809 0.3300921344915077 0.13819670698665798
vn -0.9412590597028778 0.3376853306367544 0
vn -0.9784244027778545 0.20660515010231137 0
vn -0.9337598092066992 0.33018578121382 0.13809405705709368
vn -0.9337777320780809 0.3300921344915077 0.13819670698665798
vn -0.9337598092066992 0.33018578121382 0.13809405705709368
vn -0.9784244027778545 0.20660515010231137 0
vn -0.979909940818566 0.18410186922891594 0.07670077986157361
vn -1 0 0
vn -0.9784244027778545 0.20660515010231137 0
vn -0.979935489020695 0.18400666381672193 -0.07660277428925696
vn -0.9784244027778545 0.20660515010231137 0
vn -1 0 0
vn -0.979909940818566 0.18410186922891594 0.07670077986157361
vn -0.9784244027778545 0.20660515010231137 0
vn -1 0 0
vn -1 0 0
vn -1 0 0
vn -0.9783839545188541 -0.2067966091115837 0
vn -1 0 0
vn -1 0 0
vn -0.9783839545188541 -0.2067966091115837 0
vn -0.9846408136212853 -0.1605066567026878 0.06870284786920189
vn -0.9783839545188541 -0.2067966091115837 0
vn -1 0 0
vn -0.9846408136212853 -0.1605066567026878 -0.06870284786920189
vn -0.9783839545188541 -0.2067966091115837 0
vn -0.9337777320780809 -0.3300921344915077 0.13819670698665798
vn -0.9846408136212853 -0.1605066567026878 0.06870284786920189
vn -0.9337777320780809 -0.3300921344915077 -0.13819670698665798
vn -0.9783839545188541 -0.2067966091115837 0
vn -0.9846408136212853 -0.1605066567026878 -0.06870284786920189
vn -0.9337777320780809 -0.3300921344915077 0.13819670698665798
vn -0.9783839545188541 -0.2067966091115837 0
vn -0.9412590597028778 -0.3376853306367544 0
vn -0.9783839545188541 -0.2067966091115837 0
vn -0.9337777320780809 -0.3300921344915077 -0.13819670698665798
vn -0.9412590597028778 -0.3376853306367544 0
vn 0.979917458885886 0.19940354503024296 0
vn 0.9361357181733412 0.32321231744081513 0.13850528876046753
vn 0.9956994575703482 0.08439995206374065 0.03819997756220438
vn 0.9361357181733412 0.32321231744081513 0.13850528876046753
vn 0.979917458885886 0.19940354503024296 0
vn 0.9445345733462188 0.3284119969697762 0
vn 0.979917458885886 0.19940354503024296 0
vn 0.9370716175980591 0.3235901954908298 -0.13109602920898625
vn 0.9445345733462188 0.3284119969697762 0
vn 0.9370716175980591 0.3235901954908298 -0.13109602920898625
vn 0.979917458885886 0.19940354503024296 0
vn 0.995695648981539 0.0843996292306704 -0.03829983270142885
vn 0.979917458885886 0.19940354503024296 0
vn 1 0 0
vn 0.995695648981539 0.0843996292306704 -0.03829983270142885
vn 0.995695648981539 0.0843996292306704 -0.03829983270142885
vn 1 0 0
vn 1 0 0
vn 0.9956994575703482 0.08439995206374065 0.03819997756220438
vn 1 0 0
vn 0.979917458885886 0.19940354503024296 0
vn 0.979917458885886 0.19940354503024296 0
vn 1 0 0
vn 1 0 0
vn 1 0 0
vn 0.9956994575703482 0.08439995206374065 0.03819997756220438
vn 1 0 0
vn 0.9991545794980226 -0.038198262503793615 -0.015199309517899268
vn 1 0 0
vn 1 0 0
vn 1 0 0
vn 0.9991545794980226 -0.038198262503793615 -0.015199309517899268
vn 0.9858275651808761 -0.1530042710402155 -0.06880192419546083
vn 0.9991545794980226 -0.038198262503793615 -0.015199309517899268
vn 0.9370838976269886 -0.3235944360386036 -0.13099774720608612
vn 0.9858275651808761 -0.1530042710402155 -0.06880192419546083
vn 1 0 0
vn 0.9991568672869662 -0.03809835631509979 0.01529933983489871
vn 0.9991545794980226 -0.038198262503793615 -0.015199309517899268
vn 0.9991568672869662 -0.03809835631509979 0.01529933983489871
vn 1 0 0
vn 0.9863074023149773 -0.15310114917068268 0.061300458899571544
vn 0.9863074023149773 -0.15310114917068268 0.061300458899571544
vn 0.9361357181733412 -0.32321231744081513 0.13850528876046753
vn 0.9991568672869662 -0.03809835631509979 0.01529933983489871
f 1/1/1 2/2/2 3/3/3
f 4/4/4 5/5/5 6/6/6
f 7/7/7 8/8/8 9/9/9
f 10/10/10 11/11/11 12/12/12
f 13/13/13 14/14/14 15/15/15
f 16/16/16 17/17/17 18/18/18
f 19/19/19 20/20/20 21/21/21
f 22/22/22 23/23/23 24/24/24
f 25/25/25 26/26/26 27/27/27
f 28/28/28 29/29/29 30/30/30
f 31/31/31 32/32/32 33/33/33
f 34/34/34 35/35/35 36/36/36
f 37/37/37 38/38/38 39/39/39
f 40/40/40 41/41/41 42/42/42
f 43/43/43 44/44/44 45/45/45
f 46/46/46 47/47/47 48/48/48
f 49/49/49 50/50/50 51/51/51
f 52/52/52 53/53/53 54/54/54
f 55/55/55 56/56/56 57/57/57
f 58/58/58 59/59/59 60/60/60
f 61/61/61 62/62/62 63/63/63
f 64/64/64 65/65/65 66/66/66
f 67/67/67 68/68/68 69/69/69
f 70/70/70 71/71/71 72/72/72
f 73/73/73 74/74/74 75/75/75
f 76/76/76 77/77/77 78/78/78
f 79/79/79 80/80/80 81/81/81
f 82/82/82 83/83/83 84/84/84
f 85/85/85 86/86/86 87/87/87
f 88/88/88 89/89/89 90/90/90
f 91/91/91 92/92/92 93/93/93
